<svg width="108" height="109" viewBox="0 0 108 109" fill="none" xmlns="http://www.w3.org/2000/svg">
<path d="M53.9383 108.069C83.673 108.069 107.821 83.921 107.821 54.1862C107.821 24.4514 83.673 0.303589 53.9383 0.303589C24.2035 0.303589 0.0556641 24.4514 0.0556641 54.1862C0.0556641 83.9831 24.2035 108.069 53.9383 108.069Z" fill="#FFD525"/>
<g clip-path="url(#clip0_4702_28468)">
<path d="M53.9004 25.0972C54.6594 25.0972 55.3426 24.7936 55.7981 24.3382L55.874 24.2623C56.4053 23.7309 56.7089 23.0477 56.7089 22.2887C56.7089 21.5296 56.4053 20.8464 55.874 20.3151C55.3426 19.7837 54.6594 19.4801 53.9004 19.4801C53.1413 19.4801 52.4581 19.7837 51.9268 20.3151C51.3954 20.8464 51.0918 21.5296 51.0918 22.2887C51.0918 23.0477 51.3954 23.7309 51.9268 24.2623C52.4581 24.7936 53.1413 25.0972 53.9004 25.0972Z" fill="white"/>
<path d="M89.1977 42.1764C88.3627 41.3414 87.2241 40.8101 85.9337 40.8101H78.9502L60.4288 21.5296C60.277 20.0115 59.5939 18.721 58.5312 17.6583C57.3166 16.4438 55.7226 15.7607 53.9008 15.7607C52.079 15.7607 50.4091 16.5197 49.2705 17.6583C48.2837 18.6451 47.6005 20.0115 47.3728 21.5296L28.8514 40.8101H21.9438C20.6534 40.8101 19.5148 41.3414 18.6798 42.1764C17.8448 43.0114 17.3135 44.15 17.3135 45.4404V77.7769C17.3135 79.0674 17.8448 80.206 18.6798 81.0409C19.5148 81.8759 20.6534 82.4073 21.9438 82.4073H85.9337C87.2241 82.4073 88.3627 81.8759 89.1977 81.0409C90.0327 80.206 90.564 79.0674 90.564 77.7769V45.4404C90.564 44.15 90.0327 43.0114 89.1977 42.1764ZM51.9272 20.3151C52.4586 19.7837 53.1417 19.4801 53.9008 19.4801C54.6599 19.4801 55.343 19.7837 55.8744 20.3151C56.4057 20.8464 56.7094 21.5296 56.7094 22.2887C56.7094 23.0478 56.4057 23.7309 55.8744 24.2623L55.7985 24.3382C55.2671 24.7936 54.6599 25.0973 53.9008 25.0973C53.1417 25.0973 52.4586 24.7936 51.9272 24.2623C51.3959 23.7309 51.0922 23.0478 51.0922 22.2887C51.0922 21.5296 51.3959 20.8464 51.9272 20.3151ZM48.3596 25.9322C48.5873 26.3118 48.8909 26.6913 49.1946 26.9949C50.4091 28.2095 52.0031 28.8926 53.8249 28.8926C55.6467 28.8926 57.1648 28.2095 58.3793 27.0708C58.4552 27.0708 58.4552 26.9949 58.5312 26.9949C58.8348 26.6913 59.1384 26.3118 59.3661 25.9322L73.7126 40.8101H34.089L48.3596 25.9322ZM86.7687 77.7769C86.7687 78.0047 86.6928 78.2324 86.5409 78.3842C86.3891 78.536 86.1614 78.6119 85.9337 78.6119H21.8679C21.6402 78.6119 21.4125 78.536 21.2607 78.3842C21.1088 78.2324 21.0329 78.0047 21.0329 77.7769V45.4404C21.0329 45.2127 21.1088 44.985 21.2607 44.8332C21.4125 44.6813 21.6402 44.6054 21.8679 44.6054H85.8578C86.0855 44.6054 86.3132 44.6813 86.465 44.8332C86.6169 44.985 86.6928 45.2127 86.6928 45.4404V77.7769H86.7687Z" fill="#27385A"/>
<path d="M86.4653 44.8332C86.3135 44.6813 86.0858 44.6054 85.858 44.6054H21.8682C21.6405 44.6054 21.4127 44.6813 21.2609 44.8332C21.185 44.985 21.0332 45.2127 21.0332 45.4404V77.7769C21.0332 78.0047 21.1091 78.2324 21.2609 78.3842C21.4127 78.536 21.6405 78.6119 21.8682 78.6119H85.858C86.0858 78.6119 86.3135 78.536 86.4653 78.3842C86.6171 78.2324 86.693 78.0047 86.693 77.7769V45.4404C86.693 45.2127 86.6171 44.985 86.4653 44.8332Z" fill="#83BB26"/>
<path d="M32.4933 50.1049C32.4933 50.3251 32.4136 50.5414 32.258 50.7501C32.0891 50.9703 31.8746 51.0803 31.6127 51.0803C31.4344 51.0803 31.256 51.0329 31.0776 50.938C30.5633 50.697 30.0073 50.5774 29.4076 50.5774C28.6732 50.5774 28.0318 50.7312 27.4872 51.0405C26.9425 51.3498 26.5213 51.7863 26.2271 52.348C25.933 52.9097 25.7869 53.553 25.7869 54.276C25.7869 55.5152 26.1208 56.4546 26.7869 57.096C27.4549 57.7374 28.3279 58.0562 29.4095 58.0562C30.051 58.0562 30.607 57.9367 31.0795 57.6957C31.2693 57.6103 31.4363 57.5685 31.5843 57.5685C31.8575 57.5685 32.0872 57.6843 32.2769 57.9158C32.4344 58.115 32.5141 58.3295 32.5141 58.561C32.5141 58.728 32.4724 58.8817 32.387 59.0164C32.3016 59.1512 32.182 59.2574 32.0245 59.3315C31.2047 59.7395 30.3337 59.9444 29.4095 59.9444C28.381 59.9444 27.4359 59.7262 26.5744 59.2916C25.7128 58.8551 25.0259 58.2118 24.5116 57.3636C23.9973 56.5134 23.7393 55.483 23.7393 54.276C23.7393 53.2057 23.9841 52.2455 24.4718 51.3935C24.9595 50.5433 25.635 49.8791 26.4947 49.4028C27.3543 48.9246 28.326 48.6855 29.4076 48.6855C30.3413 48.6855 31.2085 48.8904 32.0056 49.2984C32.332 49.4654 32.4933 49.7349 32.4933 50.1011V50.1049Z" fill="white"/>
<path d="M43.6112 57.1339C43.1501 58.0012 42.5105 58.6862 41.6983 59.1891C40.8842 59.692 39.9676 59.9444 38.9505 59.9444C37.9333 59.9444 37.0167 59.692 36.2026 59.1891C35.3885 58.6862 34.7547 57.9993 34.2974 57.1339C33.84 56.2686 33.6123 55.3159 33.6123 54.276C33.6123 53.2361 33.84 52.2853 34.2974 51.4181C34.7547 50.5509 35.3885 49.8677 36.2026 49.3629C37.0167 48.86 37.9314 48.6076 38.9505 48.6076C39.9695 48.6076 40.8842 48.8581 41.6983 49.3629C42.5124 49.8677 43.1501 50.5528 43.6112 51.4181C44.0723 52.2834 44.3039 53.2361 44.3039 54.276C44.3039 55.3159 44.0723 56.2686 43.6112 57.1339ZM41.8312 52.3632C41.5465 51.7919 41.1537 51.3384 40.6508 51.0006C40.146 50.6647 39.5786 50.4977 38.9486 50.4977C38.3186 50.4977 37.7379 50.6628 37.2407 50.993C36.7416 51.3232 36.3526 51.7787 36.0755 52.3556C35.7965 52.9344 35.658 53.5739 35.658 54.276C35.658 54.9782 35.7965 55.6196 36.0755 56.1965C36.3545 56.7753 36.7416 57.2288 37.2407 57.559C37.7398 57.8892 38.3091 58.0543 38.9486 58.0543C39.5881 58.0543 40.146 57.8873 40.6508 57.5514C41.1537 57.2155 41.5484 56.762 41.8312 56.1889C42.1139 55.6177 42.2563 54.9782 42.2563 54.276C42.2563 53.5739 42.1139 52.9363 41.8312 52.3632Z" fill="white"/>
<path d="M56.36 49.0251C56.5535 49.2092 56.6522 49.4369 56.6522 49.7102V58.8267C56.6522 59.1018 56.563 59.3295 56.3846 59.5117C56.2062 59.6958 55.969 59.7869 55.6768 59.7869C55.3846 59.7869 55.1435 59.6977 54.9595 59.5193C54.7754 59.3409 54.6843 59.1113 54.6843 58.8267V52.4808L52.0864 56.4508C51.982 56.576 51.8606 56.6785 51.7239 56.7582C51.5873 56.836 51.445 56.8701 51.2988 56.8588C51.1622 56.8701 51.0256 56.836 50.8889 56.7582C50.7523 56.6785 50.6309 56.576 50.5265 56.4508L47.9286 52.3404V58.8286C47.9286 59.1132 47.8451 59.3428 47.6762 59.5212C47.5073 59.6996 47.2871 59.7888 47.0158 59.7888C46.7444 59.7888 46.5376 59.6958 46.3706 59.5136C46.2036 59.3314 46.1182 59.1018 46.1182 58.8286V49.7121C46.1182 49.4502 46.2149 49.2244 46.4104 49.0346C46.604 48.8467 46.8374 48.7519 47.1107 48.7519C47.2682 48.7519 47.4257 48.7917 47.5832 48.8695C47.7407 48.9492 47.8621 49.0517 47.9456 49.1769L51.3785 54.4525L54.9063 49.1769C54.9898 49.0517 55.1037 48.9492 55.2441 48.8695C55.3864 48.7917 55.5307 48.7519 55.6768 48.7519C55.9387 48.7519 56.1683 48.8448 56.3619 49.027L56.36 49.0251Z" fill="white"/>
<path d="M60.6808 59.5136C60.4815 59.6977 60.25 59.7888 59.9881 59.7888C59.7053 59.7888 59.4719 59.6958 59.2879 59.5136C59.1038 59.3315 59.0127 59.1018 59.0127 58.8286V49.7273C59.0127 49.454 59.1076 49.2263 59.2973 49.0422C59.4852 48.8582 59.7281 48.7671 60.0223 48.7671C60.2841 48.7671 60.51 48.86 60.6997 49.0422C60.8895 49.2263 60.9825 49.454 60.9825 49.7273V58.8286C60.9825 59.1037 60.8819 59.3315 60.6827 59.5136H60.6808Z" fill="white"/>
<path d="M72.3198 49.0175C72.4773 49.1845 72.5551 49.3952 72.5551 49.6476V58.8267C72.5551 59.1018 72.464 59.3295 72.2799 59.5117C72.0959 59.6939 71.8681 59.7869 71.5949 59.7869C71.4469 59.7869 71.3026 59.7641 71.1622 59.7167C71.0218 59.6692 70.9174 59.6047 70.8548 59.5193L65.0763 52.181V58.9045C65.0763 59.155 64.9947 59.3656 64.8315 59.5345C64.6683 59.7034 64.4558 59.7869 64.1939 59.7869C63.932 59.7869 63.7385 59.7034 63.581 59.5345C63.4235 59.3675 63.3438 59.1569 63.3438 58.9045V49.7235C63.3438 49.4502 63.4348 49.2225 63.6189 49.0384C63.803 48.8543 64.0307 48.7632 64.304 48.7632C64.4615 48.7632 64.6171 48.7955 64.7689 48.8581C64.9207 48.9208 65.0346 49.0061 65.1086 49.1105L70.8396 56.4166V49.6457C70.8396 49.3933 70.9212 49.1826 71.0844 49.0156C71.2476 48.8486 71.4544 48.7632 71.7068 48.7632C71.9592 48.7632 72.1642 48.8486 72.3217 49.0156L72.3198 49.0175Z" fill="white"/>
<path d="M83.7209 54.1109C83.8993 54.295 83.9884 54.5227 83.9884 54.796V58.134C83.9884 58.5022 83.8252 58.7849 83.5007 58.9842C82.4722 59.6256 81.3431 59.9463 80.1153 59.9463C79.0753 59.9463 78.1151 59.692 77.2346 59.1815C76.3541 58.671 75.6538 57.9841 75.1395 57.1187C74.6253 56.2534 74.3672 55.3046 74.3672 54.276C74.3672 53.2475 74.6234 52.3005 75.1395 51.4333C75.6557 50.566 76.3522 49.8791 77.2346 49.3705C78.117 48.8619 79.0772 48.6076 80.1153 48.6076C81.1533 48.6076 82.0566 48.8164 82.8233 49.2377C82.9808 49.3231 83.0984 49.4331 83.1781 49.5679C83.2578 49.7045 83.2958 49.8506 83.2958 50.0081C83.2958 50.27 83.2085 50.4996 83.0358 50.6932C82.8631 50.8868 82.6506 50.9835 82.3982 50.9835C82.2407 50.9835 82.068 50.9418 81.8782 50.8583C81.3108 50.6154 80.7225 50.4958 80.1134 50.4958C79.4416 50.4958 78.823 50.6666 78.2555 51.0063C77.69 51.3479 77.2403 51.8071 76.9101 52.3859C76.5799 52.9628 76.4148 53.5928 76.4148 54.2741C76.4148 54.9554 76.5799 55.5873 76.9101 56.1642C77.2403 56.7411 77.69 57.2003 78.2555 57.5419C78.823 57.8835 79.4416 58.0524 80.1134 58.0524C80.4075 58.0524 80.7225 58.0258 81.0584 57.9746C81.3943 57.9215 81.6884 57.855 81.9408 57.7696V55.7221H80.4607C80.1874 55.7221 79.9597 55.6329 79.7756 55.4545C79.5915 55.2761 79.5004 55.0503 79.5004 54.777C79.5004 54.5037 79.5915 54.2779 79.7756 54.0995C79.9597 53.9211 80.1874 53.832 80.4607 53.832H83.0434C83.3167 53.832 83.5425 53.9249 83.7209 54.1071V54.1109Z" fill="white"/>
<path d="M34.1707 74.3251C33.5825 74.1353 33.0321 73.8146 32.5179 73.3629C32.2332 73.1124 32.0928 72.8335 32.0928 72.528C32.0928 72.287 32.182 72.0744 32.3603 71.8903C32.5387 71.7063 32.7532 71.6152 33.0056 71.6152C33.2048 71.6152 33.3832 71.6778 33.5407 71.8049C33.9601 72.1503 34.37 72.4027 34.7685 72.5602C35.167 72.7177 35.6395 72.7974 36.1861 72.7974C36.7744 72.7974 37.281 72.6646 37.7061 72.4046C38.1312 72.1427 38.3437 71.8163 38.3437 71.4273C38.3437 70.9548 38.1331 70.5847 37.7137 70.3153C37.2924 70.0496 36.6263 69.8465 35.7136 69.7099C33.4136 69.374 32.2636 68.3037 32.2636 66.499C32.2636 65.8367 32.4382 65.2617 32.7835 64.774C33.1308 64.2863 33.6033 63.9125 34.2011 63.6563C34.7989 63.3982 35.4669 63.2711 36.2013 63.2711C36.8635 63.2711 37.4841 63.3697 38.0686 63.569C38.6512 63.7682 39.137 64.032 39.526 64.3565C39.8296 64.5994 39.9833 64.8765 39.9833 65.1915C39.9833 65.4325 39.8941 65.6451 39.7158 65.8291C39.5374 66.0132 39.3267 66.1043 39.0857 66.1043C38.9282 66.1043 38.7859 66.0569 38.6607 65.9639C38.3874 65.7437 38.0079 65.5407 37.5182 65.3585C37.0305 65.1744 36.5922 65.0833 36.2032 65.0833C35.5428 65.0833 35.0304 65.2067 34.6679 65.4515C34.3055 65.6982 34.1252 66.0227 34.1252 66.4212C34.1252 66.8729 34.3112 67.2144 34.685 67.446C35.057 67.6775 35.6433 67.8672 36.4404 68.0115C37.3437 68.169 38.0648 68.372 38.6056 68.6168C39.1465 68.8635 39.5526 69.1994 39.8258 69.6245C40.0991 70.0496 40.2357 70.6132 40.2357 71.3172C40.2357 71.9776 40.0498 72.5583 39.6759 73.0574C39.304 73.5565 38.8068 73.9398 38.1881 74.2074C37.5676 74.4731 36.9015 74.6078 36.188 74.6078C35.4327 74.6078 34.759 74.5129 34.1726 74.3251H34.1707Z" fill="white"/>
<path d="M51.493 71.7973C51.0319 72.6646 50.3924 73.3497 49.5802 73.8525C48.7661 74.3554 47.8495 74.6078 46.8323 74.6078C45.8152 74.6078 44.8986 74.3554 44.0845 73.8525C43.2704 73.3497 42.6365 72.6627 42.1792 71.7973C41.7219 70.932 41.4941 69.9794 41.4941 68.9394C41.4941 67.8995 41.7219 66.9488 42.1792 66.0815C42.6365 65.2143 43.2704 64.5311 44.0845 64.0263C44.8986 63.5234 45.8133 63.2711 46.8323 63.2711C47.8514 63.2711 48.7661 63.5216 49.5802 64.0263C50.3943 64.5311 51.0319 65.2162 51.493 66.0815C51.9542 66.9469 52.1857 67.8995 52.1857 68.9394C52.1857 69.9794 51.9542 70.932 51.493 71.7973ZM49.7149 67.0266C49.4303 66.4554 49.0374 66.0018 48.5345 65.664C48.0298 65.3281 47.4624 65.1612 46.8323 65.1612C46.2023 65.1612 45.6216 65.3262 45.1244 65.6564C44.6253 65.9866 44.2363 66.4421 43.9592 67.019C43.6803 67.5978 43.5417 68.2373 43.5417 68.9394C43.5417 69.6416 43.6803 70.283 43.9592 70.8599C44.2382 71.4387 44.6253 71.8922 45.1244 72.2224C45.6235 72.5526 46.1928 72.7177 46.8323 72.7177C47.4718 72.7177 48.0298 72.5507 48.5345 72.2148C49.0374 71.8789 49.4321 71.4254 49.7149 70.8523C49.9977 70.2811 50.14 69.6416 50.14 68.9394C50.14 68.2373 49.9977 67.5997 49.7149 67.0266Z" fill="white"/>
<path d="M63.4462 71.7973C62.985 72.6646 62.3455 73.3497 61.5333 73.8525C60.7192 74.3554 59.8026 74.6078 58.7854 74.6078C57.7683 74.6078 56.8517 74.3554 56.0376 73.8525C55.2235 73.3497 54.5897 72.6627 54.1323 71.7973C53.675 70.932 53.4473 69.9794 53.4473 68.9394C53.4473 67.8995 53.675 66.9488 54.1323 66.0815C54.5897 65.2143 55.2235 64.5311 56.0376 64.0263C56.8517 63.5234 57.7664 63.2711 58.7854 63.2711C59.8045 63.2711 60.7192 63.5216 61.5333 64.0263C62.3474 64.5311 62.985 65.2162 63.4462 66.0815C63.9073 66.9469 64.1388 67.8995 64.1388 68.9394C64.1388 69.9794 63.9073 70.932 63.4462 71.7973ZM61.6661 67.0266C61.3815 66.4554 60.9887 66.0018 60.4858 65.664C59.981 65.3281 59.4136 65.1612 58.7835 65.1612C58.1535 65.1612 57.5728 65.3262 57.0756 65.6564C56.5765 65.9866 56.1875 66.4421 55.9105 67.019C55.6315 67.5978 55.493 68.2373 55.493 68.9394C55.493 69.6416 55.6315 70.283 55.9105 70.8599C56.1894 71.4387 56.5765 71.8922 57.0756 72.2224C57.5747 72.5526 58.144 72.7177 58.7835 72.7177C59.4231 72.7177 59.981 72.5507 60.4858 72.2148C60.9887 71.8789 61.3834 71.4254 61.6661 70.8523C61.9489 70.2811 62.0912 69.6416 62.0912 68.9394C62.0912 68.2373 61.9489 67.5997 61.6661 67.0266Z" fill="white"/>
<path d="M74.9253 63.679C75.0828 63.846 75.1606 64.0567 75.1606 64.3091V73.4882C75.1606 73.7633 75.0695 73.991 74.8854 74.1732C74.7013 74.3554 74.4736 74.4484 74.2003 74.4484C74.0523 74.4484 73.9081 74.4256 73.7677 74.3782C73.6272 74.3307 73.5229 74.2662 73.4602 74.1808L67.6818 66.8425V73.566C67.6818 73.8165 67.6002 74.0271 67.437 74.196C67.2738 74.3649 67.0613 74.4484 66.7994 74.4484C66.5375 74.4484 66.3439 74.3649 66.1864 74.196C66.0289 74.029 65.9492 73.8184 65.9492 73.566V64.385C65.9492 64.1117 66.0403 63.884 66.2244 63.6999C66.4085 63.5158 66.6362 63.4247 66.9094 63.4247C67.067 63.4247 67.2226 63.457 67.3744 63.5196C67.5262 63.5823 67.6401 63.6676 67.7141 63.772L73.4451 71.0781V64.3072C73.4451 64.0548 73.5267 63.8441 73.6899 63.6771C73.8531 63.5101 74.0599 63.4247 74.3123 63.4247C74.5647 63.4247 74.7696 63.5101 74.9272 63.6771L74.9253 63.679Z" fill="white"/>
</g>
<defs>
<clipPath id="clip0_4702_28468">
<rect width="73.2506" height="66.6466" fill="white" transform="translate(17.3135 15.7607)"/>
</clipPath>
</defs>
</svg>
