<svg width="32" height="22" viewBox="0 0 32 22" fill="none" xmlns="http://www.w3.org/2000/svg">
<path d="M30.7409 7.00304C30.7458 7.09109 30.7394 7.18069 30.7173 7.26969L28.7434 15.165C28.6439 15.5628 28.2874 15.8425 27.8776 15.8446L16.0346 15.9044C16.033 15.9044 16.0316 15.9044 16.03 15.9044H4.18692C3.77492 15.9044 3.41593 15.6238 3.3164 15.224L1.34256 7.29876C1.31984 7.20736 1.31326 7.11525 1.319 7.02494C0.555424 6.78437 0 6.06984 0 5.22779C0 4.18884 0.845159 3.34368 1.88411 3.34368C2.92307 3.34368 3.76822 4.18884 3.76822 5.22779C3.76822 5.81288 3.50014 6.33637 3.08037 6.68221L5.55161 9.1721C6.17618 9.80146 7.04287 10.1623 7.92954 10.1623C8.97794 10.1623 9.97754 9.66437 10.607 8.83021L14.6683 3.44895C14.3271 3.10802 14.1159 2.63693 14.1159 2.11751C14.1159 1.07856 14.961 0.233398 16 0.233398C17.039 0.233398 17.8841 1.07856 17.8841 2.11751C17.8841 2.62138 17.6841 3.07871 17.3607 3.41713C17.3618 3.41856 17.3631 3.41976 17.3642 3.42132L21.3961 8.81741C22.0253 9.65958 23.0285 10.1624 24.0799 10.1624C24.9747 10.1624 25.8162 9.8139 26.4489 9.18108L28.9357 6.69429C28.507 6.34857 28.2318 5.82006 28.2318 5.22779C28.2318 4.18884 29.0769 3.34368 30.1159 3.34368C31.1548 3.34368 32 4.18884 32 5.22779C32 6.04735 31.473 6.74441 30.7409 7.00304ZM28.5508 18.7156C28.5508 18.2201 28.1491 17.8184 27.6536 17.8184H4.44615C3.95065 17.8184 3.54895 18.2201 3.54895 18.7156V20.8689C3.54895 21.3644 3.95065 21.7661 4.44615 21.7661H27.6536C28.1491 21.7661 28.5508 21.3644 28.5508 20.8689V18.7156Z" fill="white"/>
</svg>
