<svg width="24" height="24" viewBox="0 0 24 24" fill="none" xmlns="http://www.w3.org/2000/svg">
<path d="M8.12223 14.0684C8.12223 12.8909 8.65053 11.835 9.48176 11.1233C8.63016 10.4263 7.54267 10.0073 6.35893 10.0073H4.93888C2.21557 10.0073 0 12.2229 0 14.9462V20.5112H7.38112C7.59759 19.0814 8.46444 17.8622 9.66967 17.1657C8.73058 16.4573 8.12223 15.3327 8.12223 14.0684Z" fill="white"/>
<path d="M11.9999 17.9463C10.4394 17.9463 9.13081 19.0461 8.80859 20.5113H15.1911C14.8689 19.0461 13.5604 17.9463 11.9999 17.9463Z" fill="white"/>
<path d="M19.0614 11.5952H17.6413C16.8221 11.5952 16.0495 11.7966 15.3687 12.1511C15.6921 12.7171 15.878 13.3713 15.878 14.0685C15.878 15.3328 15.2697 16.4574 14.3306 17.1658C15.5358 17.8623 16.4026 19.0815 16.6191 20.5113H24.0002V16.5341C24.0002 13.8108 21.7847 11.5952 19.0614 11.5952Z" fill="white"/>
<path d="M18.6766 10.1646C20.472 9.98595 21.7827 8.38568 21.6041 6.59027C21.4254 4.79487 19.8251 3.48423 18.0297 3.66287C16.2343 3.84151 14.9236 5.44179 15.1023 7.23719C15.2809 9.03259 16.8812 10.3432 18.6766 10.1646Z" fill="white"/>
<path d="M6.90348 8.3539C8.57079 7.66279 9.36216 5.75092 8.67106 4.08361C7.97995 2.4163 6.06808 1.62492 4.40077 2.31603C2.73346 3.00713 1.94209 4.91901 2.63319 6.58632C3.32429 8.25363 5.23617 9.045 6.90348 8.3539Z" fill="white"/>
<path d="M12.0002 11.5952C10.6364 11.5952 9.52686 12.7048 9.52686 14.0685C9.52686 15.4324 10.6364 16.5419 12.0002 16.5419C13.364 16.5419 14.4735 15.4324 14.4735 14.0685C14.4736 12.7048 13.364 11.5952 12.0002 11.5952Z" fill="white"/>
</svg>
