<svg width="26" height="26" viewBox="0 0 26 26" fill="none" xmlns="http://www.w3.org/2000/svg">
<g clip-path="url(#clip0_13285_2374)">
<path d="M12.9997 5.37546C14.263 5.37546 15.2871 4.35138 15.2871 3.08812C15.2871 1.82486 14.263 0.800781 12.9997 0.800781C11.7365 0.800781 10.7124 1.82486 10.7124 3.08812C10.7124 4.35138 11.7365 5.37546 12.9997 5.37546Z" fill="white"/>
<path d="M16.7121 3.92773C16.3276 5.62586 14.8127 6.90037 13 6.90037C11.1873 6.90037 9.67234 5.62586 9.28787 3.92773C7.92434 4.23156 6.90039 5.4464 6.90039 6.90037V9.95019C6.90039 10.7908 7.58467 11.4751 8.4253 11.4751C9.26593 11.4751 9.95021 10.7908 9.95021 9.95019V8.42528H16.0498V9.95019C16.0498 10.7908 16.7341 11.4751 17.5747 11.4751C18.4153 11.4751 19.0996 10.7908 19.0996 9.95019V6.90037C19.0996 5.4464 18.0756 4.23156 16.7121 3.92773Z" fill="white"/>
<path d="M24.8177 19.4353C23.7236 18.8036 22.3247 19.1784 21.6931 20.2725C21.0614 21.3664 21.4363 22.7654 22.5303 23.397C23.6243 24.0287 25.0741 23.6538 25.7057 22.5598C26.3374 21.4658 25.9117 20.0669 24.8177 19.4353Z" fill="white"/>
<path d="M23.4222 14.2274L20.7811 12.7025C20.053 12.2821 19.1183 12.5326 18.698 13.2606C18.2777 13.9887 18.5282 14.9234 19.2562 15.3437L20.5768 16.1061L17.527 21.3885L16.2064 20.6261C15.4783 20.2058 14.5437 20.4562 14.1234 21.1843C13.703 21.9123 13.9535 22.847 14.6815 23.2673L17.3227 24.7923C18.5819 25.5192 20.146 25.2398 21.0908 24.2109C19.8124 23.0289 19.4661 21.0797 20.3724 19.5098C21.2788 17.9399 23.14 17.2653 24.8029 17.7813C25.2216 16.4486 24.6815 14.9543 23.4222 14.2274Z" fill="white"/>
<path d="M4.307 20.2725C3.67534 19.1784 2.27647 18.8036 1.18238 19.4353C0.0884032 20.0669 -0.337347 21.4658 0.294372 22.5599C0.925938 23.6539 2.37574 24.0287 3.46972 23.3971C4.56381 22.7654 4.93862 21.3665 4.307 20.2725Z" fill="white"/>
<path d="M11.8769 21.1843C11.4566 20.4562 10.5218 20.2058 9.79383 20.6261L8.47321 21.3885L5.42339 16.1061L6.74401 15.3437C7.47206 14.9233 7.72246 13.9886 7.30219 13.2606C6.88188 12.5326 5.94715 12.2822 5.21915 12.7024L2.57801 14.2273C1.31874 14.9543 0.778631 16.4486 1.19737 17.7813C2.86021 17.2652 4.72149 17.9399 5.62783 19.5098C6.53418 21.0797 6.18785 23.0289 4.90948 24.2109C5.85427 25.2398 7.41833 25.5193 8.6776 24.7923L11.3187 23.2673C12.0467 22.847 12.2972 21.9123 11.8769 21.1843Z" fill="white"/>
</g>
<defs>
<clipPath id="clip0_13285_2374">
<rect width="26" height="26" fill="white"/>
</clipPath>
</defs>
</svg>
