<svg width="22" height="22" viewBox="0 0 22 22" fill="none" xmlns="http://www.w3.org/2000/svg">
<path d="M14.4375 4.8125C14.4375 4.1525 14.6781 3.3825 15.07 2.64C13.6675 1.83562 12.045 1.375 10.3125 1.375C4.99813 1.375 0.6875 5.68563 0.6875 11C0.6875 16.3144 4.99813 20.625 10.3125 20.625C11.2681 20.625 11.6806 20.625 12.375 20.2262C14.4788 19.0094 10.3125 15.8125 12.375 13.0625C13.1587 12.0106 14.1487 11.9625 15.1594 12.2306C15.2212 10.7731 15.3732 9.405 15.6001 8.3325L15.7169 7.78937C14.9325 7.04 14.4375 5.98125 14.4375 4.8125ZM3.4375 9.625C3.4375 8.48375 4.35875 7.5625 5.5 7.5625C6.64125 7.5625 7.5625 8.48375 7.5625 9.625C7.5625 10.7662 6.64125 11.6875 5.5 11.6875C4.35875 11.6875 3.4375 10.7662 3.4375 9.625ZM6.875 17.1875C5.73375 17.1875 4.8125 16.2662 4.8125 15.125C4.8125 13.9838 5.73375 13.0625 6.875 13.0625C8.01625 13.0625 8.9375 13.9838 8.9375 15.125C8.9375 16.2662 8.01625 17.1875 6.875 17.1875ZM9.6525 7.5625C8.51125 7.5625 7.59 6.64125 7.59 5.5C7.59 4.35875 8.51125 3.4375 9.6525 3.4375C10.7937 3.4375 11.715 4.35875 11.715 5.5C11.715 6.64125 10.7937 7.5625 9.6525 7.5625ZM20.625 13.75C20.625 15.5238 20.4737 21.3125 18.5625 21.3125C16.6512 21.3125 16.5 15.5238 16.5 13.75C16.5 11.8181 16.665 9.955 16.9469 8.61437C17.4419 8.82062 17.9919 8.9375 18.5625 8.9375C19.1331 8.9375 19.6831 8.82062 20.1781 8.61437C20.46 9.955 20.625 11.8181 20.625 13.75ZM18.5625 7.5625C17.0438 7.5625 15.8125 6.33119 15.8125 4.8125C15.8125 3.29381 17.875 0.6875 19.25 0.6875C19.25 2.75 21.3125 2.75 21.3125 4.8125C21.3125 6.33119 20.0812 7.5625 18.5625 7.5625Z" fill="white"/>
</svg>
