<svg width="24" height="24" viewBox="0 0 24 24" fill="none" xmlns="http://www.w3.org/2000/svg">
<g clip-path="url(#clip0_13285_2326)">
<path d="M3.7516 12.7519L2.26003 14.2434C1.84822 14.6552 1.84822 15.323 2.26003 15.735C2.67201 16.1468 3.3398 16.1468 3.7516 15.735L5.24318 14.2434C5.65517 13.8315 5.65517 13.1637 5.24318 12.7519C4.83138 12.3399 4.16359 12.3399 3.7516 12.7519Z" fill="white"/>
<path d="M8.72377 17.724L7.23219 19.2156C6.82039 19.6274 6.82039 20.2952 7.23219 20.707C7.644 21.119 8.31178 21.119 8.72377 20.707L10.2153 19.2156C10.6272 18.8036 10.6272 18.1358 10.2153 17.724C9.80336 17.312 9.13576 17.312 8.72377 17.724Z" fill="white"/>
<path d="M12.2038 22.1984L12.7009 21.7013C13.1129 21.2893 13.1129 20.6215 12.7009 20.2097C12.2891 19.7979 11.6213 19.7979 11.2093 20.2097L10.7122 20.7069C10.3004 21.1189 10.3004 21.7866 10.7122 22.1984C11.124 22.6104 11.7919 22.6104 12.2038 22.1984Z" fill="white"/>
<path d="M7.23233 14.2436L4.74649 16.7294C4.3345 17.1414 4.3345 17.8092 4.74649 18.221C5.15829 18.6328 5.82608 18.6328 6.23788 18.221L8.72391 15.7351C9.13571 15.3232 9.13571 14.6554 8.72391 14.2436C8.31192 13.8316 7.64432 13.8316 7.23233 14.2436Z" fill="white"/>
<path d="M8.97217 3.55408L7.16656 1.72943C6.89191 1.45477 6.44678 1.45477 6.17212 1.72943L0.205994 7.69556C-0.0686646 7.97021 -0.0686646 8.41534 0.205994 8.69L1.42493 9.9278C1.81073 10.3138 2.1015 10.7842 2.27417 11.302L2.50891 12.0062L2.75757 11.7576C3.71704 10.7983 5.27838 10.7983 6.23785 11.7576C6.54181 12.0617 6.73846 12.4288 6.84979 12.8156C7.77631 12.336 8.94214 12.4731 9.71814 13.2491C10.4941 14.0251 10.6313 15.191 10.1517 16.1177C10.5385 16.229 10.9056 16.4253 11.2097 16.7294C11.6968 17.2165 11.9339 17.8588 11.9264 18.4986C12.5663 18.4913 13.2085 18.7284 13.6956 19.2155C13.9402 19.4601 14.69 20.2097 14.69 20.2097C15.1018 20.6217 15.7696 20.6217 16.1814 20.2097C16.5934 19.7979 16.5934 19.1301 16.1814 18.7181L14.4413 16.9781C14.1667 16.7034 14.1667 16.2583 14.4413 15.9836C14.716 15.7092 15.1611 15.7092 15.4356 15.9836L17.1758 17.7239C17.5876 18.1357 18.2556 18.1357 18.6674 17.7239C19.0792 17.3121 19.0792 16.6441 18.6674 16.2323L16.9272 14.4921C16.6527 14.2176 16.6527 13.7725 16.9272 13.4978C17.2018 13.2231 17.6472 13.2231 17.9216 13.4978L19.6619 15.2379C20.0737 15.6497 20.7415 15.6497 21.1534 15.2379C21.5652 14.826 21.5652 14.1583 21.1534 13.7465L16.877 9.47003C15.5127 10.3722 13.6531 10.2235 12.4526 9.02307C12.1783 8.74878 11.7327 8.74878 11.4584 9.02307C10.0876 10.3938 7.85724 10.3938 6.48651 9.02307C5.664 8.20074 5.664 6.86243 6.48651 6.0401L8.97217 3.55408Z" fill="white"/>
<path d="M17.828 1.65912C17.5533 1.38446 17.1082 1.38446 16.8335 1.65912L15.3463 3.1463C15.0852 3.40741 14.7311 3.55408 14.362 3.55408H11.8347C11.2753 3.55408 10.7388 3.77637 10.3433 4.17188L7.48085 7.03436C7.20235 7.31287 7.20235 7.75031 7.48085 8.02881C8.30611 8.85406 9.63857 8.85406 10.4638 8.02881C11.2076 7.28503 12.3731 7.21381 13.1976 7.81512C14.3065 8.62408 15.7852 8.67352 16.7559 7.70288L16.9273 7.53149L21.7649 12.3691C21.8319 12.1214 21.8332 11.8592 21.7677 11.6158C21.6539 11.1942 21.8189 10.5948 22.1278 10.2859L23.7941 8.61969C24.0687 8.34503 24.0687 7.8999 23.7941 7.62543L17.828 1.65912Z" fill="white"/>
</g>
<defs>
<clipPath id="clip0_13285_2326">
<rect width="24" height="24" fill="white"/>
</clipPath>
</defs>
</svg>
