<svg width="48" height="49" viewBox="0 0 48 49" fill="none" xmlns="http://www.w3.org/2000/svg">
<path d="M24 48.0028C37.2556 48.0028 48 37.2584 48 24.0028C48 10.7472 37.2556 0 24 0C10.7444 0 0 10.7444 0 24C0 37.2556 10.7444 48 24 48" fill="#00B0E0"/>
<path d="M9.61607 9.97278C12.791 9.29797 15.977 10.631 17.9821 13.2002C15.977 10.631 12.791 9.29797 9.61607 9.97278ZM9.23441 10.064C4.64902 11.2754 1.92489 16.2922 3.15006 21.2703C5.13854 29.3431 11.9392 32.5208 14.5195 31.9732C14.5389 31.9677 14.5582 31.9649 14.5776 31.9594C14.525 32.0534 13.6843 33.5607 14.4725 33.5275C14.5942 33.522 14.6965 33.5082 14.7795 33.4916C14.8514 33.475 14.9095 33.4584 14.9565 33.4362L15.0367 33.392C15.1003 33.345 15.1279 33.2952 15.139 33.251C15.1528 33.3339 15.1943 33.4252 15.3105 33.4003C15.3547 33.3892 15.4128 33.3616 15.4847 33.309C16.2121 32.7587 14.6937 32.0092 14.5914 31.9594C14.6025 31.9566 14.6163 31.9539 14.6301 31.9511C16.1595 31.5473 19.4119 27.775 20.0894 22.5148C19.4119 27.775 16.1595 31.5473 14.6301 31.9511C17.8521 28.0931 19.2736 22.8937 18.3333 18.4964C18.2558 18.2171 18.1812 17.9294 18.1148 17.6391C17.039 13.9691 14.1987 10.9961 9.23994 10.0696L9.23441 10.064ZM5.58933 22.4042C4.95324 22.5397 4.10973 20.1419 4.22589 17.9571C4.35864 15.4487 5.57827 13.6262 6.79791 13.3662C6.92236 13.3385 7.04681 13.3302 7.17127 13.3358C8.50153 13.4104 6.42455 15.0753 6.30563 17.8105C6.19777 20.2692 6.47157 21.3146 5.81611 22.2355C5.74697 22.3351 5.6723 22.3876 5.5921 22.4042H5.58933ZM7.95393 26.4061C7.54739 26.4918 7.03022 26.2014 6.71217 25.6732C6.33882 25.0564 6.37477 24.354 6.79514 24.0995C6.85599 24.0636 6.91959 24.0387 6.98873 24.0249C7.39251 23.9391 7.91245 24.2295 8.2305 24.7577C8.60385 25.3745 8.5679 26.0797 8.14753 26.3314C8.08668 26.3673 8.02307 26.3922 7.95393 26.4061Z" fill="#FF2180"/>
<path d="M9.61603 9.97282C9.48881 10.0005 9.36159 10.0309 9.23438 10.0641C14.1931 10.9906 17.0334 13.9664 18.1092 17.6336C18.0539 17.393 18.0041 17.1496 17.9599 16.9034C17.7303 15.6368 17.7497 14.384 17.982 13.2031C15.9769 10.6338 12.791 9.30077 9.61603 9.97558V9.97282ZM18.3277 18.4937C19.268 22.891 17.8465 28.0904 14.6246 31.9484C16.1539 31.5446 19.4063 27.7723 20.0839 22.5121C19.3648 21.3533 18.7564 20.0148 18.3277 18.4937Z" fill="#BE2E5F"/>
<path d="M6.98044 24.0167C6.9113 24.0305 6.84769 24.0554 6.78685 24.0914C6.36647 24.3458 6.33052 25.0483 6.70388 25.665C7.02469 26.1932 7.54186 26.4836 7.94564 26.3979C8.01478 26.3841 8.07839 26.3592 8.13923 26.3232C8.55961 26.0688 8.59556 25.3663 8.2222 24.7496C7.90139 24.2214 7.38422 23.931 6.98044 24.0167Z" fill="#FF2180"/>
<path d="M6.79231 13.358C5.57268 13.6179 4.35304 15.4377 4.22029 17.9489C4.10414 20.1337 4.94765 22.5315 5.58374 22.396C5.66118 22.3794 5.73861 22.3241 5.80775 22.2273C6.4632 21.3063 6.19217 20.2609 6.29727 17.8023C6.41619 15.0671 8.49593 13.4022 7.1629 13.3275C7.03845 13.322 6.914 13.3303 6.78955 13.358" fill="white"/>
<path d="M24.9155 5.74695C28.6712 7.59161 30.6459 10.4042 31.2377 13.4907C31.6055 12.7163 32.2914 12.5808 32.8279 11.9475C31.8296 8.02858 28.4196 5.79673 24.9155 5.74695ZM30.3168 20.8444C29.1027 23.729 26.9676 26.3895 24.2324 28.2729C24.238 28.2729 24.2435 28.2729 24.2518 28.2729C25.5654 28.2729 28.5883 26.4033 30.7648 23.0265C30.5684 22.3379 30.4163 21.6077 30.3168 20.8417" fill="#7A9533"/>
<path d="M16.837 11.292C16.3641 12.4011 16.0847 13.6207 16.046 14.9095C16.0377 15.1611 16.0349 15.41 16.0405 15.6562C16.0626 15.9493 16.0737 16.2453 16.0737 16.5412C16.176 18.1176 16.494 19.5529 16.9559 20.8362C17.4233 19.5032 17.7358 18.0291 17.8022 16.4333C17.5201 15.9659 17.4288 14.8044 17.6058 13.5571C17.4399 12.7578 17.1799 12 16.837 11.2948V11.292ZM29.0969 7.00258C28.5991 6.62922 29.1301 6.93897 28.5604 6.69006C29.1301 6.93897 29.1108 6.98322 29.6086 7.35658L29.0969 7.00258ZM24.9153 5.74976C26.0105 5.76358 26.4696 5.77188 27.421 6.18949C26.4696 5.77188 26.0105 5.76358 24.9153 5.74976C24.8794 5.74976 24.8407 5.74976 24.8047 5.74976C21.2979 5.74976 18.2308 8.02309 16.837 11.2948C17.1799 11.9973 17.4316 12.6997 17.5975 13.5018C17.6694 12.9846 17.7994 12.5062 17.9681 12.0028C18.748 9.68246 20.3493 8.26923 21.5828 8.26923C21.7432 8.26923 21.9008 8.29412 22.0474 8.3439C23.3085 8.77534 20.8609 9.82074 20.0119 12.4204C19.2486 14.7601 19.232 15.8387 18.3525 16.5495C18.264 16.6214 18.1838 16.6546 18.1064 16.6546C17.9902 16.6546 17.8907 16.5771 17.8049 16.4361C17.7358 18.0318 17.426 19.5087 16.9587 20.8389C18.654 25.5543 22.2769 28.2093 24.188 28.2757C24.1105 28.3531 22.8964 29.5783 23.6653 29.7553C23.8201 29.7912 23.9418 29.8051 24.0386 29.8051C24.0746 29.8051 24.1078 29.8051 24.1382 29.7995L24.2295 29.7802C24.3152 29.7525 24.3594 29.7083 24.3816 29.6668C24.3733 29.7525 24.3899 29.8576 24.5198 29.8576C24.5641 29.8576 24.6222 29.8465 24.6968 29.8161C25.5431 29.4815 24.282 28.3504 24.1963 28.2757C24.2101 28.2757 24.2212 28.2757 24.235 28.2757C26.9702 26.3923 29.108 23.729 30.3193 20.8472C30.1396 19.4478 30.1368 17.924 30.3857 16.295C30.5378 15.2967 30.831 14.3563 31.2403 13.4935C30.6485 10.4071 28.6738 7.59442 24.9181 5.74976H24.9153ZM32.0617 10.1996C31.8819 9.80691 32.2912 10.5564 32.0617 10.1996C32.2912 10.5564 32.1723 10.3849 32.3521 10.7776L32.0617 10.1996Z" fill="#83BB26"/>
<path d="M39.8526 10.7222C37.4161 9.96721 34.7749 10.4152 32.5984 11.8036C32.6288 12.3235 32.6177 12.8545 32.5624 13.3883C33.9978 12.1244 35.5852 11.657 36.5975 11.9695C36.8242 12.0387 37.0234 12.1493 37.1838 12.2986C38.16 13.2085 35.4967 13.1587 33.6576 15.1859C32.2886 16.6959 31.7383 17.6252 30.9694 18.0649C29.9793 19.8432 28.7182 21.273 27.388 22.3848C27.2718 27.0117 29.3543 30.5627 30.9805 31.362C30.8782 31.4007 29.2686 32.023 29.8964 32.4987C30.0678 32.6287 30.2033 32.7006 30.3057 32.731C30.314 32.731 30.3195 32.7365 30.3278 32.7365L30.4218 32.7531C30.4993 32.7586 30.5518 32.7365 30.585 32.7089C30.538 32.7891 30.5076 32.9024 30.6652 32.9522C30.7012 32.9633 30.7509 32.9716 30.8118 32.9744C31.7217 33.0158 31.033 31.4671 30.986 31.3648C30.9971 31.3703 31.0081 31.3758 31.0192 31.3814C31.08 31.409 31.1492 31.4367 31.2239 31.4588C33.4419 32.1474 41.0999 30.2779 44.5928 23.079C44.8169 22.6144 45.0021 22.1442 45.1515 21.6685C45.0049 22.1442 44.8196 22.6144 44.5928 23.079C41.0999 30.2806 33.4419 32.1502 31.2239 31.4588C31.1492 31.4367 31.08 31.409 31.0192 31.3814C40.5246 29.6363 48.0858 19.8156 40.8565 11.1039C40.5246 10.949 40.1872 10.819 39.847 10.7139L39.8526 10.7222ZM29.5341 22.8882C29.1026 22.7554 28.8399 22.1525 28.9395 21.486C29.0446 20.7725 29.523 20.2553 30.0098 20.3272C30.0402 20.3327 30.0706 20.3383 30.101 20.3466C30.5325 20.4821 30.7952 21.0822 30.6956 21.7487C30.5905 22.4623 30.1121 22.9794 29.6253 22.9075C29.5949 22.902 29.5645 22.8965 29.5341 22.8854" fill="#583F99"/>
<path d="M32.5955 11.8036C32.6259 12.3235 32.6148 12.8545 32.5595 13.3883C32.6148 12.8545 32.6259 12.3235 32.5955 11.8036ZM30.6651 13.4215C30.0179 14.1239 29.4592 14.9343 29.0167 15.8442C28.2977 17.3265 27.8469 18.7812 27.6035 20.1723C29.2822 18.1756 30.3913 15.8442 30.6623 13.4242" fill="#583F99"/>
<path d="M32.5954 11.8036C31.8957 12.2489 31.2458 12.7909 30.665 13.4215C30.394 15.8414 29.2822 18.1756 27.6063 20.1696C27.4735 20.9301 27.4016 21.6713 27.385 22.3876C28.7153 21.2731 29.9764 19.846 30.9665 18.0677C30.8061 18.159 30.6374 18.2281 30.4493 18.2779C30.3553 18.3028 30.2778 18.3028 30.2142 18.2834C29.5505 18.0788 30.441 15.6174 31.9621 13.9718C32.1557 13.7616 32.3576 13.5681 32.5595 13.3883C32.6148 12.8545 32.6258 12.3235 32.5954 11.8036Z" fill="#583F99"/>
<path d="M40.8593 11.1095C48.0886 19.8184 40.5246 29.6391 31.022 31.387C31.0828 31.4146 31.152 31.4423 31.2266 31.4644C33.4447 32.1531 41.1026 30.2835 44.5956 23.0846C44.8196 22.62 45.0049 22.1498 45.1543 21.6741C46.4707 17.4289 44.7284 12.9099 40.862 11.1123" fill="#443176"/>
<path d="M30.1038 20.3577C30.0733 20.3494 30.0457 20.3411 30.0125 20.3355C29.5285 20.2636 29.0501 20.7808 28.9422 21.4943C28.8426 22.1608 29.1054 22.761 29.5368 22.8965C29.5672 22.9048 29.5976 22.9131 29.6281 22.9159C30.112 22.9878 30.5905 22.4706 30.6984 21.7571C30.7979 21.0905 30.5352 20.4876 30.1038 20.3549" fill="#583F99"/>
<path d="M36.5946 11.9696C35.5851 11.6543 33.9949 12.1245 32.5595 13.3884C32.5042 13.9249 32.4019 14.4642 32.2526 15.0035C32.2249 15.1003 32.1973 15.1971 32.1668 15.2966C32.1364 15.3934 32.106 15.4902 32.07 15.587C31.763 16.4803 31.3897 17.3045 30.9666 18.0678C31.7354 17.6281 32.2858 16.6988 33.6547 15.1888C35.4939 13.1616 38.1571 13.2086 37.1809 12.3015C37.0205 12.1521 36.8214 12.0415 36.5946 11.9724" fill="white"/>
<path d="M32.5595 13.3883C32.5042 13.9248 32.4019 14.4641 32.2498 15.0034C32.3991 14.4641 32.5014 13.9248 32.5595 13.3883Z" fill="#E8F5E8"/>
<path d="M32.5595 13.3883C32.3576 13.5681 32.1557 13.7617 31.9621 13.9719C30.441 15.6174 29.5505 18.076 30.2143 18.2834C30.2779 18.3028 30.3553 18.3028 30.4493 18.2779C30.6374 18.2281 30.8061 18.159 30.9665 18.0677C31.3896 17.3072 31.763 16.4803 32.07 15.587C32.1032 15.4902 32.1364 15.3934 32.1668 15.2966C32.1972 15.1998 32.2249 15.103 32.2525 15.0034C32.4019 14.4641 32.5042 13.9248 32.5623 13.3883" fill="white"/>
<path d="M21.3229 47.7346C22.36 45.7516 16.8675 40.8869 18.3941 38.2734C19.4339 36.4923 20.7283 38.1268 19.528 38.5721C18.6402 38.9012 17.8133 38.1904 17.5589 36.1743C17.3044 34.1582 16.6158 32.142 14.3535 32.2526" stroke="white" stroke-width="0.2" stroke-linecap="round"/>
<path d="M24.4287 28.1567C22.2908 28.3088 21.4003 33.5414 22.9491 36.5283C24.8263 40.1493 21.1769 45.1156 21.7222 47.8615" stroke="white" stroke-width="0.2" stroke-linecap="round"/>
<path d="M31.4091 31.6995C29.1551 31.4506 29.05 32.5347 28.6712 34.5315C28.295 36.5283 27.4266 37.1865 26.561 36.8048C25.3911 36.2877 26.7822 34.7334 27.7115 36.5753C28.2204 37.5847 23.8728 40.3338 25.7728 42.0263C27.0394 43.1547 28.3227 42.6679 27.8083 41.8272C26.7959 40.1743 22.8409 46.2781 22.7029 47.9463" stroke="white" stroke-width="0.2" stroke-linecap="round"/>
<path d="M21.9147 8.16402C20.5042 8.17785 18.6844 9.62703 17.8077 11.9861C17.6169 12.5005 17.4869 13.0426 17.4067 13.5653C17.3155 13.9829 17.2712 14.5056 17.3072 14.9951C17.3155 15.0946 17.2878 16.0073 17.6556 16.4802C17.7524 16.6213 17.8686 16.6987 18.0041 16.6987C18.0898 16.6987 18.1839 16.6628 18.2834 16.5908C19.2846 15.8607 19.2956 14.7655 20.1475 12.3871C21.0961 9.74042 23.8921 8.6563 22.4429 8.23316C22.2742 8.18338 22.0972 8.16125 21.9119 8.16125" fill="white"/>
</svg>
