<svg width="100" height="103" viewBox="0 0 100 103" fill="none" xmlns="http://www.w3.org/2000/svg">
<path d="M50 100.006C77.6158 100.006 100 77.6216 100 50.0058C100 22.39 77.6158 0 50 0C22.3842 0 0 22.3842 0 50C0 77.6158 22.3842 100 50 100" fill="#27385A"/>
<path d="M20.0352 20.7765C26.6496 19.3706 33.2871 22.1477 37.4643 27.5004C33.2871 22.1477 26.6496 19.3706 20.0352 20.7765ZM19.2401 20.9666C9.68716 23.4902 4.01189 33.9419 6.56432 44.313C10.707 61.1314 24.875 67.7516 30.2507 66.6107C30.291 66.5992 30.3313 66.5935 30.3716 66.5819C30.2622 66.7778 28.5106 69.918 30.1527 69.8488C30.4062 69.8373 30.6194 69.8085 30.7922 69.7739C30.9421 69.7393 31.0631 69.7048 31.161 69.6587L31.3281 69.5665C31.4606 69.4685 31.5182 69.3648 31.5413 69.2726C31.5701 69.4455 31.6565 69.6356 31.8985 69.5838C31.9907 69.5607 32.1117 69.5031 32.2615 69.3936C33.7768 68.2471 30.6136 66.6856 30.4005 66.5819C30.4235 66.5762 30.4523 66.5704 30.4811 66.5646C33.6673 65.7234 40.4431 57.8645 41.8547 46.9057C40.4431 57.8645 33.6673 65.7234 30.4811 66.5646C37.1935 58.5271 40.155 47.6951 38.196 38.534C38.0347 37.9521 37.8791 37.3529 37.7409 36.7479C35.4996 29.1021 29.5823 22.9083 19.2516 20.9781L19.2401 20.9666ZM11.6461 46.6753C10.3209 46.9576 8.56363 41.9622 8.80562 37.4105C9.08218 32.1846 11.6231 28.3877 14.164 27.8461C14.4233 27.7884 14.6825 27.7712 14.9418 27.7827C17.7132 27.9382 13.3862 31.4068 13.1384 37.1051C12.9137 42.2272 13.4841 44.4052 12.1186 46.3238C11.9746 46.5312 11.819 46.6407 11.6519 46.6753H11.6461ZM16.5724 55.0125C15.7254 55.1911 14.648 54.5861 13.9854 53.4856C13.2076 52.2007 13.2825 50.7373 14.1582 50.2072C14.285 50.1323 14.4175 50.0804 14.5616 50.0516C15.4028 49.873 16.486 50.478 17.1486 51.5785C17.9264 52.8633 17.8515 54.3326 16.9757 54.8569C16.8489 54.9318 16.7164 54.9836 16.5724 55.0125Z" fill="#FF2180"/>
<path d="M20.0334 20.7769C19.7684 20.8345 19.5033 20.8979 19.2383 20.9671C29.569 22.8972 35.4863 29.0968 37.7276 36.7368C37.6123 36.2355 37.5086 35.7285 37.4164 35.2157C36.9382 32.5769 36.9785 29.9668 37.4625 27.5066C33.2853 22.154 26.6478 19.3768 20.0334 20.7827V20.7769ZM38.1827 38.5287C40.1417 47.6898 37.1802 58.5218 30.4678 66.5594C33.654 65.7181 40.4298 57.8592 41.8414 46.9004C40.3434 44.4863 39.0758 41.6976 38.1827 38.5287Z" fill="#BE2E5F"/>
<path d="M14.543 50.0349C14.399 50.0637 14.2665 50.1155 14.1397 50.1904C13.2639 50.7205 13.189 52.184 13.9668 53.4689C14.6352 54.5693 15.7126 55.1743 16.5538 54.9957C16.6979 54.9669 16.8304 54.915 16.9572 54.8401C17.8329 54.3101 17.9078 52.8466 17.13 51.5617C16.4617 50.4612 15.3842 49.8563 14.543 50.0349Z" fill="#FF2180"/>
<path d="M14.1504 27.8286C11.6095 28.3702 9.06863 32.1614 8.79207 37.393C8.55008 41.9447 10.3074 46.9401 11.6326 46.6578C11.7939 46.6232 11.9552 46.508 12.0993 46.3064C13.4648 44.3877 12.9002 42.2098 13.1191 37.0876C13.3669 31.3893 17.6997 27.9208 14.9225 27.7652C14.6632 27.7537 14.404 27.771 14.1447 27.8286" fill="white"/>
<path d="M51.9075 11.973C59.7319 15.8161 63.8457 21.6757 65.0787 28.1058C65.8451 26.4925 67.274 26.2102 68.3917 24.8907C66.3118 16.7264 59.2076 12.0767 51.9075 11.973ZM63.1601 43.4261C60.6307 49.4356 56.1827 54.9783 50.4844 58.902C50.4959 58.902 50.5074 58.902 50.5247 58.902C53.2615 58.902 59.559 55.0071 64.0935 47.9721C63.6844 46.5374 63.3675 45.0164 63.1601 43.4204" fill="#E0B500"/>
<path d="M35.0755 23.5246C34.0903 25.835 33.5083 28.3759 33.4277 31.0609C33.4104 31.5852 33.4046 32.1038 33.4162 32.6165C33.4622 33.2273 33.4853 33.8438 33.4853 34.4603C33.6985 37.7445 34.3611 40.7348 35.3233 43.4082C36.297 40.6311 36.9481 37.5601 37.0864 34.2356C36.4987 33.2619 36.3085 30.8419 36.6773 28.2434C36.3316 26.5783 35.79 24.9996 35.0755 23.5303V23.5246ZM60.6171 14.5882C59.58 13.8104 60.6863 14.4557 59.4994 13.9371C60.6863 14.4557 60.6459 14.5479 61.683 15.3257L60.6171 14.5882ZM51.9054 11.9781C54.1871 12.007 55.1435 12.0242 57.1255 12.8943C55.1435 12.0242 54.1871 12.007 51.9054 11.9781C51.8305 11.9781 51.7499 11.9781 51.675 11.9781C44.3691 11.9781 37.9794 16.7143 35.0755 23.5303C35.79 24.9938 36.3143 26.4573 36.66 28.1282C36.8098 27.0507 37.0806 26.054 37.4321 25.0053C39.0569 20.1713 42.3929 17.2271 44.9626 17.2271C45.2968 17.2271 45.6252 17.2789 45.9306 17.3826C48.5579 18.2814 43.4588 20.4594 41.6899 25.8754C40.0997 30.7498 40.0651 32.9968 38.2329 34.4776C38.0486 34.6274 37.8815 34.6965 37.7201 34.6965C37.4781 34.6965 37.2707 34.5352 37.0921 34.2413C36.9481 37.5658 36.3028 40.6426 35.329 43.414C38.861 53.2377 46.4088 58.7689 50.3901 58.9072C50.2288 59.0685 47.6994 61.6209 49.3011 61.9897C49.6238 62.0646 49.8773 62.0934 50.079 62.0934C50.1539 62.0934 50.223 62.0934 50.2864 62.0819L50.4765 62.0415C50.6551 61.9839 50.7473 61.8917 50.7934 61.8053C50.7761 61.9839 50.8107 62.2029 51.0815 62.2029C51.1737 62.2029 51.2947 62.1798 51.4503 62.1164C53.2133 61.4193 50.586 59.0627 50.4074 58.9072C50.4362 58.9072 50.4592 58.9072 50.4881 58.9072C56.1864 54.9834 60.6402 49.4349 63.1638 43.4312C62.7893 40.5158 62.7835 37.3411 63.3021 33.9475C63.619 31.8675 64.2297 29.9085 65.0824 28.1109C63.8494 21.6808 59.7356 15.8212 51.9112 11.9781H51.9054ZM66.7937 21.2487C66.4192 20.4306 67.2719 21.992 66.7937 21.2487C67.2719 21.992 67.0241 21.6348 67.3986 22.4529L66.7937 21.2487Z" fill="#FFD525"/>
<path d="M83.0245 22.3382C77.9485 20.7652 72.4461 21.6986 67.9116 24.591C67.975 25.6742 67.9519 26.7804 67.8367 27.8924C70.827 25.2594 74.1342 24.2856 76.243 24.9367C76.7155 25.0807 77.1303 25.3112 77.4645 25.6223C79.4984 27.5179 73.9499 27.4142 70.1183 31.6375C67.2663 34.7834 66.1197 36.7194 64.518 37.6355C62.4553 41.3402 59.8279 44.319 57.0566 46.6352C56.8146 56.2746 61.1531 63.6726 64.541 65.3377C64.3278 65.4184 60.9745 66.7148 62.2824 67.7058C62.6397 67.9766 62.922 68.1264 63.1352 68.1898C63.1524 68.1898 63.164 68.2013 63.1813 68.2013L63.3771 68.2358C63.5385 68.2474 63.6479 68.2013 63.7171 68.1437C63.6191 68.3107 63.5558 68.547 63.8842 68.6507C63.9591 68.6737 64.0628 68.691 64.1896 68.6968C66.0851 68.7832 64.6505 65.5567 64.5525 65.3435C64.5756 65.355 64.5986 65.3665 64.6217 65.378C64.7484 65.4357 64.8925 65.4933 65.048 65.5394C69.6689 66.974 85.6231 63.0791 92.9001 48.0814C93.3668 47.1135 93.7528 46.134 94.0639 45.143C93.7586 46.134 93.3725 47.1135 92.9001 48.0814C85.6231 63.0849 69.6689 66.9798 65.048 65.5394C64.8925 65.4933 64.7484 65.4357 64.6217 65.378C84.4246 61.7424 100.177 41.2826 85.116 23.1333C84.4246 22.8106 83.7217 22.5398 83.013 22.3209L83.0245 22.3382ZM61.5276 47.6839C60.6288 47.4073 60.0815 46.1513 60.2889 44.7627C60.5078 43.2762 61.5046 42.1987 62.5187 42.3485C62.582 42.3601 62.6454 42.3716 62.7088 42.3889C63.6076 42.6712 64.155 43.9215 63.9476 45.3101C63.7286 46.7966 62.7318 47.874 61.7178 47.7242C61.6544 47.7127 61.591 47.7012 61.5276 47.6781" fill="#1DBADF"/>
<path d="M67.9077 24.5909C67.9711 25.6741 67.948 26.7804 67.8328 27.8924C67.948 26.7804 67.9711 25.6741 67.9077 24.5909ZM63.886 27.9615C62.5378 29.425 61.3739 31.1132 60.452 33.0088C58.954 36.0971 58.0148 39.1277 57.5078 42.0258C61.0052 37.8659 63.3156 33.0088 63.8803 27.9673" fill="#1DBADF"/>
<path d="M67.9058 24.5909C66.4481 25.5186 65.0941 26.6479 63.8842 27.9615C63.3195 33.003 61.0033 37.8659 57.5117 42.0201C57.2352 43.6045 57.0854 45.1487 57.0508 46.641C59.8222 44.319 62.4495 41.346 64.5122 37.6412C64.178 37.8313 63.8265 37.9754 63.4347 38.0791C63.2388 38.1309 63.0775 38.1309 62.945 38.0906C61.5622 37.6642 63.4175 32.5363 66.5864 29.1081C66.9897 28.6702 67.4103 28.2669 67.8309 27.8924C67.9462 26.7804 67.9692 25.6741 67.9058 24.5909Z" fill="#1DBADF"/>
<path d="M85.1233 23.1445C100.184 41.2881 84.4261 61.7479 64.6289 65.3893C64.7557 65.4469 64.8997 65.5045 65.0553 65.5506C69.6762 66.9853 85.6303 63.0904 92.9073 48.0927C93.374 47.1247 93.76 46.1452 94.0712 45.1542C96.8137 36.31 93.1839 26.8954 85.129 23.1503" fill="#558CCD"/>
<path d="M62.7177 42.4122C62.6543 42.3949 62.5967 42.3776 62.5275 42.3661C61.5192 42.2163 60.5225 43.2937 60.2978 44.7802C60.0903 46.1688 60.6377 47.4191 61.5365 47.7014C61.5999 47.7187 61.6633 47.736 61.7267 47.7417C62.735 47.8915 63.7317 46.8141 63.9564 45.3276C64.1639 43.939 63.6165 42.683 62.7177 42.4064" fill="#1DBADF"/>
<path d="M76.2368 24.936C74.1338 24.2792 70.8208 25.2587 67.8305 27.8918C67.7152 29.0095 67.502 30.1331 67.1909 31.2566C67.1333 31.4582 67.0757 31.6599 67.0123 31.8673C66.9489 32.069 66.8855 32.2706 66.8106 32.4723C66.1711 34.3333 65.3933 36.0503 64.5117 37.6406C66.1135 36.7244 67.26 34.7885 70.1121 31.6426C73.9436 27.4193 79.4921 27.5172 77.4583 25.6274C77.1241 25.3163 76.7092 25.0858 76.2368 24.9418" fill="white"/>
<path d="M67.8328 27.892C67.7176 29.0097 67.5044 30.1333 67.1875 31.2568C67.4986 30.1333 67.7118 29.0097 67.8328 27.892Z" fill="#E8F5E8"/>
<path d="M67.834 27.892C67.4134 28.2665 66.9928 28.6698 66.5894 29.1077C63.4205 32.5359 61.5652 37.658 62.9481 38.0902C63.0806 38.1305 63.2419 38.1305 63.4378 38.0786C63.8296 37.9749 64.1811 37.8309 64.5152 37.6408C65.3968 36.0563 66.1746 34.3335 66.8141 32.4725C66.8833 32.2709 66.9524 32.0692 67.0158 31.8675C67.0792 31.6659 67.1368 31.4642 67.1944 31.2568C67.5056 30.1333 67.7187 29.0097 67.8397 27.892" fill="white"/>
<path d="M44.4218 99.4464C46.5825 95.3153 35.1397 85.1804 38.3202 79.7356C40.4866 76.0251 43.1831 79.4303 40.6825 80.3579C38.833 81.0435 37.1102 79.5628 36.5802 75.3625C36.0501 71.1622 34.6154 66.962 29.9023 67.1924" stroke="white" stroke-width="0.5" stroke-linecap="round"/>
<path d="M47.1817 102.553C40.573 98.2889 52.5113 85.1695 47.8097 76.1006C44.5832 69.8779 46.4384 58.9768 50.8922 58.6599" stroke="white" stroke-width="0.5" stroke-linecap="round"/>
<path d="M47.3603 100.478C46.3866 98.2941 55.6745 83.452 57.933 87.1395C59.0047 88.891 56.3313 89.9051 53.6924 87.5543C49.7341 84.0282 58.7915 78.301 57.7314 76.198C55.7955 72.3607 52.8973 75.5988 55.3345 76.6762C57.1379 77.4713 58.9471 76.1001 59.7307 71.9401C60.52 67.7802 60.739 65.5216 65.4348 66.0401" stroke="white" stroke-width="0.5" stroke-linecap="round"/>
<path d="M45.6563 17.0081C42.7178 17.0369 38.9266 20.056 37.1001 24.9707C36.7026 26.0424 36.4318 27.1717 36.2647 28.2607C36.0746 29.1307 35.9824 30.2197 36.0573 31.2395C36.0746 31.4469 36.0169 33.3483 36.7832 34.3335C36.9849 34.6273 37.2269 34.7887 37.5092 34.7887C37.6878 34.7887 37.8837 34.7138 38.0911 34.564C40.1769 33.0429 40.1999 30.7613 41.9745 25.8062C43.9508 20.2922 49.7759 18.0337 46.7567 17.1521C46.4053 17.0484 46.0365 17.0023 45.6505 17.0023" fill="white"/>
</svg>
