<svg width="100" height="100" viewBox="0 0 100 100" fill="none" xmlns="http://www.w3.org/2000/svg">
  <mask id="mask0_700_24524" style="mask-type:alpha" maskUnits="userSpaceOnUse" x="0" y="0" width="100" height="100">
    <circle cx="50" cy="50" r="50" fill="#FF2180"/>
  </mask>
  <g mask="url(#mask0_700_24524)">
    <rect x="-21.7285" y="-1.04395" width="138.462" height="176.044" fill="#C2ECF8"/>
    <g clip-path="url(#clip0_700_24524)">
      <path d="M65.5209 95.9164C66.3512 95.9164 67.0154 96.5722 67.0154 97.392V104.196C67.0154 105.016 66.4757 106.041 65.853 106.533L57.9657 112.477C57.3015 112.968 56.1392 113.378 55.3089 113.378H48.1273C47.2971 113.378 46.1347 112.968 45.4705 112.477L37.5832 106.533C36.919 106.041 36.4209 104.975 36.4209 104.196V97.392C36.4209 96.5722 37.0851 95.9164 37.9153 95.9164H65.5209Z" fill="#83BB26"/>
      <path d="M16.0797 26.0685C16.3703 24.06 17.6986 22.6253 18.9025 22.8303C20.1063 23.0352 20.7705 24.7158 20.48 26.6014C18.4874 39.7184 19.9403 52.7534 24.4236 64.5177C25.0463 66.1983 24.7142 67.9199 23.6349 68.4118C22.5141 68.9037 20.9781 67.8789 20.3139 66.1163C15.54 53.6552 13.9626 39.8823 16.0797 26.0685Z" fill="#FF2180"/>
      <path d="M19.8159 65.0505C21.2273 64.5177 22.6802 63.9848 24.0916 63.4929L24.3407 64.1077C22.9293 64.6406 21.4764 65.1735 20.065 65.7064C19.9404 65.5014 19.8574 65.2555 19.8159 65.0505ZM18.446 60.9925C19.8989 60.5416 21.3518 60.0907 22.8048 59.6398C22.8878 59.8447 22.9293 60.0497 23.0123 60.2956C21.5594 60.7465 20.1065 61.1974 18.6535 61.6893C18.5705 61.4434 18.529 61.2384 18.446 60.9925ZM17.3252 56.8524C18.8196 56.4835 20.2725 56.1146 21.767 55.7457C21.8085 55.9506 21.8915 56.1966 21.933 56.4015C20.4386 56.7704 18.9856 57.1803 17.4912 57.5493C17.4497 57.3443 17.3667 57.0984 17.3252 56.8524ZM16.4119 52.6714C17.9063 52.3845 19.4008 52.0565 20.8952 51.7696C20.9367 51.9745 20.9782 52.2205 21.0197 52.4254C19.5253 52.7124 18.0309 53.0403 16.5364 53.3272C16.4949 53.1223 16.4534 52.9173 16.4119 52.6714ZM15.7477 48.4084C17.2421 48.2034 18.7781 47.9575 20.2725 47.7525C20.314 47.9575 20.314 48.2034 20.3555 48.4084C18.8611 48.6133 17.3252 48.8593 15.8307 49.1052C15.8307 48.9003 15.7892 48.6543 15.7477 48.4084ZM15.2911 44.1044C16.827 43.9404 18.3214 43.8174 19.8574 43.6945C19.8574 43.9404 19.8989 44.1453 19.8989 44.3913C18.363 44.5143 16.8685 44.6782 15.3326 44.8422C15.3326 44.5962 15.3326 44.3503 15.2911 44.1044ZM15.0835 39.7594C16.6194 39.6774 18.1554 39.6364 19.6498 39.5954V40.2922C18.1139 40.3332 16.6194 40.4152 15.0835 40.4972C15.125 40.2103 15.0835 40.0053 15.0835 39.7594ZM15.125 35.3734C16.661 35.3734 18.1969 35.4144 19.6913 35.4554C19.6913 35.7013 19.6913 35.9062 19.6498 36.1522C18.1139 36.1522 16.5779 36.1112 15.0835 36.1112C15.125 35.8653 15.125 35.6193 15.125 35.3734ZM15.4156 30.9464C16.9515 31.0284 18.446 31.1513 19.9819 31.2333C19.9404 31.4793 19.9404 31.7252 19.8989 31.9302C18.363 31.8482 16.8685 31.7252 15.3326 31.6842C15.3741 31.4383 15.3741 31.1923 15.4156 30.9464ZM15.9137 26.5194C17.4497 26.6834 18.9441 26.8883 20.4801 27.0523C20.4386 27.2982 20.3971 27.5032 20.3971 27.7491C18.8611 27.5852 17.3667 27.4212 15.8307 27.2572C15.8307 27.0113 15.8722 26.7654 15.9137 26.5194Z" fill="white"/>
      <path d="M17.9892 27.995C20.9365 28.8558 24.0084 27.2162 24.8802 24.3059C25.5444 22.1334 24.7556 19.8379 23.0536 18.4852L21.5592 23.3221L17.5325 22.1334L18.9854 17.2965C16.8268 17.5015 14.8757 18.9771 14.2115 21.1906C13.3813 24.1009 15.0418 27.1342 17.9892 27.995Z" fill="#83BB26"/>
      <path d="M24.1333 74.3144L30.9413 74.8472V59.8037L16.9517 61.5253L24.1333 74.3144Z" fill="#83BB26"/>
      <path d="M86.9408 104.442C86.6502 106.41 85.3218 107.886 84.118 107.681C82.9141 107.476 82.2499 105.795 82.5405 103.91C84.5331 90.7925 83.0802 77.7575 78.5969 65.9933C77.9742 64.3126 78.3063 62.591 79.3856 62.0991C80.5064 61.6073 82.0424 62.632 82.7066 64.3946C87.4389 76.8148 89.0164 90.6286 86.9408 104.442Z" fill="#FF2180"/>
      <path d="M82.9559 64.8046C81.5445 65.3374 80.0916 65.8703 78.6802 66.4032L78.9293 67.0181C80.3822 66.4852 81.7936 65.9933 83.205 65.4604C83.122 65.2555 83.039 65.0095 82.9559 64.8046ZM84.3258 68.8216C82.8729 69.3135 81.42 69.7644 79.9671 70.2153C80.0501 70.4203 80.0916 70.6252 80.1746 70.8712C81.6275 70.4203 83.0805 69.9694 84.5334 69.5185C84.4919 69.2725 84.4089 69.0676 84.3258 68.8216ZM85.4882 72.9617C84.0352 73.3716 82.5408 73.7405 81.0464 74.1094C81.0879 74.3144 81.1709 74.5603 81.2124 74.7653C82.7069 74.3964 84.1598 74.0274 85.6542 73.6585C85.6127 73.4126 85.5712 73.1666 85.4882 72.9617ZM86.4429 77.1427C84.9485 77.4707 83.4541 77.7576 81.9596 78.0445C82.0012 78.2495 82.0427 78.4954 82.0842 78.7004C83.5786 78.4134 85.073 78.1265 86.5675 77.7986C86.526 77.5936 86.4845 77.3477 86.4429 77.1427ZM87.1487 81.3647C85.6542 81.6107 84.1183 81.8156 82.6238 82.0616C82.6653 82.2665 82.6653 82.5125 82.7069 82.7174C84.2013 82.5125 85.7372 82.3075 87.2317 82.0616C87.2317 81.8566 87.1902 81.6107 87.1487 81.3647ZM87.6468 85.6688C86.1109 85.8327 84.6164 85.9967 83.0805 86.1197C83.0805 86.3656 83.122 86.5706 83.122 86.8165C84.6579 86.6935 86.1524 86.5706 87.6883 86.4066C87.6883 86.1606 87.6468 85.9147 87.6468 85.6688ZM87.8959 90.0138C86.3599 90.0957 84.8655 90.1777 83.3295 90.2187V90.9156C84.8655 90.8746 86.4014 90.7926 87.8959 90.7516V90.0138ZM87.8959 94.3997C86.3599 94.3997 84.824 94.3998 83.3295 94.3588C83.3295 94.6047 83.3295 94.8097 83.288 95.0556C84.824 95.0966 86.3599 95.0966 87.8544 95.1376C87.8959 94.8916 87.8959 94.6457 87.8959 94.3997ZM87.6468 98.8267C86.1109 98.7447 84.5749 98.6628 83.0805 98.5808C83.0805 98.8267 83.039 99.0317 83.039 99.2776C84.5749 99.4006 86.0693 99.4826 87.6053 99.5646C87.6053 99.3186 87.6468 99.0727 87.6468 98.8267ZM87.1902 103.254C85.6542 103.09 84.1598 102.926 82.6238 102.762C82.5823 103.008 82.5408 103.213 82.5408 103.459C84.0352 103.664 85.5712 103.828 87.1071 103.992C87.1071 103.746 87.1487 103.5 87.1902 103.254Z" fill="white"/>
      <path d="M77.31 76.8558L72.4531 77.4706V59.8037L82.4991 61.8122L77.31 76.8558Z" fill="#83BB26"/>
      <path d="M54.7274 52.6304H47.8364V65.2555H54.7274V52.6304Z" fill="#1072B9"/>
      <path d="M29.3638 100.958C29.3638 103.377 31.1488 105.877 33.3904 106.451C45.2629 109.484 57.592 109.484 69.4645 106.451C71.7062 105.877 73.4912 103.336 73.4912 100.958V62.796C73.4912 60.3776 71.7062 59.0249 69.4645 59.5987C57.592 62.632 45.2629 62.632 33.3904 59.5987C31.1488 59.0249 29.3638 60.3776 29.3638 62.796V100.958Z" fill="#409746"/>
      <path d="M32.3523 54.6799C32.1862 56.6065 33.6392 58.1641 35.5902 58.1641H67.2225C69.1736 58.1641 70.6265 56.6065 70.4604 54.6799L68.4679 32.586C68.3018 30.6594 66.5583 29.1018 64.6072 29.1018H38.247C36.2959 29.1018 34.5524 30.6594 34.3864 32.586L32.3523 54.6799Z" fill="#409746"/>
      <path d="M48.1685 24.9208L49.2479 24.4699L43.9343 12.1317L42.855 12.5826L48.1685 24.9208Z" fill="#1072B9"/>
      <path d="M40.0322 14.3861C40.8624 16.3537 43.1871 17.2554 45.1797 16.4356C47.1723 15.5748 48.0855 13.3204 47.2553 11.3528C46.4251 9.38526 44.1004 8.48347 42.1078 9.30328C40.1152 10.1641 39.1604 12.4186 40.0322 14.3861Z" fill="#FF2180"/>
      <path d="M58.9568 12.1611L53.6245 24.4875L54.7316 24.9545L60.0639 12.6281L58.9568 12.1611Z" fill="#1072B9"/>
      <path d="M61.6184 13.8942C61.0787 15.165 59.5428 15.7798 58.2559 15.2469C56.9275 14.7141 56.3463 13.1974 56.886 11.9267C57.4256 10.615 58.9616 10.0411 60.2485 10.574C61.5769 11.1069 62.1995 12.5825 61.6184 13.8942Z" fill="#FF2180"/>
      <path d="M51.2819 23.65C54.6029 23.65 57.3012 25.6996 57.3012 28.2C57.3012 28.6099 57.2182 29.0198 57.0936 29.3887C55.4332 29.9626 53.3991 30.2905 51.1989 30.2905C48.9988 30.2905 47.1307 29.9626 45.5118 29.4297C45.3457 29.0198 45.2627 28.6099 45.2627 28.159C45.2212 25.6996 47.9195 23.65 51.2819 23.65Z" fill="#83BB26"/>
      <path d="M52.9424 70.2563L53.399 70.5843V70.2563H52.9424Z" fill="#EA620A"/>
      <path d="M53.5654 70.2563V70.5843L54.0636 70.2563H53.5654Z" fill="#4D3E23"/>
      <path d="M37.6245 70.5023L37.749 70.5843V70.4613L37.6245 70.5023Z" fill="#A3859D"/>
      <path d="M36.5451 46.0718C35.3827 47.0146 36.0469 49.597 38.3716 51.1957C46.1759 56.5654 56.637 56.5654 64.4412 51.1957C66.7659 49.597 67.3886 47.0146 66.2263 46.0718C65.0639 45.129 62.9883 45.6619 61.2863 46.7687C55.3501 50.8677 47.3798 50.8677 41.4435 46.7687C39.783 45.6619 37.7074 45.0881 36.5451 46.0718Z" fill="#FF2180"/>
      <path d="M63.8602 50.1299C64.3168 49.802 64.7735 49.4741 65.2301 49.1052C64.5659 48.3263 63.9432 47.5475 63.279 46.8097C62.9054 47.1376 62.4903 47.4246 62.1167 47.7115C62.6979 48.4903 63.279 49.3101 63.8602 50.1299Z" fill="#F9DC85"/>
      <path d="M60.7468 51.9335C61.245 51.6875 61.7431 51.4416 62.2413 51.1547C61.7431 50.2939 61.2035 49.4331 60.7053 48.5723C60.2902 48.8182 59.8751 49.0232 59.4185 49.2281C59.8751 50.1299 60.3317 51.0317 60.7468 51.9335Z" fill="#F9DC85"/>
      <path d="M57.4675 53.2042C58.0071 53.0403 58.5053 52.8763 59.0449 52.6714C58.6713 51.7286 58.3392 50.7858 57.9656 49.843C57.509 50.007 57.0523 50.1709 56.5957 50.2939C56.8863 51.2777 57.1769 52.2205 57.4675 53.2042Z" fill="#F9DC85"/>
      <path d="M54.0221 53.9011L55.641 53.6552L55.0183 50.7039C54.5617 50.7858 54.1051 50.8678 53.6069 50.9088C53.773 51.8926 53.8975 52.8764 54.0221 53.9011Z" fill="#F9DC85"/>
      <path d="M50.5347 54.024C51.0743 54.065 51.614 54.065 52.1952 54.024C52.1536 53.0403 52.1121 52.0155 52.0706 51.0317H50.6592C50.6177 52.0155 50.5762 53.0403 50.5347 54.024Z" fill="#F9DC85"/>
      <path d="M47.0894 53.6142C47.629 53.7371 48.1687 53.8191 48.7083 53.8601C48.8329 52.8763 48.9574 51.8516 49.0819 50.8678C48.6253 50.8268 48.1687 50.7448 47.6705 50.6628C47.5045 51.6466 47.2969 52.6304 47.0894 53.6142Z" fill="#F9DC85"/>
      <path d="M43.7271 52.6714C44.2667 52.8763 44.7649 53.0403 45.3045 53.2043C45.5951 52.2615 45.8857 51.2777 46.1763 50.3349C45.7196 50.212 45.263 50.048 44.8064 49.884C44.4328 50.7858 44.0591 51.7286 43.7271 52.6714Z" fill="#F9DC85"/>
      <path d="M40.4888 51.1547C40.9869 51.4416 41.4851 51.6875 41.9832 51.9335C42.4398 51.0317 42.855 50.1299 43.3116 49.2281C42.8965 49.0232 42.4398 48.8182 42.0247 48.5723C41.5266 49.4331 41.0284 50.2939 40.4888 51.1547Z" fill="#F9DC85"/>
      <path d="M37.5415 49.1051C37.9981 49.4741 38.4548 49.802 38.9114 50.1299C39.4926 49.3101 40.0737 48.4903 40.6549 47.6705C40.2398 47.3835 39.8662 47.0966 39.4926 46.7687C38.8284 47.5475 38.2057 48.3263 37.5415 49.1051Z" fill="#F9DC85"/>
      <path d="M64.0678 69.8054C66.5171 69.8054 68.5511 72.1009 68.5511 74.9292V88.4971C68.5511 91.3255 66.5586 93.6209 64.0678 93.6209H39.2436C36.7944 93.6209 34.7603 91.3255 34.7603 88.4971V74.9292C34.7603 72.1009 36.7528 69.8054 39.2436 69.8054H64.0678Z" fill="white"/>
      <path d="M46.5079 73.4126C48.6666 73.4126 50.4931 74.6013 51.4479 76.3639C52.3612 74.6013 54.2292 73.4126 56.3878 73.4126C59.4597 73.4126 61.9505 75.872 61.9505 78.9053C61.9505 86.0787 51.4479 91.7764 51.4479 91.7764C51.4479 91.7764 49.9119 90.9566 48.0024 89.5219C46.6325 88.4971 45.0965 87.1854 43.8096 85.6278C42.1907 83.6602 40.9453 81.3648 40.9453 78.9053C40.9453 75.872 43.436 73.4126 46.5079 73.4126Z" fill="#FF2180"/>
      <path d="M43.4984 43.2189C45.9286 43.2189 47.8987 41.2736 47.8987 38.8739C47.8987 36.4743 45.9286 34.5289 43.4984 34.5289C41.0682 34.5289 39.0981 36.4743 39.0981 38.8739C39.0981 41.2736 41.0682 43.2189 43.4984 43.2189Z" fill="white"/>
      <path d="M57.6335 45.0348C60.9716 45.0348 63.6777 42.3628 63.6777 39.0666C63.6777 35.7705 60.9716 33.0984 57.6335 33.0984C54.2954 33.0984 51.5894 35.7705 51.5894 39.0666C51.5894 42.3628 54.2954 45.0348 57.6335 45.0348Z" fill="white"/>
      <path d="M43.8885 41.8703C45.5691 41.8703 46.9314 40.5251 46.9314 38.8657C46.9314 37.2063 45.5691 35.8611 43.8885 35.8611C42.208 35.8611 40.8457 37.2063 40.8457 38.8657C40.8457 40.5251 42.208 41.8703 43.8885 41.8703Z" fill="#83BB26"/>
      <path d="M57.1353 42.9361C59.3936 42.9361 61.2243 41.1284 61.2243 38.8985C61.2243 36.6686 59.3936 34.861 57.1353 34.861C54.8771 34.861 53.0464 36.6686 53.0464 38.8985C53.0464 41.1284 54.8771 42.9361 57.1353 42.9361Z" fill="#83BB26"/>
      <path d="M43.9386 40.6242C44.968 40.6242 45.8025 39.8002 45.8025 38.7837C45.8025 37.7672 44.968 36.9432 43.9386 36.9432C42.9092 36.9432 42.0747 37.7672 42.0747 38.7837C42.0747 39.8002 42.9092 40.6242 43.9386 40.6242Z" fill="#1D1D1B"/>
      <path d="M42.9215 40.5299C43.2975 40.5299 43.6023 40.2289 43.6023 39.8577C43.6023 39.4864 43.2975 39.1854 42.9215 39.1854C42.5455 39.1854 42.2407 39.4864 42.2407 39.8577C42.2407 40.2289 42.5455 40.5299 42.9215 40.5299Z" fill="white"/>
      <path d="M57.1397 41.1407C58.529 41.1407 59.6553 40.0285 59.6553 38.6566C59.6553 37.2847 58.529 36.1726 57.1397 36.1726C55.7503 36.1726 54.624 37.2847 54.624 38.6566C54.624 40.0285 55.7503 41.1407 57.1397 41.1407Z" fill="#1D1D1B"/>
      <path d="M58.1564 41.2473C58.6562 41.2473 59.0614 40.8472 59.0614 40.3537C59.0614 39.8602 58.6562 39.4601 58.1564 39.4601C57.6566 39.4601 57.2515 39.8602 57.2515 40.3537C57.2515 40.8472 57.6566 41.2473 58.1564 41.2473Z" fill="white"/>
    </g>
  </g>
  <defs>
    <clipPath id="clip0_700_24524">
      <rect width="75" height="145" fill="white" transform="translate(14 9)"/>
    </clipPath>
  </defs>
</svg>
