<svg width="110" height="110" viewBox="0 0 110 110" fill="none" xmlns="http://www.w3.org/2000/svg">
<path d="M55 110.006C85.3774 110.006 110 85.3837 110 55.0063C110 24.6289 85.3774 0 55 0C24.6226 0 0 24.6226 0 55C0 85.3774 24.6226 110 55 110" fill="#27385A"/>
<path d="M75.4586 73.7918C77.5057 76.9544 86.9872 91.0815 89.592 92.197C92.1969 93.3124 88.2928 76.5805 87.5449 73.0439L75.4586 73.7855V73.7918ZM23.355 73.0503C22.6135 76.5868 18.7093 93.3124 21.3079 92.2033C23.9127 91.0878 33.3942 76.9544 35.4413 73.7982L23.355 73.0566V73.0503ZM61.7118 73.2784C61.3251 75.2368 59.1006 92.8498 55.7098 92.9829C52.319 93.116 51.0134 79.6734 49.1818 74.0643L61.7054 73.2784H61.7118Z" fill="#1DBADF"/>
<path d="M87.5451 73.0503L75.4587 73.7918C76.1432 74.8439 77.6516 77.1255 79.4579 79.7304H88.9584C88.3753 76.8086 87.7859 74.2101 87.5387 73.0503" fill="#6673BF"/>
<path d="M61.7119 73.2786C61.6992 73.3293 61.6928 73.3863 61.6802 73.456C61.6928 73.3863 61.7055 73.3293 61.7119 73.2786ZM49.1882 74.0645C49.6699 75.5412 50.1136 77.563 50.5699 79.7368C50.1136 77.563 49.6699 75.5412 49.1882 74.0645Z" fill="#D6D9F0"/>
<path d="M61.7119 73.2786L49.1882 74.0645C49.6699 75.5412 50.1136 77.563 50.5699 79.7368H60.6471C61.1731 76.8341 61.5217 74.3497 61.6802 73.4624C61.6928 73.3926 61.7055 73.3356 61.7119 73.2849" fill="#6673BF"/>
<path d="M23.3551 73.0503C23.3361 73.1454 23.3108 73.2531 23.2854 73.3735C23.3108 73.2531 23.3361 73.1454 23.3551 73.0503L35.4414 73.7918L23.3551 73.0503Z" fill="#D6D9F0"/>
<path d="M23.355 73.0503C23.336 73.1454 23.3106 73.2531 23.2853 73.3735C23.0127 74.6538 22.474 77.0558 21.9353 79.7304H31.4358C33.2294 77.1446 34.7315 74.8819 35.4223 73.8172V73.8045H35.435V73.7918L23.355 73.0503Z" fill="#6673BF"/>
<path d="M83.869 50.1833C83.3049 27.7599 70.8003 9.83643 55.45 9.83643C40.0997 9.83643 27.5951 27.7599 27.031 50.1833H83.869Z" fill="#BADEFA"/>
<path d="M65.394 37.4695C63.2455 35.0548 58.9548 33.3056 55.1964 33.2358V33.2232C55.0696 33.2232 54.9366 33.2295 54.8098 33.2232C54.683 33.2232 54.5499 33.2105 54.4232 33.2232V33.2358C50.6648 33.3056 46.3741 35.0548 44.2256 37.4695C40.8728 41.2406 38.3187 45.7214 37.2539 50.4622H72.372C71.3073 45.7214 68.7531 41.2406 65.394 37.4695Z" fill="#388F3D"/>
<path d="M99.7834 76.7706C100.227 76.7706 100.645 76.5742 100.931 76.2319C101.209 75.8897 101.33 75.4397 101.247 75.0087C99.663 66.611 94.8589 50.1579 85.0099 49.8093C73.5447 49.4037 37.3681 49.4037 25.9029 49.8093C16.0539 50.1516 11.2498 66.6047 9.66531 75.0087C9.58292 75.446 9.697 75.8897 9.98221 76.2319C10.2674 76.5742 10.6857 76.7706 11.1294 76.7706H99.7834Z" fill="#FF2180"/>
<path d="M39.3647 63.2581C39.3647 68.2017 35.3591 72.2135 30.4093 72.2135C25.4594 72.2135 21.4539 68.208 21.4539 63.2581C21.4539 58.3083 25.4594 54.3027 30.4093 54.3027C35.3591 54.3027 39.3647 58.3146 39.3647 63.2581Z" fill="#FFD525"/>
<path d="M37.6471 63.2645C37.6471 67.2573 34.4085 70.496 30.4156 70.4896C26.4228 70.4896 23.1841 67.251 23.1904 63.2581C23.1904 59.2653 26.4291 56.0266 30.4283 56.033C34.4211 56.033 37.6598 59.278 37.6535 63.2645" fill="#82D4FA"/>
<path d="M32.8556 56.4641C30.3585 59.519 26.6825 64.0188 24.2424 67.0167C24.6164 67.6251 25.0727 68.1765 25.6051 68.6518L34.9344 57.6239C34.3196 57.1296 33.6161 56.7366 32.8619 56.4641" fill="#EDF0F2"/>
<path d="M36.1194 58.8281C35.9927 58.6633 35.8532 58.5049 35.7138 58.3528C33.0836 61.5724 29.1034 66.4399 26.6633 69.4377C26.8852 69.5708 27.1133 69.6976 27.3542 69.8053L36.1194 58.8281Z" fill="#EDF0F2"/>
<path d="M64.4054 63.2581C64.4054 68.2017 60.3936 72.2135 55.45 72.2135C50.5065 72.2135 46.4946 68.208 46.4946 63.2581C46.4946 58.3083 50.5065 54.3027 55.45 54.3027C60.3936 54.3027 64.4054 58.3146 64.4054 63.2581Z" fill="#FFD525"/>
<path d="M62.6815 63.2645C62.6815 67.2573 59.4429 70.496 55.4437 70.4896C51.4508 70.4896 48.2185 67.251 48.2185 63.2581C48.2185 59.2653 51.4635 56.0266 55.4563 56.033C59.4492 56.033 62.6815 59.278 62.6815 63.2645Z" fill="#82D4FA"/>
<path d="M57.8964 56.4641C55.3992 59.519 51.7233 64.0188 49.2832 67.0167C49.6571 67.6251 50.1135 68.1765 50.6395 68.6518L59.9688 57.6239C59.3541 57.1296 58.6506 56.7366 57.8964 56.4641Z" fill="#EDF0F2"/>
<path d="M61.1604 58.8281C61.0337 58.6633 60.8942 58.5049 60.7548 58.3528C58.1246 61.5724 54.1444 66.4399 51.7043 69.4377C51.9262 69.5708 52.1543 69.6976 52.3888 69.8053L61.1541 58.8281H61.1604Z" fill="#EDF0F2"/>
<path d="M89.4465 63.2581C89.4465 68.2017 85.4346 72.2135 80.491 72.2135C75.5475 72.2135 71.5356 68.208 71.5356 63.2581C71.5356 58.3083 75.5475 54.3027 80.491 54.3027C85.4346 54.3027 89.4465 58.3146 89.4465 63.2581Z" fill="#FFD525"/>
<path d="M87.7226 63.2645C87.7226 67.2573 84.4839 70.496 80.491 70.4896C76.4982 70.4896 73.2595 67.251 73.2659 63.2581C73.2659 59.2653 76.5045 56.0266 80.4974 56.033C84.4902 56.033 87.7289 59.278 87.7226 63.2645Z" fill="#82D4FA"/>
<path d="M82.931 56.4641C80.4339 59.519 76.7579 64.0188 74.3179 67.0167C74.6918 67.6251 75.1481 68.1765 75.6805 68.6518L85.0099 57.6239C84.3951 57.1296 83.6916 56.7366 82.9374 56.4641" fill="#EDF0F2"/>
<path d="M86.1951 58.8281C86.0684 58.6633 85.9289 58.5049 85.7895 58.3528C83.1593 61.5724 79.1791 66.4399 76.739 69.4377C76.9608 69.5708 77.189 69.6976 77.4298 69.8053L86.1951 58.8281Z" fill="#EDF0F2"/>
<path d="M66.7249 19.5333C65.8186 20.2685 65.7806 21.479 66.332 22.3663C65.7362 23.0191 65.0961 23.824 64.6271 24.3628C62.7384 21.6628 59.316 19.8565 55.3865 19.8565C51.8119 19.8565 48.6494 21.3586 46.6846 23.6656C46.3297 23.241 45.9431 22.772 45.5755 22.3727C46.1269 21.4854 46.0889 20.2748 45.1825 19.5396C43.522 18.1833 40.8601 20.6234 42.0199 22.379C42.5143 23.1332 43.8199 23.6339 44.6438 23.2346C44.7706 23.1712 44.8847 23.0889 44.9924 23.0065C45.322 23.317 45.7593 23.7987 46.1459 24.3691C45.1699 25.7634 44.5995 27.3923 44.5995 29.1415C44.5995 34.2688 49.4289 38.4201 55.3865 38.4201C61.3441 38.4201 66.1736 34.2625 66.1736 29.1415C66.1736 27.7852 65.8313 26.505 65.2229 25.3451C65.6285 24.3437 66.4144 23.4881 66.9151 23.0065C67.0292 23.0889 67.1369 23.1712 67.2637 23.2346C68.0876 23.6339 69.3932 23.1332 69.8875 22.379C71.0474 20.6234 68.3855 18.1833 66.7249 19.5396" fill="#83BB26"/>
<path d="M59.0816 27.1831C60.4252 26.4923 59.4238 24.6607 58.1373 25.3642C56.9204 26.0233 57.7697 27.8549 59.0816 27.1831Z" fill="white"/>
<path d="M58.3781 26.8408C59.0309 26.5049 58.5429 25.6176 57.9218 25.9535C57.3324 26.2768 57.7443 27.1641 58.3781 26.8408Z" fill="#212121"/>
<path d="M53.067 27.3099C54.4106 26.6191 53.4092 24.7938 52.1226 25.491C50.9057 26.1501 51.755 27.9817 53.067 27.3099Z" fill="white"/>
<path d="M52.3635 26.9676C53.0163 26.6317 52.5282 25.7444 51.9071 26.0803C51.3177 26.4035 51.7297 27.2908 52.3635 26.9676Z" fill="#212121"/>
<path d="M55.4689 33.7618C60.0828 33.5843 59.9561 30.0922 61.0779 30.8274C61.68 31.2203 61.2363 32.2154 60.8497 32.7351C58.7582 35.5111 54.9238 36.3667 52.0591 34.497C51.2859 33.99 50.2528 32.9442 50.0056 32.0569C49.8598 31.5436 49.8915 30.6309 50.6964 30.7893C51.2795 30.9034 51.7168 33.9139 55.4625 33.7681" fill="#E53836"/>
<path d="M56.014 30.0923C57.4527 29.3571 56.3816 27.405 55.0063 28.1529C53.707 28.8564 54.6133 30.8084 56.014 30.0923Z" fill="#2E7D33"/>
</svg>
