<svg width="173" height="174" viewBox="0 0 173 174" fill="none" xmlns="http://www.w3.org/2000/svg">
<path d="M86.35 163.42C128.52 163.42 162.7 129.24 162.7 87.07C162.7 44.9 128.52 10.71 86.35 10.71C44.18 10.71 10 44.89 10 87.06C10 129.23 44.18 163.41 86.35 163.41" fill="#FF2180"/>
<path d="M108.187 119.728C98.3987 119.714 76.6199 119.696 66.8373 119.668C65.5411 119.663 64.6214 121.124 64.7518 122.301C64.9182 123.701 66.0886 124.382 67.3847 124.387L108.734 124.447C110.03 124.451 110.95 122.99 110.82 121.814C110.653 120.414 109.483 119.733 108.187 119.728Z" fill="#1C1C1C"/>
<path d="M55.4 81.97C55.4 90.37 48.59 97.17 40.2 97.17C31.81 97.17 25 90.36 25 81.97C25 73.58 31.81 66.77 40.2 66.77C48.59 66.77 55.4 73.58 55.4 81.97Z" fill="#1C1C1C"/>
<path d="M39.74 76.0799C39.74 78.5499 37.7401 80.5499 35.2701 80.5499C32.8001 80.5499 30.8 78.5499 30.8 76.0799C30.8 73.6099 32.8001 71.6099 35.2701 71.6099C37.7401 71.6099 39.74 73.6099 39.74 76.0799Z" fill="white"/>
<path d="M44.65 83.1301C44.65 84.5501 43.5 85.7001 42.08 85.7001C40.66 85.7001 39.51 84.5501 39.51 83.1301C39.51 81.7101 40.66 80.5601 42.08 80.5601C43.5 80.5601 44.65 81.7101 44.65 83.1301Z" fill="white"/>
<path d="M147.72 81.97C147.72 90.37 140.91 97.17 132.52 97.17C124.13 97.17 117.32 90.36 117.32 81.97C117.32 73.58 124.13 66.77 132.52 66.77C140.91 66.77 147.72 73.58 147.72 81.97Z" fill="#1C1C1C"/>
<path d="M132.07 76.0799C132.07 78.5499 130.07 80.5499 127.6 80.5499C125.13 80.5499 123.13 78.5499 123.13 76.0799C123.13 73.6099 125.13 71.6099 127.6 71.6099C130.07 71.6099 132.07 73.6099 132.07 76.0799Z" fill="white"/>
<path d="M136.97 83.1301C136.97 84.5501 135.82 85.7001 134.4 85.7001C132.98 85.7001 131.83 84.5501 131.83 83.1301C131.83 81.7101 132.98 80.5601 134.4 80.5601C135.82 80.5601 136.97 81.7101 136.97 83.1301Z" fill="white"/>
<path d="M51.11 110.13C51.11 114.4 46.45 117.87 40.7 117.87C34.95 117.87 30.29 114.41 30.29 110.13C30.29 105.85 34.95 102.39 40.7 102.39C46.45 102.39 51.11 105.85 51.11 110.13Z" fill="#FFD525"/>
<path d="M142.42 110.13C142.42 114.4 137.76 117.87 132.01 117.87C126.26 117.87 121.6 114.41 121.6 110.13C121.6 105.85 126.26 102.39 132.01 102.39C137.76 102.39 142.42 105.85 142.42 110.13Z" fill="#FFD525"/>
<path d="M26.4 67.2801C35.47 63.6001 44.53 59.9201 53.6 56.2301C54.8 55.7401 55.63 54.6701 55.26 53.3101C54.95 52.1701 53.54 51.1701 52.34 51.6501C43.27 55.3301 34.21 59.0201 25.14 62.7001C23.94 63.1901 23.11 64.2601 23.48 65.6201C23.79 66.7601 25.2 67.7601 26.4 67.2801Z" fill="#1C1C1C"/>
<path d="M147.57 62.71C138.5 59.03 129.44 55.35 120.38 51.66C119.18 51.17 117.78 52.18 117.46 53.32C117.09 54.68 117.92 55.75 119.12 56.24L146.31 67.29C147.51 67.78 148.91 66.77 149.23 65.63C149.6 64.27 148.77 63.2 147.57 62.71Z" fill="#1C1C1C"/>
</svg>
