<svg width="108" height="108" viewBox="0 0 108 108" fill="none" xmlns="http://www.w3.org/2000/svg">
<path d="M53.9969 108C83.8202 108 107.994 83.8265 107.994 54.0031C107.994 24.1798 83.8202 0 53.9969 0C24.1735 0 0 24.1735 0 53.9969C0 83.8202 24.1735 107.994 53.9969 107.994" fill="#583F99"/>
<path d="M74.0823 72.4459C76.0921 75.5508 85.4007 89.4203 87.958 90.5154C90.5154 91.6105 86.6824 75.1837 85.9482 71.7117L74.0823 72.4397V72.4459ZM22.929 71.7179C22.201 75.1899 18.3681 91.6105 20.9192 90.5216C23.4766 89.4265 32.7851 75.5508 34.7949 72.4521L22.929 71.7241V71.7179ZM60.5862 71.9419C60.2067 73.8646 58.0226 91.1563 54.6937 91.287C51.3648 91.4176 50.083 78.2202 48.2848 72.7135L60.58 71.9419H60.5862Z" fill="#1DBADF"/>
<path d="M85.9484 71.7179L74.0825 72.4459C74.7545 73.4788 76.2354 75.7188 78.0088 78.2762H87.336C86.7635 75.4077 86.1848 72.8566 85.9422 71.7179" fill="#6673BF"/>
<path d="M60.5862 71.9419C60.5738 71.9917 60.5676 72.0477 60.5551 72.1161C60.5676 72.0477 60.58 71.9917 60.5862 71.9419ZM48.291 72.7135C48.7639 74.1632 49.1995 76.1481 49.6475 78.2824C49.1995 76.1481 48.7639 74.1632 48.291 72.7135Z" fill="#D6D9F0"/>
<path d="M60.5862 71.9419L48.291 72.7135C48.7639 74.1632 49.1995 76.1481 49.6475 78.2824H59.5409C60.0573 75.4326 60.3996 72.9935 60.5551 72.1223C60.5676 72.0539 60.58 71.9979 60.5862 71.9481" fill="#6673BF"/>
<path d="M22.9293 71.7179C22.9106 71.8112 22.8857 71.917 22.8608 72.0352C22.8857 71.917 22.9106 71.8112 22.9293 71.7179L34.7952 72.4459L22.9293 71.7179Z" fill="#D6D9F0"/>
<path d="M22.9289 71.7179C22.9103 71.8112 22.8854 71.917 22.8605 72.0352C22.5929 73.2921 22.064 75.6504 21.5352 78.2762H30.8623C32.6232 75.7375 34.0979 73.5161 34.7762 72.4708V72.4583H34.7886V72.4459L22.9289 71.7179Z" fill="#6673BF"/>
<path d="M82.3394 49.268C81.7857 27.2536 69.5091 9.65698 54.4388 9.65698C39.3684 9.65698 27.0919 27.2536 26.5381 49.268H82.3394Z" fill="#BADEFA"/>
<path d="M64.2016 36.7861C62.0922 34.4154 57.8798 32.6981 54.19 32.6296V32.6172C54.0655 32.6172 53.9348 32.6234 53.8104 32.6172C53.686 32.6172 53.5553 32.6047 53.4308 32.6172V32.6296C49.741 32.6981 45.5286 34.4154 43.4192 36.7861C40.1276 40.4883 37.62 44.8875 36.5747 49.5417H71.0523C70.007 44.8875 67.4994 40.4883 64.2016 36.7861Z" fill="#388F3D"/>
<path d="M97.9636 75.3704C98.3991 75.3704 98.8098 75.1775 99.0898 74.8415C99.3636 74.5055 99.4818 74.0637 99.4009 73.6406C97.8453 65.3961 93.1289 49.2431 83.4594 48.9008C72.2034 48.5026 36.6866 48.5026 25.4305 48.9008C15.7611 49.2368 11.0446 65.3899 9.48905 73.6406C9.40816 74.0699 9.52017 74.5055 9.80017 74.8415C10.0802 75.1775 10.4908 75.3704 10.9264 75.3704H97.9636Z" fill="#FF2180"/>
<path d="M38.6466 62.1045C38.6466 66.9579 34.7142 70.8966 29.8546 70.8966C24.995 70.8966 21.0625 66.9641 21.0625 62.1045C21.0625 57.2449 24.995 53.3124 29.8546 53.3124C34.7142 53.3124 38.6466 57.2511 38.6466 62.1045Z" fill="#FFD525"/>
<path d="M36.9601 62.1107C36.9601 66.0308 33.7805 69.2103 29.8605 69.2041C25.9405 69.2041 22.7609 66.0245 22.7671 62.1045C22.7671 58.1845 25.9467 55.0049 29.8729 55.0111C33.793 55.0111 36.9726 58.1969 36.9663 62.1107" fill="#82D4FA"/>
<path d="M32.2564 55.4342C29.8048 58.4333 26.1959 62.8512 23.8003 65.7943C24.1674 66.3916 24.6154 66.933 25.1381 67.3996L34.2973 56.5729C33.6937 56.0875 33.003 55.7018 32.2626 55.4342" fill="#EDF0F2"/>
<path d="M35.4609 57.7551C35.3364 57.5933 35.1995 57.4378 35.0627 57.2885C32.4804 60.4494 28.5728 65.2281 26.1772 68.1712C26.395 68.3019 26.619 68.4263 26.8555 68.5321L35.4609 57.7551Z" fill="#EDF0F2"/>
<path d="M63.2306 62.1045C63.2306 66.9579 59.2919 70.8966 54.4386 70.8966C49.5852 70.8966 45.6465 66.9641 45.6465 62.1045C45.6465 57.2449 49.5852 53.3124 54.4386 53.3124C59.2919 53.3124 63.2306 57.2511 63.2306 62.1045Z" fill="#FFD525"/>
<path d="M61.5381 62.1107C61.5381 66.0308 58.3585 69.2103 54.4323 69.2041C50.5122 69.2041 47.3389 66.0245 47.3389 62.1045C47.3389 58.1845 50.5247 55.0049 54.4447 55.0111C58.3647 55.0111 61.5381 58.1969 61.5381 62.1107Z" fill="#82D4FA"/>
<path d="M56.8403 55.4342C54.3888 58.4333 50.7799 62.8512 48.3843 65.7943C48.7514 66.3916 49.1994 66.933 49.7158 67.3996L58.875 56.5729C58.2715 56.0875 57.5808 55.7018 56.8403 55.4342Z" fill="#EDF0F2"/>
<path d="M60.0449 57.7551C59.9204 57.5933 59.7835 57.4378 59.6466 57.2885C57.0644 60.4494 53.1568 65.2281 50.7612 68.1712C50.979 68.3019 51.203 68.4263 51.4332 68.5321L60.0386 57.7551H60.0449Z" fill="#EDF0F2"/>
<path d="M87.8151 62.1045C87.8151 66.9579 83.8764 70.8966 79.023 70.8966C74.1697 70.8966 70.231 66.9641 70.231 62.1045C70.231 57.2449 74.1697 53.3124 79.023 53.3124C83.8764 53.3124 87.8151 57.2511 87.8151 62.1045Z" fill="#FFD525"/>
<path d="M86.1227 62.1107C86.1227 66.0308 82.9431 69.2103 79.0231 69.2041C75.1031 69.2041 71.9235 66.0245 71.9297 62.1045C71.9297 58.1845 75.1093 55.0049 79.0293 55.0111C82.9494 55.0111 86.1289 58.1969 86.1227 62.1107Z" fill="#82D4FA"/>
<path d="M81.4185 55.4342C78.9669 58.4333 75.358 62.8512 72.9624 65.7943C73.3295 66.3916 73.7775 66.933 74.3002 67.3996L83.4594 56.5729C82.8558 56.0875 82.1651 55.7018 81.4247 55.4342" fill="#EDF0F2"/>
<path d="M84.623 57.7551C84.4985 57.5933 84.3616 57.4378 84.2248 57.2885C81.6425 60.4494 77.7349 65.2281 75.3394 68.1712C75.5571 68.3019 75.7811 68.4263 76.0176 68.5321L84.623 57.7551Z" fill="#EDF0F2"/>
<path d="M65.5082 19.1771C64.6184 19.8988 64.5811 21.0873 65.1224 21.9584C64.5375 22.5993 63.9091 23.3895 63.4486 23.9184C61.5944 21.2677 58.2344 19.4944 54.3766 19.4944C50.8672 19.4944 47.7623 20.9691 45.8334 23.234C45.4849 22.8171 45.1054 22.3566 44.7445 21.9646C45.2858 21.0935 45.2485 19.9051 44.3587 19.1833C42.7285 17.8517 40.1151 20.2473 41.2538 21.9709C41.7391 22.7113 43.0209 23.2029 43.8298 22.8109C43.9543 22.7486 44.0662 22.6677 44.172 22.5869C44.4956 22.8918 44.9249 23.3646 45.3045 23.9246C44.3463 25.2936 43.7862 26.8927 43.7862 28.61C43.7862 33.6438 48.5276 37.7194 54.3766 37.7194C60.2255 37.7194 64.9669 33.6376 64.9669 28.61C64.9669 27.2785 64.6309 26.0216 64.0335 24.8829C64.4317 23.8998 65.2033 23.0598 65.6949 22.5869C65.8069 22.6677 65.9126 22.7486 66.0371 22.8109C66.846 23.2029 68.1278 22.7113 68.6131 21.9709C69.7518 20.2473 67.1384 17.8517 65.5082 19.1833" fill="#83BB26"/>
<path d="M58.0041 26.6874C59.3232 26.0091 58.3401 24.2109 57.077 24.9016C55.8823 25.5487 56.7161 27.3469 58.0041 26.6874Z" fill="white"/>
<path d="M57.3133 26.3513C57.9542 26.0215 57.4751 25.1504 56.8653 25.4802C56.2866 25.7975 56.6911 26.6687 57.3133 26.3513Z" fill="#212121"/>
<path d="M52.0993 26.8117C53.4184 26.1335 52.4353 24.3415 51.1722 25.026C49.9775 25.6731 50.8113 27.4713 52.0993 26.8117Z" fill="white"/>
<path d="M51.4085 26.4758C52.0494 26.146 51.5703 25.2749 50.9605 25.6047C50.3819 25.922 50.7863 26.7931 51.4085 26.4758Z" fill="#212121"/>
<path d="M54.4573 33.1461C58.9872 32.9718 58.8627 29.5434 59.9641 30.2652C60.5552 30.6509 60.1196 31.6278 59.7401 32.1381C57.6867 34.8634 53.9222 35.7034 51.1098 33.8678C50.3506 33.3701 49.3364 32.3434 49.0937 31.4723C48.9506 30.9683 48.9817 30.0723 49.772 30.2278C50.3444 30.3398 50.7738 33.2954 54.4511 33.1523" fill="#E53836"/>
<path d="M54.9922 29.5434C56.4047 28.8216 55.3531 26.9051 54.0029 27.6394C52.7273 28.33 53.6171 30.2465 54.9922 29.5434Z" fill="#2E7D33"/>
</svg>
