<svg width="48" height="48" viewBox="0 0 48 48" fill="none" xmlns="http://www.w3.org/2000/svg">
<g clip-path="url(#clip0_5556_653)">
<path d="M23.9734 47.5937C36.9485 47.5937 47.4858 37.0564 47.4858 24.0813C47.4858 11.1061 36.9485 0.568848 23.9734 0.568848C10.9982 0.568848 0.460938 11.1061 0.460938 24.0813C0.460938 37.0835 10.9982 47.5937 23.9734 47.5937Z" fill="#FF2180"/>
<path d="M15.4961 7.88257C19.2342 7.88257 22.9724 7.88257 26.7105 7.88257C26.7376 9.64329 26.7105 11.404 26.7376 13.1376C26.7918 13.4085 27.0085 13.7065 27.3336 13.6794C29.0943 13.6794 30.8821 13.6794 32.6428 13.6794C32.6428 15.9277 32.6428 18.2031 32.6428 20.4514C26.9272 20.4514 21.2117 20.4514 15.5232 20.4514C15.4961 16.2528 15.4961 12.0812 15.4961 7.88257Z" fill="white"/>
<path d="M27.93 8.69507C29.2031 9.94112 30.5305 11.1872 31.8036 12.4332C30.5034 12.4332 29.2302 12.4332 27.93 12.4332C27.93 11.2143 27.9029 9.94112 27.93 8.69507Z" fill="white"/>
<path d="M11.2703 16.1986C11.3245 15.9549 11.5682 15.7381 11.8391 15.7652C12.6247 15.7652 13.4373 15.7652 14.2229 15.7652C14.2229 17.2822 14.2229 18.7991 14.2229 20.3431C14.2229 20.3973 14.25 20.4786 14.1687 20.4786C13.031 20.4786 11.8662 20.4786 10.7285 20.4786C10.7285 19.693 10.7285 18.9345 10.7285 18.149C10.9181 17.4989 11.1077 16.8488 11.2703 16.1986Z" fill="#FFD525"/>
<path d="M33.916 20.4515C33.916 19.9097 33.916 19.395 33.916 18.8533C34.837 18.8533 35.758 18.8533 36.679 18.8533C36.977 18.8533 37.2478 19.1242 37.2478 19.4221C37.2478 19.7743 37.2478 20.0993 37.2478 20.4515C36.1372 20.4515 35.0266 20.4515 33.916 20.4515Z" fill="#FFD525"/>
<path d="M9.99709 22.1037C10.0513 22.0767 10.1325 22.0767 10.2138 22.0767C19.3966 22.0767 28.5795 22.0767 37.7352 22.0767C38.0332 22.0767 38.3041 22.2934 38.3854 22.5642C38.4124 22.7809 38.3583 22.9977 38.3583 23.1873C37.979 27.5484 37.5998 31.9367 37.2206 36.2979C37.1935 36.4875 37.2206 36.6771 37.1122 36.8396C37.0039 37.0563 36.7601 37.1105 36.5163 37.1376C28.1461 37.1376 19.7759 37.1376 11.3786 37.1376C11.0264 37.1647 10.6472 36.8938 10.6743 36.5417C10.268 31.9638 9.88874 27.3859 9.48242 22.808C9.50951 22.483 9.72621 22.185 9.99709 22.1037Z" fill="#FFD525"/>
<path d="M9.9968 22.1037C9.72592 22.2121 9.48213 22.483 9.53631 22.7809C9.94263 27.3588 10.3219 31.9367 10.7282 36.5146C10.7011 36.8938 11.0803 37.1647 11.4325 37.1105C19.8027 37.1105 28.1729 37.1105 36.5702 37.1105C36.7869 37.1105 37.0307 37.0293 37.1661 36.8125C37.2745 36.65 37.2474 36.4604 37.2745 36.2708C37.6537 31.9096 38.0329 27.5214 38.4122 23.1602C38.4122 22.9435 38.4663 22.7268 38.4392 22.5372C38.358 22.2663 38.0871 22.0225 37.7891 22.0496C28.6063 22.0496 19.4234 22.0496 10.2677 22.0496C10.1322 22.0496 10.0781 22.0767 9.9968 22.1037ZM33.9155 20.4514C35.0261 20.4514 36.1368 20.4514 37.2474 20.4514C37.2474 20.0992 37.2474 19.7742 37.2474 19.422C37.2745 19.1241 37.0036 18.8532 36.6785 18.8532C35.7575 18.8532 34.8365 18.8532 33.9155 18.8532C33.8885 19.3949 33.9155 19.9096 33.9155 20.4514ZM11.2699 16.1986C11.0803 16.8487 10.8907 17.4717 10.7282 18.1218C10.7011 18.9074 10.7282 19.6658 10.7282 20.4514C11.8659 20.4514 13.0307 20.4514 14.1684 20.4514C14.2496 20.4514 14.2225 20.3701 14.2225 20.3159C14.2225 18.799 14.2225 17.2821 14.2225 15.7381C13.437 15.7381 12.6243 15.7381 11.8388 15.7381C11.595 15.7381 11.3241 15.9548 11.2699 16.1986ZM27.9291 8.69516C27.902 9.94121 27.9291 11.1873 27.9291 12.4333C29.2293 12.4333 30.5024 12.4333 31.8027 12.4333C30.5295 11.1873 29.2022 9.9683 27.9291 8.69516ZM15.4957 7.88252C15.4957 12.0812 15.4957 16.2527 15.4957 20.4514C21.2113 20.4514 26.9268 20.4514 32.6153 20.4514C32.6153 18.2031 32.6153 15.9548 32.6153 13.6794C30.8546 13.6794 29.0668 13.6794 27.3061 13.6794C27.0081 13.6794 26.7643 13.4085 26.7101 13.1376C26.683 11.3769 26.7372 9.61616 26.683 7.88252C22.972 7.88252 19.2338 7.88252 15.4957 7.88252ZM14.2496 7.17824C14.2496 6.88027 14.5476 6.63647 14.8456 6.63647C19.0171 6.63647 23.1887 6.63647 27.3873 6.63647C27.5228 6.63647 27.6853 6.69065 27.7936 6.799C29.7711 8.72225 31.7485 10.6726 33.753 12.5958C33.8614 12.7042 33.9426 12.8667 33.9426 13.0293C33.9426 14.4378 33.9426 15.8193 33.9426 17.2279C34.8907 17.255 35.8659 17.2008 36.814 17.255C37.8704 17.2821 38.8185 18.176 38.8997 19.2053C38.9268 19.6658 38.9268 20.1263 38.9268 20.6139C39.5769 20.9119 40.0645 21.562 40.1187 22.2663C40.1458 22.7539 40.0645 23.2144 40.0374 23.6749C39.6853 28.0089 39.3602 32.343 39.0081 36.6771C38.8997 37.7877 37.8704 38.7087 36.7327 38.7358C28.2541 38.7358 19.7756 38.7358 11.297 38.7358C10.376 38.7087 9.50922 38.1399 9.15707 37.3272C8.91328 36.7584 8.96746 36.1353 8.88619 35.5394C8.56114 31.2324 8.20899 26.9254 7.88394 22.6184C7.80267 21.887 8.1819 21.1286 8.83202 20.7223C8.91328 20.6681 9.02163 20.641 9.07581 20.5597C9.07581 19.72 9.07581 18.8803 9.07581 18.0135C9.07581 17.7967 9.15707 17.6071 9.21125 17.4175C9.37378 16.7945 9.56339 16.1986 9.72592 15.5755C9.9968 14.7358 10.8365 14.1128 11.7304 14.0857C12.5702 14.0586 13.3828 14.0857 14.2225 14.0857C14.2496 11.8103 14.2496 9.50781 14.2496 7.17824Z" fill="#27385A"/>
<path d="M18.1777 17.4988H29.2297" stroke="#27385A" stroke-width="0.8" stroke-linecap="round"/>
<path d="M18.1777 15.4131H29.2297" stroke="#27385A" stroke-width="0.8" stroke-linecap="round"/>
<path d="M18.1777 19.3137H29.2297" stroke="#27385A" stroke-width="0.8" stroke-linecap="round"/>
<path d="M18.1777 13.3271H24.9768" stroke="#27385A" stroke-width="0.8" stroke-linecap="round"/>
<path d="M18.1777 11.5122H24.9768" stroke="#27385A" stroke-width="0.8" stroke-linecap="round"/>
</g>
<defs>
<clipPath id="clip0_5556_653">
<rect width="48" height="48" fill="white"/>
</clipPath>
</defs>
</svg>
