<svg width="360" height="100" viewBox="0 0 360 100" fill="none" xmlns="http://www.w3.org/2000/svg">
<path d="M2.30056 17.3443C2.22787 17.417 1.96703 17.6265 1.55653 17.4084C1.15458 17.1989 0.863812 17.0492 0.744083 16.7798C0.56449 16.3736 0.436208 15.9759 0.342135 15.6723C0.230958 15.2961 0.0898489 14.6204 0.431932 14.2869C0.568766 14.1543 0.752635 14.103 0.940781 14.1372C1.25293 14.1971 1.51805 14.2527 1.64633 14.4879C1.86441 14.9369 2.05255 15.373 2.2578 15.8733C2.55713 16.6002 2.56995 17.0834 2.30484 17.3443H2.30056ZM18.2502 30.399C17.5831 22.7877 10.0231 13.4787 5.20681e-05 6.80811V23.7241C0.0684687 23.6044 0.141161 23.4847 0.235234 23.3949C0.419104 23.2153 0.658562 23.164 0.872365 23.258C1.24438 23.4205 1.59074 23.6771 1.88151 23.9037C2.1338 24.1047 2.9548 24.7931 2.80941 25.3576L2.77948 25.473L2.6683 25.597C2.31339 25.9434 1.56936 25.6868 1.00492 25.4089C0.534557 25.178 0.17537 24.8616 5.20681e-05 24.5451V31.0533C5.20681e-05 30.8865 0.0684687 30.7368 0.183922 30.6214C0.44476 30.3648 0.919401 30.3349 1.47956 30.5444C2.1338 30.7839 2.65975 31.3825 2.70251 31.9298C2.71961 32.1608 2.6512 32.3703 2.50581 32.5114C2.21077 32.7979 1.70619 32.7722 1.15886 32.443C1.03913 32.3703 -0.00850002 31.7246 5.20681e-05 31.0533V38.8057C9.36458 35.9023 18.417 32.3617 18.2459 30.399" fill="#1DBADF"/>
<path d="M177.934 21.1759L177.828 21.3598L177.601 21.3897C177.143 21.4367 176.669 21.4666 176.198 21.488C175.377 21.5265 174.402 21.2742 174.133 20.7226C173.812 20.0556 173.765 19.9529 173.894 19.7391L174.022 19.5211L174.278 19.5296C174.736 19.5125 175.241 19.5168 175.775 19.5296C176.434 19.5467 177.614 19.7349 177.836 20.3378C177.994 20.7654 178.067 20.9664 177.939 21.1802L177.934 21.1759ZM175.219 30.2667C175.142 30.3779 174.988 30.5233 174.723 30.5618C174.411 30.6088 174.009 30.6388 173.65 30.4335C173.038 30.0743 172.649 29.6809 172.461 29.2277C172.072 28.2998 172.495 27.2863 172.974 27.1452C173.137 27.0982 173.513 26.987 174.74 28.4751C175.33 29.1892 175.51 29.8605 175.219 30.2667ZM171.786 9.13883C171.794 8.88226 171.91 8.72832 172.008 8.64708C172.38 8.32637 173.004 8.49314 173.77 9.11744C174.244 9.50656 174.646 9.8401 175.04 10.195C175.258 10.3917 175.459 10.6183 175.608 10.7937C176.006 11.2683 176.027 11.8669 175.66 12.1876L175.536 12.2732C175.399 12.3501 174.988 12.5853 174.608 12.333C173.71 11.7301 172.812 10.9861 172.016 10.1865C171.773 9.93844 171.768 9.56643 171.786 9.1431V9.13883ZM180 24.5497C179.97 24.4941 179.94 24.4342 179.923 24.3786C179.842 24.1221 179.897 23.9254 179.957 23.8099C179.97 23.7843 179.987 23.7629 180 23.7372V6.82121C177.99 5.48281 175.886 4.25131 173.714 3.16091C164.234 -1.59832 160.287 32.6442 159.774 43.2402C159.723 44.2665 170.041 41.9018 180 38.8188V24.5582V24.5497Z" fill="#1DBADF"/>
<path d="M62.3705 57.4067C62.905 62.1916 59.6338 85.744 53.6345 82.7551C45.4074 78.6544 38.6042 71.3509 38.0868 65.5825C37.8559 63.0212 62.2336 56.1581 62.3705 57.4067Z" fill="#1DBADF"/>
<path d="M76.6437 20.0813C76.6437 31.1391 71.1747 37.147 54.7675 40.106C42.8801 42.2525 32.3611 32.9735 32.8913 20.0813C33.3488 9.03198 38.5913 0.890393 54.7675 0.0565649C66.8345 -0.563461 76.6437 3.77245 76.6437 20.0813Z" fill="#FF2180"/>
<path d="M120.726 59.6688C120.495 61.1996 120.392 64.9754 122.329 73.0956C123.368 77.4614 124.677 81.7545 125.827 85.1839C128.055 83.4735 130.962 81.1046 134.144 78.3081C139.395 73.6899 142.627 70.3418 144.197 68.439C140.293 64.3896 131.27 60.3615 120.73 59.6688H120.726ZM125.955 97.3065C124.326 98.0463 122.765 98.1232 121.316 97.5374C119.999 97.0029 118.942 95.9425 118.421 94.6212C116.851 90.6615 113.704 81.622 111.844 72.8476C109.967 64.0004 108.74 53.4301 115.945 50.1674C117.147 49.6244 118.468 49.3764 119.87 49.432C135.345 50.0477 149.585 56.5772 154.498 65.3132C154.972 66.1555 155.652 67.9216 154.887 70.2648C154.472 71.5305 153.369 74.9001 141.276 85.5944C137.167 89.2291 129.32 95.78 125.955 97.3065Z" fill="#1DBADF"/>
<path d="M126.575 12.812C131.771 15.2536 135.012 18.4478 130.436 24.9217C127.422 29.1892 120.674 30.6303 115.479 28.1886C110.283 25.747 106.025 21.8815 111.618 16.0789C115.359 12.1962 121.38 10.3704 126.575 12.812ZM100.739 18.2084C99.3496 29.8178 108.175 33.8031 119.383 35.0688C130.586 36.3345 140.378 30.8355 141.315 22.7965C142.563 12.1364 133.879 7.20183 122.671 5.93612C111.468 4.67041 101.701 10.1694 100.739 18.2084Z" fill="#FFD525"/>
<path d="M93.6198 97.9521C89.9039 100.111 82.2583 99.0467 78.4954 97.1824C75.2927 95.596 76.0452 84.2174 79.1112 82.3488C81.5186 80.8821 91.6614 78.9878 94.5819 81.2969C97.4212 83.5418 96.7199 96.1476 93.6198 97.9521Z" fill="#FFD525"/>
<path d="M91.4603 43.4626C95.2403 44.2237 96.9165 46.5028 96.801 52.314C96.7155 56.5259 92.8243 59.4806 88.4542 58.4116C84.7127 57.4965 82.2881 55.1447 83.1177 49.5602C83.7334 45.3953 85.8928 42.3422 91.4603 43.4626Z" fill="#83BB26"/>
<path d="M6.26871 21.1842L6.16181 21.3082L6.1276 21.398C6.07629 21.5477 5.93518 21.9496 7.29923 23.0186C8.06464 23.6173 8.84716 23.7541 9.25338 23.3607L9.37739 23.2025C9.47146 23.0357 9.72802 22.591 9.48857 22.1677C9.13366 21.5434 8.73598 21.1414 8.26134 20.9405C7.40613 20.5727 6.54237 20.9191 6.26871 21.1885" fill="white"/>
<path d="M9.92477 28.6078C10.0188 28.9883 10.2412 29.4117 10.5918 29.8906C10.7116 30.0616 10.9553 30.1685 11.3188 30.1985C11.6865 30.2327 11.9559 30.1685 12.1141 30.0103L12.2167 29.8649C12.4947 29.3048 12.4647 28.7147 12.1398 28.1545C11.9388 27.8124 11.5625 27.573 11.1263 27.5174C10.7329 27.4661 10.3652 27.5687 10.1343 27.7911C9.92049 28.0006 9.84352 28.2999 9.92049 28.6078" fill="white"/>
<path d="M166.492 26.525C166.043 26.4651 165.692 26.5464 165.474 26.7602C165.269 26.9611 165.209 27.2562 165.307 27.5641C165.504 28.1755 166.252 28.616 166.915 28.7785C167.24 28.8597 167.843 28.9452 168.19 28.6031C168.301 28.492 168.472 28.2482 168.373 27.8548C168.352 27.7522 168.301 27.6453 168.237 27.5256C167.894 26.9526 167.095 26.602 166.496 26.525" fill="white"/>
<path d="M170.901 34.885L170.815 34.9791L170.781 35.0603C170.653 35.3725 170.721 35.753 170.811 36.1208C170.956 36.6895 171.457 37.2539 171.983 37.4292C172.333 37.549 172.735 37.6644 173.052 37.4763L173.158 37.3908C173.424 37.1299 173.389 36.7066 173.351 36.2619C173.295 35.6162 172.765 35.009 172.115 34.8551C171.542 34.7182 171.162 34.6284 170.901 34.885Z" fill="white"/>
<path d="M163.52 35.4533C163.323 35.6457 163.208 35.9536 163.195 36.3213C163.187 36.5736 163.191 36.9114 163.281 37.2835C163.345 37.54 163.571 37.7153 164.025 37.989C164.397 38.2156 164.722 38.1045 164.906 37.9291C165.124 37.7153 165.205 37.3604 165.145 36.9029C165.064 36.2914 164.769 35.5303 164.311 35.3122C164.042 35.1839 163.738 35.2352 163.52 35.449" fill="white"/>
<path d="M168.061 19.0548C167.612 18.9949 167.262 19.0804 167.044 19.2942C166.838 19.4952 166.778 19.786 166.877 20.0981C167.074 20.7096 167.822 21.1458 168.485 21.3125C168.81 21.3938 169.408 21.4793 169.759 21.1372C169.87 21.026 170.041 20.7823 169.943 20.3846C169.917 20.282 169.874 20.1751 169.802 20.0596C169.46 19.4824 168.66 19.136 168.061 19.0591" fill="white"/>
<path d="M58.586 70.8936C58.2824 70.5386 57.7522 70.4617 57.1664 70.6883C56.6447 70.8893 56.2471 71.0603 55.8836 71.2399C55.6014 71.3768 55.4603 71.8728 55.4004 72.1593C55.3576 72.3773 55.332 72.6254 55.4902 72.8092L55.5885 72.9161L55.7083 72.9503C56.1145 73.0658 56.5421 73.1214 56.9483 73.1684C57.8164 73.2668 58.6416 72.6596 58.7956 71.8129C58.8597 71.4537 58.787 71.1287 58.586 70.8978" fill="white"/>
<path d="M54.4126 77.7777C54.1817 77.5041 53.7883 77.4741 53.4077 77.4827C52.9331 77.4912 52.3302 77.705 52.0907 78.0984C51.9368 78.3507 51.7272 78.6928 51.9496 78.9921C52.1591 79.2658 52.3943 79.5181 52.6423 79.7575C53.0956 80.2022 53.784 80.54 54.2202 80.2193C54.5794 79.9585 54.729 79.3085 54.7162 78.8168C54.7076 78.479 54.6649 78.0941 54.4382 77.8034L54.4169 77.7734L54.4126 77.7777Z" fill="white"/>
<path d="M50.1067 65.0994C50.2349 65.2234 50.4103 65.3817 50.6454 65.4886C50.8892 65.604 51.1543 65.6682 51.3809 65.7152C51.7957 65.8007 52.373 65.7836 52.6637 65.5356C53.0144 65.2406 52.9588 64.6205 52.7535 64.1715C52.6766 64.0005 52.5996 63.8722 52.5055 63.7653C52.3644 63.5985 52.1891 63.4959 51.9924 63.4489C51.6589 63.3719 51.274 63.4831 50.7908 63.6798C50.3205 63.8722 50.004 64.1587 49.9271 64.4794C49.8757 64.6847 49.9271 64.907 50.1067 65.0994Z" fill="white"/>
<path d="M88.42 94.4457L88.3345 94.3559L88.2575 94.3174C87.9625 94.1763 87.5905 94.2148 87.227 94.2789C86.6668 94.3858 86.0853 94.8348 85.88 95.3351C85.7432 95.6686 85.6021 96.0535 85.7689 96.3699L85.8458 96.4811C86.081 96.7547 86.4958 96.7462 86.932 96.7419C87.5648 96.7291 88.1848 96.2502 88.3773 95.6301C88.5483 95.0828 88.6595 94.7193 88.4243 94.45" fill="white"/>
<path d="M88.9973 84.2474C88.9417 84.3799 88.9075 84.5253 88.8989 84.6921C88.869 85.0128 89.117 85.2693 89.3992 85.5216C89.8397 85.9236 90.6564 85.868 91.2379 85.6071C91.4603 85.5045 91.6228 85.3506 91.704 85.1539C91.7896 84.9444 91.781 84.7134 91.6784 84.4911C91.5159 84.1533 91.1481 83.8839 90.6436 83.7428C89.5361 83.4221 89.1384 83.9224 89.0016 84.2474" fill="white"/>
<path d="M91.8196 91.4142C91.7041 91.4955 91.6015 91.611 91.5075 91.7435C91.3193 92.0044 91.4048 92.3507 91.5117 92.7142C91.687 93.2829 92.4182 93.6506 93.0511 93.7233C93.2948 93.749 93.5129 93.6977 93.684 93.5694C93.8678 93.4325 93.9747 93.2273 93.9961 92.9878C94.026 92.6115 93.8464 92.1968 93.483 91.8162C92.6919 90.9781 92.0975 91.2047 91.8153 91.4185" fill="white"/>
<path d="M80.5734 95.1085C80.6632 95.2155 80.7829 95.3138 80.924 95.395C81.1977 95.5661 81.5355 95.4549 81.8904 95.3224C82.4463 95.1085 82.7627 94.3517 82.7884 93.7146C82.797 93.4708 82.7285 93.257 82.5917 93.0945C82.442 92.9235 82.2325 92.8251 81.9888 92.8209C81.6125 92.8166 81.2063 93.0261 80.8556 93.4152C80.0731 94.2662 80.3425 94.8392 80.5734 95.1085Z" fill="white"/>
<path d="M82.9212 87.0868C82.9725 86.9542 82.9982 86.8046 82.9982 86.6421C83.011 86.3214 82.7544 86.0776 82.4637 85.8339C82.0061 85.4533 81.1937 85.5474 80.625 85.8339C80.4069 85.9451 80.2529 86.1076 80.1802 86.3085C80.1033 86.5223 80.1204 86.7532 80.2358 86.967C80.4154 87.2963 80.796 87.5486 81.3048 87.6683C82.4252 87.9334 82.7972 87.4203 82.9212 87.0868Z" fill="white"/>
<path d="M93.269 53.9217C92.9697 53.571 92.4951 53.4727 92.029 53.6608C91.6784 53.8062 91.4261 54.0927 91.3406 54.4519C91.2508 54.8239 91.3406 55.2259 91.58 55.5038C91.8751 55.8459 92.3283 55.9357 92.7602 55.7261C92.8115 55.7005 92.8585 55.6791 92.9099 55.6492C93.2348 55.4568 93.4486 55.1617 93.5085 54.8196C93.5641 54.4989 93.4743 54.1611 93.2648 53.9217" fill="white"/>
<path d="M44.2101 66.6044C43.9065 66.2538 43.2438 66.3436 42.8675 66.4291C42.5681 66.4975 42.1705 66.5959 41.7642 66.7455C41.4991 66.8439 41.3324 67.1175 41.1015 67.4938C40.862 67.8787 41.0544 68.1481 41.1186 68.225C41.358 68.503 41.8241 68.5201 42.551 68.2763C43.0471 68.1096 43.4832 67.9514 43.9365 67.7718C44.1759 67.6649 44.2443 67.4083 44.3213 67.1133C44.3684 66.9337 44.3256 66.7498 44.2101 66.613" fill="white"/>
<path d="M58.2568 62.2086C57.8805 62.277 57.4571 62.4609 56.9697 62.7773C56.7944 62.88 56.6789 63.1151 56.6233 63.4658C56.5677 63.8207 56.6105 64.0858 56.7559 64.2483L56.8927 64.3595C57.4187 64.6631 57.9959 64.6759 58.5604 64.3937C58.9067 64.2226 59.159 63.872 59.2445 63.453C59.3215 63.0767 59.2445 62.7089 59.0393 62.4737C58.8469 62.2514 58.5646 62.1573 58.261 62.2129" fill="white"/>
<path d="M86.7866 54.623C86.9149 54.7769 87.1116 54.8582 87.3382 54.8539C87.8727 54.8454 88.4842 54.3707 88.7621 53.755C89.0016 53.2247 89.0016 52.7629 88.7707 52.4893C88.6681 52.3695 88.5227 52.2968 88.3645 52.284C87.7145 52.2284 87.0175 53.2076 86.9406 53.3188C86.5856 53.8319 86.5258 54.3194 86.7866 54.623Z" fill="white"/>
<path d="M88.2276 47.6276C88.2233 47.3796 88.1507 47.1743 88.0865 47.0332C88.0566 46.9605 88.0138 46.8964 87.9625 46.8323C87.6931 46.5158 87.2185 46.4859 86.8336 46.7553C86.5514 46.952 86.359 47.1188 86.2863 47.3454C86.111 47.8457 85.9314 48.3674 86.0639 48.8206C86.2008 49.291 86.6284 49.5176 87.1158 49.3936C87.5349 49.2867 88.0224 48.919 88.1164 48.4828C88.1891 48.1536 88.2362 47.8927 88.2319 47.6319" fill="white"/>
<path d="M51.2227 71.2568L51.2954 71.3209C51.475 71.4578 51.6803 71.5347 51.847 71.5817C52.0223 71.6331 52.2105 71.6117 52.3901 71.5133C52.6894 71.3508 52.9417 70.9874 53.0743 70.5384C53.1641 70.2305 53.2581 69.8756 53.271 69.5335C53.2795 69.3668 53.2282 69.2086 53.1127 69.0803C53.0101 68.9605 52.8776 68.8836 52.7749 68.8323C52.4799 68.6783 52.0181 68.6185 51.7059 68.7895C51.3553 68.9862 51.2313 69.4908 51.2569 69.8842C51.2655 70.0467 51.274 70.2134 51.2698 70.3802C51.2612 70.4101 51.2313 70.4956 51.2099 70.547C51.1329 70.7479 51.026 71.0301 51.2227 71.261" fill="white"/>
<path d="M47.7848 72.4585C47.0963 72.5783 46.549 73.3009 46.3779 73.7756C46.2326 74.1775 46.3395 74.4212 46.4506 74.5538C46.5575 74.6778 46.797 74.8531 47.2503 74.6778C47.5154 74.5752 47.8446 74.3614 48.3535 73.9722C48.7554 73.6644 48.965 73.3822 48.9949 73.1085C49.012 72.946 48.965 72.7878 48.8581 72.6681C48.6614 72.4372 48.3107 72.3687 47.789 72.4585" fill="white"/>
<path d="M93.8421 47.7429C93.9276 47.311 93.872 46.9647 93.6753 46.7381C93.4914 46.5243 93.2135 46.4473 92.9056 46.5243C92.2984 46.6739 91.8238 47.3752 91.6228 48.008C91.5202 48.3202 91.4004 48.8974 91.7126 49.2566C91.8109 49.3721 92.0376 49.5517 92.431 49.4833C92.5336 49.4662 92.6405 49.4277 92.756 49.3678C93.3375 49.0728 93.7266 48.3159 93.8421 47.7429Z" fill="white"/>
<path d="M115.205 32.0114C115.38 32.4091 115.556 32.7469 115.894 32.8666C116.988 33.2387 118.147 33.5166 119.25 33.662C119.716 33.7219 119.986 33.3199 120.075 33.1873L120.148 33.0505C120.341 32.5887 120.05 32.0499 119.468 31.7934C119.25 31.6993 118.968 31.5796 118.677 31.5026C118.156 31.3572 117.634 31.2332 117.022 31.0921C116.035 30.8655 115.385 30.998 115.192 31.4598C115.141 31.5796 115.102 31.772 115.214 32.0157" fill="white"/>
<path d="M126.22 91.7305L126.173 91.4782L125.955 91.3841C125.181 91.0463 124.399 90.7171 123.573 90.3835C122.893 90.1056 122.316 90.1099 121.953 90.3963C121.666 90.6273 121.555 90.9907 121.666 91.4226C121.889 92.2906 122.885 92.9149 123.928 92.8551C124.424 92.8251 124.937 92.7909 125.446 92.7396C125.626 92.7225 125.788 92.6156 125.951 92.4061C126.156 92.1453 126.242 91.9186 126.216 91.7348" fill="white"/>
<path d="M116.715 79.2059C116.364 79.5523 116.317 80.1124 116.595 80.7111C116.843 81.2456 117.053 81.6518 117.262 82.0196C117.425 82.3061 117.959 82.4215 118.263 82.4643C118.494 82.4942 118.759 82.5028 118.938 82.3274L119.045 82.2163L119.071 82.088C119.161 81.6561 119.195 81.1986 119.216 80.7667C119.259 79.8516 118.562 79.0221 117.664 78.9194C117.279 78.8767 116.941 78.975 116.715 79.2017" fill="white"/>
<path d="M113.837 67.5622L113.739 67.6605C113.486 67.9042 113.525 68.3062 113.58 68.9048C113.649 69.6446 114.38 70.333 115.278 70.5041C116.304 70.7008 117.023 70.0594 116.766 69.2769C116.646 68.9177 116.488 68.5157 116.189 68.2506C115.607 67.7503 114.641 67.421 114.025 67.5108L113.837 67.5622Z" fill="white"/>
<path d="M117.895 7.46252L117.784 7.59079L117.749 7.68487C117.698 7.8388 117.553 8.24931 118.951 9.34397C119.733 9.95545 120.537 10.1008 120.952 9.6946L121.076 9.53212C121.174 9.36108 121.435 8.90781 121.192 8.47166C120.828 7.83025 120.418 7.41975 119.934 7.21022C119.058 6.83393 118.173 7.18885 117.89 7.46252" fill="white"/>
<path d="M149.619 68.7466C149.743 68.6055 149.892 68.4088 149.991 68.1565C150.093 67.8914 150.145 67.6092 150.179 67.3654C150.243 66.925 150.183 66.3178 149.905 66.0313C149.572 65.6807 148.922 65.7833 148.464 66.0313C148.289 66.1254 148.156 66.2152 148.054 66.3178C147.891 66.476 147.789 66.6684 147.759 66.8779C147.699 67.2329 147.844 67.6348 148.084 68.1266C148.314 68.6097 148.644 68.9176 148.986 68.9818C149.204 69.0202 149.435 68.9475 149.623 68.7509" fill="white"/>
<path d="M117.604 56.8125C117.873 56.4063 117.882 55.9316 117.638 55.5168C117.352 55.0336 116.774 54.7258 116.24 54.7728C115.804 54.807 115.436 54.9481 115.214 55.1662C114.936 55.4356 114.88 55.8119 115.077 56.1497C115.235 56.4233 115.419 56.7013 115.675 56.8552C115.966 57.0348 116.86 57.5864 117.463 56.9921C117.514 56.9407 117.561 56.8809 117.604 56.8167" fill="white"/>
<path d="M139.254 82.7895C139.767 82.9092 140.19 82.8408 140.438 82.5971C140.63 82.4089 140.695 82.1353 140.605 81.8573C140.434 81.3228 140.344 81.0791 140.083 80.9936C139.784 80.891 139.476 80.8097 139.074 80.737C138.595 80.6472 138.185 80.7327 137.937 80.9722C137.748 81.1561 137.68 81.4126 137.744 81.6735C137.881 82.2122 138.608 82.6484 139.249 82.7938" fill="white"/>
<path d="M128.247 30.7156C127.901 31.0534 127.832 31.5623 128.059 32.0369C128.234 32.3961 128.555 32.6441 128.94 32.704C129.338 32.7724 129.752 32.6484 130.03 32.379C130.372 32.0455 130.432 31.5623 130.184 31.1218C130.154 31.0705 130.129 31.0192 130.09 30.9679C129.868 30.6386 129.543 30.4334 129.175 30.3992C128.833 30.3607 128.487 30.4804 128.247 30.7156Z" fill="white"/>
<path d="M85.3969 90.2896C85.7133 90.5547 86.0682 90.7172 86.4702 90.8882C87.0945 91.1576 87.428 90.9609 87.5734 90.8198C87.7059 90.6873 87.8983 90.3879 87.6845 89.8321C87.5221 89.413 87.3681 89.0153 87.0773 88.7716C86.6497 88.4167 85.8159 88.1986 85.3413 88.4423L85.213 88.5364C85.0676 88.6775 84.9992 88.8999 85.012 89.2206C85.0163 89.3018 85.0548 90.0116 85.3926 90.2896" fill="white"/>
<path d="M134.7 24.9389C134.349 25.281 134.494 25.9737 134.61 26.3586C134.704 26.6707 134.836 27.0769 135.02 27.496C135.144 27.7697 135.439 27.9279 135.854 28.1417C136.277 28.364 136.547 28.1502 136.619 28.0775C136.893 27.8082 136.88 27.3121 136.572 26.5681C136.363 26.0592 136.171 25.6103 135.944 25.1484C135.816 24.9047 135.542 24.8491 135.225 24.7893C135.033 24.7508 134.845 24.8064 134.708 24.9432" fill="white"/>
<path d="M138.903 20.0126C139.057 19.8672 139.125 19.6534 139.108 19.4139C139.065 18.8538 138.522 18.238 137.855 17.9943C137.278 17.7805 136.795 17.8104 136.525 18.0713C136.406 18.1867 136.342 18.3449 136.337 18.5117C136.324 19.2001 137.402 19.8672 137.522 19.9399C138.086 20.2777 138.604 20.3034 138.903 20.0083" fill="white"/>
<path d="M128.636 54.7511C128.418 54.6528 128.174 54.7084 127.982 54.8922C127.867 55.0034 127.777 55.1573 127.7 55.307C127.636 55.4267 127.576 55.6277 127.661 55.8928C127.79 56.2777 128.2 56.6753 128.773 56.9576C129.35 57.2441 130.116 57.5049 130.479 57.15L130.59 57.0217L130.62 56.902C130.77 56.3247 129.932 55.6192 129.667 55.4139C129.367 55.183 129.013 54.9222 128.632 54.7511" fill="white"/>
<path d="M109.933 11.3065C109.672 11.3279 109.462 11.4177 109.317 11.4947C109.24 11.5332 109.176 11.5802 109.116 11.6358C108.804 11.9394 108.804 12.444 109.116 12.8288C109.343 13.1153 109.531 13.2992 109.774 13.3633C110.313 13.513 110.873 13.6669 111.339 13.4959C111.823 13.3163 112.032 12.8502 111.87 12.3499C111.729 11.918 111.305 11.4305 110.839 11.3621C110.484 11.3108 110.211 11.2766 109.937 11.298" fill="white"/>
<path d="M145.518 76.6187L145.582 76.5418C145.715 76.3451 145.779 76.1227 145.817 75.9431C145.86 75.755 145.822 75.5583 145.71 75.3787C145.522 75.0751 145.12 74.8356 144.637 74.7244C144.312 74.6517 143.927 74.579 143.568 74.5876C143.393 74.5876 143.23 74.6603 143.102 74.7843C142.982 74.8998 142.914 75.0451 142.863 75.1606C142.717 75.4813 142.687 75.9688 142.893 76.2852C143.123 76.6358 143.662 76.7342 144.073 76.6786C144.244 76.6572 144.419 76.6358 144.594 76.6315C144.624 76.6315 144.718 76.6615 144.774 76.6829C144.992 76.7513 145.296 76.8454 145.522 76.6187" fill="white"/>
<path d="M138.775 59.9425C138.95 60.6608 139.75 61.1868 140.258 61.3322C140.695 61.4562 140.938 61.3322 141.071 61.2039C141.191 61.0842 141.362 60.8191 141.144 60.3572C141.015 60.0879 140.772 59.7543 140.327 59.2455C139.976 58.8435 139.664 58.6426 139.373 58.634C139.202 58.6297 139.04 58.6896 138.92 58.8051C138.689 59.0274 138.646 59.3994 138.775 59.9425Z" fill="white"/>
<path d="M105.195 21.4709C105.712 21.4966 106.341 20.9834 106.696 20.466C107.012 20 106.991 19.6579 106.922 19.4526C106.837 19.2089 106.585 18.948 106.136 18.9652C105.528 18.9865 105.251 19.0293 105.071 19.2388C104.883 19.4697 104.733 19.722 104.588 20.0598C104.451 20.3762 104.425 20.6927 104.519 20.9492C104.622 21.2528 104.883 21.4495 105.195 21.4666" fill="white"/>
<path d="M130.295 12.6111C130.813 12.6367 131.441 12.1236 131.796 11.6062C132.113 11.1401 132.091 10.798 132.023 10.5928C131.937 10.3448 131.685 10.0882 131.236 10.1053C130.629 10.1267 130.351 10.1694 130.171 10.379C129.983 10.6099 129.833 10.8622 129.688 11.2C129.551 11.5164 129.526 11.8328 129.62 12.0894C129.722 12.393 129.983 12.5897 130.295 12.6068" fill="white"/>
<path d="M132.318 87.8819C132.852 87.7621 133.152 87.3687 133.07 86.9411C133.002 86.552 132.643 86.1971 132.061 85.9448C131.818 85.8379 131.625 85.7781 131.45 85.7652C131.172 85.7439 130.949 85.808 130.796 85.9619C130.71 86.0474 130.441 86.3724 130.744 86.9326C130.997 87.3987 131.668 88.023 132.318 87.8819Z" fill="white"/>
<path d="M107.876 25.9307C107.414 25.8708 107.055 25.9564 106.833 26.1744C106.623 26.3797 106.559 26.679 106.662 26.9997C106.863 27.6283 107.632 28.0773 108.308 28.2441C108.641 28.3296 109.257 28.4151 109.616 28.0645C109.732 27.949 109.903 27.701 109.804 27.2948C109.779 27.1879 109.732 27.081 109.659 26.9612C109.308 26.3711 108.487 26.012 107.876 25.935" fill="white"/>
<path d="M55.516 13.1455C55.3963 13.5389 55.3107 13.8852 55.4775 14.1717C56.0206 15.1082 56.6748 16.019 57.3675 16.8015C57.6583 17.1308 58.0987 17.011 58.2441 16.9726L58.3809 16.9212C58.8 16.7117 58.924 16.1516 58.6717 15.6128C58.5776 15.4118 58.4494 15.1552 58.2911 14.9201C58.0089 14.4967 57.7181 14.0862 57.3718 13.6073C56.8116 12.8419 56.2686 12.534 55.8452 12.7393C55.7341 12.7949 55.5887 12.906 55.516 13.1455Z" fill="white"/>
<path d="M44.2143 21.5476L44.1929 21.7871L44.3682 21.9282C44.9839 22.4242 45.6082 22.9202 46.271 23.4291C46.8184 23.8524 47.34 23.9935 47.742 23.8267C48.0584 23.6899 48.2508 23.3863 48.2594 22.9672C48.2722 22.1291 47.5325 21.3124 46.5746 21.1072C46.1171 21.0088 45.6424 20.9105 45.1678 20.8335C45.001 20.8036 44.83 20.8592 44.6248 21.0088C44.3767 21.197 44.2399 21.3766 44.2143 21.5519" fill="white"/>
<path d="M52.8476 19.8846C52.7322 20.3336 52.9716 20.804 53.4848 21.1503C53.9466 21.4582 54.31 21.6805 54.6607 21.8772C54.9343 22.0269 55.4132 21.8601 55.6784 21.7447C55.8793 21.6549 56.0974 21.5352 56.153 21.3043L56.1829 21.1631L56.1402 21.0477C56.0033 20.6543 55.8066 20.2737 55.6142 19.9188C55.2037 19.162 54.2416 18.837 53.4676 19.1962C53.1384 19.3501 52.916 19.5938 52.8433 19.8846" fill="white"/>
<path d="M58.7144 8.80932C59.0992 9.08727 59.6166 9.21555 60.2965 9.20272C60.6899 9.19417 61.0106 8.96754 61.2415 8.77511C61.4382 8.60835 61.4938 8.41593 61.5023 8.28337C61.5323 7.80446 61.0533 7.33837 60.211 7.0476C58.4621 6.43612 58.2055 6.71834 58.0943 6.83807C57.7693 7.19298 57.9276 8.24061 58.7144 8.80932Z" fill="white"/>
<path d="M58.3424 21.4364L58.3124 21.5604C58.2312 21.8811 58.4536 22.1804 58.7914 22.638C59.2061 23.1981 60.1298 23.3948 60.9337 23.0912C61.853 22.7492 62.1138 21.8811 61.528 21.3808C61.2586 21.1499 60.9337 20.9062 60.5659 20.8378C59.8561 20.7223 58.9154 20.9276 58.4707 21.3039L58.3467 21.4364H58.3424Z" fill="white"/>
<path d="M51.475 8.41163L51.2612 8.53137V8.7751C51.2655 9.01884 51.3596 9.0787 51.954 9.46354C52.45 9.77997 53.3736 9.50203 54.0321 9.06159C54.4084 8.80503 54.7847 8.54419 55.1353 8.27908L55.3064 8.14225V7.93699C55.3064 7.69754 55.1439 7.56925 54.7975 7.29559C54.3143 6.91074 53.2496 7.34262 52.698 7.66333C52.2533 7.91989 51.8385 8.1679 51.4708 8.41163" fill="white"/>
<path d="M44.8045 11.9181L44.7788 12.072L44.8002 12.1661C44.8344 12.3158 44.9156 12.7177 46.5705 12.9101C47.4984 13.017 48.2125 12.7391 48.3493 12.2131L48.3707 12.0207C48.3664 11.8368 48.3536 11.3451 47.9474 11.1142C47.3444 10.7764 46.8142 10.6481 46.3225 10.7165C45.4373 10.8405 44.8985 11.5589 44.8087 11.9181" fill="white"/>
<path d="M66.501 13.3033L66.4753 13.4316L66.5053 13.5385C66.6293 13.9661 66.7704 14.4023 66.9371 14.8812C67.1467 15.4799 67.7881 15.9288 68.4038 15.9032C68.8742 15.8818 69.2334 15.5868 69.3617 15.0779C69.49 14.5177 69.2291 13.9277 68.5578 13.2649C68.2798 12.9955 67.7282 12.8415 67.4717 12.8031C67.198 12.7603 66.5993 12.9228 66.5053 13.3033" fill="white"/>
<path d="M63.6489 10.3746C63.2469 10.5499 63.0032 10.7937 62.9305 11.0759C62.8621 11.3453 62.9604 11.6147 63.1956 11.8199C63.6617 12.2261 64.4998 12.209 65.1241 12.0123C65.432 11.9183 65.9708 11.6874 66.0862 11.2341C66.1247 11.0887 66.1418 10.8022 65.8639 10.5243C65.7912 10.4516 65.6971 10.3874 65.5859 10.3233C65.0172 10.024 64.1834 10.1351 63.6531 10.3703" fill="white"/>
<path d="M52.6509 30.6985C52.5611 31.0406 52.7578 31.3741 52.9844 31.6777C53.2624 32.054 53.7798 32.4218 54.2287 32.3961C54.5195 32.379 54.9172 32.3533 55.0326 32.0027C55.1353 31.6777 55.208 31.3442 55.2593 31.0064C55.3619 30.3864 55.2422 29.6381 54.7333 29.467C54.3143 29.3259 53.7071 29.5739 53.3179 29.8647C53.0528 30.0657 52.7621 30.3137 52.6552 30.6643L52.6466 30.6985H52.6509Z" fill="white"/>
<path d="M59.2917 35.5221C59.3216 35.351 59.3473 35.1158 59.3003 34.8678C59.2532 34.607 59.1549 34.3547 59.0651 34.1452C58.8983 33.7603 58.5605 33.3028 58.1928 33.2087C57.7523 33.0933 57.2862 33.4909 57.0382 33.91C56.9442 34.0725 56.88 34.205 56.8458 34.3419C56.7945 34.5514 56.8031 34.7524 56.88 34.9362C57.004 35.2484 57.3205 35.5007 57.7481 35.7786C58.1714 36.0523 58.5819 36.1421 58.8855 36.0224C59.0779 35.9454 59.2318 35.7786 59.2832 35.5263" fill="white"/>
<path d="M37.6207 28.5733L37.5994 28.693L37.6122 28.7786C37.6635 29.0993 37.9072 29.3772 38.1681 29.6338C38.5743 30.0272 39.267 30.241 39.7887 30.1255C40.1351 30.0486 40.5242 29.9417 40.6909 29.6295L40.738 29.5055C40.8278 29.1591 40.584 28.8299 40.3275 28.4792C39.9597 27.9747 39.2157 27.7438 38.6085 27.9405C38.0697 28.1158 37.7105 28.2312 37.625 28.5733" fill="white"/>
<path d="M65.3379 33.1786C65.355 32.7211 65.1284 32.3363 64.7307 32.1225C64.2646 31.8745 63.6531 31.9087 63.2426 32.208C62.9091 32.4474 62.6825 32.7382 62.6098 33.029C62.5157 33.3839 62.6611 33.7132 62.9818 33.8799C63.2426 34.021 63.5248 34.1536 63.8071 34.1536C64.132 34.1536 65.1113 34.1621 65.3079 33.3924C65.3208 33.3283 65.3336 33.2556 65.3336 33.1786" fill="white"/>
<path d="M45.0267 27.3632C45.0609 27.2264 45.0738 27.0767 45.0567 26.9142C45.0396 26.5978 44.7573 26.384 44.4452 26.1745C43.9577 25.8495 43.1666 26.0205 42.6364 26.3626C42.4354 26.4952 42.2986 26.6705 42.2473 26.8715C42.1917 27.0895 42.2345 27.3162 42.3713 27.5129C42.5808 27.8207 42.9785 28.0303 43.4959 28.0944C44.6248 28.2441 44.9412 27.6967 45.0267 27.3589" fill="white"/>
<path d="M49.0292 36.5142C49.0634 36.3774 49.0762 36.2277 49.0591 36.0695C49.0377 35.7531 48.7598 35.5393 48.4476 35.3297C47.9559 35.0048 47.1691 35.1758 46.6389 35.5179C46.4379 35.6504 46.301 35.8258 46.2497 36.031C46.1941 36.2491 46.2369 36.4757 46.3737 36.6724C46.5833 36.9803 46.9809 37.1855 47.4983 37.254C48.6272 37.4036 48.9436 36.8563 49.0292 36.5185" fill="white"/>
<path d="M44.6547 7.50959C44.629 7.61649 44.6333 7.72767 44.6675 7.83029C44.9027 8.53156 46.3736 8.5615 46.5404 8.56577C46.9979 8.56577 47.4512 8.56578 47.9173 8.54867L48.2123 8.52302L48.285 8.23652C48.3235 8.08259 48.285 7.96713 48.1225 7.53953C47.8617 6.83826 46.4036 6.82971 46.2368 6.83398C45.8135 6.83398 44.8129 6.91094 44.6547 7.50959Z" fill="white"/>
<path d="M58.2612 2.8786C58.0902 2.85295 57.9277 2.87005 57.7951 2.89143C57.4402 2.94274 57.1109 3.25062 57.0254 3.60553C56.957 3.88775 56.9869 4.25976 57.0938 4.48639C57.1409 4.58474 57.2521 4.81992 57.4958 4.914H57.5043C58.103 5.13207 58.7572 5.3245 59.4927 5.49554C59.822 5.58106 60.0015 5.29884 60.1213 5.11497C60.4292 4.64033 59.8562 3.95188 59.7364 3.81505C59.5568 3.61408 59.373 3.41738 59.1763 3.24206C58.9368 3.02826 58.5306 2.92136 58.2655 2.8786" fill="white"/>
<path d="M43.8338 31.7034L43.8209 31.6863C43.6884 31.5024 43.4788 31.3827 43.2308 31.3528C42.7947 31.3015 42.2388 31.5324 41.7428 31.9642C41.033 32.5843 41.1698 33.0119 41.3109 33.2086C41.4777 33.4395 41.7813 33.5378 42.2131 33.4908C42.35 33.478 43.5729 33.3368 43.9107 33.0675C44.2827 32.7639 44.1416 32.1652 43.8338 31.7077" fill="white"/>
<path d="M48.1184 27.9536L48.097 27.9665C47.8875 28.0563 47.7293 28.2359 47.6481 28.4753C47.5069 28.8944 47.6181 29.4845 47.9388 30.0575C48.3964 30.8785 48.8453 30.8357 49.0677 30.7373C49.3285 30.6262 49.4868 30.344 49.5295 29.9121C49.5466 29.7752 49.6621 28.548 49.4654 28.1632C49.2473 27.7356 48.6315 27.7527 48.1184 27.9579" fill="white"/>
<path d="M67.5017 19.4656L67.4889 19.4485C67.3563 19.2646 67.1468 19.1449 66.8988 19.115C66.4583 19.0637 65.9025 19.2946 65.4107 19.7264C64.7052 20.3465 64.8377 20.7741 64.9788 20.9708C65.1456 21.2017 65.4492 21.3 65.8854 21.253C66.0222 21.2402 67.2451 21.0991 67.5829 20.8297C67.955 20.5261 67.8139 19.9274 67.506 19.4699" fill="white"/>
<path d="M38.8693 14.7191C38.7581 15.1595 38.9463 15.6042 39.3653 15.8736C39.6818 16.0746 40.0581 16.1174 40.3959 15.9805C40.7465 15.8437 41.0202 15.5401 41.11 15.1895C41.2211 14.7576 41.033 14.3385 40.6182 14.1076C40.5712 14.0777 40.5241 14.0563 40.4686 14.0306C40.1265 13.8724 39.7673 13.8682 39.4594 14.0178C39.1686 14.1547 38.9506 14.4198 38.8736 14.7234" fill="white"/>
<path d="M71.6622 24.7292C72.0428 24.7891 72.4105 24.742 72.8167 24.6864C73.4496 24.5966 73.6206 24.2759 73.6677 24.0963C73.7104 23.9253 73.719 23.5918 73.2743 23.2497C72.9365 22.9931 72.6243 22.7494 72.2694 22.6981C71.752 22.6211 70.9781 22.8563 70.7172 23.2796L70.6616 23.4164C70.6146 23.6003 70.6702 23.8098 70.8327 24.0579C70.8754 24.122 71.2517 24.6693 71.6579 24.7292" fill="white"/>
<path d="M37.3384 18.3836C37.2272 18.8283 37.6762 19.3157 37.9584 19.568C38.185 19.7733 38.4929 20.0384 38.8435 20.2778C39.0745 20.4361 39.3909 20.419 39.8228 20.389C40.2717 20.3591 40.3786 20.0555 40.4043 19.9614C40.4941 19.6108 40.2418 19.2217 39.6303 18.7727C39.2113 18.4691 38.8393 18.204 38.433 17.9389C38.2107 17.8063 37.967 17.8961 37.6805 18.003C37.5094 18.0671 37.3854 18.204 37.3384 18.3793" fill="white"/>
<path d="M36.8126 24.4512C37.082 24.7164 37.4711 24.9558 38.0056 25.1696C38.1895 25.2509 38.4418 25.2124 38.7582 25.0584C39.0746 24.9045 39.2628 24.7163 39.3184 24.5068L39.3312 24.3358C39.2799 23.7371 38.9592 23.2625 38.4119 22.9675C38.0783 22.7836 37.6464 22.7793 37.2616 22.9503C36.9152 23.1043 36.663 23.3737 36.5817 23.673C36.509 23.9509 36.5945 24.2374 36.8169 24.4512" fill="white"/>
<path d="M46.1385 17.1224C46.1898 16.9299 46.1385 16.7247 46.0102 16.5451C45.7023 16.1175 44.9669 15.8909 44.3126 16.0191C43.7482 16.1303 43.3719 16.3912 43.2864 16.729C43.2479 16.8829 43.2693 17.0368 43.3505 17.1737C43.6755 17.7296 44.8642 17.7424 44.9968 17.7381C45.6168 17.7338 46.0444 17.5029 46.1385 17.1181" fill="white"/>
<path d="M63.3795 29.0908C63.7387 29.373 64.2176 29.3773 64.6324 29.1036C64.9446 28.8941 65.1327 28.5691 65.1455 28.2057C65.1626 27.8294 64.9959 27.4573 64.7094 27.2307C64.3587 26.9528 63.9012 26.957 63.5206 27.2393C63.4779 27.2735 63.4351 27.3034 63.3881 27.3462C63.1059 27.5942 62.9562 27.9192 62.969 28.2655C62.9776 28.5862 63.1315 28.8941 63.3753 29.0865" fill="white"/>
<path d="M68.5194 23.4166C68.3654 23.2926 68.1559 23.2541 67.9378 23.3011C67.4204 23.4123 66.9159 23.9896 66.7705 24.6438C66.6422 25.204 66.7277 25.653 67.0057 25.871C67.1297 25.9694 67.2836 26.0122 67.4418 25.995C68.0832 25.9224 68.5707 24.8405 68.6263 24.7165C68.87 24.1478 68.8358 23.6646 68.5237 23.4209" fill="white"/>
<path d="M63.9824 4.78987C63.76 4.8198 63.589 4.98229 63.5249 5.22175C63.4864 5.37141 63.4906 5.53389 63.4992 5.69211C63.5077 5.82039 63.5591 6.00854 63.7558 6.17958C64.0465 6.42759 64.5725 6.54304 65.1669 6.49173C65.7698 6.44042 66.5138 6.27365 66.6293 5.81612L66.6549 5.6579L66.6207 5.54672C66.4582 5.01222 65.4405 4.85401 65.1326 4.81552C64.7777 4.77704 64.3672 4.73856 63.9781 4.78987" fill="white"/>
<path d="M41.1954 10.4726C40.9987 10.618 40.8747 10.7933 40.7934 10.9259C40.7507 10.9943 40.7207 11.0627 40.6993 11.1397C40.5967 11.5374 40.8405 11.9393 41.2809 12.0975C41.6016 12.213 41.8453 12.2729 42.0677 12.2044C42.5722 12.0591 43.0939 11.9137 43.3847 11.5459C43.684 11.1696 43.6242 10.6907 43.2521 10.37C42.9314 10.0921 42.3542 9.90821 41.9437 10.0792C41.6358 10.2075 41.4006 10.3187 41.1911 10.4684" fill="white"/>
<path d="M60.8865 26.628L60.8994 26.534C60.9079 26.3116 60.8523 26.1021 60.7967 25.9439C60.7411 25.7728 60.6129 25.6317 60.4333 25.5419C60.134 25.3923 59.6935 25.3923 59.2531 25.5419C58.9538 25.6446 58.6117 25.7728 58.3295 25.9567C58.1926 26.0422 58.0943 26.1791 58.0515 26.3416C58.013 26.4912 58.0259 26.6451 58.043 26.7606C58.0857 27.0856 58.2995 27.4961 58.616 27.65C58.9709 27.8211 59.4541 27.6329 59.7534 27.3892C59.8774 27.2908 60.0099 27.1882 60.1468 27.0984C60.1724 27.0856 60.2622 27.0642 60.3135 27.0514C60.5231 27.0001 60.8096 26.9274 60.8823 26.6366" fill="white"/>
<path d="M49.3754 3.0154L49.354 3.15651C49.3241 3.51997 49.3754 4.19986 49.7645 4.45215C50.2264 4.75575 51.1457 4.26401 51.4151 4.10579C51.7657 3.90054 51.8855 3.66536 51.9239 3.50287C52.018 3.14796 51.8513 2.6776 51.1115 2.43814C50.6155 2.27565 50.1408 2.29275 49.803 2.47662C49.5892 2.59635 49.4353 2.78877 49.3754 3.01113" fill="white"/>
<path d="M51.8684 25.6701C52.3559 26.1575 53.2539 26.1917 53.7371 26.0592C54.1476 25.948 54.2844 25.7257 54.3229 25.5632C54.3614 25.4092 54.3699 25.1099 53.968 24.8491C53.7328 24.6951 53.3736 24.5455 52.7707 24.3573C52.296 24.2077 51.9454 24.1991 51.7102 24.3317C51.5691 24.4129 51.4665 24.5412 51.4323 24.6909C51.3596 24.9816 51.5007 25.3023 51.8727 25.6744" fill="white"/>
<path d="M70.1143 17.4087C70.0929 17.4643 70.0715 17.5199 70.0587 17.5755C69.9475 18.0116 70.0886 18.4478 70.4007 18.6359C70.7642 18.854 71.5467 18.7727 71.9572 18.6958C72.3292 18.6274 72.9706 18.4349 73.0818 17.9988L73.1118 17.7807L73.0433 17.6439C72.8338 17.2291 71.9957 16.9554 71.8332 16.9041C71.4056 16.7716 71.0635 16.7031 70.7728 16.7716C70.3836 16.8656 70.2126 17.1778 70.1185 17.4044" fill="white"/>
<path d="M68.4936 9.47651C68.4295 9.73307 68.4893 10.0452 68.6604 10.3531C68.7801 10.5626 68.9512 10.8406 69.2163 11.1014C69.3959 11.2767 69.6695 11.3109 70.1827 11.3109C70.6017 11.3109 70.8155 11.0586 70.8796 10.8235C70.9523 10.537 70.8412 10.2077 70.5632 9.85707C70.1869 9.39526 69.5669 8.91634 69.0794 8.96766C68.7929 8.99759 68.5706 9.19001 68.4979 9.47651" fill="white"/>
<path d="M70.4308 30.5705C70.8584 30.3396 71.1107 29.6212 71.1449 29.0311C71.1705 28.5051 70.9867 28.24 70.8327 28.1075C70.6446 27.9535 70.3153 27.868 69.9647 28.1032C69.4901 28.4153 69.2848 28.5864 69.242 28.843C69.2036 29.1209 69.2078 29.3946 69.2549 29.7366C69.2976 30.0574 69.4345 30.3225 69.6354 30.485C69.8663 30.6774 70.1699 30.7073 70.4308 30.5705Z" fill="white"/>
<path d="M63.7386 17.0881C64.1662 16.8571 64.4228 16.1345 64.4527 15.5487C64.4784 15.0227 64.2945 14.7576 64.1406 14.6251C63.9524 14.4711 63.6232 14.3856 63.2725 14.6208C62.7979 14.9329 62.5926 15.104 62.5542 15.3563C62.5157 15.6342 62.52 15.9121 62.5713 16.2499C62.614 16.5706 62.7466 16.8358 62.9518 16.9983C63.1827 17.1907 63.4863 17.2206 63.7472 17.0838" fill="white"/>
<path d="M54.0151 37.1595C54.3828 36.8046 54.4341 36.3428 54.1604 36.0392C53.9167 35.7612 53.4549 35.6543 52.8648 35.7313C52.6168 35.7612 52.4329 35.8126 52.2875 35.8853C52.0566 36.005 51.907 36.1632 51.8599 36.3642C51.83 36.4754 51.7787 36.8645 52.2918 37.1681C52.7194 37.4204 53.5618 37.5914 54.0151 37.1681" fill="white"/>
<path d="M50.7053 15.4844C50.3076 15.6597 50.0596 15.9035 49.9869 16.19C49.9185 16.4594 50.0168 16.7288 50.252 16.934C50.7181 17.3402 51.5562 17.3231 52.1805 17.1264C52.4884 17.0324 53.0229 16.8014 53.1426 16.3439C53.1768 16.1985 53.1982 15.912 52.916 15.6341C52.8433 15.5614 52.7535 15.4973 52.638 15.4374C52.0693 15.1338 51.2355 15.2492 50.7053 15.4844Z" fill="white"/>
<path d="M1.64195 14.4884C1.51367 14.2532 1.24856 14.1976 0.940681 14.1377C0.756811 14.1035 0.568665 14.1548 0.436108 14.2874C0.0940243 14.6209 0.235134 15.2966 0.346311 15.6728C0.436108 15.9764 0.564389 16.3741 0.748259 16.7803C0.867988 17.0454 1.15876 17.1994 1.56071 17.4089C1.97121 17.627 2.23632 17.4132 2.30474 17.3448C2.56985 17.0839 2.5613 16.6007 2.2577 15.8738C2.05245 15.3778 1.86431 14.9374 1.64623 14.4884" fill="white"/>
<path d="M1.1588 32.4434C1.71041 32.7727 2.21498 32.7983 2.50575 32.5118C2.65541 32.3664 2.72383 32.1612 2.70672 31.9303C2.66396 31.3829 2.13801 30.7843 1.48378 30.5448C0.923616 30.3353 0.448975 30.3652 0.188137 30.6218C0.0726834 30.7373 0.00854279 30.8869 0.00426675 31.0537C-0.00856138 31.725 1.04334 32.375 1.16307 32.4477" fill="white"/>
<path d="M1.00487 25.4051C1.56931 25.683 2.31761 25.9396 2.66825 25.5933L2.77943 25.4692L2.80936 25.3538C2.95474 24.7936 2.13802 24.1009 1.88146 23.8999C1.58641 23.6733 1.24005 23.421 0.872312 23.2543C0.65851 23.1602 0.419052 23.2115 0.235182 23.3911C0.141109 23.4809 0.0684167 23.6006 0 23.7246V24.5413C0.175318 24.862 0.534505 25.1742 1.00487 25.4051Z" fill="white"/>
<path d="M10.4122 80.4634L10.301 80.5489C9.98028 80.7413 9.56551 80.6259 9.20632 80.5019C8.66754 80.318 8.15441 79.7407 8.00475 79.1592C7.91068 78.7829 7.84226 78.3938 7.97054 78.0731L8.00475 77.9875L8.09027 77.8935C8.35966 77.6284 8.74878 77.7224 9.3346 77.8635C10.0017 78.0218 10.5447 78.6418 10.6046 79.3046C10.6431 79.7621 10.6816 80.1983 10.4079 80.4634H10.4122ZM10.0957 87.6685C10.0188 87.8224 9.92469 87.955 9.81779 88.0576C9.55268 88.3185 8.96686 88.6392 8.02185 87.878C7.58997 87.5317 7.34196 87.1254 7.32058 86.7278C7.30776 86.4712 7.39328 86.2403 7.56432 86.0735C7.72681 85.9153 7.94489 85.8298 8.20145 85.8255C8.87279 85.8084 9.68951 86.0864 9.95463 86.6551C10.1214 87.0185 10.2582 87.3649 10.1 87.6685H10.0957ZM5.63155 75.3236C5.17401 75.3834 3.98527 74.8318 3.85271 74.7677C3.42939 74.571 3.20703 74.3144 3.18565 74.0108C3.16855 73.7543 3.284 73.2882 4.26749 73.1171C4.95593 72.9974 5.58879 73.0958 5.9608 73.3865C6.17033 73.549 6.29433 73.7756 6.31144 74.0151V74.0408C6.34137 74.6308 6.13612 75.2552 5.63155 75.3236ZM3.5876 93.4283C3.31821 93.6934 2.91198 93.8132 2.52714 93.7448C2.15512 93.6806 1.84297 93.4412 1.67193 93.0948C1.44958 92.6287 1.51799 92.137 1.8558 91.8034C2.08671 91.5725 2.42452 91.4571 2.75805 91.4956C3.11296 91.5298 3.42939 91.7307 3.64746 92.0515C3.68167 92.1028 3.7116 92.1498 3.73726 92.2011C3.97672 92.6287 3.92113 93.1033 3.5876 93.4283ZM18.1646 69.2131C14.9619 66.6817 6.4611 67.2333 0.00427604 68.5974V78.6632C0.158214 78.5392 0.354911 78.4707 0.581542 78.4622C1.25288 78.4451 2.0696 78.7273 2.33044 79.2917C2.49721 79.6552 2.63404 80.0016 2.47583 80.3009C2.39886 80.4548 2.30906 80.5874 2.19789 80.69C1.93277 80.9508 1.34695 81.2758 0.397672 80.5104C0.235182 80.3821 0.111177 80.241 0 80.0999V84.8292C0.0256562 84.795 0.0470365 84.7608 0.0769688 84.7309C0.312151 84.5 0.692719 84.3973 1.09467 84.4486C1.53937 84.5085 1.92849 84.7523 2.13374 85.1029C2.47155 85.6759 2.49721 86.2831 2.21499 86.8561L2.10809 87.0057C1.9456 87.1682 1.66766 87.2324 1.29136 87.1981C0.919349 87.1639 0.667063 87.057 0.543057 86.8817C0.299323 86.5525 0.119729 86.2489 0 85.9666V97.7856C5.90094 98.8717 12.61 98.8119 16.5825 96.5028C21.6667 93.5438 22.817 72.8862 18.1603 69.2088" fill="#83BB26"/>
<path d="M14.436 82.3747C14.1666 82.6398 14.1623 83.0503 14.1965 83.4523C14.2393 83.9483 14.5087 84.5726 14.932 84.7949C15.2057 84.9361 15.5863 85.137 15.8813 84.8805C16.155 84.641 16.403 84.3759 16.6382 84.0979C17.0743 83.5891 17.3779 82.8451 17.0145 82.4046C16.7151 82.0454 16.0224 81.93 15.505 81.9813C15.1544 82.0155 14.7524 82.0839 14.4617 82.3448L14.436 82.3704V82.3747Z" fill="white"/>
<path d="M13.7433 92.6286C13.491 92.6499 13.2857 92.7397 13.1404 92.8124C13.0677 92.8509 13.0035 92.898 12.9437 92.9535C12.6401 93.2486 12.6358 93.7403 12.9437 94.1166C13.166 94.3946 13.3499 94.5784 13.5851 94.6383C14.111 94.7837 14.6541 94.9333 15.1116 94.7666C15.582 94.5955 15.7872 94.138 15.629 93.6505C15.4922 93.2315 15.0817 92.7568 14.6241 92.6884C14.2778 92.6371 14.0127 92.6072 13.7433 92.6286Z" fill="white"/>
<path d="M14.6969 72.1293L14.6028 72.2405C14.3804 72.5441 14.0597 73.1812 14.2692 73.6131C14.513 74.1305 15.5948 74.1904 15.9198 74.1947C16.3431 74.2032 16.574 74.0578 16.698 73.9338C16.9717 73.6687 17.0786 73.1641 16.5484 72.5484C16.1935 72.1379 15.7616 71.8942 15.3639 71.877C15.1074 71.8685 14.8679 71.954 14.6969 72.1251" fill="white"/>
<path d="M0.39779 80.5148C1.3428 81.2759 1.93289 80.9552 2.198 80.6944C2.3049 80.5918 2.39898 80.4592 2.47595 80.3053C2.63416 80.0059 2.49733 79.6553 2.33056 79.2961C2.06545 78.7274 1.253 78.4495 0.58166 78.4666C0.35503 78.4708 0.158332 78.5435 0.00439453 78.6675V80.1086C0.111296 80.2497 0.239577 80.3908 0.402066 80.5191" fill="white"/>
<path d="M8.20146 85.8255C7.9449 85.834 7.72682 85.9195 7.56433 86.0735C7.39329 86.2402 7.30777 86.4711 7.32059 86.7277C7.34197 87.1254 7.58998 87.5359 8.02187 87.878C8.96687 88.6391 9.55269 88.3141 9.8178 88.0575C9.9247 87.9549 10.0188 87.8224 10.0957 87.6684C10.254 87.3691 10.1171 87.0185 9.95036 86.655C9.68525 86.0863 8.8728 85.8083 8.20146 85.8255Z" fill="white"/>
<path d="M5.96073 73.3861C5.59299 73.0954 4.95586 72.997 4.26742 73.1167C3.27966 73.2878 3.1642 73.7496 3.18558 74.0104C3.20696 74.314 3.42932 74.5706 3.85265 74.7673C3.9852 74.8314 5.17394 75.383 5.63148 75.3232C6.13605 75.2548 6.3413 74.6305 6.31565 74.0404V74.0147C6.29427 73.771 6.17026 73.5486 5.96073 73.3861Z" fill="white"/>
<path d="M3.64334 92.0511C3.42526 91.7304 3.10884 91.5294 2.75392 91.4952C2.42039 91.461 2.08259 91.5764 1.85168 91.8031C1.51387 92.1323 1.44546 92.6283 1.66781 93.0944C1.83885 93.4451 2.151 93.6845 2.52729 93.7444C2.91641 93.8128 3.31836 93.6888 3.58775 93.4279C3.92128 93.103 3.97687 92.6326 3.73741 92.2007C3.71176 92.1494 3.68183 92.1024 3.64762 92.0511" fill="white"/>
<path d="M9.33884 77.8631C8.74874 77.722 8.3639 77.6322 8.09451 77.8931L8.00899 77.9872L7.97478 78.0727C7.8465 78.3934 7.91064 78.7825 8.00899 79.1588C8.15865 79.7403 8.67177 80.3176 9.21055 80.5015C9.56974 80.6255 9.98452 80.7409 10.3052 80.5485L10.4164 80.463C10.6901 80.1979 10.6516 79.7617 10.6131 79.3042C10.5575 78.6414 10.0102 78.0214 9.34311 77.8631" fill="white"/>
<path d="M0.543057 86.886C0.667063 87.0613 0.919349 87.1682 1.29136 87.2024C1.66766 87.2366 1.94132 87.1725 2.10809 87.01L2.21499 86.8603C2.49721 86.2873 2.47155 85.6801 2.13374 85.1071C1.92849 84.7565 1.53937 84.5128 1.09467 84.4529C0.692719 84.4016 0.312151 84.5042 0.0769688 84.7351C0.0470365 84.765 0.0256562 84.7993 0 84.8335V85.9709C0.124005 86.2531 0.299323 86.5567 0.543057 86.886Z" fill="white"/>
<path d="M175.527 12.2644L175.651 12.1789C176.019 11.8582 175.998 11.2638 175.6 10.7849C175.45 10.6096 175.254 10.383 175.031 10.1863C174.638 9.83134 174.236 9.49781 173.761 9.10869C172.996 8.48439 172.372 8.31763 172 8.63833C171.901 8.71957 171.786 8.87351 171.777 9.13007C171.76 9.5534 171.764 9.92542 172.008 10.1734C172.803 10.973 173.701 11.7171 174.599 12.32C174.976 12.5723 175.39 12.3371 175.527 12.2601" fill="white"/>
<path d="M172.97 27.1366C172.491 27.2777 172.064 28.2911 172.457 29.219C172.649 29.6723 173.039 30.0657 173.646 30.4249C174.001 30.6301 174.403 30.6002 174.719 30.5574C174.984 30.5147 175.138 30.3736 175.215 30.2624C175.502 29.8519 175.326 29.1806 174.736 28.4707C173.513 26.9827 173.133 27.0938 172.97 27.1409" fill="white"/>
<path d="M175.771 19.5254C175.241 19.5126 174.736 19.5083 174.275 19.5254L174.018 19.5169L173.89 19.735C173.761 19.953 173.808 20.0557 174.129 20.7185C174.394 21.2658 175.369 21.5181 176.194 21.4839C176.665 21.4625 177.139 21.4326 177.597 21.3855L177.824 21.3556L177.931 21.1717C178.059 20.9579 177.986 20.7612 177.828 20.3336C177.61 19.7264 176.43 19.5383 175.767 19.5254" fill="white"/>
<path d="M179.919 24.3659C179.936 24.4215 179.966 24.4814 179.996 24.5369V23.7202C179.983 23.7459 179.966 23.7673 179.953 23.7929C179.893 23.9126 179.833 24.1093 179.919 24.3616" fill="white"/>
<path d="M179.859 85.5729C179.791 85.2993 179.846 85.0384 180 84.8332V80.1039C179.82 79.8644 179.705 79.6121 179.696 79.3641C179.684 79.1076 179.769 78.8809 179.94 78.7099C179.962 78.6928 179.983 78.6757 180.004 78.6586V68.5928C176.814 69.2641 174.116 70.1364 172.812 70.9318C167.783 73.9977 166.552 92.6412 171.803 95.2411C173.945 96.3015 176.861 97.208 180.004 97.7853V85.9663C179.944 85.8295 179.893 85.6969 179.863 85.5687" fill="#83BB26"/>
<path d="M174.501 82.105C174.3 82.3017 174.18 82.6181 174.168 82.9944C174.159 83.251 174.163 83.5973 174.257 83.9822C174.326 84.243 174.557 84.4226 175.018 84.7091C175.399 84.94 175.733 84.8288 175.921 84.6493C176.143 84.4312 176.229 84.0677 176.164 83.5973C176.079 82.9688 175.78 82.1905 175.309 81.9682C175.031 81.8356 174.723 81.8912 174.497 82.1093" fill="white"/>
<path d="M171.931 88.9637C171.85 89.0449 171.794 89.1433 171.769 89.2545C171.602 90.007 172.885 90.828 173.03 90.9178C173.432 91.1658 173.838 91.4096 174.262 91.6448L174.539 91.7816L174.758 91.5678C174.873 91.4523 174.903 91.3283 174.988 90.8622C175.134 90.1011 173.847 89.3058 173.697 89.216C173.321 88.9893 172.389 88.5147 171.931 88.9637Z" fill="white"/>
<path d="M173.915 74.5065C173.778 74.3911 173.624 74.3184 173.496 74.2628C173.154 74.1174 172.692 74.2115 172.427 74.4852C172.213 74.699 172.042 75.0453 172.008 75.3062C172 75.4173 171.97 75.6867 172.136 75.9048H172.145C172.56 76.4265 173.034 76.9524 173.595 77.4998C173.843 77.7563 174.15 77.6024 174.36 77.4998C174.89 77.2432 174.749 76.3239 174.715 76.14C174.664 75.862 174.608 75.5884 174.527 75.3275C174.428 75.0068 174.129 74.6947 173.915 74.5151" fill="white"/>
<path d="M179.692 79.3644C179.705 79.6124 179.816 79.8647 179.996 80.1041V78.6631C179.996 78.6631 179.953 78.693 179.932 78.7144C179.761 78.8812 179.675 79.1121 179.688 79.3686" fill="white"/>
<path d="M179.859 85.5732C179.889 85.7015 179.94 85.8341 180 85.9709V84.8335C179.846 85.0387 179.791 85.2996 179.859 85.5732Z" fill="white"/>
<path d="M182.296 17.3444C182.224 17.4171 181.963 17.6266 181.552 17.4085C181.15 17.199 180.86 17.0493 180.74 16.78C180.56 16.3737 180.432 15.9761 180.342 15.6725C180.231 15.2962 180.09 14.6206 180.432 14.287C180.569 14.1545 180.753 14.1031 180.937 14.1374C181.249 14.1972 181.514 14.2528 181.638 14.488C181.856 14.937 182.044 15.3731 182.249 15.8734C182.549 16.6004 182.561 17.0835 182.296 17.3444ZM198.242 30.3991C197.579 22.7921 190.019 13.4831 179.996 6.8125V23.7285C180.064 23.6088 180.137 23.4891 180.231 23.3993C180.415 23.2197 180.654 23.1684 180.868 23.2624C181.236 23.4249 181.582 23.6815 181.877 23.9081C182.134 24.1091 182.951 24.7975 182.805 25.362L182.775 25.4774L182.664 25.6014C182.309 25.9478 181.565 25.6912 181.001 25.4133C180.53 25.1824 180.167 24.8659 179.996 24.5495V31.0577C179.996 30.8909 180.064 30.7412 180.18 30.6258C180.44 30.3692 180.915 30.3393 181.475 30.5488C182.13 30.7883 182.655 31.3869 182.698 31.9342C182.715 32.1652 182.647 32.3747 182.497 32.5158C182.207 32.8023 181.702 32.7766 181.15 32.4474C181.031 32.3747 179.983 31.729 179.992 31.0577V38.8101C189.356 35.9067 198.408 32.3661 198.237 30.4034" fill="#1DBADF"/>
<path d="M357.931 21.1759L357.824 21.3598L357.597 21.3897C357.139 21.4367 356.665 21.4666 356.194 21.488C355.373 21.5265 354.399 21.2742 354.129 20.7226C353.808 20.0556 353.761 19.9529 353.89 19.7391L354.018 19.5211L354.275 19.5296C354.732 19.5125 355.237 19.5168 355.771 19.5296C356.43 19.5467 357.61 19.7349 357.832 20.3378C357.99 20.7654 358.063 20.9664 357.935 21.1802L357.931 21.1759ZM355.215 30.2667C355.138 30.3779 354.984 30.5233 354.719 30.5618C354.407 30.6088 354.005 30.6388 353.646 30.4335C353.034 30.0743 352.645 29.6809 352.457 29.2277C352.068 28.2998 352.491 27.2863 352.97 27.1452C353.133 27.0982 353.509 26.987 354.736 28.4751C355.326 29.1892 355.506 29.8605 355.215 30.2667ZM351.782 9.13883C351.79 8.88226 351.906 8.72832 352.004 8.64708C352.376 8.32637 353 8.49314 353.766 9.11744C354.24 9.50656 354.642 9.8401 355.036 10.195C355.258 10.3917 355.455 10.6183 355.604 10.7937C356.002 11.2683 356.023 11.8669 355.656 12.1876L355.532 12.2732C355.395 12.3501 354.984 12.5853 354.604 12.333C353.706 11.7301 352.808 10.9861 352.012 10.1865C351.769 9.93844 351.764 9.56643 351.782 9.1431V9.13883ZM360 24.5497C359.97 24.4941 359.94 24.4342 359.923 24.3786C359.838 24.1221 359.898 23.9254 359.957 23.8099C359.97 23.7843 359.987 23.7629 360 23.7372V6.82121C357.99 5.48281 355.887 4.25131 353.71 3.16091C344.23 -1.59832 340.288 32.6442 339.77 43.2402C339.719 44.2665 350.037 41.9018 359.996 38.8188V24.5582L360 24.5497Z" fill="#1DBADF"/>
<path d="M242.37 57.4067C242.905 62.1916 239.634 85.744 233.634 82.7551C225.407 78.6544 218.604 71.3509 218.087 65.5825C217.856 63.0212 242.233 56.1581 242.37 57.4067Z" fill="#1DBADF"/>
<path d="M256.639 20.0813C256.639 31.1391 251.17 37.147 234.763 40.106C222.876 42.2525 212.357 32.9735 212.887 20.0813C213.344 9.03198 218.587 0.890393 234.763 0.0565649C246.83 -0.563461 256.639 3.77245 256.639 20.0813Z" fill="#FF2180"/>
<path d="M300.726 59.6688C300.495 61.1996 300.392 64.9754 302.329 73.0956C303.368 77.4614 304.677 81.7545 305.827 85.1839C308.055 83.4735 310.962 81.1046 314.144 78.3081C319.395 73.6899 322.627 70.3418 324.197 68.439C320.293 64.3896 311.27 60.3615 300.73 59.6688H300.726ZM305.955 97.3065C304.326 98.0463 302.765 98.1232 301.316 97.5374C299.999 97.0029 298.942 95.9425 298.421 94.6212C296.851 90.6615 293.704 81.622 291.844 72.8476C289.967 64.0004 288.74 53.4301 295.945 50.1674C297.146 49.6244 298.468 49.3764 299.866 49.432C315.341 50.0477 329.58 56.5772 334.493 65.3132C334.968 66.1555 335.648 67.9216 334.883 70.2648C334.468 71.5305 333.365 74.9001 321.272 85.5944C317.163 89.2291 309.316 95.78 305.951 97.3065" fill="#1DBADF"/>
<path d="M306.575 12.812C311.775 15.2536 315.012 18.4478 310.436 24.9217C307.422 29.1892 300.674 30.6303 295.479 28.1886C290.283 25.747 286.025 21.8815 291.618 16.0789C295.359 12.1962 301.38 10.3704 306.575 12.812ZM280.739 18.2084C279.35 29.8178 288.175 33.8031 299.383 35.0688C310.586 36.3345 320.378 30.8355 321.315 22.7965C322.563 12.1364 313.879 7.20183 302.671 5.93612C291.468 4.67041 281.701 10.1694 280.739 18.2084Z" fill="#FFD525"/>
<path d="M273.615 97.9521C269.9 100.111 262.254 99.0467 258.491 97.1824C255.288 95.596 256.041 84.2174 259.107 82.3488C261.514 80.8821 271.657 78.9878 274.577 81.2969C277.417 83.5418 276.716 96.1476 273.615 97.9521Z" fill="#FFD525"/>
<path d="M271.456 43.4626C275.236 44.2237 276.912 46.5028 276.797 52.314C276.711 56.5259 272.82 59.4806 268.45 58.4116C264.704 57.4965 262.284 55.1447 263.114 49.5602C263.729 45.3953 265.889 42.3422 271.456 43.4626Z" fill="#83BB26"/>
<path d="M186.269 21.1842L186.162 21.3082L186.128 21.398C186.076 21.5477 185.935 21.9496 187.299 23.0186C188.065 23.6173 188.847 23.7541 189.253 23.3607L189.377 23.2025C189.471 23.0357 189.728 22.591 189.489 22.1677C189.134 21.5434 188.732 21.1414 188.261 20.9405C187.406 20.5727 186.542 20.9191 186.269 21.1885" fill="white"/>
<path d="M189.925 28.6078C190.019 28.9883 190.241 29.4117 190.592 29.8906C190.712 30.0616 190.955 30.1685 191.319 30.1985C191.687 30.2327 191.956 30.1685 192.114 30.0103L192.217 29.8649C192.495 29.3048 192.465 28.7147 192.14 28.1545C191.939 27.8124 191.562 27.573 191.126 27.5174C190.733 27.4661 190.365 27.5687 190.134 27.7911C189.92 28.0006 189.844 28.2999 189.92 28.6078" fill="white"/>
<path d="M346.488 26.525C346.039 26.4651 345.688 26.5464 345.47 26.7602C345.265 26.9611 345.205 27.2562 345.303 27.5641C345.5 28.1755 346.248 28.616 346.911 28.7785C347.236 28.8597 347.839 28.9452 348.185 28.6031C348.296 28.492 348.467 28.2482 348.369 27.8548C348.348 27.7522 348.296 27.6453 348.232 27.5256C347.89 26.9526 347.09 26.602 346.492 26.525" fill="white"/>
<path d="M350.896 34.885L350.811 34.9791L350.776 35.0603C350.648 35.3725 350.716 35.753 350.806 36.1208C350.952 36.6895 351.452 37.2539 351.978 37.4292C352.329 37.549 352.735 37.6644 353.047 37.4763L353.154 37.3908C353.419 37.1299 353.385 36.7066 353.346 36.2619C353.291 35.6162 352.76 35.009 352.11 34.8551C351.537 34.7182 351.157 34.6284 350.896 34.885Z" fill="white"/>
<path d="M343.52 35.4533C343.323 35.6457 343.208 35.9536 343.195 36.3213C343.186 36.5736 343.191 36.9114 343.28 37.2835C343.345 37.54 343.571 37.7153 344.024 37.989C344.396 38.2156 344.721 38.1045 344.905 37.9291C345.123 37.7153 345.205 37.3604 345.145 36.9029C345.064 36.2914 344.769 35.5303 344.311 35.3122C344.042 35.1839 343.738 35.2352 343.52 35.449" fill="white"/>
<path d="M348.061 19.0548C347.612 18.9949 347.262 19.0804 347.044 19.2942C346.838 19.4952 346.778 19.786 346.877 20.0981C347.074 20.7096 347.822 21.1458 348.485 21.3125C348.81 21.3938 349.408 21.4793 349.759 21.1372C349.87 21.026 350.041 20.7823 349.943 20.3846C349.917 20.282 349.874 20.1751 349.802 20.0596C349.46 19.4824 348.66 19.136 348.061 19.0591" fill="white"/>
<path d="M238.582 70.8936C238.278 70.5386 237.748 70.4617 237.162 70.6883C236.641 70.8893 236.243 71.0603 235.879 71.2399C235.597 71.3768 235.456 71.8728 235.396 72.1593C235.353 72.3773 235.328 72.6254 235.486 72.8092L235.584 72.9161L235.704 72.9503C236.11 73.0658 236.538 73.1214 236.944 73.1684C237.812 73.2668 238.637 72.6596 238.791 71.8129C238.856 71.4537 238.783 71.1287 238.582 70.8978" fill="white"/>
<path d="M234.413 77.7777C234.182 77.5041 233.789 77.4741 233.408 77.4827C232.933 77.4912 232.33 77.705 232.091 78.0984C231.937 78.3507 231.727 78.6928 231.95 78.9921C232.159 79.2658 232.395 79.5181 232.643 79.7575C233.096 80.2022 233.784 80.54 234.22 80.2193C234.58 79.9585 234.729 79.3085 234.716 78.8168C234.708 78.479 234.665 78.0941 234.438 77.8034L234.417 77.7734L234.413 77.7777Z" fill="white"/>
<path d="M230.102 65.0994C230.231 65.2234 230.406 65.3817 230.641 65.4886C230.885 65.604 231.15 65.6682 231.377 65.7152C231.792 65.8007 232.369 65.7836 232.66 65.5356C233.01 65.2406 232.955 64.6205 232.749 64.1715C232.672 64.0005 232.595 63.8722 232.501 63.7653C232.36 63.5985 232.185 63.4959 231.988 63.4489C231.659 63.3719 231.266 63.4831 230.787 63.6798C230.316 63.8722 230 64.1587 229.923 64.4794C229.872 64.6847 229.923 64.907 230.102 65.0994Z" fill="white"/>
<path d="M268.416 94.4457L268.33 94.3559L268.253 94.3174C267.958 94.1763 267.582 94.2148 267.223 94.2789C266.663 94.3858 266.081 94.8348 265.876 95.3351C265.735 95.6686 265.598 96.0535 265.765 96.3699L265.842 96.4811C266.077 96.7547 266.492 96.7462 266.928 96.7419C267.561 96.7291 268.181 96.2502 268.373 95.6301C268.544 95.0828 268.655 94.7193 268.42 94.45" fill="white"/>
<path d="M268.997 84.2474C268.942 84.3799 268.907 84.5253 268.899 84.6921C268.869 85.0128 269.117 85.2693 269.399 85.5216C269.84 85.9236 270.656 85.868 271.238 85.6071C271.46 85.5045 271.623 85.3506 271.704 85.1539C271.79 84.9444 271.781 84.7134 271.678 84.4911C271.516 84.1533 271.148 83.8839 270.644 83.7428C269.536 83.4221 269.138 83.9224 269.002 84.2474" fill="white"/>
<path d="M271.815 91.4142C271.7 91.4955 271.597 91.611 271.507 91.7435C271.319 92.0044 271.405 92.3507 271.511 92.7142C271.687 93.2829 272.418 93.6506 273.051 93.7233C273.295 93.749 273.513 93.6977 273.684 93.5694C273.863 93.4325 273.974 93.2273 273.996 92.9878C274.026 92.6115 273.846 92.1968 273.483 91.8162C272.692 90.9781 272.097 91.2047 271.815 91.4185" fill="white"/>
<path d="M260.573 95.1085C260.663 95.2155 260.783 95.3138 260.924 95.395C261.198 95.5661 261.536 95.4549 261.89 95.3224C262.442 95.1085 262.763 94.3517 262.788 93.7146C262.797 93.4708 262.729 93.257 262.592 93.0945C262.446 92.9235 262.233 92.8251 261.989 92.8209C261.612 92.8166 261.206 93.0261 260.856 93.4152C260.073 94.2662 260.343 94.8392 260.573 95.1085Z" fill="white"/>
<path d="M262.917 87.0868C262.968 86.9542 262.994 86.8046 262.994 86.6421C263.007 86.3214 262.75 86.0776 262.459 85.8339C262.002 85.4533 261.189 85.5474 260.621 85.8339C260.402 85.9451 260.249 86.1076 260.176 86.3085C260.099 86.5223 260.116 86.7532 260.231 86.967C260.411 87.2963 260.792 87.5486 261.3 87.6683C262.421 87.9334 262.793 87.4203 262.917 87.0868Z" fill="white"/>
<path d="M273.265 53.9217C272.965 53.571 272.491 53.4727 272.025 53.6608C271.674 53.8062 271.422 54.0927 271.336 54.4519C271.246 54.8239 271.336 55.2259 271.576 55.5038C271.871 55.8459 272.324 55.9357 272.76 55.7261C272.811 55.7005 272.858 55.6791 272.91 55.6492C273.239 55.4568 273.453 55.1617 273.508 54.8196C273.564 54.4989 273.474 54.1611 273.265 53.9217Z" fill="white"/>
<path d="M224.206 66.6044C223.902 66.2538 223.239 66.3436 222.863 66.4291C222.564 66.4975 222.166 66.5959 221.76 66.7455C221.495 66.8439 221.328 67.1175 221.097 67.4938C220.862 67.8787 221.05 68.1481 221.114 68.225C221.354 68.503 221.82 68.5201 222.547 68.2763C223.043 68.1096 223.479 67.9514 223.932 67.7718C224.172 67.6649 224.24 67.4083 224.317 67.1133C224.364 66.9337 224.321 66.7498 224.202 66.613" fill="white"/>
<path d="M238.257 62.2086C237.881 62.277 237.457 62.4609 236.97 62.7773C236.795 62.88 236.679 63.1151 236.624 63.4658C236.568 63.8207 236.611 64.0858 236.756 64.2483L236.893 64.3595C237.419 64.6631 237.996 64.6759 238.561 64.3937C238.907 64.2226 239.159 63.872 239.245 63.453C239.322 63.0767 239.245 62.7089 239.044 62.4737C238.851 62.2514 238.569 62.1573 238.266 62.2129" fill="white"/>
<path d="M266.782 54.623C266.911 54.7769 267.107 54.8582 267.334 54.8539C267.868 54.8454 268.48 54.3707 268.758 53.755C268.997 53.2247 268.997 52.7629 268.766 52.4893C268.664 52.3695 268.518 52.2968 268.36 52.284C267.71 52.2284 267.013 53.2076 266.936 53.3188C266.581 53.8319 266.521 54.3194 266.782 54.623Z" fill="white"/>
<path d="M268.223 47.6276C268.219 47.3796 268.146 47.1743 268.082 47.0332C268.052 46.9605 268.01 46.8964 267.958 46.8323C267.689 46.5158 267.214 46.4859 266.829 46.7553C266.547 46.952 266.355 47.1188 266.282 47.3454C266.107 47.8457 265.927 48.3674 266.06 48.8206C266.197 49.291 266.628 49.5176 267.112 49.3936C267.526 49.2867 268.014 48.919 268.112 48.4828C268.185 48.1536 268.232 47.8927 268.228 47.6319" fill="white"/>
<path d="M231.218 71.2568L231.291 71.3209C231.466 71.4578 231.676 71.5347 231.843 71.5817C232.018 71.6331 232.206 71.6117 232.386 71.5133C232.685 71.3508 232.937 70.9874 233.07 70.5384C233.16 70.2305 233.254 69.8756 233.267 69.5335C233.275 69.3668 233.224 69.2086 233.108 69.0803C233.006 68.9605 232.873 68.8836 232.771 68.8323C232.475 68.6783 232.014 68.6185 231.702 68.7895C231.351 68.9862 231.227 69.4908 231.253 69.8842C231.261 70.0467 231.27 70.2134 231.265 70.3802C231.261 70.4101 231.227 70.4956 231.206 70.547C231.129 70.7479 231.022 71.0301 231.218 71.261" fill="white"/>
<path d="M227.785 72.4585C227.096 72.5783 226.545 73.3009 226.378 73.7756C226.233 74.1775 226.339 74.4212 226.451 74.5538C226.558 74.6778 226.797 74.8531 227.25 74.6778C227.515 74.5752 227.845 74.3614 228.353 73.9722C228.755 73.6644 228.965 73.3822 228.995 73.1085C229.012 72.946 228.965 72.7878 228.858 72.6681C228.661 72.4372 228.311 72.3687 227.789 72.4585" fill="white"/>
<path d="M273.842 47.7429C273.928 47.311 273.872 46.9647 273.675 46.7381C273.491 46.5243 273.213 46.4473 272.906 46.5243C272.298 46.6739 271.824 47.3752 271.623 48.008C271.52 48.3202 271.4 48.8974 271.713 49.2566C271.811 49.3721 272.038 49.5517 272.431 49.4833C272.534 49.4662 272.641 49.4277 272.756 49.3678C273.338 49.0728 273.727 48.3159 273.842 47.7429Z" fill="white"/>
<path d="M295.205 32.0114C295.381 32.4091 295.556 32.7469 295.889 32.8666C296.984 33.2387 298.143 33.5166 299.246 33.662C299.712 33.7219 299.982 33.3199 300.071 33.1873L300.144 33.0505C300.336 32.5887 300.046 32.0499 299.464 31.7934C299.246 31.6993 298.964 31.5796 298.673 31.5026C298.151 31.3572 297.63 31.2332 297.018 31.0921C296.03 30.8655 295.381 30.998 295.188 31.4598C295.137 31.5796 295.098 31.772 295.209 32.0157" fill="white"/>
<path d="M306.22 91.7305L306.173 91.4782L305.955 91.3841C305.181 91.0463 304.399 90.7171 303.573 90.3835C302.893 90.1056 302.316 90.1099 301.953 90.3963C301.666 90.6273 301.555 90.9907 301.666 91.4226C301.889 92.2906 302.885 92.9149 303.928 92.8551C304.424 92.8251 304.937 92.7909 305.446 92.7396C305.626 92.7225 305.784 92.6156 305.951 92.4061C306.156 92.1453 306.242 91.9186 306.216 91.7348" fill="white"/>
<path d="M296.71 79.2059C296.36 79.5523 296.313 80.1124 296.591 80.7111C296.839 81.2456 297.048 81.6518 297.258 82.0196C297.42 82.3061 297.955 82.4215 298.258 82.4643C298.489 82.4942 298.754 82.5028 298.934 82.3274L299.041 82.2163L299.066 82.088C299.156 81.6561 299.19 81.1986 299.212 80.7667C299.255 79.8516 298.558 79.0221 297.66 78.9194C297.275 78.8767 296.937 78.975 296.71 79.2017" fill="white"/>
<path d="M293.832 67.5622L293.734 67.6605C293.482 67.9042 293.52 68.3062 293.576 68.9048C293.644 69.6446 294.376 70.333 295.274 70.5041C296.3 70.7008 297.018 70.0594 296.762 69.2769C296.642 68.9177 296.479 68.5157 296.184 68.2506C295.603 67.7503 294.636 67.421 294.021 67.5108L293.832 67.5622Z" fill="white"/>
<path d="M297.895 7.46252L297.784 7.59079L297.749 7.68487C297.698 7.8388 297.553 8.24931 298.951 9.34397C299.733 9.95545 300.542 10.1008 300.952 9.6946L301.08 9.53212C301.179 9.36108 301.44 8.90781 301.196 8.47166C300.832 7.83025 300.422 7.41975 299.939 7.21022C299.062 6.83393 298.177 7.18885 297.895 7.46252Z" fill="white"/>
<path d="M329.614 68.7466C329.738 68.6055 329.888 68.4088 329.986 68.1565C330.089 67.8914 330.14 67.6092 330.17 67.3654C330.234 66.925 330.175 66.3178 329.897 66.0313C329.563 65.6807 328.917 65.7833 328.456 66.0313C328.28 66.1254 328.148 66.2152 328.045 66.3178C327.883 66.476 327.78 66.6684 327.75 66.8779C327.69 67.2329 327.836 67.6348 328.075 68.1266C328.306 68.6097 328.635 68.9176 328.977 68.9818C329.195 69.0202 329.426 68.9475 329.614 68.7509" fill="white"/>
<path d="M297.604 56.8125C297.873 56.4063 297.882 55.9316 297.638 55.5168C297.352 55.0336 296.774 54.7258 296.24 54.7728C295.804 54.807 295.436 54.9481 295.214 55.1662C294.931 55.4356 294.88 55.8119 295.077 56.1497C295.235 56.4233 295.419 56.7013 295.675 56.8552C295.966 57.0348 296.86 57.5864 297.463 56.9921C297.514 56.9407 297.561 56.8809 297.604 56.8167" fill="white"/>
<path d="M319.254 82.7895C319.767 82.9092 320.19 82.8408 320.438 82.5971C320.63 82.4089 320.695 82.1353 320.605 81.8573C320.434 81.3228 320.344 81.0791 320.083 80.9936C319.784 80.891 319.476 80.8097 319.074 80.737C318.599 80.6472 318.185 80.7327 317.937 80.9722C317.748 81.1561 317.68 81.4126 317.744 81.6735C317.881 82.2122 318.608 82.6484 319.249 82.7938" fill="white"/>
<path d="M308.243 30.7156C307.896 31.0534 307.828 31.5623 308.055 32.0369C308.23 32.3961 308.551 32.6441 308.936 32.704C309.333 32.7724 309.748 32.6484 310.026 32.379C310.368 32.0455 310.428 31.5623 310.18 31.1218C310.15 31.0705 310.124 31.0192 310.086 30.9679C309.863 30.6386 309.538 30.4334 309.171 30.3992C308.829 30.3607 308.482 30.4804 308.243 30.7156Z" fill="white"/>
<path d="M265.397 90.2896C265.713 90.5547 266.068 90.7172 266.474 90.8882C267.099 91.1576 267.432 90.9609 267.578 90.8198C267.71 90.6873 267.903 90.3879 267.689 89.8321C267.526 89.413 267.372 89.0153 267.082 88.7716C266.654 88.4167 265.82 88.1986 265.346 88.4423L265.217 88.5364C265.072 88.6775 265.008 88.8999 265.021 89.2206C265.025 89.3018 265.063 90.0116 265.401 90.2896" fill="white"/>
<path d="M314.7 24.9389C314.349 25.281 314.494 25.9737 314.605 26.3586C314.699 26.6707 314.832 27.0769 315.016 27.496C315.14 27.7697 315.435 27.9279 315.85 28.1417C316.273 28.364 316.542 28.1502 316.615 28.0775C316.889 27.8082 316.876 27.3121 316.568 26.5681C316.359 26.0592 316.162 25.6103 315.94 25.1484C315.811 24.9047 315.538 24.8491 315.221 24.7893C315.029 24.7508 314.841 24.8064 314.7 24.9432" fill="white"/>
<path d="M318.903 20.0126C319.053 19.8672 319.126 19.6534 319.108 19.4139C319.066 18.8538 318.523 18.238 317.856 17.9943C317.278 17.7805 316.795 17.8104 316.526 18.0713C316.406 18.1867 316.342 18.3449 316.338 18.5117C316.325 19.2001 317.402 19.8672 317.526 19.9399C318.091 20.2777 318.608 20.3034 318.907 20.0083" fill="white"/>
<path d="M308.632 54.7511C308.414 54.6528 308.17 54.7084 307.978 54.8922C307.862 55.0034 307.773 55.1573 307.691 55.307C307.627 55.4267 307.567 55.6277 307.653 55.8928C307.777 56.2777 308.192 56.6753 308.765 56.9576C309.342 57.2441 310.107 57.5049 310.471 57.15L310.582 57.0217L310.612 56.902C310.761 56.3247 309.923 55.6192 309.663 55.4139C309.359 55.183 309.008 54.9222 308.628 54.7511" fill="white"/>
<path d="M289.929 11.3065C289.668 11.3279 289.458 11.4177 289.313 11.4947C289.236 11.5332 289.172 11.5802 289.112 11.6358C288.8 11.9394 288.8 12.444 289.112 12.8288C289.338 13.1153 289.527 13.2992 289.77 13.3633C290.309 13.513 290.869 13.6669 291.335 13.4959C291.819 13.3163 292.028 12.8502 291.866 12.3499C291.724 11.918 291.301 11.4305 290.835 11.3621C290.48 11.3108 290.206 11.2766 289.933 11.298" fill="white"/>
<path d="M325.518 76.6187L325.582 76.5418C325.714 76.3451 325.779 76.1227 325.817 75.9431C325.86 75.755 325.821 75.5583 325.71 75.3787C325.522 75.0751 325.12 74.8356 324.637 74.7244C324.308 74.6517 323.927 74.579 323.568 74.5876C323.393 74.5876 323.23 74.6603 323.102 74.7843C322.982 74.8998 322.914 75.0451 322.862 75.1606C322.717 75.4813 322.687 75.9688 322.892 76.2852C323.123 76.6358 323.662 76.7342 324.072 76.6786C324.244 76.6572 324.419 76.6358 324.594 76.6315C324.624 76.6315 324.718 76.6615 324.774 76.6829C324.992 76.7513 325.295 76.8454 325.522 76.6187" fill="white"/>
<path d="M318.77 59.9425C318.946 60.6608 319.745 61.1868 320.254 61.3322C320.69 61.4562 320.934 61.3322 321.067 61.2039C321.186 61.0842 321.358 60.8191 321.139 60.3572C321.011 60.0879 320.767 59.7543 320.323 59.2455C319.972 58.8435 319.66 58.6426 319.369 58.634C319.198 58.6297 319.036 58.6896 318.916 58.8051C318.685 59.0274 318.642 59.3994 318.77 59.9425Z" fill="white"/>
<path d="M285.191 21.4709C285.708 21.4966 286.337 20.9834 286.691 20.466C287.008 20 286.986 19.6579 286.918 19.4526C286.833 19.2089 286.58 18.948 286.131 18.9652C285.524 18.9865 285.246 19.0293 285.067 19.2388C284.878 19.4697 284.729 19.722 284.583 20.0598C284.447 20.3762 284.421 20.6927 284.515 20.9492C284.618 21.2528 284.878 21.4495 285.191 21.4666" fill="white"/>
<path d="M310.295 12.6111C310.813 12.6367 311.441 12.1236 311.796 11.6062C312.113 11.1401 312.091 10.798 312.023 10.5928C311.937 10.3448 311.685 10.0882 311.236 10.1053C310.629 10.1267 310.351 10.1694 310.171 10.379C309.983 10.6099 309.833 10.8622 309.688 11.2C309.551 11.5164 309.526 11.8328 309.62 12.0894C309.722 12.393 309.983 12.5897 310.295 12.6068" fill="white"/>
<path d="M312.318 87.8819C312.852 87.7621 313.152 87.3687 313.07 86.9411C313.002 86.552 312.643 86.1971 312.061 85.9448C311.817 85.8379 311.625 85.7781 311.45 85.7652C311.172 85.7439 310.949 85.808 310.796 85.9619C310.71 86.0474 310.441 86.3724 310.744 86.9326C310.997 87.3987 311.668 88.023 312.318 87.8819Z" fill="white"/>
<path d="M287.872 25.9307C287.41 25.8708 287.051 25.9564 286.828 26.1744C286.619 26.3797 286.555 26.679 286.657 26.9997C286.858 27.6283 287.628 28.0773 288.304 28.2441C288.637 28.3296 289.253 28.4151 289.612 28.0645C289.728 27.949 289.903 27.701 289.8 27.2948C289.775 27.1879 289.728 27.081 289.655 26.9612C289.304 26.3711 288.483 26.012 287.872 25.935" fill="white"/>
<path d="M235.512 13.1455C235.392 13.5389 235.306 13.8852 235.473 14.1717C236.016 15.1082 236.67 16.019 237.363 16.8015C237.654 17.1308 238.094 17.011 238.24 16.9726L238.377 16.9212C238.796 16.7117 238.92 16.1516 238.667 15.6128C238.573 15.4118 238.445 15.1552 238.287 14.9201C238.005 14.4967 237.714 14.0862 237.367 13.6073C236.807 12.8419 236.264 12.534 235.841 12.7393C235.73 12.7949 235.584 12.906 235.512 13.1455Z" fill="white"/>
<path d="M224.21 21.5476L224.188 21.7871L224.364 21.9282C224.98 22.4242 225.604 22.9202 226.267 23.4291C226.814 23.8524 227.336 23.9935 227.738 23.8267C228.054 23.6899 228.246 23.3863 228.255 22.9672C228.272 22.1291 227.528 21.3124 226.566 21.1072C226.108 21.0088 225.634 20.9105 225.163 20.8335C224.997 20.8036 224.826 20.8592 224.62 21.0088C224.372 21.197 224.236 21.3766 224.21 21.5519" fill="white"/>
<path d="M232.843 19.8846C232.728 20.3336 232.967 20.804 233.48 21.1503C233.942 21.4582 234.306 21.6805 234.656 21.8772C234.93 22.0269 235.409 21.8601 235.674 21.7447C235.875 21.6549 236.089 21.5352 236.149 21.3043L236.179 21.1631L236.136 21.0477C235.999 20.6543 235.802 20.2737 235.61 19.9188C235.199 19.162 234.237 18.837 233.463 19.1962C233.134 19.3501 232.912 19.5938 232.839 19.8846" fill="white"/>
<path d="M238.71 8.80932C239.095 9.08727 239.612 9.21555 240.292 9.20272C240.685 9.19417 241.002 8.96754 241.237 8.77511C241.438 8.60835 241.489 8.41593 241.498 8.28337C241.532 7.80446 241.049 7.33837 240.207 7.0476C238.458 6.43612 238.201 6.71834 238.09 6.83807C237.765 7.19298 237.923 8.24061 238.71 8.80932Z" fill="white"/>
<path d="M238.342 21.4364L238.312 21.5604C238.231 21.8811 238.454 22.1804 238.791 22.638C239.206 23.1981 240.13 23.3948 240.934 23.0912C241.853 22.7492 242.114 21.8811 241.528 21.3808C241.259 21.1499 240.934 20.9062 240.566 20.8378C239.856 20.7223 238.92 20.9276 238.471 21.3039L238.347 21.4364H238.342Z" fill="white"/>
<path d="M231.471 8.41163L231.257 8.53137V8.7751C231.266 9.01884 231.355 9.0787 231.95 9.46354C232.446 9.77997 233.369 9.50203 234.028 9.06159C234.404 8.80503 234.781 8.54419 235.131 8.27908L235.302 8.14225V7.93699C235.298 7.69754 235.14 7.56925 234.793 7.29559C234.31 6.91074 233.245 7.34262 232.694 7.66333C232.249 7.91989 231.834 8.1679 231.467 8.41163" fill="white"/>
<path d="M224.804 11.9181L224.779 12.072L224.796 12.1661C224.83 12.3158 224.911 12.7177 226.566 12.9101C227.494 13.017 228.208 12.7391 228.345 12.2131L228.366 12.0207C228.362 11.8368 228.349 11.3451 227.943 11.1142C227.34 10.7764 226.81 10.6481 226.318 10.7165C225.433 10.8405 224.894 11.5589 224.804 11.9181Z" fill="white"/>
<path d="M246.501 13.3033L246.475 13.4316L246.505 13.5385C246.629 13.9661 246.77 14.4023 246.937 14.8812C247.147 15.4799 247.788 15.9288 248.404 15.9032C248.874 15.8818 249.233 15.5868 249.362 15.0779C249.49 14.5177 249.229 13.9277 248.558 13.2649C248.28 12.9955 247.728 12.8415 247.476 12.8031C247.202 12.7603 246.604 12.9228 246.505 13.3033" fill="white"/>
<path d="M243.644 10.3746C243.243 10.5499 242.999 10.7937 242.926 11.0759C242.858 11.3453 242.956 11.6147 243.191 11.8199C243.657 12.2261 244.495 12.209 245.12 12.0123C245.428 11.9183 245.966 11.6874 246.082 11.2341C246.12 11.0887 246.137 10.8022 245.859 10.5243C245.787 10.4516 245.693 10.3874 245.582 10.3233C245.013 10.024 244.179 10.1351 243.649 10.3703" fill="white"/>
<path d="M232.647 30.6985C232.557 31.0406 232.754 31.3741 232.98 31.6777C233.258 32.054 233.776 32.4218 234.225 32.3961C234.511 32.379 234.913 32.3533 235.028 32.0027C235.131 31.6777 235.204 31.3442 235.255 31.0064C235.358 30.3864 235.238 29.6381 234.729 29.467C234.31 29.3259 233.703 29.5739 233.314 29.8647C233.049 30.0657 232.758 30.3137 232.651 30.6643L232.642 30.6985H232.647Z" fill="white"/>
<path d="M239.292 35.5221C239.322 35.351 239.347 35.1158 239.3 34.8678C239.253 34.607 239.155 34.3547 239.065 34.1452C238.898 33.7603 238.56 33.3028 238.193 33.2087C237.752 33.0933 237.286 33.4909 237.038 33.91C236.944 34.0725 236.88 34.205 236.846 34.3419C236.794 34.5514 236.807 34.7524 236.88 34.9362C237.004 35.2484 237.32 35.5007 237.748 35.7786C238.171 36.0523 238.582 36.1421 238.885 36.0224C239.078 35.9454 239.232 35.7786 239.283 35.5263" fill="white"/>
<path d="M217.616 28.5733L217.595 28.693L217.608 28.7786C217.659 29.0993 217.903 29.3772 218.164 29.6338C218.57 30.0272 219.263 30.241 219.784 30.1255C220.135 30.0486 220.52 29.9417 220.687 29.6295L220.734 29.5055C220.823 29.1591 220.58 28.8299 220.323 28.4792C219.955 27.9747 219.211 27.7438 218.604 27.9405C218.065 28.1158 217.706 28.2312 217.621 28.5733" fill="white"/>
<path d="M245.338 33.1786C245.355 32.7211 245.133 32.3363 244.731 32.1225C244.265 31.8745 243.653 31.9087 243.243 32.208C242.909 32.4474 242.683 32.7382 242.61 33.029C242.516 33.3839 242.657 33.7132 242.978 33.8799C243.239 34.021 243.521 34.1536 243.803 34.1536C244.128 34.1536 245.107 34.1621 245.304 33.3924C245.321 33.3283 245.33 33.2556 245.33 33.1786" fill="white"/>
<path d="M225.022 27.3632C225.057 27.2264 225.069 27.0767 225.052 26.9142C225.035 26.5978 224.753 26.384 224.441 26.1745C223.953 25.8495 223.162 26.0205 222.632 26.3626C222.431 26.4952 222.294 26.6705 222.243 26.8715C222.187 27.0895 222.23 27.3162 222.367 27.5129C222.576 27.8207 222.974 28.0303 223.491 28.0944C224.62 28.2441 224.937 27.6967 225.022 27.3589" fill="white"/>
<path d="M229.029 36.5142C229.063 36.3774 229.076 36.2277 229.059 36.0695C229.038 35.7531 228.76 35.5393 228.448 35.3297C227.956 35.0048 227.169 35.1758 226.639 35.5179C226.438 35.6504 226.301 35.8258 226.25 36.031C226.194 36.2491 226.237 36.4757 226.374 36.6724C226.583 36.9803 226.981 37.1855 227.498 37.254C228.627 37.4036 228.944 36.8563 229.029 36.5185" fill="white"/>
<path d="M224.651 7.50959C224.625 7.61649 224.629 7.72767 224.663 7.83029C224.899 8.53156 226.37 8.5615 226.536 8.56577C226.994 8.56577 227.447 8.56578 227.913 8.54867L228.208 8.52302L228.281 8.23652C228.319 8.08259 228.281 7.96713 228.118 7.53953C227.858 6.83826 226.399 6.82971 226.233 6.83398C225.809 6.83398 224.809 6.91094 224.651 7.50959Z" fill="white"/>
<path d="M238.261 2.8786C238.09 2.85295 237.928 2.87005 237.795 2.89143C237.44 2.94274 237.111 3.25062 237.025 3.60553C236.957 3.88775 236.987 4.25976 237.094 4.48639C237.141 4.58474 237.252 4.81992 237.496 4.914H237.504C238.103 5.13207 238.757 5.3245 239.493 5.49554C239.822 5.58106 240.002 5.29884 240.121 5.11497C240.429 4.64033 239.856 3.95188 239.736 3.81505C239.557 3.61408 239.373 3.41738 239.176 3.24206C238.937 3.02826 238.531 2.92136 238.265 2.8786" fill="white"/>
<path d="M223.83 31.7034L223.817 31.6863C223.684 31.5024 223.479 31.3827 223.227 31.3528C222.791 31.3015 222.23 31.5324 221.739 31.9642C221.033 32.5843 221.166 33.0119 221.307 33.2086C221.473 33.4395 221.777 33.5378 222.209 33.4908C222.346 33.478 223.569 33.3368 223.907 33.0675C224.279 32.7639 224.137 32.1652 223.83 31.7077" fill="white"/>
<path d="M228.114 27.9536L228.093 27.9665C227.883 28.0563 227.725 28.2359 227.644 28.4753C227.503 28.8944 227.614 29.4845 227.934 30.0575C228.396 30.8785 228.841 30.8357 229.063 30.7373C229.324 30.6262 229.482 30.344 229.525 29.9121C229.542 29.7752 229.658 28.548 229.461 28.1632C229.243 27.7356 228.627 27.7527 228.114 27.9579" fill="white"/>
<path d="M247.497 19.4656L247.484 19.4485C247.352 19.2646 247.142 19.1449 246.894 19.115C246.458 19.0637 245.898 19.2946 245.406 19.7264C244.701 20.3465 244.833 20.7741 244.974 20.9708C245.141 21.2017 245.445 21.3 245.877 21.253C246.014 21.2402 247.236 21.0991 247.574 20.8297C247.946 20.5261 247.805 19.9274 247.497 19.4699" fill="white"/>
<path d="M218.865 14.7191C218.754 15.1595 218.946 15.6042 219.361 15.8736C219.677 16.0746 220.054 16.1174 220.392 15.9805C220.742 15.8437 221.016 15.5401 221.106 15.1895C221.217 14.7576 221.029 14.3385 220.614 14.1076C220.567 14.0777 220.52 14.0563 220.464 14.0306C220.122 13.8724 219.763 13.8682 219.455 14.0178C219.164 14.1547 218.942 14.4198 218.869 14.7234" fill="white"/>
<path d="M251.662 24.7292C252.043 24.7891 252.411 24.742 252.817 24.6864C253.45 24.5966 253.621 24.2759 253.668 24.0963C253.71 23.9253 253.719 23.5918 253.274 23.2497C252.936 22.9931 252.624 22.7494 252.269 22.6981C251.752 22.6211 250.978 22.8563 250.717 23.2796L250.662 23.4164C250.615 23.6003 250.67 23.8098 250.833 24.0579C250.875 24.122 251.252 24.6693 251.658 24.7292" fill="white"/>
<path d="M217.334 18.3836C217.223 18.8283 217.672 19.3157 217.954 19.568C218.181 19.7733 218.489 20.0384 218.839 20.2778C219.07 20.4361 219.387 20.419 219.823 20.389C220.272 20.3591 220.379 20.0555 220.404 19.9614C220.494 19.6108 220.242 19.2217 219.63 18.7727C219.211 18.4691 218.839 18.204 218.433 17.9389C218.211 17.8063 217.967 17.8961 217.681 18.003C217.51 18.0671 217.386 18.204 217.339 18.3793" fill="white"/>
<path d="M216.812 24.4512C217.082 24.7164 217.471 24.9558 218.005 25.1696C218.189 25.2509 218.442 25.2124 218.758 25.0584C219.074 24.9045 219.263 24.7163 219.318 24.5068L219.331 24.3358C219.28 23.7371 218.959 23.2625 218.412 22.9675C218.078 22.7836 217.646 22.7793 217.261 22.9503C216.915 23.1043 216.663 23.3737 216.581 23.673C216.509 23.9509 216.594 24.2374 216.817 24.4512" fill="white"/>
<path d="M226.134 17.1224C226.186 16.9299 226.134 16.7247 226.006 16.5451C225.698 16.1175 224.963 15.8909 224.308 16.0191C223.744 16.1303 223.368 16.3912 223.282 16.729C223.244 16.8829 223.265 17.0368 223.346 17.1737C223.671 17.7296 224.86 17.7424 224.993 17.7381C225.613 17.7338 226.04 17.5029 226.134 17.1181" fill="white"/>
<path d="M243.38 29.0908C243.739 29.373 244.218 29.3773 244.632 29.1036C244.945 28.8941 245.133 28.5691 245.146 28.2057C245.163 27.8294 244.996 27.4573 244.709 27.2307C244.359 26.9528 243.901 26.957 243.521 27.2393C243.478 27.2735 243.435 27.3034 243.388 27.3462C243.106 27.5942 242.956 27.9192 242.969 28.2655C242.978 28.5862 243.131 28.8941 243.375 29.0865" fill="white"/>
<path d="M248.515 23.4166C248.361 23.2926 248.156 23.2541 247.933 23.3011C247.416 23.4123 246.911 23.9896 246.766 24.6438C246.638 25.204 246.723 25.653 247.001 25.871C247.125 25.9694 247.279 26.0122 247.437 25.995C248.079 25.9224 248.566 24.8405 248.622 24.7165C248.87 24.1478 248.831 23.6646 248.519 23.4209" fill="white"/>
<path d="M243.982 4.78987C243.76 4.8198 243.589 4.98229 243.525 5.22175C243.486 5.37141 243.491 5.53389 243.499 5.69211C243.508 5.82039 243.559 6.00854 243.756 6.17958C244.047 6.42759 244.572 6.54304 245.167 6.49173C245.77 6.44042 246.514 6.27365 246.629 5.81612L246.655 5.6579L246.621 5.54672C246.458 5.01222 245.441 4.85401 245.133 4.81552C244.778 4.77704 244.367 4.73856 243.978 4.78987" fill="white"/>
<path d="M221.195 10.4726C220.994 10.618 220.875 10.7933 220.793 10.9259C220.751 10.9943 220.721 11.0627 220.699 11.1397C220.597 11.5374 220.84 11.9393 221.281 12.0975C221.602 12.213 221.845 12.2729 222.068 12.2044C222.572 12.0591 223.094 11.9137 223.385 11.5459C223.684 11.1696 223.624 10.6907 223.252 10.37C222.931 10.0921 222.354 9.90821 221.944 10.0792C221.636 10.2075 221.401 10.3187 221.191 10.4684" fill="white"/>
<path d="M240.882 26.628L240.895 26.534C240.904 26.3116 240.848 26.1021 240.792 25.9439C240.732 25.7728 240.608 25.6317 240.429 25.5419C240.13 25.3923 239.689 25.3923 239.249 25.5419C238.949 25.6446 238.607 25.7728 238.325 25.9567C238.188 26.0422 238.09 26.1791 238.047 26.3416C238.009 26.4912 238.021 26.6451 238.039 26.7606C238.081 27.0856 238.295 27.4961 238.612 27.65C238.966 27.8211 239.45 27.6329 239.749 27.3892C239.873 27.2908 240.006 27.1882 240.142 27.0984C240.168 27.0856 240.258 27.0642 240.309 27.0514C240.519 27.0001 240.805 26.9274 240.878 26.6366" fill="white"/>
<path d="M229.375 3.0154L229.354 3.15651C229.324 3.51997 229.375 4.19986 229.765 4.45215C230.226 4.75575 231.146 4.26401 231.415 4.10579C231.766 3.90054 231.885 3.66536 231.928 3.50287C232.022 3.14796 231.856 2.6776 231.116 2.43814C230.62 2.27565 230.145 2.29275 229.807 2.47662C229.594 2.59635 229.44 2.78877 229.38 3.01113" fill="white"/>
<path d="M231.868 25.6701C232.36 26.1575 233.254 26.1917 233.737 26.0592C234.148 25.948 234.284 25.7257 234.323 25.5632C234.361 25.4092 234.366 25.1099 233.968 24.8491C233.733 24.6951 233.374 24.5455 232.771 24.3573C232.296 24.2077 231.945 24.1991 231.71 24.3317C231.569 24.4129 231.466 24.5412 231.432 24.6909C231.36 24.9816 231.501 25.3023 231.873 25.6744" fill="white"/>
<path d="M250.114 17.4087C250.093 17.4643 250.071 17.5199 250.059 17.5755C249.947 18.0116 250.089 18.4478 250.401 18.6359C250.76 18.854 251.547 18.7727 251.957 18.6958C252.329 18.6274 252.971 18.4349 253.082 17.9988L253.112 17.7807L253.043 17.6439C252.838 17.2291 251.996 16.9554 251.833 16.9041C251.406 16.7716 251.064 16.7031 250.773 16.7716C250.384 16.8656 250.213 17.1778 250.119 17.4044" fill="white"/>
<path d="M248.489 9.47651C248.425 9.73307 248.481 10.0452 248.656 10.3531C248.776 10.5626 248.947 10.8406 249.212 11.1014C249.392 11.2767 249.665 11.3109 250.178 11.3109C250.597 11.3109 250.811 11.0586 250.875 10.8235C250.948 10.537 250.837 10.2077 250.559 9.85707C250.183 9.39526 249.563 8.91634 249.075 8.96766C248.789 8.99759 248.566 9.19001 248.494 9.47651" fill="white"/>
<path d="M250.427 30.5705C250.854 30.3396 251.107 29.6212 251.141 29.0311C251.166 28.5051 250.983 28.24 250.829 28.1075C250.64 27.9535 250.311 27.868 249.961 28.1032C249.486 28.4153 249.281 28.5864 249.238 28.843C249.199 29.1209 249.204 29.3946 249.251 29.7366C249.293 30.0574 249.43 30.3225 249.631 30.485C249.862 30.6774 250.166 30.7073 250.427 30.5705Z" fill="white"/>
<path d="M243.734 17.0881C244.162 16.8571 244.419 16.1345 244.448 15.5487C244.474 15.0227 244.29 14.7576 244.136 14.6251C243.948 14.4711 243.619 14.3856 243.268 14.6208C242.794 14.9329 242.588 15.104 242.546 15.3563C242.507 15.6342 242.511 15.9121 242.563 16.2499C242.605 16.5706 242.738 16.8358 242.943 16.9983C243.174 17.1907 243.478 17.2206 243.739 17.0838" fill="white"/>
<path d="M234.011 37.1595C234.378 36.8046 234.43 36.3428 234.156 36.0392C233.912 35.7612 233.451 35.6543 232.86 35.7313C232.612 35.7612 232.429 35.8126 232.283 35.8853C232.052 36.005 231.903 36.1632 231.856 36.3642C231.826 36.4754 231.774 36.8645 232.287 37.1681C232.715 37.4204 233.562 37.5914 234.011 37.1681" fill="white"/>
<path d="M230.705 15.4844C230.308 15.6597 230.06 15.9035 229.987 16.19C229.918 16.4594 230.017 16.7288 230.252 16.934C230.718 17.3402 231.556 17.3231 232.181 17.1264C232.488 17.0324 233.023 16.8014 233.143 16.3439C233.177 16.1985 233.198 15.912 232.916 15.6341C232.843 15.5614 232.753 15.4973 232.638 15.4374C232.069 15.1338 231.236 15.2492 230.705 15.4844Z" fill="white"/>
<path d="M181.638 14.4884C181.51 14.2532 181.244 14.1976 180.937 14.1377C180.753 14.1035 180.565 14.1548 180.432 14.2874C180.09 14.6209 180.231 15.2966 180.342 15.6728C180.432 15.9764 180.56 16.3741 180.74 16.7803C180.86 17.0454 181.15 17.1994 181.552 17.4089C181.963 17.627 182.228 17.4132 182.296 17.3448C182.561 17.0839 182.553 16.6007 182.249 15.8738C182.044 15.3778 181.856 14.9374 181.638 14.4884Z" fill="white"/>
<path d="M181.154 32.4434C181.706 32.7727 182.211 32.7983 182.501 32.5118C182.651 32.3664 182.719 32.1612 182.702 31.9303C182.66 31.3829 182.134 30.7843 181.479 30.5448C180.919 30.3353 180.445 30.3652 180.184 30.6218C180.068 30.7373 180.004 30.8869 180 31.0537C179.987 31.725 181.035 32.375 181.159 32.4477" fill="white"/>
<path d="M181.005 25.4051C181.569 25.683 182.318 25.9396 182.668 25.5933L182.779 25.4692L182.809 25.3538C182.955 24.7936 182.134 24.1009 181.881 23.8999C181.586 23.6733 181.24 23.421 180.872 23.2543C180.659 23.1602 180.423 23.2115 180.235 23.3911C180.141 23.4809 180.068 23.6006 180 23.7246V24.5413C180.175 24.862 180.534 25.1742 181.005 25.4051Z" fill="white"/>
<path d="M190.408 80.4634L190.297 80.5489C189.976 80.7413 189.561 80.6259 189.202 80.5019C188.663 80.318 188.15 79.7407 188 79.1592C187.906 78.7829 187.838 78.3938 187.966 78.0731L188 77.9875L188.086 77.8935C188.355 77.6284 188.744 77.7224 189.33 77.8635C189.997 78.0218 190.54 78.6418 190.6 79.3046C190.639 79.7621 190.677 80.1983 190.403 80.4634H190.408ZM190.091 87.6685C190.014 87.8224 189.92 87.955 189.813 88.0576C189.548 88.3185 188.962 88.6392 188.017 87.878C187.586 87.5317 187.333 87.1254 187.316 86.7278C187.303 86.4712 187.389 86.2403 187.56 86.0735C187.722 85.9153 187.94 85.8298 188.197 85.8255C188.868 85.8084 189.685 86.0864 189.95 86.6551C190.117 87.0185 190.254 87.3649 190.096 87.6685H190.091ZM185.627 75.3236C185.17 75.3834 183.981 74.8318 183.848 74.7677C183.429 74.571 183.203 74.3144 183.181 74.0108C183.164 73.7543 183.28 73.2882 184.263 73.1171C184.952 72.9974 185.584 73.0958 185.956 73.3865C186.166 73.549 186.29 73.7756 186.307 74.0151V74.0408C186.337 74.6308 186.132 75.2552 185.627 75.3236ZM183.583 93.4283C183.314 93.6934 182.908 93.8132 182.523 93.7448C182.151 93.6806 181.839 93.4412 181.663 93.0948C181.441 92.6287 181.509 92.137 181.847 91.8034C182.082 91.5725 182.42 91.4571 182.749 91.4956C183.104 91.5298 183.421 91.7307 183.639 92.0515C183.673 92.1028 183.703 92.1498 183.729 92.2011C183.968 92.6287 183.912 93.1033 183.579 93.4283H183.583ZM198.156 69.2131C194.953 66.6817 186.452 67.2333 179.996 68.5974V78.6632C180.15 78.5392 180.346 78.4707 180.573 78.4622C181.244 78.4451 182.061 78.7273 182.322 79.2917C182.489 79.6552 182.625 80.0016 182.467 80.3009C182.394 80.4548 182.3 80.5874 182.193 80.69C181.928 80.9508 181.343 81.2758 180.393 80.5104C180.231 80.3821 180.107 80.241 179.996 80.0999V84.8292C180.021 84.795 180.043 84.7608 180.073 84.7309C180.308 84.5 180.688 84.3973 181.09 84.4486C181.535 84.5085 181.924 84.7523 182.129 85.1029C182.467 85.6759 182.493 86.2831 182.211 86.8561L182.104 87.0057C181.941 87.1682 181.663 87.2324 181.287 87.1981C180.915 87.1639 180.663 87.057 180.539 86.8817C180.295 86.5525 180.115 86.2489 179.996 85.9666V97.7856C185.897 98.8717 192.606 98.8119 196.578 96.5028C201.662 93.5438 202.813 72.8862 198.156 69.2088" fill="#83BB26"/>
<path d="M194.432 82.3747C194.162 82.6398 194.158 83.0503 194.192 83.4523C194.235 83.9483 194.5 84.5726 194.928 84.7949C195.202 84.9361 195.578 85.137 195.877 84.8805C196.151 84.641 196.399 84.3759 196.634 84.0979C197.07 83.5891 197.374 82.8451 197.01 82.4046C196.711 82.0454 196.018 81.93 195.501 81.9813C195.146 82.0155 194.748 82.0839 194.458 82.3448L194.428 82.3704L194.432 82.3747Z" fill="white"/>
<path d="M193.739 92.6286C193.482 92.6499 193.281 92.7397 193.14 92.8124C193.068 92.8509 193.004 92.898 192.944 92.9535C192.64 93.2486 192.636 93.7403 192.944 94.1166C193.166 94.3946 193.35 94.5784 193.585 94.6383C194.111 94.7837 194.654 94.9333 195.112 94.7666C195.582 94.5955 195.787 94.138 195.629 93.6505C195.492 93.2315 195.077 92.7568 194.624 92.6884C194.282 92.6371 194.013 92.6072 193.743 92.6286" fill="white"/>
<path d="M194.697 72.1293L194.598 72.2405C194.376 72.5441 194.055 73.1812 194.265 73.6131C194.509 74.1305 195.59 74.1904 195.915 74.1947C196.339 74.2032 196.57 74.0578 196.694 73.9338C196.967 73.6687 197.074 73.1641 196.544 72.5484C196.189 72.1379 195.757 71.8942 195.36 71.877C195.103 71.8685 194.863 71.954 194.692 72.1251" fill="white"/>
<path d="M180.393 80.5148C181.338 81.2759 181.928 80.9552 182.194 80.6944C182.3 80.5918 182.395 80.4592 182.472 80.3053C182.63 80.0059 182.493 79.6553 182.326 79.2961C182.061 78.7274 181.249 78.4495 180.577 78.4666C180.351 78.4708 180.154 78.5435 180 78.6675V80.1086C180.107 80.2497 180.235 80.3908 180.398 80.5191" fill="white"/>
<path d="M188.197 85.8255C187.941 85.834 187.722 85.9195 187.56 86.0735C187.389 86.2402 187.303 86.4711 187.316 86.7277C187.338 87.1254 187.586 87.5359 188.017 87.878C188.962 88.6391 189.548 88.3141 189.813 88.0575C189.92 87.9549 190.014 87.8224 190.091 87.6684C190.25 87.3691 190.113 87.0185 189.946 86.655C189.681 86.0863 188.868 85.8083 188.193 85.8255" fill="white"/>
<path d="M185.957 73.3861C185.589 73.0954 184.952 72.997 184.263 73.1167C183.276 73.2878 183.16 73.7496 183.181 74.0104C183.203 74.314 183.425 74.5706 183.848 74.7673C183.981 74.8314 185.17 75.383 185.627 75.3232C186.132 75.2548 186.337 74.6305 186.311 74.0404V74.0147C186.29 73.771 186.166 73.5486 185.957 73.3861Z" fill="white"/>
<path d="M183.639 92.0511C183.421 91.7304 183.104 91.5294 182.75 91.4952C182.416 91.461 182.078 91.5764 181.847 91.8031C181.509 92.1323 181.441 92.6283 181.663 93.0944C181.834 93.4451 182.147 93.6845 182.523 93.7444C182.912 93.8128 183.314 93.6888 183.583 93.4279C183.917 93.103 183.972 92.6326 183.733 92.2007C183.707 92.1494 183.677 92.1024 183.643 92.0511" fill="white"/>
<path d="M189.335 77.8631C188.745 77.722 188.36 77.6322 188.09 77.8931L188.005 77.9872L187.971 78.0727C187.842 78.3934 187.911 78.7825 188.005 79.1588C188.155 79.7403 188.668 80.3176 189.206 80.5015C189.566 80.6255 189.98 80.7409 190.301 80.5485L190.412 80.463C190.686 80.1979 190.647 79.7617 190.609 79.3042C190.553 78.6414 190.006 78.0214 189.339 77.8631" fill="white"/>
<path d="M180.543 86.886C180.667 87.0613 180.919 87.1682 181.291 87.2024C181.668 87.2366 181.941 87.1725 182.108 87.01L182.215 86.8603C182.497 86.2873 182.472 85.6801 182.134 85.1071C181.928 84.7565 181.539 84.5128 181.095 84.4529C180.693 84.4016 180.312 84.5042 180.077 84.7351C180.047 84.765 180.026 84.7993 180 84.8335V85.9709C180.124 86.2531 180.299 86.5567 180.543 86.886Z" fill="white"/>
<path d="M355.528 12.2644L355.652 12.1789C356.019 11.8582 355.998 11.2638 355.6 10.7849C355.451 10.6096 355.254 10.383 355.032 10.1863C354.638 9.83134 354.236 9.49781 353.762 9.10869C352.996 8.48439 352.372 8.31763 352 8.63833C351.901 8.71957 351.786 8.87351 351.777 9.13007C351.76 9.5534 351.765 9.92542 352.008 10.1734C352.804 10.973 353.702 11.7171 354.6 12.32C354.98 12.5723 355.391 12.3371 355.528 12.2601" fill="white"/>
<path d="M352.966 27.1366C352.487 27.2777 352.059 28.2911 352.453 29.219C352.645 29.6723 353.034 30.0657 353.641 30.4249C353.996 30.6301 354.402 30.6002 354.715 30.5574C354.98 30.5147 355.134 30.3736 355.211 30.2624C355.497 29.8519 355.322 29.1806 354.732 28.4707C353.509 26.9827 353.128 27.0938 352.966 27.1409" fill="white"/>
<path d="M355.771 19.5254C355.241 19.5126 354.736 19.5083 354.274 19.5254L354.018 19.5169L353.889 19.735C353.761 19.953 353.808 20.0557 354.129 20.7185C354.394 21.2658 355.369 21.5181 356.194 21.4839C356.665 21.4625 357.139 21.4326 357.597 21.3855L357.823 21.3556L357.93 21.1717C358.059 20.9579 357.986 20.7612 357.828 20.3336C357.61 19.7264 356.429 19.5383 355.767 19.5254" fill="white"/>
<path d="M359.919 24.3659C359.936 24.4215 359.966 24.4814 359.996 24.5369V23.7202C359.983 23.7459 359.966 23.7673 359.953 23.7929C359.893 23.9126 359.833 24.1093 359.919 24.3616" fill="white"/>
<path d="M359.854 85.5729C359.786 85.2993 359.842 85.0384 359.996 84.8332V80.1039C359.816 79.8644 359.7 79.6121 359.688 79.3641C359.675 79.1076 359.76 78.8809 359.931 78.7099C359.948 78.6928 359.974 78.6757 359.996 78.6586V68.5928C356.806 69.2641 354.107 70.1364 352.803 70.9318C347.775 73.9977 346.543 92.6412 351.794 95.2411C353.936 96.3015 356.853 97.208 359.996 97.7853V85.9663C359.936 85.8295 359.884 85.6969 359.854 85.5687" fill="#FF2180"/>
<path d="M354.501 82.105C354.3 82.3017 354.18 82.6181 354.168 82.9944C354.159 83.251 354.163 83.5973 354.257 83.9822C354.326 84.243 354.557 84.4226 355.018 84.7091C355.399 84.94 355.733 84.8288 355.921 84.6493C356.143 84.4312 356.229 84.0677 356.164 83.5973C356.079 82.9688 355.78 82.1905 355.309 81.9682C355.031 81.8356 354.723 81.8912 354.497 82.1093" fill="white"/>
<path d="M351.927 88.9637C351.845 89.0449 351.79 89.1433 351.764 89.2545C351.593 90.007 352.88 90.828 353.03 90.9178C353.432 91.1658 353.838 91.4096 354.261 91.6448L354.539 91.7816L354.757 91.5678C354.877 91.4523 354.903 91.3283 354.988 90.8622C355.134 90.1011 353.847 89.3058 353.697 89.216C353.321 88.9893 352.388 88.5147 351.931 88.9637" fill="white"/>
<path d="M353.915 74.5065C353.778 74.3911 353.624 74.3184 353.496 74.2628C353.154 74.1174 352.692 74.2115 352.427 74.4852C352.213 74.699 352.042 75.0453 352.008 75.3062C352 75.4173 351.97 75.6867 352.136 75.9048H352.145C352.56 76.4265 353.034 76.9524 353.595 77.4998C353.843 77.7563 354.15 77.6024 354.36 77.4998C354.89 77.2432 354.749 76.3239 354.719 76.14C354.668 75.862 354.612 75.5884 354.531 75.3275C354.433 75.0068 354.133 74.6947 353.919 74.5151" fill="white"/>
<path d="M359.688 79.3644C359.701 79.6124 359.812 79.8647 359.996 80.1041V78.6631C359.996 78.6631 359.953 78.693 359.932 78.7144C359.76 78.8812 359.675 79.1121 359.688 79.3686" fill="white"/>
<path d="M359.855 85.5732C359.884 85.7015 359.936 85.8341 359.996 85.9709V84.8335C359.842 85.0387 359.786 85.2996 359.855 85.5732Z" fill="white"/>
</svg>
