<svg width="100" height="100" viewBox="0 0 100 100" fill="none" xmlns="http://www.w3.org/2000/svg">
<path d="M50 100.006C77.6158 100.006 100 77.6216 100 50.0058C100 22.39 77.6158 0 50 0C22.3842 0 0 22.3842 0 50C0 77.6158 22.3842 100 50 100" fill="#27385A"/>
<path d="M27.0396 20.0623C29.7073 19.7397 32.4556 19.8952 35.0254 20.7134C39.1738 21.9579 42.7633 24.6602 45.5116 27.9616C46.5199 29.16 47.4303 30.4391 48.2484 31.7759C48.3867 32.0178 48.5941 32.2541 48.5538 32.5537C48.5423 34.818 48.5711 37.0766 48.5423 39.341C48.2773 39.0817 48.0295 38.8051 47.7414 38.5804C47.148 38.1137 46.4335 37.8199 45.7133 37.6182C45.0277 37.4166 44.3017 37.4742 43.593 37.4857C42.5905 37.5836 41.6513 38.0849 40.9484 38.7936C40.1763 39.5484 39.7039 40.5682 39.4849 41.6226C39.4215 42.2679 39.4331 42.919 39.4676 43.57C39.6635 44.7627 40.3146 45.892 41.3171 46.5834C41.9797 47.0732 42.7864 47.3324 43.5872 47.488C44.1115 47.5341 44.6416 47.5341 45.1659 47.4938C46.4623 47.2921 47.5282 46.4912 48.5999 45.8056C48.6057 47.9374 48.5999 50.0692 48.5999 52.2068C45.1083 52.2414 41.6167 52.2068 38.1309 52.2183C36.8057 52.2241 35.4805 52.1607 34.1611 52.3451C33.5216 52.4373 32.8359 52.5871 32.3692 53.0596C31.9544 53.4859 32.0177 54.1543 32.2367 54.6613C32.4729 55.3412 32.9684 55.8828 33.3084 56.5051C33.8615 57.45 34.1669 58.6484 33.7463 59.7028C33.2219 60.9588 31.7297 61.6214 30.4275 61.3852C29.3501 61.2124 28.3706 60.4 28.0479 59.3513C27.8808 58.6138 28.0479 57.8418 28.3706 57.1676C28.7912 56.1882 29.425 55.3124 29.8225 54.3214C29.9839 53.9181 30.0645 53.3995 29.7534 53.0423C29.4423 52.685 28.9698 52.5295 28.5204 52.4258C27.6043 52.2414 26.6709 52.2068 25.7433 52.2126C21.3759 52.2126 17.0028 52.2126 12.6296 52.2126C11.8518 50.7146 11.2526 49.1301 10.7283 47.5283C10.2558 45.9727 9.88131 44.3824 9.71422 42.7576C9.46071 40.1995 9.55289 37.5721 10.2097 35.0715C11.0509 31.6894 12.8428 28.5493 15.28 26.0602C18.3856 22.8279 22.5858 20.6443 27.0339 20.0508" fill="#1DBADF"/>
<path d="M67.1699 20.0565C68.956 19.8433 70.771 19.8548 72.5513 20.1198C76.1409 20.6902 79.5691 22.2574 82.3462 24.6082C85.083 26.9071 87.2091 29.9378 88.4133 33.3026C89.8018 37.065 89.9574 41.2192 89.0932 45.1198C88.5688 47.5858 87.6873 49.9654 86.5638 52.2183C81.6029 52.2125 76.6364 52.2298 71.6755 52.2067C72.3208 51.2445 72.9662 50.242 73.237 49.0954C73.5999 47.8451 73.4617 46.422 72.7126 45.3388C71.7677 43.9675 70.166 42.9707 68.4663 43.0341C66.9509 42.9707 65.4241 43.6564 64.4388 44.8087C63.7417 45.6096 63.3499 46.664 63.3384 47.7299C63.3211 48.767 63.6495 49.7695 64.1104 50.6856C64.3812 51.2215 64.7442 51.7055 65.0553 52.2183C60.2559 52.2298 55.4506 52.2125 50.6453 52.2183C50.6223 52.1088 50.6108 51.9993 50.5993 51.8898C50.5762 49.7407 50.6799 47.5743 50.34 45.4425C50.2247 44.849 50.0865 44.221 49.6716 43.7601C49.3547 43.4317 48.8477 43.4605 48.4732 43.6564C47.3208 44.2037 46.3241 45.091 45.068 45.4137C44.3075 45.575 43.4778 45.5001 42.8152 45.068C41.4382 44.2844 40.9887 42.3312 41.7781 40.9829C42.4522 39.7672 44.0597 39.1392 45.3676 39.6405C46.5488 40.0611 47.3554 41.1731 48.5999 41.4554C49.1703 41.5764 49.7177 41.1731 49.9424 40.666C50.5071 39.4676 50.4667 38.1021 50.5532 36.8115C50.605 35.3826 50.4379 33.9594 50.5762 32.5363C50.5762 32.4268 50.6108 32.3231 50.6684 32.2309C52.4833 29.1715 54.7707 26.3598 57.5824 24.1703C60.3538 22.0039 63.6725 20.5059 67.1756 20.0507" fill="#FFD525"/>
<path d="M65.3722 47.8165C65.3895 46.2781 66.8357 44.9356 68.3683 45.0624C69.1577 44.9932 69.9297 45.3447 70.4944 45.8805C71.0648 46.497 71.4335 47.344 71.3817 48.1967C71.301 49.666 69.9931 50.6051 69.4803 51.9015C69.3132 52.4604 69.3593 53.1576 69.8491 53.5436C70.5289 54.0679 71.4278 54.1025 72.2459 54.2235C73.139 54.2696 74.0321 54.2465 74.9309 54.2523C78.4455 54.2523 81.9602 54.2465 85.4748 54.258C84.8929 55.3816 84.1784 56.4302 83.4928 57.4904C80.4909 61.9384 76.8783 65.9543 73.018 69.6648C67.0835 75.3631 60.567 80.4277 53.8661 85.1926C52.7829 85.9186 51.7516 86.7367 50.6281 87.3993C50.5935 87.2149 50.582 87.0248 50.5877 86.8404C50.5992 82.1504 50.5704 77.4604 50.605 72.7704C50.9507 72.9375 51.2215 73.2198 51.5499 73.4214C52.1261 73.819 52.7484 74.1474 53.4225 74.3376C54.0966 74.5738 54.8168 74.5219 55.5197 74.4989C56.6721 74.3087 57.7841 73.7671 58.5792 72.8971C59.5011 71.9464 59.8986 70.5752 59.8064 69.2673C59.7027 68.0458 59.2245 66.8416 58.3833 65.9428C57.5421 65.0266 56.3091 64.4447 55.053 64.4851C53.8661 64.4505 52.7253 64.8999 51.7112 65.4818C51.331 65.6835 51.0141 66.0004 50.5992 66.1444C50.5877 62.3187 50.5992 58.4871 50.5992 54.6614C50.5992 54.5231 50.6281 54.3906 50.6511 54.2523C55.0473 54.2523 59.4492 54.258 63.8454 54.2523C64.6923 54.235 65.5624 54.1543 66.3632 53.8662C66.8069 53.7107 67.2621 53.3362 67.239 52.8234C67.2851 51.9995 66.7781 51.3023 66.4209 50.6051C65.9657 49.7293 65.3838 48.8478 65.3722 47.828" fill="#FF2180"/>
<path d="M13.7128 54.2578C18.374 54.252 23.041 54.2405 27.7022 54.2578C27.1203 55.1105 26.5211 55.9805 26.2215 56.983C25.8297 58.1757 25.8412 59.5239 26.4001 60.659C27.0973 62.0937 28.5319 63.0962 30.0818 63.3958C30.6983 63.4477 31.3206 63.4534 31.9371 63.3958C32.8129 63.2114 33.6483 62.8254 34.3282 62.2319C35.3883 61.3331 36.0164 59.933 35.9703 58.5445C35.9645 57.686 35.6995 56.8448 35.3595 56.0669C35.083 55.4216 34.6566 54.857 34.2994 54.2578C38.9721 54.2405 43.6448 54.2578 48.3233 54.252C48.4731 54.2174 48.6518 54.3211 48.6114 54.4882C48.6114 56.8563 48.6114 59.2301 48.6114 61.5982C48.6172 63.0501 48.5711 64.5021 48.6518 65.9482C48.79 66.7203 48.8534 67.6307 49.5103 68.1665C49.8041 68.4315 50.2247 68.4315 50.5992 68.3682C51.2906 68.2011 51.8841 67.8035 52.4602 67.4059C53.4397 66.7606 54.6554 66.2997 55.8308 66.6396C57.277 67.0833 58.0491 68.7772 57.7437 70.2004C57.5478 71.1107 56.8737 71.877 56.0383 72.2688C55.5082 72.5166 54.8917 72.5281 54.3328 72.3841C53.1632 72.0902 52.1779 71.37 51.112 70.8457C50.6799 70.6267 50.1959 70.4193 49.7004 70.5461C49.2683 70.6901 49.0436 71.1222 48.911 71.5313C48.5135 72.8392 48.6345 74.2163 48.6057 75.5587C48.6057 79.5228 48.6057 83.4926 48.6057 87.4566C45.7421 85.5438 42.965 83.5099 40.1993 81.4587C34.6796 77.2988 29.3328 72.8796 24.4584 67.9764C20.4943 63.9547 16.8069 59.6104 13.9548 54.7245C13.8626 54.5747 13.7877 54.4191 13.7186 54.2578" fill="#83BB26"/>
<path d="M13.7129 54.2579C13.782 54.4193 13.8569 54.5748 13.9491 54.7246C16.8011 59.6163 20.4886 63.9606 24.4527 67.9766C29.3328 72.8855 34.6739 77.299 40.1936 81.4589C42.9592 83.5101 45.7364 85.544 48.5999 87.4568C48.6057 83.4928 48.5999 79.523 48.5999 75.5589C48.623 74.2165 48.5077 72.8337 48.8995 71.5315C49.0321 71.1282 49.2568 70.6903 49.6889 70.5463C50.1786 70.4195 50.6684 70.6269 51.0947 70.8459C52.1607 71.3644 53.1517 72.0846 54.3155 72.3842C54.8744 72.5283 55.4909 72.5168 56.021 72.269C56.8564 71.8772 57.5248 71.1109 57.7265 70.2006C58.0318 68.7774 57.254 67.0835 55.8136 66.6398C54.6439 66.2999 53.4225 66.7666 52.4487 67.4061C51.8783 67.8037 51.2791 68.2013 50.5877 68.3683C50.219 68.4317 49.7984 68.4317 49.4988 68.1667C48.8419 67.6366 48.7785 66.7205 48.6403 65.9484C48.5596 64.5022 48.6057 63.0445 48.5999 61.5984C48.5999 59.2303 48.5999 56.8565 48.5999 54.4884C48.6403 54.3156 48.4616 54.2119 48.3118 54.2522C43.6391 54.2522 38.9606 54.2407 34.2879 54.2579C34.6451 54.8572 35.0715 55.4218 35.3538 56.0671C35.6937 56.8507 35.9588 57.6862 35.9645 58.5447C36.0164 59.939 35.3884 61.3333 34.3282 62.2321C33.6541 62.8198 32.8129 63.2116 31.9371 63.396C31.3206 63.4479 30.6983 63.4479 30.0818 63.396C28.5319 63.0906 27.0973 62.0939 26.4001 60.6592C25.8412 59.5241 25.8297 58.1701 26.2215 56.9832C26.5211 55.9807 27.1146 55.1107 27.7023 54.2579C23.041 54.2407 18.3798 54.2522 13.7129 54.2579ZM65.3722 47.8164C65.3837 48.8362 65.9657 49.7177 66.4208 50.5935C66.7781 51.2907 67.2793 51.9936 67.239 52.8118C67.2563 53.3246 66.8069 53.6991 66.3632 53.8546C65.5566 54.1427 64.6923 54.2234 63.8454 54.2407C59.4492 54.2522 55.0473 54.2464 50.6511 54.2407C50.628 54.3732 50.5935 54.5115 50.5992 54.644C50.605 58.4697 50.5992 62.3013 50.605 66.127C51.0198 65.983 51.3367 65.6661 51.717 65.4645C52.7311 64.8883 53.8719 64.4331 55.0588 64.4734C56.3148 64.4331 57.5478 65.015 58.389 65.9311C59.2303 66.83 59.7085 68.0342 59.8122 69.2556C59.8986 70.5578 59.5011 71.9291 58.5849 72.8855C57.7898 73.7555 56.6778 74.2971 55.5255 74.4873C54.8226 74.5161 54.1023 74.5622 53.4282 74.3259C52.7541 74.1358 52.1318 73.8074 51.5557 73.4098C51.2273 73.2139 50.9622 72.9258 50.6108 72.7588C50.5819 77.4488 50.6108 82.1388 50.5935 86.8288C50.5935 87.0132 50.5992 87.2033 50.6338 87.3877C51.7573 86.7251 52.7887 85.9069 53.8719 85.181C60.5727 80.416 67.0834 75.3515 73.0238 69.6532C76.8899 65.9427 80.4967 61.9268 83.4985 57.4787C84.1842 56.4186 84.8928 55.3642 85.4805 54.2464C81.9659 54.2349 78.4513 54.2464 74.9366 54.2407C74.0436 54.2407 73.1448 54.2579 72.2517 54.2119C71.4335 54.0909 70.5347 54.0621 69.8548 53.532C69.3651 53.1459 69.319 52.443 69.4861 51.8899C69.9989 50.5935 71.3125 49.6544 71.3874 48.1851C71.4393 47.3324 71.0705 46.4912 70.5001 45.8689C69.9355 45.3388 69.1634 44.9816 68.3741 45.0508C66.8357 44.9298 65.3895 46.2722 65.378 47.8048L65.3722 47.8164ZM67.1699 20.045C63.6725 20.5002 60.348 21.9982 57.5766 24.1646C54.7592 26.3541 52.4775 29.1658 50.6626 32.2252C50.605 32.3174 50.5762 32.4211 50.5704 32.5306C50.4321 33.9537 50.5992 35.3769 50.5474 36.8058C50.4667 38.1022 50.507 39.4619 49.9366 40.6603C49.7119 41.1674 49.1703 41.5707 48.5942 41.4497C47.3496 41.1731 46.543 40.0554 45.3619 39.6348C44.0539 39.1277 42.4464 39.7615 41.7723 40.9772C40.983 42.3255 41.4324 44.2787 42.8094 45.0623C43.472 45.4944 44.3075 45.5635 45.0622 45.408C46.3183 45.0853 47.3151 44.198 48.4674 43.6507C48.8477 43.4548 49.3547 43.4202 49.6658 43.7544C50.0807 44.2153 50.219 44.8433 50.3342 45.4368C50.6741 47.5686 50.5704 49.735 50.5935 51.8841C50.605 51.9936 50.6223 52.1031 50.6396 52.2125C55.4448 52.201 60.2443 52.2241 65.0496 52.2125C64.7384 51.6998 64.3755 51.2158 64.1046 50.6799C63.6495 49.7638 63.3153 48.7555 63.3326 47.7242C63.3441 46.664 63.7359 45.6039 64.4331 44.803C65.4183 43.6507 66.9452 42.965 68.4605 43.0284C70.1602 42.9708 71.7619 43.9676 72.7069 45.3331C73.4559 46.4163 73.5999 47.8394 73.2312 49.0897C72.9604 50.2363 72.3151 51.2388 71.6698 52.201C76.6306 52.2183 81.5972 52.201 86.558 52.2068C87.6757 49.954 88.5573 47.5686 89.0874 45.1084C89.9516 41.2077 89.7961 37.0478 88.4075 33.2911C87.2033 29.9205 85.0772 26.8957 82.3404 24.5967C79.5633 22.246 76.1351 20.6788 72.5455 20.1084C70.7652 19.8433 68.9502 19.8318 67.1641 20.045H67.1699ZM27.0339 20.0565C22.5859 20.65 18.3856 22.8337 15.28 26.066C12.8428 28.555 11.051 31.6894 10.2097 35.0773C9.55291 37.5778 9.45496 40.1994 9.71424 42.7634C9.87557 44.3824 10.2501 45.9784 10.7225 47.534C11.2468 49.1358 11.8518 50.7203 12.6239 52.2183C16.997 52.2125 21.3644 52.2183 25.7375 52.2183C26.6651 52.2183 27.6043 52.2471 28.5147 52.4315C28.9641 52.5352 29.4365 52.6908 29.7477 53.048C30.0588 53.3995 29.9724 53.9238 29.8168 54.3271C29.4192 55.3181 28.7855 56.1881 28.3648 57.1734C28.0422 57.8417 27.8751 58.6196 28.0422 59.357C28.3706 60.4057 29.3443 61.2181 30.4218 61.3909C31.7297 61.6272 33.2162 60.9646 33.7405 59.7085C34.1611 58.6541 33.8557 57.4557 33.3026 56.5108C32.9627 55.8827 32.4672 55.3469 32.2309 54.667C32.012 54.16 31.9486 53.4916 32.3635 53.0653C32.8302 52.5928 33.5216 52.443 34.1554 52.3451C35.469 52.1607 36.8 52.2298 38.1252 52.2241C41.6167 52.2183 45.1083 52.2471 48.5942 52.2125C48.5942 50.0807 48.5942 47.9489 48.5942 45.8113C47.5225 46.4969 46.4508 47.2978 45.1602 47.4995C44.6359 47.534 44.1058 47.534 43.5815 47.4937C42.7806 47.3382 41.9797 47.0789 41.3114 46.5891C40.3088 45.8977 39.6578 44.7627 39.4619 43.5758C39.4215 42.9305 39.4158 42.2736 39.4792 41.6283C39.6981 40.5797 40.1706 39.5599 40.9426 38.7993C41.6456 38.0906 42.5847 37.5836 43.5872 37.4914C44.2959 37.4799 45.0162 37.4223 45.7076 37.6239C46.4278 37.8256 47.1422 38.1194 47.7357 38.5861C48.0295 38.8166 48.2715 39.0932 48.5365 39.3467C48.5654 37.0881 48.5365 34.8237 48.5481 32.5594C48.5884 32.2598 48.381 32.0236 48.2427 31.7816C47.4245 30.4506 46.5142 29.1658 45.5059 27.9673C42.7576 24.6659 39.168 21.9636 35.0196 20.7191C32.4499 19.901 29.6958 19.7511 27.0339 20.068V20.0565ZM14.9631 23.5481C18.7082 20.1602 23.6403 18.0918 28.6933 17.8786C32.7495 17.7 36.8288 18.7889 40.3146 20.8574C44.1 23.0756 47.1653 26.3656 49.5391 30.0243C49.5621 30.0243 49.614 30.0358 49.637 30.0358C51.5038 27.1146 53.8315 24.47 56.5914 22.367C59.5644 20.1199 63.0848 18.5642 66.7896 18.063C70.0622 17.5963 73.4444 17.965 76.5614 19.0482C83.2162 21.3183 88.661 26.9014 90.6776 33.6484C91.5073 36.3736 91.7838 39.2545 91.5764 42.0892C91.3517 44.9643 90.6373 47.7818 89.5771 50.461C87.5836 55.4564 84.5126 59.9447 81.0786 64.0528C77.708 68.063 73.9514 71.7274 70.0104 75.1729C63.5861 80.8021 56.6605 85.832 49.5909 90.6085C43.4663 86.5004 37.4856 82.1618 31.8161 77.4373C26.7573 73.2139 21.929 68.6795 17.723 63.5977C15.3665 60.7399 13.2116 57.6977 11.4543 54.4308C9.75457 51.2043 8.41786 47.7472 7.8244 44.1346C7.17909 40.1879 7.53632 36.0683 8.95946 32.3232C10.2213 28.9756 12.2955 25.9392 14.9574 23.5481" fill="white"/>
</svg>
