<svg width="108" height="108" viewBox="0 0 108 108" fill="none" xmlns="http://www.w3.org/2000/svg">
<path d="M54.0008 108C83.8242 108 107.998 83.8265 107.998 54.0031C107.998 24.1798 83.8242 0 54.0008 0C24.1774 0 0.00390625 24.1735 0.00390625 53.9969C0.00390625 83.8202 24.1774 107.994 54.0008 107.994" fill="#FFD525"/>
<path d="M4.86377 46.6795V56.0254L7.37135 57.4378V64.4939L33.4738 83.7145L93.9729 52.6716V47.9115L100.849 35.2119L99.0877 33.6252L4.86377 46.6795Z" fill="white"/>
<path d="M32.0799 82.0968L30.7981 80.9643L32.0799 82.0968Z" fill="#83BB26"/>
<path d="M32.08 82.0967L32.0924 82.0905L93.8672 52.8458L94.8316 53.3062L94.7818 53.7667V53.9596V62.5961V62.8076L94.5952 62.9134L36.1867 96.0346L35.5831 96.1092L12.8345 77.3429L12.6976 77.2371V77.0629V68.6628L7.25312 64.6121L7.10379 64.5001V64.3196V57.3818L5.0691 56.3302L4.86377 56.2245V56.0005V48.0546H5.23088L5.598 55.7765L34.1085 68.8432L34.2702 71.4193L7.49579 57.5809L7.83802 64.133L13.2327 68.1401H13.4381V68.2957L29.8586 80.51L29.8711 72.2095L9.5367 59.5161L9.50559 59.0618L29.8711 70.1437V70.1375L31.3831 70.9713L34.4445 72.4148L94.5516 48.2413L94.533 51.9311L30.7982 80.9642L32.08 82.0967Z" fill="#27385A"/>
<path d="M35.1845 34.6395L35.0601 34.8635C32.3036 35.9026 29.4912 36.9355 26.6849 37.9746C19.3551 40.6751 12.0252 43.3756 5.56652 46.1383L5.54785 46.8041L34.8485 61.5073L34.7739 70.1998L35.141 70.7971L62.9048 59.9206V60.3313L63.6577 60.0264L76.1209 54.9552L76.4631 54.8121V54.6006L101.383 44.8378V35.548L76.4507 45.404V44.788C88.8392 39.692 98.7264 35.4049 99.7219 33.9737L99.9771 33.6066L99.5726 33.4262L95.5904 31.6466C97.2766 30.2217 98.5086 28.8715 99.1557 27.6146L99.3237 27.291L98.9939 27.123C93.6863 24.4039 88.8454 22.6367 84.0107 20.8696C79.1884 19.1087 74.3662 17.3478 69.1084 14.6536L68.6853 14.4358L68.5795 14.8962C67.4346 19.9736 59.5198 24.6963 48.9731 29.2884L48.5189 29.0644L48.3011 28.9586L48.0771 29.0519L35.8441 33.9426L34.7365 34.3844L35.1845 34.6208V34.6395Z" fill="#27385A"/>
<path d="M35.4465 85.1766C46.7648 79.0974 58.0831 73.0307 69.4014 66.9578L34.5007 84.1872L34.4634 84.2059L35.4465 85.1828V85.1766Z" fill="white"/>
<path d="M13.8862 72.3464C18.7894 75.8433 29.3424 84.5856 35.0855 88.1821C35.0855 88.1821 28.1788 84.0007 25.3414 81.8913C22.5041 79.782 13.8925 72.3464 13.8925 72.3464" fill="#83BB26"/>
<path d="M14.7576 76.2725C14.7576 76.2725 19.5363 80.2548 25.3105 84.9837C31.0848 89.7126 33.4928 92.0833 33.4928 92.0833C33.4928 92.0833 26.3932 86.4895 23.5123 84.3366C20.6252 82.1837 14.7576 76.2663 14.7576 76.2663" fill="#83BB26"/>
<path d="M15.4976 75.2148C15.4976 75.2148 20.2763 78.9419 26.0505 83.366C31.8248 87.79 34.239 90.03 34.239 90.03C34.239 90.03 27.1394 84.8158 24.2585 82.8184C21.3714 80.8211 15.5038 75.2148 15.5038 75.2148" fill="#83BB26"/>
<path d="M8.66504 60.1133C13.5682 63.0191 24.1212 70.4796 29.8643 73.3854C29.8643 73.3854 22.9576 70.0378 20.1202 68.2769C17.2829 66.5098 8.67126 60.1195 8.67126 60.1195" fill="#27385A"/>
<path d="M9.53662 63.9338C9.53662 63.9338 14.3153 67.3374 20.0896 71.3695C25.8639 75.4015 28.2719 77.4797 28.2719 77.4797C28.2719 77.4797 21.1723 72.7446 18.2914 70.9463C15.4042 69.1419 9.53662 63.9401 9.53662 63.9401" fill="#27385A"/>
<path d="M10.2769 62.7827C10.2769 62.7827 15.0556 65.9373 20.8298 69.6583C26.6041 73.3792 29.0121 75.333 29.0121 75.333C29.0121 75.333 21.9125 70.9774 19.0316 69.3285C16.1445 67.6796 10.2769 62.7827 10.2769 62.7827Z" fill="#27385A"/>
<path d="M13.4375 70.4238L35.4457 87.6346V94.168L13.4375 76.8888V70.4238Z" fill="white"/>
<path d="M41.7182 39.1942C41.6934 39.3995 41.6996 39.6111 41.7307 39.8413C41.8613 40.7996 42.4649 41.9009 43.4169 42.9774C44.4063 44.0974 45.7565 45.1738 47.3307 46.02C49.8694 47.3765 52.993 48.1418 56.185 47.5881C56.3157 47.5321 56.4526 47.4698 56.5895 47.4076L41.7245 39.1942H41.7182Z" fill="white"/>
<path d="M83.7871 30.7878C84.2911 31.0616 84.82 31.3478 85.3676 31.6465C85.94 31.9576 86.5436 32.2873 87.172 32.6296C86.9045 32.8225 86.6307 33.0216 86.3631 33.2145C85.9587 32.978 85.5729 32.754 85.1934 32.5362C84.8262 32.3247 84.4653 32.1131 84.1169 31.914C84.0858 32.2625 83.9676 32.4927 83.7871 32.7478C83.5569 32.6047 83.3267 32.4616 83.1089 32.3247C83.2458 31.9513 83.3329 31.6153 83.2084 31.2171C83.4013 31.074 83.5942 30.9371 83.7871 30.794" fill="white"/>
<path d="M17.1963 45.1611C17.8372 45.5096 18.4781 45.858 19.119 46.2065C19.7536 46.5549 20.3945 46.9034 21.0292 47.2456C20.7119 47.37 20.3945 47.4883 20.0834 47.6127C19.6665 47.3887 19.2496 47.1585 18.8327 46.9345C18.4159 46.7105 17.999 46.4803 17.5758 46.25C17.5198 46.5549 17.3643 46.7354 17.1341 46.9283C16.8478 46.7727 16.5616 46.6171 16.2754 46.4678C16.4558 46.1505 16.5741 45.858 16.4123 45.4598C16.6674 45.3602 16.9287 45.2545 17.1901 45.1549" fill="white"/>
<path d="M19.747 45.9516C19.3923 45.7587 19.1123 45.5783 18.9194 45.4165C18.7265 45.2547 18.6207 45.1178 18.5896 44.9934C18.5336 44.7445 18.7452 44.5267 19.2181 44.3463C19.4483 44.2592 19.6661 44.2032 19.8776 44.1783C20.0892 44.1534 20.2883 44.1534 20.4812 44.1783C20.6741 44.1969 20.8545 44.2281 21.0163 44.2654C21.1843 44.3027 21.3523 44.3587 21.5327 44.4272C21.875 44.5578 22.1985 44.7072 22.5034 44.8689C22.8456 45.0556 23.1132 45.2298 23.3061 45.3854C23.5052 45.541 23.6234 45.6841 23.6794 45.8085C23.7852 46.0636 23.5861 46.2876 23.0759 46.4805C22.7896 46.5925 22.5096 46.6547 22.2359 46.6672C21.9621 46.6796 21.6696 46.6547 21.3647 46.5925C21.147 46.549 20.8918 46.4681 20.6056 46.3561C20.3194 46.2441 20.0332 46.1072 19.7407 45.9454" fill="white"/>
<path d="M20.6744 45.5906C20.917 45.7213 21.1224 45.827 21.309 45.9079C21.4895 45.9888 21.645 46.051 21.7695 46.0821C22.0184 46.1506 22.2175 46.1506 22.3606 46.0946C22.4539 46.0573 22.5037 46.0075 22.4975 45.939C22.4975 45.8706 22.429 45.7897 22.2984 45.6839C22.1677 45.5844 21.9375 45.4413 21.6015 45.2546C21.3526 45.1177 21.1348 45.0057 20.9481 44.9248C20.7615 44.8377 20.6059 44.7817 20.4815 44.7506C20.2326 44.6884 20.0335 44.6821 19.8779 44.7444C19.7223 44.8066 19.6975 44.8937 19.8032 45.0181C19.853 45.0804 19.9526 45.1612 20.1019 45.2546C20.245 45.3479 20.4379 45.4599 20.6744 45.5906Z" fill="#27385A"/>
<path d="M22.9016 44.7196C22.5469 44.5205 22.2732 44.3463 22.0803 44.1845C21.8874 44.0227 21.7816 43.8796 21.7505 43.7552C21.6945 43.5063 21.906 43.2885 22.3852 43.1018C22.6154 43.0147 22.8332 42.9587 23.0447 42.9338C23.2563 42.9089 23.4554 42.9089 23.6483 42.9338C23.8412 42.9525 24.0216 42.9836 24.1834 43.0209C24.3514 43.0583 24.5194 43.1143 24.6998 43.1827C25.0421 43.3134 25.3656 43.4627 25.6705 43.6307C26.0127 43.8174 26.2741 43.9916 26.4732 44.1472C26.6661 44.3027 26.7905 44.4458 26.8465 44.5765C26.9523 44.8316 26.747 45.0556 26.2367 45.2547C25.9505 45.3667 25.6705 45.429 25.3967 45.4414C25.123 45.4538 24.8305 45.429 24.5256 45.3667C24.3078 45.3232 24.0527 45.2423 23.7727 45.1303C23.4865 45.0183 23.2003 44.8814 22.9078 44.7196" fill="white"/>
<path d="M23.8351 44.3585C24.0716 44.4891 24.2831 44.5949 24.4636 44.682C24.644 44.7629 24.7996 44.8251 24.924 44.8562C25.1729 44.9247 25.372 44.9247 25.5214 44.8687C25.6147 44.8314 25.6645 44.7816 25.6583 44.7131C25.6583 44.6447 25.5898 44.5576 25.4654 44.458C25.3409 44.3585 25.1045 44.2154 24.7685 44.0225C24.5196 43.8856 24.3018 43.7736 24.1151 43.6865C23.9285 43.5993 23.7729 43.5433 23.6485 43.5122C23.3996 43.45 23.2005 43.4438 23.0449 43.506C22.8893 43.5682 22.8645 43.6616 22.9702 43.786C23.0262 43.8482 23.1196 43.9291 23.2627 44.0225C23.4058 44.1158 23.5987 44.234 23.8351 44.3647" fill="#27385A"/>
<path d="M32.9012 54.1523C33.5421 54.5007 34.183 54.8492 34.8239 55.1976C35.4586 55.5461 36.0995 55.8883 36.7342 56.2367C36.4168 56.3612 36.0995 56.4856 35.7884 56.6039C35.3715 56.3799 34.9546 56.1496 34.5377 55.9256C34.1208 55.7016 33.7039 55.4714 33.2808 55.2474C33.2248 55.5523 33.0692 55.7265 32.839 55.9256C32.5528 55.7701 32.2666 55.6145 31.9866 55.4652C32.1608 55.1478 32.2852 54.8554 32.1235 54.4572C32.3786 54.3576 32.6399 54.2581 32.9012 54.1523Z" fill="white"/>
<path d="M35.452 54.9427C35.0911 54.7498 34.8174 54.5693 34.6245 54.4075C34.4316 54.2458 34.3196 54.1089 34.2947 53.9844C34.2387 53.7355 34.4502 53.5178 34.9231 53.3373C35.1534 53.2502 35.3711 53.1942 35.5827 53.1693C35.7943 53.1444 35.9934 53.1444 36.1863 53.1693C36.3791 53.188 36.5596 53.2191 36.7214 53.2564C36.8894 53.3 37.0574 53.3497 37.2378 53.4182C37.58 53.5489 37.9036 53.6982 38.2085 53.8662C38.5507 54.0529 38.8183 54.2271 39.0112 54.3826C39.2103 54.5382 39.3285 54.6813 39.3845 54.8058C39.4903 55.0609 39.2912 55.2849 38.7809 55.484C38.4947 55.596 38.2147 55.6582 37.9409 55.6707C37.6672 55.6831 37.3747 55.6582 37.0698 55.596C36.852 55.5524 36.5969 55.4715 36.3107 55.3595C36.0245 55.2475 35.7383 55.1107 35.4458 54.9489" fill="white"/>
<path d="M36.3855 54.5819C36.6282 54.7126 36.8335 54.8184 37.0202 54.8993C37.2007 54.9801 37.3562 55.0361 37.4807 55.0735C37.7295 55.1419 37.9287 55.1419 38.0718 55.0859C38.1651 55.0486 38.2149 54.9988 38.2087 54.9304C38.2087 54.8619 38.1402 54.7748 38.0096 54.6753C37.8851 54.5757 37.6487 54.4326 37.3127 54.2459C37.0638 54.109 36.846 53.997 36.6593 53.9161C36.4726 53.829 36.3171 53.773 36.1926 53.7419C35.9438 53.6797 35.7446 53.6735 35.5891 53.7357C35.4335 53.7979 35.4086 53.8912 35.5144 54.0095C35.5642 54.0717 35.6638 54.1526 35.8131 54.2459C35.9562 54.3392 36.1491 54.4513 36.3855 54.5819Z" fill="#27385A"/>
<path d="M38.6136 53.7106C38.2589 53.5115 37.9851 53.3373 37.7922 53.1755C37.5993 53.0137 37.4935 52.8706 37.4624 52.7461C37.4127 52.4972 37.6242 52.2795 38.0971 52.0928C38.3273 52.0057 38.5451 51.9497 38.7567 51.9248C38.9682 51.8999 39.1673 51.8999 39.3602 51.9248C39.5531 51.9435 39.7336 51.9746 39.8953 52.0119C40.0633 52.0555 40.2313 52.1052 40.4118 52.1737C40.754 52.3044 41.0776 52.4537 41.3825 52.6217C41.7247 52.8084 41.986 52.9826 42.1851 53.1381C42.378 53.2937 42.5025 53.4368 42.5585 53.5675C42.6643 53.8226 42.4589 54.0466 41.9487 54.2457C41.6625 54.3577 41.3825 54.4199 41.1087 54.4324C40.8287 54.4448 40.5425 54.4199 40.2376 54.3577C40.0198 54.3141 39.7647 54.2333 39.4847 54.1213C39.1984 54.0093 38.9122 53.8724 38.6198 53.7106" fill="white"/>
<path d="M39.5463 53.3499C39.7828 53.4806 39.9943 53.5864 40.1748 53.6735C40.3552 53.7544 40.5108 53.8166 40.6352 53.8477C40.8841 53.9161 41.0832 53.9161 41.2325 53.8601C41.3259 53.8228 41.3757 53.773 41.3694 53.7046C41.3694 53.6361 41.301 53.549 41.1765 53.4495C41.0521 53.3499 40.8157 53.2068 40.4796 53.0139C40.2308 52.877 40.013 52.765 39.8263 52.6779C39.6396 52.5908 39.4841 52.5348 39.3596 52.5037C39.1107 52.4352 38.9116 52.4352 38.7561 52.4975C38.6005 52.5597 38.5756 52.653 38.6814 52.7712C38.7312 52.8335 38.8307 52.9143 38.9739 53.0077C39.117 53.101 39.3099 53.2192 39.5463 53.3499Z" fill="#27385A"/>
<path d="M66.3267 23.545C66.7249 23.7814 67.1418 24.0365 67.5836 24.2979C68.0502 24.5779 68.548 24.8766 69.0769 25.1939C68.8716 25.4179 68.6662 25.6357 68.4609 25.8534C68.1249 25.6357 67.8013 25.4241 67.4902 25.2188C67.1916 25.0197 66.9053 24.833 66.6253 24.6525C66.6191 25.0072 66.5382 25.2437 66.4138 25.5174C66.2271 25.3868 66.0529 25.2561 65.8787 25.1254C65.9658 24.7459 66.0156 24.3974 65.9036 24.0117C66.0404 23.8561 66.1773 23.7005 66.3204 23.5512" fill="white"/>
<path d="M68.1192 23.8313C67.8641 23.6757 67.6774 23.5326 67.5468 23.3957C67.4161 23.2588 67.3414 23.1344 67.3165 23.01C67.2668 22.7673 67.385 22.5122 67.6525 22.2384C67.7832 22.1015 67.9139 22.0082 68.0383 21.9397C68.1628 21.8713 68.2872 21.8339 68.4117 21.8091C68.5361 21.7842 68.6481 21.7779 68.7601 21.7842C68.8721 21.7842 68.9903 21.8091 69.1148 21.8339C69.3637 21.8962 69.6063 21.9771 69.849 22.0891C70.129 22.2135 70.353 22.3504 70.5335 22.4811C70.7201 22.618 70.8446 22.7548 70.9192 22.8917C71.0686 23.1717 70.9628 23.4891 70.6019 23.8375C70.4028 24.0304 70.1975 24.1611 69.9859 24.2295C69.7743 24.298 69.5566 24.3166 69.3139 24.298C69.1459 24.2855 68.953 24.2357 68.7414 24.1486C68.5299 24.0677 68.3183 23.9557 68.1068 23.8251" fill="white"/>
<path d="M70.3346 21.7094C70.067 21.5663 69.8617 21.4356 69.7124 21.305C69.5693 21.1805 69.4697 21.0561 69.4324 20.9379C69.3453 20.7014 69.4137 20.4463 69.6253 20.1663C69.7248 20.0294 69.8368 19.9299 69.9426 19.8614C70.0546 19.793 70.1666 19.7432 70.2786 19.7121C70.3906 19.6872 70.5026 19.6685 70.6084 19.6685C70.7142 19.6685 70.8324 19.681 70.9631 19.7059C71.2119 19.7494 71.4608 19.8241 71.7097 19.9174C71.9959 20.0294 72.2386 20.1476 72.4315 20.2721C72.6306 20.3965 72.7737 20.5272 72.8671 20.6579C73.06 20.9254 73.0102 21.249 72.7302 21.6036C72.5746 21.8028 72.4004 21.9396 72.2075 22.0205C72.0208 22.0952 71.8093 22.1263 71.5791 22.1139C71.4173 22.1076 71.2244 22.0641 71.0004 21.9894C70.7826 21.9148 70.5648 21.8214 70.3408 21.7032" fill="white"/>
<path d="M85.8715 31.2669C85.5542 31.0989 85.3115 30.9495 85.1435 30.8064C84.9755 30.6633 84.8822 30.5327 84.8511 30.4082C84.7951 30.1655 84.9444 29.9104 85.2991 29.6553C85.4733 29.5309 85.6351 29.4375 85.8031 29.3878C85.9648 29.3318 86.1266 29.2944 86.2822 29.282C86.4377 29.2695 86.5871 29.2695 86.724 29.282C86.8608 29.2944 87.0102 29.3193 87.172 29.3566C87.4769 29.4313 87.7817 29.5309 88.0742 29.6553C88.4102 29.7984 88.684 29.9415 88.9018 30.0784C89.1195 30.2215 89.2689 30.3584 89.3498 30.4953C89.5178 30.7691 89.3809 31.0678 88.9453 31.3851C88.7026 31.5656 88.4475 31.6776 88.1924 31.7336C87.9373 31.7896 87.6635 31.802 87.3773 31.7709C87.172 31.7522 86.9355 31.6962 86.668 31.6029C86.4066 31.5096 86.1391 31.3976 85.8777 31.2607" fill="white"/>
<path d="M86.6179 30.7317C86.8419 30.8375 87.041 30.9308 87.209 30.993C87.3832 31.0615 87.5326 31.0988 87.6508 31.1175C87.8872 31.1548 88.0677 31.1299 88.1921 31.0428C88.273 30.9868 88.3041 30.9184 88.2855 30.8375C88.2668 30.7628 88.1921 30.6757 88.0552 30.5824C87.9246 30.489 87.6881 30.3646 87.3646 30.2215C87.1281 30.1157 86.929 30.0286 86.7548 29.9726C86.5868 29.9166 86.4499 29.8793 86.3503 29.8606C86.1388 29.8357 85.977 29.8606 85.8588 29.9477C85.7406 30.0348 85.7281 30.1344 85.8277 30.2464C85.8774 30.3024 85.9646 30.3708 86.0952 30.4517C86.2259 30.5326 86.4001 30.6259 86.6179 30.7317Z" fill="#27385A"/>
<path d="M88.4041 29.4376C88.0556 29.2945 87.7881 29.1576 87.6014 29.0331C87.4147 28.9087 87.3027 28.7843 87.2654 28.6723C87.1845 28.442 87.3276 28.1994 87.6823 27.938C87.8565 27.8136 88.0245 27.7202 88.1925 27.6642C88.3605 27.602 88.5285 27.5647 88.6903 27.546C88.8583 27.5274 89.0138 27.5211 89.157 27.5274C89.3063 27.5274 89.4681 27.5522 89.6423 27.5834C89.9721 27.6394 90.3019 27.7265 90.6192 27.8322C90.9863 27.9567 91.285 28.0749 91.5276 28.1994C91.7641 28.3238 91.9383 28.4545 92.0316 28.5789C92.2308 28.834 92.1063 29.1265 91.6645 29.4376C91.4156 29.618 91.1605 29.7363 90.893 29.7985C90.6254 29.8607 90.3392 29.8856 90.0281 29.8669C89.8103 29.8545 89.5552 29.8109 89.2627 29.7363C88.9765 29.6616 88.6903 29.562 88.3978 29.4438" fill="white"/>
<path d="M89.1499 28.8962C89.3925 28.9895 89.6103 29.0642 89.797 29.1202C89.9836 29.1762 90.1454 29.2073 90.2699 29.226C90.525 29.2509 90.7116 29.226 90.8361 29.1326C90.917 29.0766 90.9419 29.0082 90.9232 28.9398C90.8983 28.8651 90.8112 28.7904 90.6619 28.7033C90.5125 28.6224 90.2574 28.5166 89.9028 28.386C89.6476 28.2926 89.4236 28.2242 89.2432 28.1744C89.0627 28.1246 88.9134 28.0998 88.8014 28.0873C88.5774 28.0686 88.4094 28.106 88.2912 28.1869C88.173 28.274 88.1667 28.3673 88.2787 28.4731C88.3347 28.5229 88.4343 28.5851 88.5774 28.6535C88.7205 28.722 88.9134 28.8029 89.1499 28.8962Z" fill="#27385A"/>
<path d="M7.21533 54.756C7.21533 54.756 13.2323 57.6307 20.4937 61.0031C27.7613 64.3756 30.7977 66.2796 30.7977 66.2796C30.7977 66.2796 21.8688 62.4156 18.235 60.9969C14.6012 59.5782 7.21533 54.756 7.21533 54.756Z" fill="#27385A"/>
<path d="M9.16357 52.796C9.16357 52.796 15.1805 55.7952 22.4419 59.317C29.7095 62.8325 32.746 64.7988 32.746 64.7988C32.746 64.7988 23.817 60.7543 20.1832 59.261C16.5494 57.7676 9.16357 52.796 9.16357 52.796Z" fill="#27385A"/>
<path d="M7.14111 49.2243C13.3136 51.9248 26.5919 59.2546 33.816 61.7871C33.816 61.7871 25.1235 58.9248 21.5519 57.2573C17.9803 55.5897 7.14111 49.2243 7.14111 49.2243Z" fill="#27385A"/>
<path d="M76.4443 43.444C78.6221 42.492 86.6986 38.9391 90.0338 37.1906C93.1574 35.5542 95.36 33.4386 96.0943 32.6795L94.9556 32.1693C90.7058 35.5728 83.9733 39.3498 76.4506 43.0893V43.444H76.4443Z" fill="white"/>
<path d="M62.762 50.363L61.0633 51.0537C51.8668 54.7746 42.6765 58.4893 35.5645 61.532V61.5756L62.7682 50.8235V50.3693L62.762 50.363Z" fill="white"/>
<path d="M62.7488 49.5229C62.3755 49.691 61.9959 49.859 61.6226 50.027L62.7488 49.5727V49.5229Z" fill="#83BB26"/>
<path d="M38.6135 91.0691C56.9257 80.9579 74.7214 71.0147 93.1891 61.5133C74.628 72.0974 57.7657 82.165 38.6135 91.0691Z" fill="white"/>
<path d="M38.6135 88.6364C56.9257 78.5252 74.7214 68.582 93.1891 59.0806C74.628 69.6647 57.7657 79.7324 38.6135 88.6364Z" fill="white"/>
<path d="M38.6135 86.726C56.9257 76.6148 74.7214 66.6716 93.1891 57.1702C74.628 67.7543 57.7657 77.8281 38.6135 86.726Z" fill="white"/>
<path d="M69.0585 39.1569C68.8159 38.3044 68.2497 37.3649 67.4345 36.4502C66.4265 35.324 65.0576 34.2475 63.4585 33.4075C60.8327 32.0262 57.5909 31.267 54.2993 31.9204L69.0585 39.1631V39.1569Z" fill="white"/>
<path d="M76.4504 46.9904V47.9798C83.8363 44.8811 91.2532 41.6766 98.9315 38.4286C91.359 41.2099 83.8861 44.0784 76.4504 46.9967" fill="white"/>
<path d="M76.4504 49.1186V50.1017C83.8363 47.003 91.2532 43.7986 98.9253 40.5505C91.3528 43.3319 83.8861 46.1941 76.4504 49.1186Z" fill="white"/>
<path d="M76.4565 51.8253V52.8085C83.8424 49.7098 91.2531 46.5053 98.9314 43.2573C91.3589 46.0386 83.8922 48.9009 76.4565 51.8253Z" fill="white"/>
<path d="M62.8734 58.3588L62.8547 57.2264C54.6289 60.5304 46.403 63.8842 38.0776 67.2567C46.6582 64.5313 54.828 61.5322 62.8734 58.3526" fill="white"/>
<path d="M62.8361 55.6646L62.8174 54.5321C54.604 57.8299 46.3906 61.1775 38.0776 64.55C46.6457 61.8246 54.8031 58.8379 62.8361 55.6646Z" fill="white"/>
<path d="M62.805 53.549L62.7863 52.4166C54.5853 55.7144 46.3781 59.0557 38.0776 62.422C46.6333 59.7028 54.7782 56.7162 62.805 53.549Z" fill="white"/>
<path d="M58.7107 48.5773L34.4874 58.2778L28.5015 55.1666L47.0813 47.5381C46.9319 47.4635 46.7826 47.3888 46.6395 47.3079C44.8972 46.3746 43.4039 45.1861 42.3088 43.9479C41.2883 42.7905 40.5976 41.5585 40.3425 40.4136L17.6499 49.3737L11.7325 46.4492L37.2065 36.7052L35.1967 35.5976C32.4714 36.6243 29.7024 37.6447 26.9335 38.6652C19.8837 41.2661 12.4419 43.6368 6.18848 46.275L35.0163 60.1258C43.1052 56.2804 51.4182 52.8022 59.7809 49.1684L58.7107 48.5773Z" fill="white"/>
<path d="M70.3655 38.3729C75.0385 36.0458 84.4528 30.8813 88.3541 25.7915L93.8173 27.9382C88.8146 33.9613 79.8981 38.0182 73.7878 41.4778L75.2189 42.1809C86.2385 36.892 94.4333 32.1133 97.0529 27.5835C91.9257 24.9826 88.4724 23.2963 83.7559 21.5728C79.0394 19.8492 74.3229 18.1256 69.1771 15.5247C67.6588 20.5959 59.9868 25.2439 49.832 29.7239L51.9289 30.7506C54.0694 29.7364 61.0632 26.3764 64.3735 24.1612C68.306 21.5292 70.3282 18.1194 70.1602 18.051L74.5158 19.8741C73.0784 24.4848 66.8624 28.243 61.2063 30.8751C62.2455 31.1924 63.241 31.6093 64.1557 32.0946C65.9228 33.028 67.4348 34.2164 68.5486 35.4671C69.3949 36.4191 70.0233 37.4147 70.3655 38.3791" fill="white"/>
<path d="M37.3557 34.5399L63.5453 48.4031L63.8377 48.5524L63.8439 48.8822L63.9808 58.7009L65.1631 58.2218L65.0759 47.9302L74.2725 44.147L74.204 54.5445L75.3551 54.0716L75.3427 43.4688L48.2509 30.178L37.3557 34.5399Z" fill="white"/>
<path d="M68.7042 23.2526C68.8847 23.3522 69.0464 23.4331 69.1833 23.4953C69.3264 23.5575 69.4447 23.5949 69.5442 23.6073C69.7433 23.6384 69.8864 23.6073 69.986 23.5078C70.0482 23.4455 70.0731 23.3709 70.0607 23.29C70.042 23.2091 69.9798 23.122 69.8678 23.0349C69.7558 22.9478 69.5629 22.8295 69.2953 22.6989C69.1024 22.6055 68.9407 22.5309 68.81 22.4749C68.6793 22.4251 68.5673 22.394 68.4864 22.3877C68.3184 22.3691 68.194 22.4126 68.1006 22.4998C68.0073 22.5931 68.0011 22.6926 68.0758 22.7984C68.1131 22.8544 68.1815 22.9166 68.2873 22.9913C68.3931 23.066 68.53 23.1531 68.7042 23.2526Z" fill="#27385A"/>
<path d="M70.7953 21.1122C70.982 21.2055 71.15 21.2739 71.2931 21.3299C71.4362 21.3797 71.5607 21.417 71.654 21.4233C71.8469 21.4419 71.9838 21.4046 72.0584 21.305C72.1082 21.2428 72.1207 21.1682 72.0895 21.0935C72.0584 21.0188 71.9838 20.9317 71.8593 20.8508C71.7411 20.7699 71.5358 20.6642 71.2558 20.5459C71.0566 20.4588 70.8886 20.3904 70.7518 20.3468C70.6149 20.3033 70.5091 20.2784 70.4282 20.2784C70.2664 20.2721 70.1544 20.3095 70.0798 20.4028C70.0051 20.4962 70.0175 20.5957 70.1109 20.7015C70.1544 20.7513 70.2353 20.8135 70.3473 20.8819C70.4593 20.9504 70.6086 21.0313 70.7891 21.1184" fill="#27385A"/>
<path d="M54 108C83.8251 108 108 83.8251 108 54C108 24.1749 83.8251 0 54 0C24.1749 0 0 24.1749 0 54C0 83.8251 24.1749 108 54 108Z" fill="#1DBADF"/>
<path d="M58.4054 31.6795C58.4054 36.3216 54.6407 40.0801 50.0048 40.0801C45.3689 40.0801 41.6042 36.3154 41.6042 31.6795C41.6042 27.0437 45.3689 23.279 50.0048 23.279C54.6407 23.279 58.4054 27.0437 58.4054 31.6795Z" fill="#FFBF00"/>
<path d="M45.1829 31.6794C45.1829 27.5475 48.1635 24.1189 52.09 23.4095C51.6047 23.3224 51.1069 23.2726 50.5966 23.2726C45.9545 23.2726 42.196 27.0373 42.196 31.6731C42.196 36.309 45.9607 40.0737 50.5966 40.0737C51.1069 40.0737 51.6047 40.0239 52.09 39.9368C48.1635 39.2336 45.1829 35.7987 45.1829 31.6669" fill="white"/>
<path d="M63.2283 14.7538C63.2283 17.1682 61.2744 19.1221 58.86 19.1221C56.4456 19.1221 54.4917 17.1682 54.4917 14.7538C54.4917 12.3395 56.4456 10.3856 58.86 10.3856C61.2744 10.3856 63.2283 12.3395 63.2283 14.7538Z" fill="#FFBF00"/>
<path d="M56.8814 14.7538C56.8814 12.8622 58.0761 11.2567 59.7562 10.6469C59.2895 10.4789 58.7855 10.3856 58.2628 10.3856C55.8484 10.3856 54.3799 12.2275 54.3799 14.6418C54.3799 17.0562 56.2902 18.8732 58.6984 18.8732C59.2211 18.8732 59.2895 19.035 59.75 18.8608C58.0699 18.251 56.8752 16.6393 56.8752 14.7538" fill="white"/>
<path d="M49.9995 23.279C49.4394 23.279 48.8856 23.335 48.3567 23.4408C52.2085 24.2062 55.1145 27.6037 55.1145 31.6795C55.1145 35.7554 52.2085 39.1529 48.3567 39.9183C48.8856 40.0241 49.4394 40.0801 49.9995 40.0801C54.6415 40.0801 58.4 36.3154 58.4 31.6795C58.4 27.0437 54.6353 23.279 49.9995 23.279Z" fill="#E5A100"/>
<path d="M58.8597 10.3856C58.4116 10.3856 57.9761 10.454 57.5654 10.5785C59.2704 11.1758 60.49 12.7937 60.49 14.7041C60.49 16.6144 59.1957 18.3256 57.416 18.8795C57.8703 19.0412 58.3556 19.1284 58.8597 19.1284C61.274 19.1284 63.228 17.1682 63.228 14.7601C63.228 12.3519 61.274 10.3918 58.8597 10.3918" fill="#E5A100"/>
<path d="M90.602 76.2149C90.602 76.2149 90.5896 89.326 77.8394 84.8394C77.7398 89.1206 76.9558 95.0383 76.9558 95.0383L71.7785 95.337L68.3934 88.8655L65.307 89.9607V96.3326L59.5324 95.6357C59.5324 95.6357 56.2468 89.8611 55.5499 89.7616C54.853 89.662 52.2644 89.7616 52.2644 89.7616L52.4635 95.2375L46.2906 95.5362L43.4033 89.1642L40.3169 89.2637L40.1925 95.9531H34.9032C34.9032 95.9531 23.2918 84.7772 22.5886 70.5398C21.8917 56.2962 27.8654 50.6212 31.8541 48.9286C35.8366 47.2361 45.5999 44.3488 53.4653 45.6431C57.3483 43.6519 63.5273 40.5654 65.7177 40.5654C66.4146 45.8422 66.1159 45.2448 66.1159 45.2448L70.0984 45.444C72.2079 42.5131 78.8163 40.7397 80.4093 40.0427C82.0023 39.3458 82.245 41.0632 82.1454 42.6562C82.0459 44.2492 81.4485 51.119 81.4485 51.119C84.3358 55.2011 89.3139 65.2631 87.024 72.2324C90.21 74.9206 90.6082 76.2149 90.6082 76.2149" fill="#FF2180"/>
<path d="M50.9381 55.5617C51.9835 53.0229 56.5883 45.3877 62.114 44.7904C64.2048 42.2515 63.7567 40.6088 63.7567 40.6088C63.7567 40.6088 54.4912 44.4917 53.4458 46.4331C52.4004 48.3746 50.9319 55.5555 50.9319 55.5555" fill="white"/>
<path d="M37.8025 95.9531C33.6209 89.382 28.0579 77.7083 27.1618 69.538C26.2658 61.3739 30.6465 49.1216 43.7949 46.3338C42.5006 45.2386 37.4229 46.1347 37.4229 46.1347C37.4229 46.1347 25.1706 51.9093 23.478 59.084C21.8415 67.1112 23.9758 81.193 26.7636 84.7772C29.5513 88.3615 33.8325 95.7353 33.8325 95.7353L37.8025 95.9531Z" fill="white"/>
<path d="M85.5738 84.8332C89.4816 82.8171 90.2034 81.473 90.4275 80.6516C91.2488 79.6435 89.9794 74.6032 89.6807 74.0805C89.382 73.5578 83.8066 71.2554 84.3044 71.467C89.158 73.5578 89.0834 80.1289 85.5738 84.8394" fill="#C60054"/>
<path d="M78.1682 84.8333C74.5093 82.0704 73.5386 81.4731 73.3146 80.6517C73.0906 79.8303 74.0177 74.9642 74.3164 74.4415C74.6151 73.9188 80.5328 71.2555 80.035 71.4671C75.1814 73.5579 74.6587 80.129 78.1682 84.8395" fill="white"/>
<path d="M83.0541 70.7825C83.0541 70.7825 83.0541 50.1669 65.5747 46.8067C66.2468 44.7905 68.9349 45.4626 68.9349 45.4626C68.9349 45.4626 79.9179 48.3748 80.8139 50.1669C81.71 51.959 88.9531 59.3515 87.0179 72.2323C85.7423 72.3506 83.0541 70.7825 83.0541 70.7825Z" fill="#C60054"/>
<path d="M81.8842 51.119L81.3677 39.8622L77.3479 48.5304L81.8842 51.119Z" fill="#C60054"/>
<path d="M60.9258 50.6212L66.1528 48.9784L65.4061 40.5717L60.9258 47.3357V50.6212Z" fill="#C60054"/>
<path d="M77.7523 85.636C77.7523 85.636 76.458 84.2359 74.2178 82.5869C73.1724 85.1257 65.1079 86.4698 65.1079 86.4698L65.7053 89.3074L68.493 89.158L68.6424 88.9651L67.6467 89.3074L71.7786 95.3309C72.2764 95.7291 76.8562 95.6793 76.9558 95.0322C77.018 94.6277 77.0989 91.2364 77.1549 88.7349L77.2109 88.71L77.7585 85.6298L77.7523 85.636Z" fill="#C60054"/>
<path d="M58.2318 85.8784L39.707 85.2811L40.3044 89.2635L43.0299 89.1889L43.8949 91.2548L46.2844 95.536L52.4572 95.2373L52.3141 89.8174L54.9463 89.7489L59.5323 95.6355L62.121 96.3325L58.2318 85.8784Z" fill="#C60054"/>
<path d="M70.9127 44.8154C73.408 42.0339 77.0855 40.1546 82.0263 39.7937C82.2068 43.378 82.2379 51.3367 82.2379 51.3367M77.3904 47.5036C78.2429 45.0021 79.6306 42.1521 80.7693 40.3289M50.5958 55.7485C50.9567 47.8583 55.8041 41.0445 65.6857 40.3289C65.8661 43.9131 65.8661 49.4761 65.8661 49.4761C64.7896 50.0113 61.9148 50.3722 60.2969 51.6292C59.936 50.0175 62.6304 43.7389 64.4287 40.8702M87.2409 71.8901C89.5743 66.3332 86.4319 45.1701 66.6751 45.1701M86.6124 63.9998C84.6771 63.9998 83.109 66.1652 83.109 68.841M76.4633 68.841C76.4633 66.1652 74.8952 63.9998 72.9599 63.9998C71.0247 63.9998 69.4566 66.1652 69.4566 68.841M86.2639 76.5508V80.3155M81.877 76.5508V80.3155M68.5543 90.3526L71.4292 95.9094H77.5336V86.7621M42.8673 90.3526L46.2773 95.729H52.2074V90.4397M39.812 89.8112H55.6174L59.2079 96.0899H65.3123V83.6259M25.979 53.9875C20.4098 52.7306 17.7154 44.6225 22.0277 44.6225C26.34 44.6225 28.6734 52.8737 16.8193 54.4854M53.9996 45.3194C38.3745 43.5273 22.2953 49.4637 22.2953 66.8622C22.2953 84.2607 34.2427 96.2703 34.2427 96.2703L39.812 96.3575V83.6259M63.0286 14.3556C63.0286 16.6206 61.1867 18.4563 58.9217 18.4563C56.6566 18.4563 54.8147 16.6206 54.8147 14.3556C54.8147 12.0906 56.6566 10.2549 58.9217 10.2549C61.1867 10.2549 63.0286 12.0906 63.0286 14.3556ZM58.5856 31.6358C58.5856 36.2406 54.8458 39.9742 50.2349 39.9742C45.6239 39.9742 41.8841 36.2406 41.8841 31.6358C41.8841 27.0311 45.6239 23.2975 50.2349 23.2975C54.8458 23.2975 58.5856 27.0311 58.5856 31.6358ZM73.047 78.6976C73.047 82.6614 77.1104 85.8723 82.1196 85.8723C87.1289 85.8723 91.1922 82.6614 91.1922 78.6976C91.1922 74.7338 87.1289 71.5229 82.1196 71.5229C77.1104 71.5229 73.047 74.7338 73.047 78.6976ZM66.0404 89.9917C66.0404 89.9917 75.561 89.0956 77.3531 86.0465L66.0404 89.9917Z" stroke="#000033" stroke-width="1.5" stroke-linecap="round" stroke-linejoin="round"/>
<path d="M50.3908 27.7281C49.6565 27.7281 48.9969 27.9023 48.412 28.2446C47.8333 28.5868 47.379 29.0659 47.0554 29.6758C46.7319 30.2856 46.5701 30.9825 46.5701 31.7728C46.5701 32.5631 46.7256 33.2164 47.0368 33.8325C47.3479 34.4485 47.7835 34.9277 48.3497 35.2761C48.916 35.6246 49.5756 35.7988 50.3223 35.7988C50.8264 35.7988 51.2993 35.7366 51.7473 35.6184C52.1953 35.4939 52.55 35.3321 52.8238 35.133C53.0976 34.9277 53.2345 34.7099 53.2345 34.4796C53.2345 34.2494 53.1661 34.0378 53.0229 33.8823C52.8798 33.7267 52.6931 33.652 52.4505 33.652C52.326 33.652 52.2202 33.6707 52.1331 33.708C52.046 33.7454 51.9526 33.8014 51.8469 33.876C51.7473 33.9507 51.6664 34.0005 51.6042 34.0254C51.3739 34.1436 51.0193 34.1996 50.5401 34.1996C49.893 34.1996 49.3578 33.9694 48.9409 33.5089C48.524 33.0484 48.3186 32.4697 48.3186 31.7728C48.3186 31.0759 48.524 30.4536 48.9347 30.0056C49.3454 29.5575 49.9178 29.3273 50.6397 29.3273C50.7579 29.3273 50.9072 29.346 51.1001 29.3833C51.2868 29.4206 51.4299 29.4642 51.5295 29.514C51.6166 29.5638 51.7037 29.626 51.7971 29.6944C51.8904 29.7629 51.9838 29.8251 52.0833 29.8687C52.1829 29.9122 52.3073 29.9309 52.4629 29.9309C52.6682 29.9309 52.83 29.85 52.9545 29.6882C53.0789 29.5264 53.1412 29.3397 53.1412 29.1282C53.1412 28.6988 52.886 28.3566 52.382 28.1014C51.878 27.8463 51.2122 27.7156 50.3908 27.7156" fill="#1D1D1B"/>
<path d="M59.0029 12.4949C58.6357 12.4949 58.3059 12.582 58.0135 12.7501C57.721 12.9243 57.497 13.1607 57.3352 13.4657C57.1734 13.7706 57.0925 14.119 57.0925 14.5111C57.0925 14.9031 57.1672 15.2329 57.3228 15.5378C57.4783 15.8427 57.6961 16.0854 57.9824 16.2596C58.2686 16.4339 58.5922 16.521 58.9655 16.521C59.2144 16.521 59.4571 16.4899 59.6749 16.4276C59.8989 16.3654 60.0794 16.2845 60.2101 16.1849C60.347 16.0854 60.4154 15.9734 60.4154 15.8551C60.4154 15.7369 60.3781 15.6374 60.3096 15.5565C60.2412 15.4818 60.1416 15.4382 60.0234 15.4382C59.9612 15.4382 59.9052 15.4507 59.8616 15.4693C59.818 15.488 59.7683 15.5191 59.7185 15.5502C59.6687 15.5876 59.6251 15.6125 59.6002 15.6249C59.482 15.6809 59.3078 15.712 59.0713 15.712C58.7477 15.712 58.4802 15.5938 58.2686 15.3636C58.0633 15.1333 57.9575 14.8471 57.9575 14.4924C57.9575 14.1377 58.0633 13.8328 58.2686 13.6088C58.474 13.3848 58.7602 13.2728 59.1211 13.2728C59.1771 13.2728 59.258 13.2852 59.3513 13.3039C59.4447 13.3225 59.5194 13.3474 59.5629 13.3661C59.6065 13.391 59.65 13.4221 59.6998 13.4594C59.7434 13.4968 59.7932 13.5279 59.8429 13.5466C59.8927 13.5652 59.9549 13.5777 60.0296 13.5777C60.1292 13.5777 60.2163 13.5403 60.2785 13.4594C60.3407 13.3785 60.3719 13.2852 60.3719 13.1794C60.3719 12.9678 60.2474 12.7936 59.9923 12.6692C59.7372 12.5385 59.4073 12.4763 58.9967 12.4763" fill="#1D1D1B"/>
</svg>
