<svg width="18" height="18" viewBox="0 0 18 18" fill="none" xmlns="http://www.w3.org/2000/svg">
<path d="M10.2001 0.600006C9.53736 0.600006 9.0001 1.13726 9.0001 1.80001C9.0001 2.46275 9.53736 3.00001 10.2001 3.00001H13.303L5.75157 10.5515C5.28294 11.0201 5.28294 11.7799 5.75157 12.2485C6.2202 12.7172 6.98 12.7172 7.44863 12.2485L15.0001 4.69706V7.80001C15.0001 8.46275 15.5374 9.00001 16.2001 9.00001C16.8628 9.00001 17.4001 8.46275 17.4001 7.80001V1.80001C17.4001 1.13726 16.8628 0.600006 16.2001 0.600006H10.2001Z" fill="#583f99"/>
<path d="M3.0001 3.00001C1.67461 3.00001 0.600098 4.07452 0.600098 5.40001V15C0.600098 16.3255 1.67461 17.4 3.0001 17.4H12.6001C13.9256 17.4 15.0001 16.3255 15.0001 15V11.4C15.0001 10.7373 14.4628 10.2 13.8001 10.2C13.1374 10.2 12.6001 10.7373 12.6001 11.4V15H3.0001V5.40001L6.6001 5.40001C7.26284 5.40001 7.8001 4.86275 7.8001 4.20001C7.8001 3.53726 7.26284 3.00001 6.6001 3.00001H3.0001Z" fill="#583f99"/>
</svg>
