<svg width="48" height="48" viewBox="0 0 48 48" fill="none" xmlns="http://www.w3.org/2000/svg">
<rect width="48" height="48" rx="24" fill="#26ACAF"/>
<path d="M22.9 18.2846C21.737 17.718 20.4306 17.4 19.05 17.4C17.6693 17.4 16.3629 17.718 15.2 18.2847V29.2847C16.3629 28.718 17.6693 28.4 19.05 28.4C20.8854 28.4 22.5896 28.9619 24 29.9231C25.4103 28.9619 27.1145 28.4 28.95 28.4C30.3306 28.4 31.637 28.718 32.7999 29.2847V18.2847C31.637 17.718 30.3306 17.4 28.95 17.4C27.5693 17.4 26.2629 17.718 25.1 18.2846V26.2C25.1 26.8075 24.6075 27.3 24 27.3C23.3924 27.3 22.9 26.8075 22.9 26.2V18.2846Z" fill="white"/>
</svg>
