<svg width="48" height="48" viewBox="0 0 48 48" fill="none" xmlns="http://www.w3.org/2000/svg">
<rect width="48" height="48" rx="24" fill="#FF5C00"/>
<path d="M22.7 14.9016C22.7 14.1836 23.282 13.6016 24 13.6016C24.718 13.6016 25.3 14.1836 25.3 14.9016V22.0516C25.3 22.4105 25.591 22.7016 25.95 22.7016C26.309 22.7016 26.6 22.4105 26.6 22.0516V16.2016C26.6 15.4836 27.182 14.9016 27.9 14.9016C28.618 14.9016 29.2 15.4836 29.2 16.2016V22.0516C29.2 22.4105 29.491 22.7016 29.85 22.7016C30.209 22.7016 30.5 22.4105 30.5 22.0516V18.8016C30.5 18.0836 31.082 17.5016 31.8 17.5016C32.518 17.5016 33.1 18.0836 33.1 18.8016V25.3016C33.1 30.3274 29.0258 34.4016 24 34.4016C18.9742 34.4016 14.9 30.3274 14.9 25.3016V22.7016C14.9 21.9836 15.482 21.4016 16.2 21.4016C16.918 21.4016 17.5 21.9836 17.5 22.7016V25.9516C17.5 26.3105 17.791 26.6016 18.15 26.6016C18.509 26.6016 18.8 26.3105 18.8 25.9516V16.2016C18.8 15.4836 19.382 14.9016 20.1 14.9016C20.818 14.9016 21.4 15.4836 21.4 16.2016V22.0516C21.4 22.4105 21.691 22.7016 22.05 22.7016C22.409 22.7016 22.7 22.4105 22.7 22.0516V14.9016Z" fill="white"/>
</svg>
