<svg width="48" height="48" viewBox="0 0 48 48" fill="none" xmlns="http://www.w3.org/2000/svg">
<rect width="48" height="48" rx="24" fill="#FF5C00"/>
<g clip-path="url(#clip0_2496_193364)">
<path d="M11.7617 28.1328C11.341 28.1328 11 28.4738 11 28.8945V36.2375C11 36.6581 11.341 36.9992 11.7617 36.9992H14.3719V28.1328H11.7617Z" fill="white"/>
<path d="M36.2383 28.1328H33.6281V36.9992H36.2383C36.6589 36.9992 37 36.6581 37 36.2375V28.8945C37 28.4738 36.6589 28.1328 36.2383 28.1328Z" fill="white"/>
<path d="M33.2899 20.043L24.7617 16.1665V13.3393H27.2635C27.6842 13.3393 28.0252 12.9982 28.0252 12.5776V11.7617C28.0252 11.341 27.6842 11 27.2635 11H24C23.5793 11 23.2383 11.341 23.2383 11.7617V16.1665L14.7101 20.043C14.3271 20.2171 14.1578 20.6686 14.3319 21.0516C14.506 21.4346 14.9576 21.6039 15.3405 21.4299L15.8954 21.1776V36.2383C15.8954 36.6589 16.2364 37 16.6571 37H20.7907V31.343C20.7907 30.9223 21.1317 30.5813 21.5524 30.5813H26.4476C26.8683 30.5813 27.2093 30.9223 27.2093 31.343V37H31.3429C31.7636 37 32.1046 36.6589 32.1046 36.2383V21.1777L32.6595 21.4299C32.7618 21.4764 32.8688 21.4984 32.9742 21.4984C33.2637 21.4984 33.5405 21.3324 33.6681 21.0517C33.8422 20.6686 33.6729 20.2171 33.2899 20.043ZM24 27.2674C22.2303 27.2674 20.7907 25.8276 20.7907 24.058C20.7907 22.2884 22.2304 20.8487 24 20.8487C25.7696 20.8487 27.2093 22.2884 27.2093 24.058C27.2093 25.8276 25.7697 27.2674 24 27.2674Z" fill="white"/>
</g>
<defs>
<clipPath id="clip0_2496_193364">
<rect width="26" height="26" fill="white" transform="translate(11 11)"/>
</clipPath>
</defs>
</svg>
