<svg width="48" height="48" viewBox="0 0 48 48" fill="none" xmlns="http://www.w3.org/2000/svg">
<rect width="48" height="48" rx="24" fill="#FF2180"/>
<path fill-rule="evenodd" clip-rule="evenodd" d="M24 13.6016C21.1281 13.6016 18.8 15.9297 18.8 18.8016V20.1016H17.5C16.8376 20.1016 16.2811 20.5996 16.208 21.258L14.908 32.958C14.8671 33.3255 14.9847 33.693 15.2313 33.9686C15.4779 34.2441 15.8302 34.4016 16.2 34.4016H31.8C32.1698 34.4016 32.5221 34.2441 32.7687 33.9686C33.0153 33.693 33.1329 33.3255 33.092 32.958L31.792 21.258C31.7189 20.5996 31.1624 20.1016 30.5 20.1016H29.2V18.8016C29.2 15.9297 26.8719 13.6016 24 13.6016ZM26.6 20.1016V18.8016C26.6 17.3656 25.4359 16.2016 24 16.2016C22.5641 16.2016 21.4 17.3656 21.4 18.8016V20.1016H26.6ZM18.8 24.0016C18.8 23.2836 19.382 22.7016 20.1 22.7016C20.818 22.7016 21.4 23.2836 21.4 24.0016C21.4 24.7195 20.818 25.3016 20.1 25.3016C19.382 25.3016 18.8 24.7195 18.8 24.0016ZM27.9 22.7016C27.182 22.7016 26.6 23.2836 26.6 24.0016C26.6 24.7195 27.182 25.3016 27.9 25.3016C28.618 25.3016 29.2 24.7195 29.2 24.0016C29.2 23.2836 28.618 22.7016 27.9 22.7016Z" fill="white"/>
</svg>
