<svg width="48" height="48" viewBox="0 0 48 48" fill="none" xmlns="http://www.w3.org/2000/svg">
<rect width="48" height="48" rx="24" fill="#FFD525"/>
<g clip-path="url(#clip0_2496_193249)">
<path d="M30.5824 27.2121L30.3766 27.053C29.9946 26.7577 29.7378 26.3769 29.6328 25.9521C29.0398 23.5458 26.9343 22.1094 24 22.1094C21.0657 22.1094 18.9602 23.5458 18.3672 25.9521C18.2621 26.3769 18.0053 26.7577 17.6233 27.053L17.4175 27.2121C16.2159 28.1354 15.2668 28.8655 15.7545 31.0328C16.1889 32.9639 17.792 34.5178 19.7439 34.8993C20.0882 34.9666 20.4331 34.9993 20.7755 34.9993C21.4873 34.9993 22.1867 34.8558 22.8382 34.5713C23.5758 34.2491 24.4243 34.2491 25.162 34.5713L25.1627 34.572C26.1268 34.9931 27.1956 35.1046 28.2569 34.8993C30.2081 34.5178 31.8112 32.9639 32.2455 31.0328C32.7332 28.8657 31.784 28.1354 30.5824 27.2121Z" fill="white"/>
<path d="M20.7773 19.4453C22.1992 19.4453 23.3555 17.9995 23.3555 16.2227C23.3555 14.4458 22.1992 13 20.7773 13C19.3555 13 18.1992 14.4458 18.1992 16.2227C18.1992 17.9995 19.3555 19.4453 20.7773 19.4453Z" fill="white"/>
<path d="M27.2227 19.4453C28.6445 19.4453 29.8008 17.9995 29.8008 16.2227C29.8008 14.4458 28.6445 13 27.2227 13C25.8008 13 24.6445 14.4458 24.6445 16.2227C24.6445 17.9995 25.8008 19.4453 27.2227 19.4453Z" fill="white"/>
<path d="M18.1562 21.4219C18.1562 19.6451 17 18.1992 15.5781 18.1992C14.1563 18.1992 13 19.6451 13 21.4219C13 23.1987 14.1563 24.6445 15.5781 24.6445C17 24.6445 18.1562 23.1987 18.1562 21.4219Z" fill="white"/>
<path d="M32.4219 18.1992C31 18.1992 29.8438 19.6451 29.8438 21.4219C29.8438 23.1987 31 24.6445 32.4219 24.6445C33.8437 24.6445 35 23.1987 35 21.4219C35 19.6451 33.8437 18.1992 32.4219 18.1992Z" fill="white"/>
</g>
<defs>
<clipPath id="clip0_2496_193249">
<rect width="22" height="22" fill="white" transform="translate(13 13)"/>
</clipPath>
</defs>
</svg>
