<svg width="48" height="48" viewBox="0 0 48 48" fill="none" xmlns="http://www.w3.org/2000/svg">
<rect width="48" height="48" rx="24" fill="#FF5C00"/>
<g clip-path="url(#clip0_2496_193283)">
<path d="M28.5703 18.6172C27.1674 18.6172 26.2264 19.1528 25.4699 19.5835C25.2142 19.7286 24.9847 19.8567 24.7617 19.9552V18.5402C28.1801 18.1556 30.8555 15.2812 30.8555 11.7617C30.8555 11.3407 30.5148 11 30.0938 11C27.2522 11 24.8106 12.7383 23.7724 15.2068C23.5523 14.8713 23.3007 14.5557 23.0151 14.2701C22.7176 13.9725 22.2355 13.9725 21.938 14.2701C21.6404 14.5676 21.6404 15.0497 21.938 15.3472C22.7644 16.1736 23.2383 17.3176 23.2383 18.4863V19.9552C23.0152 19.8568 22.7857 19.7286 22.5301 19.5835C21.7736 19.1528 20.8326 18.6172 19.4297 18.6172C16.7384 18.6172 14.0977 22.0637 14.0977 25.5234C14.0977 30.0357 17.1691 37 20.9531 37C22.0302 37 22.5993 36.4309 23.0151 36.0151C23.3885 35.6417 23.5716 35.4766 24 35.4766C24.4284 35.4766 24.6115 35.6417 24.9849 36.0151C25.4007 36.4309 25.9698 37 27.0469 37C30.8309 37 33.9023 30.0357 33.9023 25.5234C33.9023 22.1999 32.0337 18.6172 28.5703 18.6172Z" fill="white"/>
</g>
<defs>
<clipPath id="clip0_2496_193283">
<rect width="26" height="26" fill="white" transform="translate(11 11)"/>
</clipPath>
</defs>
</svg>
