<svg width="48" height="48" viewBox="0 0 48 48" fill="none" xmlns="http://www.w3.org/2000/svg">
<rect width="48" height="48" rx="24" fill="#FF2180"/>
<g clip-path="url(#clip0_2496_193269)">
<path d="M31.8432 27.8993C31.3094 27.2338 30.4977 27.1581 29.8331 27.6906C29.0478 28.3195 27.8987 29.1277 26.9518 29.654C26.6413 28.6181 26.5069 27.2343 26.2568 26.116L26.2779 19.7205C26.2779 19.7205 29.7498 19.262 30.7518 19.1101C31.8194 19.0105 31.9828 18.0715 31.7556 17.4122C31.7005 17.2519 30.3057 13.2589 30.0625 12.4873C29.8238 11.7302 29.1808 11.2805 28.3545 11.5126C27.5891 11.7276 27.3587 12.4662 27.5922 13.2241C27.9176 14.2843 28.7844 16.8463 28.7844 16.8463L25.7428 17.2567L20.8249 16.1993C19.5728 14.87 18.7668 13.388 18.4743 11.244C18.3669 10.4569 17.8701 9.90593 16.9716 10.0134C16.1837 10.1076 15.7234 10.8454 15.8313 11.632C16.2722 14.8678 17.7291 17.6051 19.9564 19.4254V25.7566C18.4277 29.6655 18.4096 33.6994 20.6633 37.2801C20.9566 37.7452 21.4569 38.0002 21.9683 38.0002C22.2493 38.0002 22.5329 37.9222 22.7879 37.7632C23.5072 37.3091 23.7239 36.3591 23.2706 35.6386C22.022 33.6558 21.4433 31.2492 22.0678 28.4485C22.1682 27.998 22.5761 27.6817 23.0377 27.6985H23.039C23.4737 27.7139 23.8423 28.0196 23.9388 28.4433C24.2132 29.6417 24.3488 30.8093 24.5563 31.5382C24.9628 32.9634 26.3841 33.2158 27.2887 32.7401C29.1279 31.7734 30.2766 31.0797 31.6019 30.064C32.2779 29.5465 32.3748 28.5622 31.8432 27.8993Z" fill="white"/>
<path d="M23.7247 16.0249C25.0293 16.0249 26.0868 14.9673 26.0868 13.6628C26.0868 12.3583 25.0293 11.3008 23.7247 11.3008C22.4202 11.3008 21.3627 12.3583 21.3627 13.6628C21.3627 14.9673 22.4202 16.0249 23.7247 16.0249Z" fill="white"/>
</g>
<defs>
<clipPath id="clip0_2496_193269">
<rect width="28" height="28" fill="white" transform="translate(10 10)"/>
</clipPath>
</defs>
</svg>
