<svg width="48" height="48" viewBox="0 0 48 48" fill="none" xmlns="http://www.w3.org/2000/svg">
<rect width="48" height="48" rx="24" fill="#83BB26"/>
<path d="M24.9192 13.9823C24.4116 13.4746 23.5884 13.4746 23.0808 13.9823L13.9808 23.0823C13.4731 23.59 13.4731 24.4131 13.9808 24.9208C14.4884 25.4285 15.3116 25.4285 15.8192 24.9208L16.2 24.54V33.1016C16.2 33.8195 16.782 34.4016 17.5 34.4016H20.1C20.818 34.4016 21.4 33.8195 21.4 33.1016V30.5016C21.4 29.7836 21.982 29.2016 22.7 29.2016H25.3C26.018 29.2016 26.6 29.7836 26.6 30.5016V33.1016C26.6 33.8195 27.182 34.4016 27.9 34.4016H30.5C31.218 34.4016 31.8 33.8195 31.8 33.1016V24.54L32.1808 24.9208C32.6884 25.4285 33.5116 25.4285 34.0192 24.9208C34.5269 24.4131 34.5269 23.59 34.0192 23.0823L24.9192 13.9823Z" fill="white"/>
</svg>
