<svg width="48" height="48" viewBox="0 0 48 48" fill="none" xmlns="http://www.w3.org/2000/svg">
<rect width="48" height="48" rx="24" fill="#1D67D5"/>
<g clip-path="url(#clip0_2496_193279)">
<path d="M31.9444 18.1841C31.059 16.3096 28.9946 15.2667 26.9439 15.6902C24.3915 11.632 18.119 12.3758 16.5746 16.8999C11.6405 17.4783 11.8778 24.4276 16.8939 24.6282H31.7309C33.4606 24.6657 35.0364 23.1377 34.9994 21.4027C34.9994 19.69 33.6281 18.2926 31.9444 18.1841Z" fill="white"/>
<path d="M15.0016 30.4554C15.0697 32.1668 17.5143 32.1662 17.582 30.4554C17.582 29.7428 16.2918 27.875 16.2918 27.875C16.2918 27.875 15.0016 29.7428 15.0016 30.4554Z" fill="white"/>
<path d="M18.8722 33.6819C18.9402 35.3934 21.3848 35.3927 21.4525 33.6819C21.4525 32.9694 20.1623 31.1016 20.1623 31.1016C20.1623 31.1016 18.8722 32.9694 18.8722 33.6819Z" fill="white"/>
<path d="M22.7427 30.4554C22.8107 32.1668 25.2554 32.1662 25.3231 30.4554C25.3231 29.7428 24.0329 27.875 24.0329 27.875C24.0329 27.875 22.7427 29.7428 22.7427 30.4554Z" fill="white"/>
<path d="M26.6132 33.6819C26.6813 35.3934 29.1259 35.3927 29.1936 33.6819C29.1936 32.9694 27.9034 31.1016 27.9034 31.1016C27.9034 31.1016 26.6132 32.9694 26.6132 33.6819Z" fill="white"/>
<path d="M30.4838 30.4554C30.5518 32.1668 32.9964 32.1662 33.0641 30.4554C33.0641 29.7428 31.7739 27.875 31.7739 27.875C31.7739 27.875 30.4838 29.7428 30.4838 30.4554Z" fill="white"/>
</g>
<defs>
<clipPath id="clip0_2496_193279">
<rect width="22" height="22" fill="white" transform="translate(13 13)"/>
</clipPath>
</defs>
</svg>
