<svg width="48" height="48" viewBox="0 0 48 48" fill="none" xmlns="http://www.w3.org/2000/svg">
<rect width="48" height="48" rx="24" fill="#1DBADF"/>
<g clip-path="url(#clip0_2496_193253)">
<path d="M35.9165 18.454C35.0893 17.0687 33.927 15.7508 33.1421 15.0592C31.4161 13.5379 29.9726 13.5776 29.2659 13.7366C28.9816 13.8006 28.72 13.9047 28.4871 14.0418C27.2678 13.1512 25.7874 12.7148 24 12.7148C22.2125 12.7148 20.7322 13.1512 19.5128 14.0418C19.2799 13.9047 19.0183 13.8006 18.734 13.7366C18.0273 13.5776 16.5839 13.5379 14.8579 15.0591C14.0729 15.7508 12.9106 17.0687 12.0834 18.4541C10.9556 20.343 10.7068 21.8753 11.3441 23.0088C12.0954 24.3449 13.2537 24.7179 14.1784 24.8193C13.9573 25.6928 13.8217 26.6299 13.8217 27.7914C13.8217 29.3726 14.1841 30.7339 14.8988 31.8373C15.5271 32.8073 16.4309 33.5838 17.5852 34.145C19.3861 35.0207 21.4945 35.2401 23.1524 35.2866V30.0001C22.1257 29.516 21.1256 28.3039 21.1256 27.3379C21.1256 25.711 22.925 25.711 24.0001 25.711C25.0751 25.711 26.8745 25.711 26.8745 27.3379C26.8745 28.304 25.8744 29.516 24.8477 30.0001V35.2866C26.5057 35.24 28.6141 35.0207 30.4149 34.145C31.5692 33.5837 32.473 32.8073 33.1014 31.8372C33.816 30.7338 34.1784 29.3726 34.1784 27.7913C34.1784 26.6298 34.0429 25.6927 33.8217 24.8192C34.7464 24.7178 35.9048 24.3448 36.6561 23.0087C37.2932 21.8753 37.0444 20.343 35.9165 18.454ZM21.363 23.2479C20.7897 23.2479 20.3231 22.7787 20.3231 22.1998C20.3231 21.6209 20.7897 21.1521 21.363 21.1521C21.937 21.1521 22.4035 21.6209 22.4035 22.1998C22.4035 22.7787 21.937 23.2479 21.363 23.2479ZM26.6291 23.2558C26.0503 23.2558 25.5807 22.7831 25.5807 22.1999C25.5807 21.6167 26.0503 21.144 26.6291 21.144C27.2073 21.144 27.6767 21.6167 27.6767 22.1999C27.6767 22.7831 27.2072 23.2558 26.6291 23.2558Z" fill="white"/>
</g>
<defs>
<clipPath id="clip0_2496_193253">
<rect width="26" height="26" fill="white" transform="translate(11 11)"/>
</clipPath>
</defs>
</svg>
