<svg width="48" height="48" viewBox="0 0 48 48" fill="none" xmlns="http://www.w3.org/2000/svg">
<rect width="48" height="48" rx="24" fill="#FFD525"/>
<g clip-path="url(#clip0_2496_193273)">
<path d="M19.985 28.0935L20.3081 27.7304C20.0721 26.9759 20.0714 26.1453 20.3236 25.3783C18.4665 26.3986 16.1154 25.992 14.7119 24.332C13.6695 25.1587 13 26.4362 13 27.8671V34.3124C13 34.6682 13.2888 34.9569 13.6445 34.9569H18.9546C18.8829 34.7554 18.8438 34.5384 18.8438 34.3124V31.0897C18.8438 29.9846 19.2489 28.9202 19.985 28.0935Z" fill="white"/>
<path d="M18.1562 24.6445C19.9361 24.6445 21.3789 23.2017 21.3789 21.4219C21.3789 19.6421 19.9361 18.1992 18.1562 18.1992C16.3764 18.1992 14.9336 19.6421 14.9336 21.4219C14.9336 23.2017 16.3764 24.6445 18.1562 24.6445Z" fill="white"/>
<path d="M33.2881 24.332C31.8821 25.9951 29.5293 26.3972 27.6764 25.3779C27.9282 26.1464 27.9282 26.9749 27.6919 27.7304L28.015 28.0935C28.7511 28.9202 29.1563 29.9846 29.1563 31.0897V34.3124C29.1563 34.5384 29.1171 34.7554 29.0454 34.9569H34.3555C34.7113 34.9569 35 34.6682 35 34.3124V27.8671C35 26.4362 34.3305 25.1587 33.2881 24.332Z" fill="white"/>
<path d="M29.8438 24.6445C31.6236 24.6445 33.0664 23.2017 33.0664 21.4219C33.0664 19.6421 31.6236 18.1992 29.8438 18.1992C28.0639 18.1992 26.6211 19.6421 26.6211 21.4219C26.6211 23.2017 28.0639 24.6445 29.8438 24.6445Z" fill="white"/>
<path d="M24 30.4441C22.7608 30.4441 21.6561 29.8584 20.9479 28.9492C20.4409 29.519 20.1328 30.2684 20.1328 31.0886V34.3113C20.1328 34.6671 20.4216 34.9558 20.7773 34.9558H27.2227C27.5784 34.9558 27.8672 34.6671 27.8672 34.3113V31.0886C27.8672 30.2684 27.5591 29.519 27.0521 28.9492C26.3439 29.8584 25.2392 30.4441 24 30.4441Z" fill="white"/>
<path d="M24 29.1562C25.4239 29.1562 26.5781 28.002 26.5781 26.5781C26.5781 25.1543 25.4239 24 24 24C22.5761 24 21.4219 25.1543 21.4219 26.5781C21.4219 28.002 22.5761 29.1562 24 29.1562Z" fill="white"/>
<path d="M22.1661 18.2417C22.9019 18.9219 23.6314 19.3735 23.6621 19.3925C23.8693 19.52 24.1306 19.52 24.3379 19.3925C24.3686 19.3735 25.098 18.9219 25.8339 18.2417C26.898 17.2584 27.4375 16.3024 27.4375 15.4003C27.4375 13.3517 25.4004 12.3901 24 13.5282C22.5965 12.3876 20.5625 13.3571 20.5625 15.4003C20.5625 16.3024 21.102 17.2584 22.1661 18.2417Z" fill="white"/>
</g>
<defs>
<clipPath id="clip0_2496_193273">
<rect width="22" height="22" fill="white" transform="translate(13 13)"/>
</clipPath>
</defs>
</svg>
