<svg width="48" height="48" viewBox="0 0 48 48" fill="none" xmlns="http://www.w3.org/2000/svg">
<rect width="48" height="48" rx="24" fill="#FF2180"/>
<path d="M22.3832 13.6747C22.8921 12.1084 25.1079 12.1084 25.6168 13.6747L27.4351 19.2707C27.6626 19.9712 28.3154 20.4454 29.0519 20.4454H34.9359C36.5827 20.4454 37.2674 22.5527 35.9351 23.5207L31.1748 26.9793C30.579 27.4122 30.3297 28.1795 30.5573 28.8799L32.3756 34.476C32.8845 36.0422 31.0918 37.3446 29.7595 36.3766L24.9992 32.9181C24.4034 32.4852 23.5966 32.4852 23.0008 32.9181L18.2405 36.3766C16.9082 37.3446 15.1155 36.0422 15.6244 34.476L17.4427 28.8799C17.6703 28.1795 17.421 27.4122 16.8252 26.9793L12.0649 23.5207C10.7326 22.5527 11.4173 20.4454 13.0641 20.4454H18.9481C19.6846 20.4454 20.3373 19.9712 20.5649 19.2707L22.3832 13.6747Z" fill="white"/>
</svg>
