<svg width="48" height="48" viewBox="0 0 48 48" fill="none" xmlns="http://www.w3.org/2000/svg">
<rect width="48" height="48" rx="24" fill="#FF5C00"/>
<path d="M24.0002 15.3629C25.4804 15.3629 26.6807 14.1622 26.6807 12.6815C26.6806 11.2003 25.4804 10 24.0002 10C22.5195 10 21.3188 11.2003 21.3188 12.6815C21.3187 14.1622 22.5195 15.3629 24.0002 15.3629Z" fill="white"/>
<path d="M31.1411 24.551L28.1526 17.6972C27.8515 17.0062 27.2175 16.5476 26.4905 16.4241C26.3805 16.3951 21.6198 16.3947 21.5061 16.4251C20.78 16.5489 20.1474 17.0075 19.8468 17.6977L16.8586 24.5505C16.6795 24.962 16.7196 25.4359 16.9655 25.8115C17.2113 26.1872 17.6298 26.4133 18.0787 26.4133C18.6082 26.4133 19.087 26.0998 19.2989 25.6145L20.425 23.0321V36.5461C20.425 37.3482 21.0751 37.9982 21.8771 37.9982C22.6797 37.9982 23.3297 37.3482 23.3297 36.5461V27.4303H24.6705V36.5461C24.6705 37.3482 25.3206 37.9982 26.1226 37.9982C26.9242 37.9982 27.5743 37.3482 27.5743 36.5466V23.0311L28.701 25.615C28.9127 26.1003 29.3915 26.4138 29.9211 26.4138C30.3699 26.4138 30.7885 26.1877 31.0343 25.8121C31.2803 25.4368 31.3207 24.9625 31.1411 24.551Z" fill="white"/>
</svg>
