<svg width="48" height="48" viewBox="0 0 48 48" fill="none" xmlns="http://www.w3.org/2000/svg">
<rect width="48" height="48" rx="24" fill="#FFD525"/>
<path d="M12.6189 23.2344H14.3714C14.6441 23.2344 14.9058 23.3427 15.0987 23.5355C15.2916 23.7284 15.4001 23.9899 15.4002 24.2627V33.9543C15.4002 34.2506 15.2825 34.5348 15.073 34.7443C14.8635 34.9538 14.5793 35.0715 14.283 35.0715C13.9867 35.0715 13.7026 34.9538 13.493 34.7443C13.2835 34.5348 13.1658 34.2506 13.1658 33.9543V25.8948C13.1657 25.7506 13.1083 25.6123 13.0064 25.5104C12.9044 25.4084 12.7662 25.3511 12.622 25.3509C12.4336 25.351 12.2486 25.3008 12.0862 25.2055C11.9237 25.1102 11.7896 24.9733 11.6978 24.8088C11.6059 24.6444 11.5596 24.4584 11.5636 24.2701C11.5676 24.0818 11.6218 23.898 11.7206 23.7376C11.8151 23.5842 11.9472 23.4574 12.1044 23.3694C12.2616 23.2813 12.4387 23.2348 12.6189 23.2344Z" fill="white"/>
<path d="M20.4961 21.0117C20.325 21.0115 20.1564 20.971 20.004 20.8933C19.8516 20.8156 19.7197 20.7031 19.6191 20.5648C19.5184 20.4265 19.4518 20.2664 19.4247 20.0975C19.3976 19.9286 19.4108 19.7557 19.4632 19.5929C19.6486 18.9898 19.98 18.4417 20.428 17.9973C21.1728 17.2651 22.1267 16.8988 23.2896 16.8984C24.0086 16.8984 24.6432 17.0508 25.1933 17.3555C25.7467 17.6618 26.2039 18.1162 26.5137 18.6677C26.8437 19.2391 27.0086 19.8199 27.0083 20.41C27.0083 21.1131 26.8084 21.8698 26.4085 22.6799C26.0087 23.49 25.2771 24.4479 24.2138 25.5536L23.2489 26.5692C23.2183 26.6014 23.1978 26.6419 23.19 26.6856C23.1822 26.7293 23.1873 26.7743 23.2048 26.8151C23.2224 26.856 23.2515 26.8907 23.2885 26.9152C23.3256 26.9396 23.3691 26.9526 23.4135 26.9526H26.0617C26.3382 26.9526 26.6034 27.0625 26.7989 27.258C26.9944 27.4535 27.1042 27.7187 27.1042 27.9952C27.1042 28.2717 26.9944 28.5368 26.7989 28.7323C26.6034 28.9279 26.3382 29.0377 26.0617 29.0377H19.6673C19.4642 29.0377 19.2695 28.957 19.1258 28.8134C18.9822 28.6698 18.9016 28.475 18.9016 28.2719C18.9016 28.0713 18.9803 27.8788 19.1209 27.7357L22.5644 24.2241C23.4497 23.3277 24.0386 22.6073 24.3311 22.0629C24.6236 21.5185 24.7698 21.0261 24.7698 20.5857C24.7698 20.1296 24.6175 19.7527 24.3128 19.4548C24.1809 19.3243 24.0259 19.2195 23.8558 19.1455C23.0646 18.8022 22.0566 19.1699 21.6676 19.9397C21.6158 20.0428 21.5726 20.1499 21.5386 20.2602C21.4672 20.4799 21.3277 20.6712 21.1402 20.8064C20.9528 20.9415 20.7272 21.0134 20.4961 21.0117Z" fill="white"/>
<path d="M30.2562 16.1458C29.3762 16.1458 28.8623 15.1571 29.363 14.433C29.4601 14.2921 29.5689 14.1596 29.688 14.0369C30.4071 13.2965 31.3113 12.9261 32.4007 12.9258C33.3717 12.9258 34.186 13.2344 34.8438 13.8515C35.5016 14.4687 35.831 15.2013 35.832 16.0493C35.8359 16.5618 35.6859 17.0637 35.4014 17.49C35.2156 17.7683 34.9818 18.0113 34.7108 18.2075C34.6637 18.2412 34.6261 18.2864 34.6016 18.3388C34.5771 18.3913 34.5666 18.4491 34.5711 18.5068C34.5756 18.5645 34.595 18.6201 34.6273 18.6681C34.6596 18.7161 34.7037 18.7549 34.7555 18.7809C35.1785 18.9885 35.5471 19.2921 35.832 19.6675C36.2383 20.201 36.4414 20.8302 36.4414 21.555C36.4414 22.6174 36.0497 23.5176 35.2663 24.2556C34.4829 24.9936 33.4842 25.3624 32.2702 25.3621C31.1219 25.3621 30.1855 25.0148 29.461 24.3201C29.0843 23.9582 28.7899 23.5195 28.5977 23.0338C28.5287 22.8625 28.5028 22.6768 28.5222 22.4931C28.5416 22.3094 28.6058 22.1333 28.7091 21.9802C28.8124 21.8271 28.9517 21.7016 29.1147 21.6148C29.2778 21.528 29.4596 21.4826 29.6443 21.4824C29.8692 21.4835 30.0887 21.5512 30.2751 21.677C30.4615 21.8029 30.6064 21.9811 30.6914 22.1893C30.7895 22.4402 30.9427 22.6659 31.1398 22.8495C31.4699 23.147 31.8872 23.296 32.3916 23.2963C32.9174 23.2963 33.3534 23.1271 33.6997 22.7885C33.8675 22.6292 34.0003 22.4367 34.0896 22.2233C34.179 22.0099 34.2229 21.7803 34.2187 21.5489C34.2187 21.0124 33.9853 20.5589 33.5184 20.1885C33.2225 19.9532 32.8427 19.7899 32.3789 19.6985C32.1302 19.6493 31.9063 19.5152 31.7455 19.3192C31.5847 19.1232 31.497 18.8775 31.4973 18.6239C31.4978 18.3783 31.5804 18.1398 31.7321 17.9466C31.8837 17.7533 32.0957 17.6164 32.3342 17.5575C32.4631 17.5269 32.5886 17.4837 32.709 17.4286C32.9592 17.3155 33.1736 17.136 33.329 16.9096C33.4717 16.7038 33.5488 16.4597 33.5499 16.2093C33.5539 16.0594 33.5258 15.9104 33.4676 15.7722C33.4094 15.634 33.3223 15.5098 33.2122 15.408C32.9868 15.196 32.6915 15.0901 32.3266 15.0901C32.0096 15.0884 31.7011 15.1918 31.4491 15.3841C31.3266 15.4745 31.2184 15.5829 31.1282 15.7055C31.0277 15.8423 30.8964 15.9535 30.7449 16.03C30.5934 16.1065 30.426 16.1462 30.2562 16.1458Z" fill="white"/>
<path d="M15.4002 30.6016V33.9531C15.4002 34.2499 15.2823 34.5345 15.0725 34.7444C14.8626 34.9542 14.578 35.0721 14.2812 35.0721C13.9845 35.0721 13.6998 34.9542 13.49 34.7444C13.2802 34.5345 13.1623 34.2499 13.1623 33.9531V28.1641C13.8546 29.0242 14.6022 29.8384 15.4002 30.6016Z" fill="white"/>
</svg>
