<svg width="48" height="48" viewBox="0 0 48 48" fill="none" xmlns="http://www.w3.org/2000/svg">
<rect width="48" height="48" rx="24" fill="#83BB26"/>
<g clip-path="url(#clip0_2496_193287)">
<path d="M36.8509 20.4947C36.7237 20.3396 36.534 20.2491 36.3349 20.2491H33.8045C33.1801 18.602 32.3665 16.9883 31.4418 16.3791C28.243 14.2747 19.7583 14.2747 16.5595 16.3791C15.6341 16.9889 14.8239 18.6047 14.1962 20.2491H11.6657C11.4647 20.2491 11.2756 20.3396 11.1498 20.4947C11.0233 20.6492 10.9727 20.8536 11.014 21.05L11.3888 22.8661C11.4527 23.1757 11.7257 23.3967 12.0405 23.3967H12.7901C12.0665 24.2316 11.7157 25.2828 11.711 26.3346C11.7063 27.6342 12.1996 28.8086 13.1017 29.6394C13.1117 29.6481 13.1217 29.654 13.131 29.6627V32.2039C13.131 32.7544 13.5784 33.2025 14.1296 33.2025H16.4636C17.0149 33.2025 17.4622 32.7544 17.4622 32.2039V31.1826H30.5378V32.2039C30.5378 32.7544 30.9852 33.2025 31.5364 33.2025H33.8704C34.4203 33.2025 34.869 32.7544 34.869 32.2039V29.7126C35.8263 28.8358 36.2837 27.6295 36.2897 26.4252C36.2937 25.3374 35.9269 24.2475 35.1606 23.3954H35.9601C36.2764 23.3954 36.5493 23.1744 36.6119 22.8641L36.9874 21.0486C37.026 20.8536 36.9774 20.6505 36.8509 20.4947ZM17.656 18.0468C20.2057 16.3684 27.7943 16.3684 30.3427 18.0468C30.838 18.3717 31.4751 19.6852 32.059 21.2936H15.941C16.5236 19.6859 17.1607 18.373 17.656 18.0468ZM14.6695 26.585C14.6695 25.4998 15.5496 24.621 16.6341 24.621C17.7199 24.621 18.5986 25.4998 18.5986 26.585C18.5986 27.6701 17.7199 28.5496 16.6341 28.5496C15.5496 28.5496 14.6695 27.6701 14.6695 26.585ZM31.3919 28.5496C30.3074 28.5496 29.4274 27.6701 29.4274 26.585C29.4274 25.4998 30.3074 24.621 31.3919 24.621C32.4777 24.621 33.3565 25.4998 33.3565 26.585C33.3565 27.6701 32.4764 28.5496 31.3919 28.5496Z" fill="white"/>
</g>
<defs>
<clipPath id="clip0_2496_193287">
<rect width="26" height="26" fill="white" transform="translate(11 11)"/>
</clipPath>
</defs>
</svg>
