<svg width="48" height="48" viewBox="0 0 48 48" fill="none" xmlns="http://www.w3.org/2000/svg">
<rect width="48" height="48" rx="24" fill="#1D67D5"/>
<g clip-path="url(#clip0_2496_193255)">
<path d="M24 29.5742C20.9244 29.5776 18.4319 32.07 18.4286 35.1456C18.4286 35.6584 18.8444 36.0742 19.3572 36.0742C19.87 36.0742 20.2857 35.6584 20.2857 35.1456C20.2857 33.0943 21.9486 31.4313 24 31.4313C26.0514 31.4313 27.7143 33.0943 27.7143 35.1456C27.7143 35.6584 28.1301 36.0742 28.6429 36.0742C29.1557 36.0742 29.5715 35.6584 29.5715 35.1456C29.568 32.07 27.0755 29.5775 24 29.5742Z" fill="white"/>
<path d="M25.3937 25.9601C24.9318 25.8957 24.4663 25.862 24 25.8594C18.8739 25.8649 14.7198 30.019 14.7143 35.145C14.7143 35.6578 15.1301 36.0736 15.6429 36.0736C16.1557 36.0736 16.5714 35.6578 16.5714 35.145C16.5773 31.0448 19.8997 27.7224 24 27.7165C24.3786 27.719 24.7567 27.7462 25.1317 27.7981C28.7462 28.3754 31.4112 31.4848 31.4285 35.145C31.4285 35.6578 31.8442 36.0736 32.357 36.0736C32.8699 36.0736 33.2856 35.6578 33.2856 35.145C33.261 30.5632 29.9196 26.6743 25.3937 25.9601Z" fill="white"/>
<path d="M28.6396 23.0115C28.6058 19.4227 25.669 16.5407 22.0801 16.5745C18.4912 16.6083 15.6092 19.5451 15.643 23.1341C15.6489 23.7559 15.744 24.3737 15.9254 24.9685C15.8745 25.009 15.8201 25.0441 15.7698 25.0853C12.746 27.5494 10.9938 31.245 11 35.1456C11 35.6584 11.4158 36.0742 11.9286 36.0742C12.4414 36.0742 12.8571 35.6584 12.8571 35.1456C12.8519 31.8018 14.3543 28.6338 16.9469 26.5219C17.2236 26.2945 17.5164 26.0906 17.8128 25.8927C20.3829 24.1801 23.546 23.6049 26.5545 24.3029C26.8345 24.3669 27.1111 24.445 27.3833 24.5369C27.3892 24.5389 27.3959 24.5369 27.4019 24.5388C32.0256 25.9991 35.1621 30.2968 35.1429 35.1455C35.1429 35.6583 35.5586 36.0741 36.0714 36.0741C36.5842 36.0741 37 35.6583 37 35.1455C37.019 29.7524 33.6859 24.9147 28.6396 23.0115Z" fill="white"/>
<path d="M22.1428 15.644C22.6556 15.644 23.0714 15.2282 23.0714 14.7154V12.8583C23.0714 12.3455 22.6556 11.9297 22.1428 11.9297C21.63 11.9297 21.2142 12.3455 21.2142 12.8583V14.7154C21.2142 15.2283 21.63 15.644 22.1428 15.644Z" fill="white"/>
<path d="M15.5766 17.8196C15.9438 18.1776 16.5317 18.1701 16.8898 17.8029C17.2414 17.4423 17.2414 16.8671 16.8898 16.5064L15.5766 15.1934C15.2095 14.8354 14.6215 14.8428 14.2635 15.2101C13.9119 15.5707 13.9119 16.1459 14.2635 16.5065L15.5766 17.8196Z" fill="white"/>
<path d="M11.9286 24.0017H13.7857C14.2985 24.0017 14.7143 23.5859 14.7143 23.0731C14.7143 22.5603 14.2985 22.1445 13.7857 22.1445H11.9286C11.4158 22.1445 11 22.5603 11 23.0731C11 23.586 11.4158 24.0017 11.9286 24.0017Z" fill="white"/>
<path d="M28.709 17.8197L30.0221 16.5065C30.3801 16.1394 30.3727 15.5514 30.0055 15.1934C29.6449 14.8418 29.0697 14.8418 28.7091 15.1934L27.3959 16.5065C27.0288 16.8646 27.0213 17.4524 27.3794 17.8197C27.7374 18.1868 28.3252 18.1943 28.6925 17.8362C28.698 17.8308 28.7035 17.8252 28.709 17.8197Z" fill="white"/>
</g>
<defs>
<clipPath id="clip0_2496_193255">
<rect width="26" height="26" fill="white" transform="translate(11 11)"/>
</clipPath>
</defs>
</svg>
