<svg width="48" height="48" viewBox="0 0 48 48" fill="none" xmlns="http://www.w3.org/2000/svg">
<rect width="48" height="48" rx="24" fill="#FF5C00"/>
<g clip-path="url(#clip0_2496_193247)">
<path d="M34.6023 27.7114C35.9244 27.7111 37 26.6353 37 25.3132C37 24.3522 36.4893 23.4733 35.6975 22.982C35.7465 22.7752 35.7716 22.562 35.7716 22.3476C35.7716 21.6159 35.4866 20.9279 34.9692 20.4103C34.4516 19.8928 33.7637 19.6079 33.0319 19.6079C32.8175 19.6079 32.6044 19.633 32.3975 19.682C31.9061 18.8903 31.0273 18.3795 30.0663 18.3795C29.1053 18.3795 28.2265 18.8903 27.7351 19.682C27.5282 19.633 27.3152 19.6079 27.1008 19.6079C26.369 19.6079 25.6811 19.8929 25.1633 20.4104C24.4835 21.0903 24.2233 22.0735 24.4364 22.9812C23.6439 23.4724 23.1327 24.352 23.1327 25.315C23.1327 25.9557 23.3822 26.558 23.8353 27.011C24.2882 27.4639 24.8903 27.7133 25.5309 27.7133H25.5314L29.2175 27.7125L26.3907 30.5019V29.1858L25.5317 29.186H25.5309C24.497 29.186 23.5251 28.7834 22.794 28.0525C22.2122 27.4708 21.8393 26.7364 21.7107 25.9399V27.6433L19.0346 24.9672L21.6759 24.9666C21.7601 23.9773 22.1978 23.0433 22.8925 22.3419C22.8975 21.2396 23.333 20.1583 24.1219 19.3692C24.9176 18.5738 25.9747 18.1358 27.0989 18.1353C27.8817 17.362 28.9526 16.9069 30.0662 16.9069C30.0904 16.9069 30.1144 16.9083 30.1385 16.9088C30.1385 16.9028 30.1389 16.8968 30.1389 16.8909C30.1389 15.8307 29.7261 14.834 28.9765 14.0843C28.2269 13.3346 27.2301 12.9218 26.1699 12.9218C25.7805 12.9218 25.3944 12.9788 25.0251 13.0895C24.3424 11.8278 23.0029 11 21.5304 11C20.0579 11 18.7184 11.8278 18.0356 13.0894C17.6664 12.9788 17.2802 12.9218 16.8909 12.9218C15.8308 12.9218 14.8341 13.3346 14.0841 14.0844C13.0425 15.1262 12.6811 16.6594 13.0912 18.0348C11.8285 18.7173 11 20.0576 11 21.5334C11 22.451 11.3574 23.3136 12.0063 23.9624C12.655 24.6109 13.5174 24.9681 14.4348 24.9681H14.4355L16.8896 24.9676L21.7109 29.789V37H26.3908V32.6421L31.3657 27.7121L34.6023 27.7114Z" fill="white"/>
</g>
<defs>
<clipPath id="clip0_2496_193247">
<rect width="26" height="26" fill="white" transform="translate(11 11)"/>
</clipPath>
</defs>
</svg>
