<svg width="48" height="48" viewBox="0 0 48 48" fill="none" xmlns="http://www.w3.org/2000/svg">
<rect width="48" height="48" rx="24" fill="#1DBADF"/>
<path d="M24 12C24.8284 12 25.5 12.6716 25.5 13.5V15C25.5 15.8284 24.8284 16.5 24 16.5C23.1716 16.5 22.5 15.8284 22.5 15V13.5C22.5 12.6716 23.1716 12 24 12Z" fill="white"/>
<path d="M30 24C30 27.3137 27.3137 30 24 30C20.6863 30 18 27.3137 18 24C18 20.6863 20.6863 18 24 18C27.3137 18 30 20.6863 30 24Z" fill="white"/>
<path d="M29.3034 31.4246L30.364 32.4852C30.9498 33.071 31.8996 33.071 32.4854 32.4852C33.0711 31.8994 33.0711 30.9497 32.4854 30.3639L31.4247 29.3032C30.8389 28.7175 29.8892 28.7175 29.3034 29.3032C28.7176 29.889 28.7176 30.8388 29.3034 31.4246Z" fill="white"/>
<path d="M32.4852 15.5146C33.071 16.1004 33.071 17.0502 32.4852 17.636L31.4246 18.6966C30.8388 19.2824 29.889 19.2824 29.3032 18.6966C28.7175 18.1108 28.7175 17.1611 29.3032 16.5753L30.3639 15.5146C30.9497 14.9289 31.8994 14.9289 32.4852 15.5146Z" fill="white"/>
<path d="M34.5 25.5C35.3284 25.5 36 24.8284 36 24C36 23.1716 35.3284 22.5 34.5 22.5H33C32.1716 22.5 31.5 23.1716 31.5 24C31.5 24.8284 32.1716 25.5 33 25.5H34.5Z" fill="white"/>
<path d="M24 31.5C24.8284 31.5 25.5 32.1716 25.5 33V34.5C25.5 35.3284 24.8284 36 24 36C23.1716 36 22.5 35.3284 22.5 34.5V33C22.5 32.1716 23.1716 31.5 24 31.5Z" fill="white"/>
<path d="M16.5755 18.6966C17.1613 19.2824 18.111 19.2824 18.6968 18.6966C19.2826 18.1109 19.2826 17.1611 18.6968 16.5753L17.6361 15.5147C17.0503 14.9289 16.1006 14.9289 15.5148 15.5147C14.929 16.1005 14.929 17.0502 15.5148 17.636L16.5755 18.6966Z" fill="white"/>
<path d="M18.6966 31.4245L17.636 32.4852C17.0502 33.071 16.1005 33.071 15.5147 32.4852C14.9289 31.8994 14.9289 30.9497 15.5147 30.3639L16.5753 29.3032C17.1611 28.7174 18.1109 28.7174 18.6966 29.3032C19.2824 29.889 19.2824 30.8387 18.6966 31.4245Z" fill="white"/>
<path d="M15 25.5C15.8284 25.5 16.5 24.8284 16.5 24C16.5 23.1716 15.8284 22.5 15 22.5H13.5C12.6716 22.5 12 23.1716 12 24C12 24.8284 12.6716 25.5 13.5 25.5H15Z" fill="white"/>
</svg>
