<svg width="48" height="48" viewBox="0 0 48 48" fill="none" xmlns="http://www.w3.org/2000/svg">
<rect width="48" height="48" rx="24" fill="#1DBADF"/>
<g clip-path="url(#clip0_2496_193289)">
<path d="M32.7865 22.3029C32.3653 22.3029 31.9558 22.3534 31.5634 22.4481L29.4899 17.4718L31.2886 16.8722C31.7184 16.7289 31.9507 16.2644 31.8074 15.8346C31.6641 15.4049 31.1998 15.1724 30.7698 15.3158L28.0778 16.2155C27.6596 16.3898 27.4618 16.87 27.6361 17.2882L28.1515 18.5252L20.9616 20.3945L20.2231 18.6716H21.3641C21.8171 18.6716 22.1844 18.3043 22.1844 17.8513C22.1844 17.3983 21.8171 17.031 21.3641 17.031H17.8495C17.3964 17.031 17.0291 17.3983 17.0291 17.8513C17.0291 18.3043 17.3964 18.6716 17.8495 18.6716H18.4381L19.5303 21.2197L17.9404 23.0746C17.1466 22.5855 16.2125 22.3029 15.2136 22.3029C12.3388 22.3029 10 24.6416 10 27.5164C10 30.3911 12.3388 32.7299 15.2135 32.7299C17.8092 32.7299 19.9677 30.8231 20.3623 28.3367H23.1213C23.3833 28.3367 23.6297 28.2115 23.7841 27.9997L29.0754 20.7429L30.0495 23.0808C28.5643 24.0005 27.5728 25.6447 27.5728 27.5163C27.5728 30.3911 29.9116 32.7299 32.7863 32.7299C35.6611 32.7299 38 30.3911 38 27.5164C38 24.6416 35.6612 22.3029 32.7865 22.3029ZM15.2135 31.0893C13.2435 31.0893 11.6406 29.4865 11.6406 27.5164C11.6406 25.5463 13.2435 23.9435 15.2135 23.9435C15.8043 23.9435 16.3615 24.0885 16.8528 24.3434L14.5907 26.9826C14.3822 27.2258 14.3344 27.5682 14.4682 27.8592C14.6021 28.1503 14.8932 28.3368 15.2135 28.3368H18.6903C18.3185 29.9126 16.9013 31.0893 15.2135 31.0893ZM16.9971 26.6961L20.2506 22.9003L21.8773 26.6961H16.9971ZM23.3076 25.8686L21.6152 21.9197L27.2565 20.4529L23.3076 25.8686ZM32.7865 31.0893C30.8164 31.0893 29.2136 29.4865 29.2136 27.5164C29.2136 26.328 29.7974 25.2739 30.6926 24.624L32.0292 27.8319C32.2035 28.2501 32.6838 28.4479 33.1019 28.2736C33.5201 28.0994 33.7179 27.6191 33.5436 27.2009L32.2063 23.9913C32.3952 23.9603 32.5888 23.9435 32.7864 23.9435C34.7565 23.9435 36.3593 25.5463 36.3593 27.5164C36.3593 29.4864 34.7565 31.0893 32.7865 31.0893Z" fill="white"/>
</g>
<defs>
<clipPath id="clip0_2496_193289">
<rect width="28" height="28" fill="white" transform="translate(10 10)"/>
</clipPath>
</defs>
</svg>
