<svg width="48" height="48" viewBox="0 0 48 48" fill="none" xmlns="http://www.w3.org/2000/svg">
<rect width="48" height="48" rx="24" fill="#1DBADF"/>
<g clip-path="url(#clip0_2496_193374)">
<path d="M27.891 24.8904C29.0068 25.9946 30.5414 26.6765 32.2353 26.6765C32.5941 26.6765 32.9458 26.6458 33.288 26.5871C33.4064 26.9384 33.4706 27.3146 33.4706 27.7058C33.4706 29.6388 31.9035 31.2058 29.9706 31.2058C28.0376 31.2058 26.4706 29.6388 26.4706 27.7058C26.4706 26.5517 27.0293 25.528 27.891 24.8904ZM24.8273 27.5062C24.8248 27.5724 24.8235 27.639 24.8235 27.7059C24.8235 29.7853 26.0566 31.5766 27.8314 32.3887C27.2938 33.6309 26.0572 34.5 24.6176 34.5C22.6847 34.5 21.1176 32.933 21.1176 31C21.1176 29.067 22.6847 27.5 24.6176 27.5C24.688 27.5 24.758 27.5021 24.8273 27.5062ZM20.5165 27.8894C19.8602 28.7535 19.4706 29.8312 19.4706 31C19.4706 31.6819 19.6032 32.3328 19.844 32.9284C19.4231 33.1435 18.9463 33.2647 18.4412 33.2647C16.7356 33.2647 15.3529 31.8821 15.3529 30.1765C15.3529 28.4709 16.7356 27.0882 18.4412 27.0882C19.2401 27.0883 19.9682 27.3916 20.5165 27.8894ZM13.8408 29.0498C12.8114 28.7516 12.0588 27.8019 12.0588 26.6765C12.0588 25.312 13.1649 24.2059 14.5294 24.2059C15.5582 24.2059 16.4401 24.8347 16.8118 25.729C15.3438 26.267 14.2163 27.511 13.8408 29.0498ZM11.1076 24.3852C10.4494 24.0417 10 23.3527 10 22.5588C10 21.4218 10.9218 20.5 12.0588 20.5C13.1959 20.5 14.1176 21.4218 14.1176 22.5588C14.1176 22.5656 14.1176 22.5724 14.1175 22.5792C12.8633 22.7037 11.7746 23.3911 11.1076 24.3852ZM30.5883 16.2794C31.0987 16.08 31.6542 15.9706 32.2353 15.9706C32.8164 15.9706 33.3719 16.08 33.8824 16.2794V15.9706C33.8824 14.6062 34.9885 13.5001 36.353 13.5001H37.1765C37.6314 13.5001 38.0001 13.8688 38.0001 14.3236C38.0001 14.7784 37.6314 15.1471 37.1765 15.1471H36.353C35.8981 15.1471 35.5294 15.5158 35.5294 15.9707V17.3913C36.2953 18.2025 36.7647 19.2964 36.7647 20.5001C36.7647 23.0016 34.7369 25.0295 32.2353 25.0295C29.7338 25.0295 27.7059 23.0015 27.7059 20.5C27.7059 19.2964 28.1754 18.2024 28.9412 17.3912V15.9706C28.9412 15.5158 28.5725 15.1471 28.1176 15.1471H27.2941C26.8393 15.1471 26.4706 14.7784 26.4706 14.3235C26.4706 13.8687 26.8393 13.5 27.2941 13.5H28.1176C29.4821 13.5 30.5882 14.6061 30.5882 15.9706V16.2794H30.5883Z" fill="white"/>
</g>
<defs>
<clipPath id="clip0_2496_193374">
<rect width="28" height="28" fill="white" transform="translate(10 10)"/>
</clipPath>
</defs>
</svg>
