<svg width="48" height="48" viewBox="0 0 48 48" fill="none" xmlns="http://www.w3.org/2000/svg">
<rect width="48" height="48" rx="24" fill="#83BB26"/>
<path fill-rule="evenodd" clip-rule="evenodd" d="M24 34.4016C29.7438 34.4016 34.4 29.7453 34.4 24.0016C34.4 18.2578 29.7438 13.6016 24 13.6016C18.2562 13.6016 13.6 18.2578 13.6 24.0016C13.6 29.7453 18.2562 34.4016 24 34.4016ZM20.1 22.7016C20.818 22.7016 21.4 22.1195 21.4 21.4016C21.4 20.6836 20.818 20.1016 20.1 20.1016C19.382 20.1016 18.8 20.6836 18.8 21.4016C18.8 22.1195 19.382 22.7016 20.1 22.7016ZM29.2 21.4016C29.2 22.1195 28.618 22.7016 27.9 22.7016C27.182 22.7016 26.6 22.1195 26.6 21.4016C26.6 20.6836 27.182 20.1016 27.9 20.1016C28.618 20.1016 29.2 20.6836 29.2 21.4016ZM28.5962 28.5976C29.1039 28.09 29.1039 27.2668 28.5962 26.7592C28.0885 26.2515 27.2654 26.2515 26.7577 26.7592C25.2347 28.2822 22.7653 28.2822 21.2423 26.7592C20.7346 26.2515 19.9115 26.2515 19.4038 26.7592C18.8961 27.2668 18.8961 28.09 19.4038 28.5976C21.9422 31.136 26.0578 31.136 28.5962 28.5976Z" fill="white"/>
</svg>
