<svg width="48" height="48" viewBox="0 0 48 48" fill="none" xmlns="http://www.w3.org/2000/svg">
<rect width="48" height="48" rx="24" fill="#83BB26"/>
<path d="M35.8441 24.8758C35.6089 22.2691 34.4821 19.8233 32.6538 17.9506C32.445 17.7501 32.1668 17.6381 31.8773 17.6381C31.5878 17.6381 31.3096 17.7501 31.1008 17.9506C30.9033 18.1426 30.7859 18.4023 30.7722 18.6775C30.7585 18.9526 30.8496 19.2227 31.027 19.4333C31.4846 19.9778 31.8871 20.5663 32.2287 21.1901C33.0505 22.6525 33.391 24.3366 33.2018 26.0035C33.0126 27.6703 32.3034 29.2353 31.1746 30.4763C30.6937 30.9917 30.1522 31.4471 29.5619 31.8325V28.2171C29.5514 24.2679 25.9606 22.5955 25.813 22.5393C23.3957 21.4185 22.2081 18.6393 22.0816 18.3231C21.4949 14.9501 19.4992 13.8714 18.7754 13.5833C18.5119 12.7577 17.8338 11.8055 16.1473 11.7036C16.0812 11.7002 16.0154 11.7155 15.9576 11.7478C15.8998 11.7801 15.8523 11.8281 15.8206 11.8863C15.788 11.9445 15.7727 12.0108 15.7765 12.0773C15.7802 12.1439 15.8028 12.208 15.8416 12.2622C16.0503 12.5893 16.1579 12.9706 16.1508 13.3585C15.4762 13.5306 13.8284 14.1279 13.6246 15.8882C13.6246 15.9093 13.586 16.4047 12.8024 16.8755C12.6634 16.9371 12.5383 17.0261 12.4344 17.1372C12.3306 17.2483 12.2502 17.3791 12.1981 17.522C12.04 17.9541 12.1419 18.4812 12.5214 19.1066C12.567 19.1698 13.5754 20.5612 15.297 20.3433C15.29 20.714 15.2097 21.0796 15.0607 21.4191C14.9118 21.7586 14.6972 22.0652 14.4292 22.3214C14.4019 22.3505 14.3793 22.3837 14.3624 22.4198C14.0377 23.3014 13.9185 24.2456 14.0141 25.1803C14.1097 26.1149 14.4175 27.0154 14.9141 27.8131C14.9315 27.8436 14.9541 27.871 14.9808 27.8939C15.0019 27.9114 16.857 29.5522 16.316 31.2247L15.6765 33.0833C15.6569 33.1428 15.6248 33.1974 15.5824 33.2434C15.54 33.2895 15.4882 33.326 15.4306 33.3504L14.4678 33.7579C14.1976 33.8748 13.9759 34.0811 13.8398 34.3422C13.7037 34.6032 13.6616 34.9032 13.7205 35.1916C13.7794 35.4801 13.9358 35.7395 14.1634 35.9263C14.391 36.1131 14.6759 36.2158 14.9703 36.2174H16.7903C17.0341 36.2165 17.272 36.1418 17.4727 36.0033C17.6734 35.8647 17.8274 35.6686 17.9146 35.4409L19.2006 32.0187C19.6098 32.6563 20.1907 33.1654 20.8765 33.4874L20.2897 33.5612C20.1097 33.5835 19.936 33.6417 19.779 33.7325C19.6219 33.8233 19.4847 33.9448 19.3756 34.0897C19.2664 34.2345 19.1875 34.3999 19.1436 34.5759C19.0996 34.7519 19.0915 34.9349 19.1197 35.1141C19.1753 35.4362 19.343 35.7281 19.5931 35.9384C19.8433 36.1487 20.1597 36.2637 20.4865 36.2631H25.8692C26.1222 36.2877 26.3646 36.2982 26.5719 36.2982C27.324 36.3133 28.072 36.1833 28.7749 35.9152C30.3935 35.2796 31.817 34.2304 32.9033 32.8725C33.7615 31.8301 34.471 30.6737 35.0114 29.4363C35.6537 28.0058 35.9394 26.4409 35.8441 24.8758ZM15.817 16.5206H15.543C15.4147 16.51 15.2951 16.4515 15.208 16.3568C15.1208 16.2621 15.0724 16.1381 15.0724 16.0094C15.0724 15.8807 15.1208 15.7567 15.208 15.662C15.2951 15.5673 15.4147 15.5088 15.543 15.4982H15.817C15.8877 15.4923 15.9589 15.5012 16.026 15.5242C16.0931 15.5472 16.1547 15.5839 16.2069 15.632C16.2591 15.68 16.3007 15.7384 16.3292 15.8033C16.3577 15.8683 16.3724 15.9385 16.3724 16.0094C16.3724 16.0804 16.3577 16.1505 16.3292 16.2155C16.3007 16.2804 16.2591 16.3388 16.2069 16.3868C16.1547 16.4349 16.0931 16.4716 16.026 16.4946C15.9589 16.5176 15.8877 16.5265 15.817 16.5206Z" fill="white"/>
</svg>
