<svg width="48" height="48" viewBox="0 0 48 48" fill="none" xmlns="http://www.w3.org/2000/svg">
<rect width="48" height="48" rx="24" fill="#1DBADF"/>
<path fill-rule="evenodd" clip-rule="evenodd" d="M24 34.4016C29.7438 34.4016 34.4 29.7453 34.4 24.0016C34.4 18.2578 29.7438 13.6016 24 13.6016C18.2562 13.6016 13.6 18.2578 13.6 24.0016C13.6 29.7453 18.2562 34.4016 24 34.4016ZM20.1 22.7016C20.818 22.7016 21.4 22.1195 21.4 21.4016C21.4 20.6836 20.818 20.1016 20.1 20.1016C19.382 20.1016 18.8 20.6836 18.8 21.4016C18.8 22.1195 19.382 22.7016 20.1 22.7016ZM29.2 21.4016C29.2 22.1195 28.618 22.7016 27.9 22.7016C27.182 22.7016 26.6 22.1195 26.6 21.4016C26.6 20.6836 27.182 20.1016 27.9 20.1016C28.618 20.1016 29.2 20.6836 29.2 21.4016ZM19.4038 29.0436C19.9115 29.5512 20.7346 29.5512 21.2423 29.0436C22.7653 27.5205 25.2347 27.5205 26.7577 29.0436C27.2654 29.5512 28.0885 29.5512 28.5962 29.0436C29.1039 28.5359 29.1039 27.7128 28.5962 27.2051C26.0578 24.6667 21.9422 24.6667 19.4038 27.2051C18.8961 27.7128 18.8961 28.5359 19.4038 29.0436Z" fill="white"/>
</svg>
