<svg width="48" height="48" viewBox="0 0 48 48" fill="none" xmlns="http://www.w3.org/2000/svg">
<rect width="48" height="48" rx="24" fill="#1D67D5"/>
<path d="M34.4 14.9016C34.4 14.5121 34.2254 14.1431 33.9242 13.8962C33.623 13.6493 33.227 13.5504 32.8451 13.6268L19.8451 16.2268C19.2374 16.3483 18.8 16.8819 18.8 17.5016V29.3495C18.3934 29.2537 17.9558 29.2016 17.5 29.2016C15.3461 29.2016 13.6 30.3656 13.6 31.8016C13.6 33.2375 15.3461 34.4016 17.5 34.4016C19.6539 34.4016 21.4 33.2375 21.4 31.8016V21.1673L31.8 19.0873V26.7495C31.3934 26.6537 30.9558 26.6016 30.5 26.6016C28.3461 26.6016 26.6 27.7656 26.6 29.2016C26.6 30.6375 28.3461 31.8016 30.5 31.8016C32.6539 31.8016 34.4 30.6375 34.4 29.2016V14.9016Z" fill="white"/>
</svg>
