<svg width="48" height="48" viewBox="0 0 48 48" fill="none" xmlns="http://www.w3.org/2000/svg">
<rect width="48" height="48" rx="24" fill="#FF2180"/>
<g clip-path="url(#clip0_2496_193362)">
<path d="M33.1924 14.8076C30.737 12.3523 27.4724 11 24 11C20.5276 11 17.263 12.3523 14.8076 14.8076C12.3522 17.263 11 20.5276 11 24C11 27.4725 12.3522 30.737 14.8076 33.1924C17.263 35.6477 20.5276 37 24 37C27.4724 37 30.737 35.6477 33.1924 33.1924C35.6477 30.737 37 27.4725 37 24C37 20.5276 35.6478 17.263 33.1924 14.8076ZM24.7617 15.4133L27.8325 13.1823C30.129 13.9984 32.091 15.526 33.4523 17.4989L32.3407 20.9199L28.4233 22.1927L24.7617 19.5326V15.4133ZM20.1675 13.1823L23.2383 15.4133V19.5327L19.5772 22.1925L15.6595 20.9196L14.5479 17.4987C15.9091 15.5259 17.871 13.9984 20.1675 13.1823ZM15.1331 31.2782C13.5629 29.3687 12.5961 26.9452 12.5274 24.302L15.1888 22.3684L19.1062 23.6413L20.5048 27.9458L18.0836 31.2782H15.1331ZM27.8239 34.8207C26.6272 35.2449 25.3403 35.4766 24 35.4766C22.6598 35.4766 21.3728 35.2449 20.1762 34.8207L19.316 32.1736L21.7371 28.8413L26.2629 28.8411L28.6841 32.1735L27.8239 34.8207ZM32.867 31.2781H29.9165L27.4954 27.9457L28.8939 23.6416L32.8115 22.3688L35.4725 24.3022C35.4039 26.9453 34.4371 29.3686 32.867 31.2781Z" fill="white"/>
</g>
<defs>
<clipPath id="clip0_2496_193362">
<rect width="26" height="26" fill="white" transform="translate(11 11)"/>
</clipPath>
</defs>
</svg>
