<svg width="48" height="48" viewBox="0 0 48 48" fill="none" xmlns="http://www.w3.org/2000/svg">
<rect width="48" height="48" rx="24" fill="#83BB26"/>
<path d="M35.494 15.2966C35.0324 15.2453 34.5365 15.2624 34.0749 15.3137C31.7837 15.5528 29.8688 16.6119 28.2103 18.1322C27.1502 19.1059 26.1927 20.2163 25.1839 21.2583C24.5855 21.0191 24.3461 20.6433 24.4487 20.148C25.2865 18.5593 26.7056 16.4411 27.4408 16.3215C27.6631 16.2873 27.817 16.0824 27.7828 15.8603C27.7486 15.6382 27.5434 15.4845 27.3212 15.5186C26.1585 15.6895 24.7052 18.0297 23.987 19.2938C23.8332 19.0205 23.6451 18.696 23.4399 18.3714C23.4399 18.3543 23.4228 18.3372 23.4228 18.3201C22.6363 17.0902 21.5591 15.6553 20.6529 15.5186C20.4306 15.4845 20.2255 15.6382 20.1913 15.8603C20.1571 16.0824 20.311 16.2873 20.5332 16.3215C21.2684 16.424 22.7047 18.5935 23.5425 20.1821C23.628 20.6946 23.3715 21.0704 22.6876 21.2754C22.3456 20.8483 22.0037 20.4213 21.6617 20.0113C20.0203 18.1152 18.1737 16.4411 15.7116 15.7407C14.566 15.4161 13.3179 15.4161 12.121 15.4161C11.4029 15.4161 10.8728 15.9628 11.0267 16.7315C11.3174 18.2176 11.6764 19.7038 12.121 21.1558C12.4117 22.1124 13.2153 22.5907 14.1899 22.7615C14.5489 22.8128 14.908 22.8811 15.3696 22.9665C15.0106 23.3082 14.7028 23.5644 14.4292 23.8548C12.8733 25.4435 12.5997 27.6471 13.7795 29.4407C15.0277 31.3369 16.7717 32.4302 19.0628 32.6693C20.3281 32.806 21.2513 32.396 21.8669 31.3027C22.1575 30.7902 22.4653 30.2778 22.8073 29.7141C23.0124 30.329 23.1321 30.8586 23.3886 31.3198C23.7648 32.0373 24.2948 32.0373 24.671 31.3369C24.9103 30.8757 25.03 30.329 25.2694 29.6457C25.4404 29.9874 25.543 30.1582 25.6284 30.3461C26.9108 32.601 27.3041 33.2672 30.5869 32.3106C34.1262 31.2686 37.2722 26.588 32.7925 23.0861C32.7754 23.069 32.7754 23.0178 32.7754 22.9836C32.7925 22.9665 32.8267 22.9324 32.8438 22.9153C33.0148 22.8811 33.1687 22.847 33.3397 22.8299C34.8956 22.7274 35.836 21.8733 36.2292 20.4042C36.5028 19.3622 36.7422 18.3031 36.9474 17.2269C37.1525 15.9628 36.7764 15.4503 35.494 15.2966Z" fill="white"/>
</svg>
