<svg width="48" height="48" viewBox="0 0 48 48" fill="none" xmlns="http://www.w3.org/2000/svg">
<rect width="48" height="48" rx="24" fill="#1D67D5"/>
<path fill-rule="evenodd" clip-rule="evenodd" d="M13.2752 15.25H27.6765C28.0826 15.25 28.4118 15.5792 28.4118 15.9853V17.4559H32.6016C33.0613 17.4559 33.4653 17.7606 33.5915 18.2025L34.8519 22.614C34.9998 22.64 35.1373 22.7107 35.2448 22.8182L36.2846 23.8581C36.4225 23.996 36.5 24.1831 36.5 24.3781V29.2206C36.5 29.6266 36.1707 29.9559 35.7648 29.9559H33.5589C33.5589 31.5802 32.242 32.897 30.6176 32.897C28.9932 32.897 27.6765 31.5802 27.6765 29.9559H20.3235C20.3235 31.5802 19.0067 32.897 17.3823 32.897C15.758 32.897 14.4412 31.5802 14.4412 29.9559H12.2353C11.8292 29.9559 11.5 29.6266 11.5 29.2206V17.0252C11.5 16.8301 11.5775 16.6431 11.7154 16.5052L12.7552 15.4654C12.8931 15.3275 13.0802 15.25 13.2752 15.25ZM33.3194 22.603L32.2689 18.9265H28.4118V21.8676C28.4118 22.2737 28.741 22.603 29.147 22.603H33.3194ZM30.6176 28.4852C31.4299 28.4852 32.0882 29.1438 32.0882 29.9559C32.0882 30.7681 31.4299 31.4265 30.6176 31.4265C29.8055 31.4265 29.147 30.7681 29.147 29.9559C29.147 29.1438 29.8055 28.4852 30.6176 28.4852ZM15.9118 29.9559C15.9118 30.7681 16.5702 31.4265 17.3823 31.4265C18.1945 31.4265 18.8529 30.7681 18.8529 29.9559C18.8529 29.1438 18.1945 28.4852 17.3823 28.4852C16.5702 28.4852 15.9118 29.1438 15.9118 29.9559Z" fill="white"/>
</svg>
