<svg width="48" height="48" viewBox="0 0 48 48" fill="none" xmlns="http://www.w3.org/2000/svg">
<rect width="48" height="48" rx="24" fill="#FF2180"/>
<path d="M34.5 13.5V15.8333C34.5 27.0648 28.2315 32.1667 20.5 32.1667H18.281C18.5283 28.6527 19.6227 26.5258 22.4787 23.9988C23.8833 22.7563 23.7643 22.0388 23.0725 22.4507C18.3078 25.2857 15.9418 29.117 15.8368 35.235L15.8333 35.6667H13.5C13.5 34.0765 13.6353 32.6333 13.9037 31.3127C13.6353 29.803 13.5 27.7543 13.5 25.1667C13.5 18.7232 18.7232 13.5 25.1667 13.5C27.5 13.5 29.8333 14.6667 34.5 13.5Z" fill="white"/>
</svg>
