<svg width="48" height="48" viewBox="0 0 48 48" fill="none" xmlns="http://www.w3.org/2000/svg">
<rect width="48" height="48" rx="24" fill="#FFD525"/>
<path d="M24 20.3334C24 16.2835 22.1514 13 19.875 13C17.5977 13 15.75 16.2835 15.75 20.3334C15.75 22.0959 16.861 23.5892 18.4158 24.179L18.0416 33.1666C18.0416 34.1791 18.8624 35 19.875 35C20.8876 35 21.7084 34.1791 21.7084 33.1666L21.3342 24.1798C22.8901 23.5892 24 22.0959 24 20.3334Z" fill="white"/>
<path d="M32.25 19.6459L32.0209 13H30.875L30.6459 19.6459H29.7291L29.5 13H28.125L27.8959 19.6459H26.9791L26.75 13H25.6041L25.375 19.6459C25.375 21.044 26.2129 22.2417 27.4125 22.779L26.9791 33.1666C26.9791 34.1791 27.7999 35 28.8125 35C29.8251 35 30.6459 34.1791 30.6459 33.1666L30.2125 22.779C31.4121 22.2417 32.25 21.044 32.25 19.6459Z" fill="white"/>
</svg>
