<svg width="16" height="16" viewBox="0 0 16 16" fill="none" xmlns="http://www.w3.org/2000/svg">
<path d="M12.7179 3.28528C11.3299 1.89661 9.4366 1.19595 7.4486 1.35595C4.77593 1.57061 2.43326 3.42928 1.64926 5.99328C1.08926 7.82528 1.3246 9.73795 2.2366 11.3179L1.3726 14.1866C1.28993 14.4619 1.54126 14.7213 1.81926 14.6473L4.82193 13.8426C5.7946 14.3733 6.88926 14.6526 8.00393 14.6533H8.0066C10.8033 14.6533 13.3873 12.9426 14.2813 10.2926C15.1519 7.70861 14.5079 5.07728 12.7179 3.28528ZM11.2653 10.3693C11.1266 10.7579 10.4473 11.1326 10.1419 11.1599C9.8366 11.1879 9.5506 11.2979 8.14526 10.7439C6.45393 10.0773 5.38593 8.34328 5.30326 8.23261C5.21993 8.12128 4.62393 7.33061 4.62393 6.51194C4.62393 5.69328 5.05393 5.29061 5.2066 5.12461C5.35926 4.95794 5.53926 4.91661 5.6506 4.91661C5.76126 4.91661 5.8726 4.91661 5.96926 4.92061C6.08793 4.92528 6.21926 4.93128 6.34393 5.20794C6.49193 5.53728 6.81526 6.35995 6.8566 6.44328C6.89793 6.52661 6.92593 6.62395 6.8706 6.73461C6.81526 6.84528 6.78726 6.91461 6.7046 7.01195C6.62126 7.10928 6.52993 7.22861 6.45526 7.30328C6.37193 7.38595 6.28526 7.47661 6.38193 7.64261C6.47926 7.80928 6.8126 8.35395 7.30726 8.79461C7.94326 9.36128 8.4786 9.53661 8.64526 9.62061C8.81193 9.70395 8.9086 9.68995 9.00593 9.57861C9.10326 9.46795 9.42193 9.09328 9.5326 8.92661C9.64326 8.75995 9.7546 8.78795 9.90726 8.84328C10.0599 8.89861 10.8779 9.30128 11.0439 9.38461C11.2106 9.46795 11.3213 9.50928 11.3626 9.57861C11.4039 9.64728 11.4039 9.98061 11.2653 10.3693Z" fill="#583F99"/>
</svg>
