<svg width="62" height="62" viewBox="0 0 62 62" fill="none" xmlns="http://www.w3.org/2000/svg">
<path fill-rule="evenodd" clip-rule="evenodd" d="M14.7666 2.51828V5.03656L16.2335 6.50316L17.7004 7.96977V5.43537V2.90113H31.1577C38.5592 2.90113 45.0586 2.89136 45.601 2.87958L46.5869 2.85788L45.1581 1.42894L43.7295 0H29.2481H14.7666V2.51828ZM59.1204 16.399C59.1086 16.9413 59.0988 23.4407 59.0988 30.8423V44.2995H56.5646H54.0302L55.4968 45.7664L56.9634 47.2333H59.4817H61.9999V32.7519V18.2704L60.571 16.8418L59.1421 15.413L59.1204 16.399Z" fill="white"/>
<path fill-rule="evenodd" clip-rule="evenodd" d="M25.9819 16.5318C24.0312 16.9411 22.9023 18.7371 23.3388 20.7371C23.9016 23.3158 27.1202 24.2258 29.7205 22.5416L30.0218 22.3463L30.0219 20.8713L30.0221 19.3962H28.6042H27.1861V20.1786V20.9609H27.7239H28.2618V21.1377V21.3146L28.0865 21.4005C26.9347 21.9639 25.5733 21.4426 25.3131 20.3386C24.9054 18.6089 26.9086 17.4982 28.2222 18.7255L28.4289 18.9186L28.5511 18.7907C28.6183 18.7204 28.8917 18.4387 29.1586 18.165L29.6439 17.6671L29.4337 17.4546C28.6223 16.6347 27.2454 16.2666 25.9819 16.5318ZM39.3199 16.5113C37.5634 16.8297 36.4921 18.1148 36.4936 19.9015C36.4953 21.9912 37.9213 23.3736 40.0744 23.373C42.2525 23.3722 43.6652 22.0053 43.6617 19.9015C43.6579 17.5865 41.723 16.0758 39.3199 16.5113ZM30.9674 19.9015V23.2426H31.9291H32.8907V22.0691V20.8956H33.0475H33.2045L33.7596 22.0611L34.3147 23.2264L35.3792 23.235C35.9646 23.2397 36.4437 23.2384 36.4437 23.2322C36.4437 23.2259 36.1066 22.6016 35.6948 21.8445L34.9458 20.4683L35.1566 20.271C35.9759 19.5047 36.024 17.9647 35.2527 17.1936C34.7256 16.6663 34.2232 16.5617 32.2143 16.5609L30.9674 16.5603V19.9015ZM43.8521 16.6012C43.8608 16.6238 44.2444 18.1018 44.7047 19.8855C45.1649 21.6692 45.5492 23.1544 45.5586 23.1861C45.5744 23.2397 45.6485 23.2429 46.6725 23.235L47.7694 23.2264L48.2307 21.3684C48.6551 19.6592 48.6946 19.5199 48.7254 19.6301C48.7439 19.6959 48.9531 20.536 49.1906 21.4967L49.6223 23.2436L50.7148 23.235L51.8074 23.2264L52.6649 19.934C53.1366 18.1233 53.523 16.6234 53.5236 16.6011C53.5248 16.5553 51.4723 16.5391 51.4694 16.5848C51.4686 16.5981 51.2732 17.5772 51.0352 18.7605L50.6026 20.9121L50.4173 20.1459C50.3154 19.7246 50.08 18.7492 49.8941 17.9782L49.5564 16.5766L48.6946 16.5679L47.8328 16.5592L47.3148 18.712C47.0299 19.896 46.7872 20.846 46.7754 20.8231C46.7638 20.8003 46.565 19.8319 46.3339 18.6709L45.9139 16.5603H44.8751C44.0539 16.5603 43.8395 16.5688 43.8521 16.6012ZM33.5589 18.2737C34.1283 18.5663 33.8169 19.3283 33.1269 19.3303L32.8907 19.3311V18.7573V18.1834L33.1596 18.1951C33.349 18.2031 33.467 18.2264 33.5589 18.2737ZM40.5205 18.2752C42.244 18.7865 41.9767 21.4967 40.1924 21.6041C39.1965 21.6643 38.4882 20.9547 38.4927 19.9016C38.4976 18.7514 39.4774 17.9657 40.5205 18.2752ZM26.3223 24.8103C24.1343 25.0749 22.8044 27.0652 23.3732 29.2242C24.0245 31.6969 27.2177 32.5274 29.7206 30.8751L30.0221 30.6761V29.1923V27.7085H28.6042H27.1861V28.5072V29.3057H27.7256H28.2652L28.2554 29.4769L28.2455 29.648L28.0336 29.7534C26.9091 30.3125 25.5299 29.7449 25.2986 28.6278C24.948 26.9344 26.9288 25.8486 28.1929 27.0412L28.4127 27.2486L29.0273 26.6332L29.642 26.0179L29.5552 25.9041C28.9833 25.1541 27.5339 24.6638 26.3223 24.8103ZM30.9674 28.2463V31.5875H31.9291H32.8907V30.4142V29.2407H33.0483H33.2061L33.7633 30.4059L34.3204 31.5712L35.3857 31.5799C36.2339 31.5867 36.4478 31.5801 36.4346 31.5474C36.4256 31.5246 36.0877 30.9001 35.6838 30.1595L34.9494 28.813L35.1864 28.5786C36.1204 27.6549 35.9621 25.8454 34.8953 25.251C34.3684 24.9574 33.9744 24.9053 32.2794 24.9053L30.9674 24.9052V28.2463ZM37.0957 28.2463V31.5875H39.0026H40.9096V30.7401V29.8926H39.9642H39.0189V29.4688V29.045H39.7849H40.5509V28.2138V27.3825H39.7849H39.0189V26.9913V26.6002H39.9317H40.8443V25.7527V24.9052H38.9701H37.0957V28.2463ZM43.6816 25.0107C43.6607 25.0691 43.1614 26.5105 42.5721 28.2138C41.9828 29.9169 41.4783 31.3728 41.451 31.4491L41.4014 31.5875H42.3753H43.3491L43.3987 31.4328C43.426 31.3476 43.5161 31.0613 43.5987 30.7967L43.7492 30.3153L44.7323 30.3239L45.7155 30.3326L45.9103 30.9601L46.105 31.5875H47.0789C47.9918 31.5875 48.0515 31.5839 48.0338 31.5305C48.0234 31.4992 47.5047 29.9992 46.8811 28.1975L45.7474 24.9214L44.7336 24.9129L43.7196 24.9042L43.6816 25.0107ZM47.755 25.7527V26.6002H48.4395H49.1241V29.0939V31.5875H50.0857H51.0473V29.0939V26.6002H51.7318H52.4163V25.7527V24.9052H50.0857H47.755V25.7527ZM33.5294 26.5971C34.1485 26.8783 33.827 27.6752 33.0943 27.6758L32.8907 27.6759V27.1055V26.535L33.1433 26.5358C33.3188 26.5362 33.4367 26.555 33.5294 26.5971ZM44.9964 27.879C45.1332 28.3581 45.2449 28.7578 45.2449 28.7671C45.2449 28.7766 45.0093 28.7842 44.7212 28.7842C44.2373 28.7842 44.1988 28.7798 44.2153 28.7271C44.2252 28.6958 44.3368 28.3108 44.4632 27.8715C44.7233 26.969 44.7207 26.9773 44.7365 26.9949C44.7429 27.0018 44.8599 27.3997 44.9964 27.879ZM28.4248 51.0232C28.2168 51.1188 27.9964 51.1732 27.6601 51.2122C27.3635 51.2464 27.318 51.2706 27.317 51.3944C27.3166 51.4536 27.3398 51.4657 27.4798 51.4792C27.8778 51.5175 27.8963 51.3898 27.0723 54.2796C26.687 55.6307 26.3715 56.7619 26.3714 56.7934C26.3712 56.8579 26.9998 56.8819 27.0388 56.8188C27.0495 56.8016 27.1306 56.5381 27.2189 56.2334C27.7131 54.5305 28.4041 53.3124 28.9321 53.2132C29.2666 53.1506 29.2536 53.2738 28.7629 54.8199C28.1652 56.7029 28.1762 56.9304 28.8649 56.9301C29.3311 56.9298 29.554 56.7109 29.7929 56.0184C29.9511 55.5594 29.95 55.5791 29.8161 55.5791C29.713 55.5791 29.7053 55.5878 29.6496 55.7665C29.4622 56.3682 29.1372 56.7593 29.0148 56.5305C28.9692 56.4451 29.001 56.3271 29.4258 55.0087C29.9237 53.4629 29.9434 53.1785 29.5675 52.9584C29.1051 52.6877 28.4022 53.0652 27.9803 53.8107C27.842 54.0552 27.8275 54.0628 27.887 53.8596C28.0361 53.3513 28.6855 51.0127 28.6855 50.9843C28.6855 50.9333 28.589 50.9477 28.4248 51.0232ZM46.2354 51.2391C45.9658 51.365 45.8187 51.726 45.9288 51.9916C46.0666 52.3243 46.5956 52.2542 46.7771 51.8793C46.9874 51.4448 46.6497 51.0457 46.2354 51.2391ZM24.3175 51.5355C22.5505 51.9853 21.2361 54.6045 21.9939 56.1655C22.4034 57.009 23.6598 57.2002 24.6614 56.5714C24.9891 56.3657 24.9829 56.3645 24.9846 56.6319L24.9858 56.8341L25.0891 56.8441C25.1908 56.854 25.1929 56.8512 25.2295 56.6649C25.25 56.5607 25.3458 56.1528 25.4425 55.7584C25.6234 55.021 25.6252 54.9797 25.4774 54.998C25.4009 55.0073 25.3729 55.0495 25.245 55.3468C24.8153 56.3457 24.0087 56.892 23.2671 56.686C22.0948 56.3603 22.5148 53.4094 23.9163 52.1253C24.8468 51.2728 25.8751 51.6815 25.86 52.8979L25.8548 53.3299H25.9594H26.064L26.1694 52.8601C26.2274 52.6019 26.3255 52.2314 26.3875 52.0371C26.5289 51.5944 26.5296 51.5696 26.4033 51.5696C26.3162 51.5696 26.2967 51.589 26.2294 51.7409C26.1043 52.0231 26.0746 52.0307 25.8656 51.8329C25.5003 51.4874 24.9339 51.3786 24.3175 51.5355ZM42.4904 51.8149C42.4008 51.8379 42.2647 51.8582 42.188 51.8599C42.0863 51.8622 42.0429 51.8785 42.0282 51.92C41.7884 52.6003 41.3357 53.3381 40.8253 53.8808C40.6923 54.022 40.5836 54.1584 40.5836 54.1836C40.5836 54.2396 40.6478 54.3078 40.7005 54.3078C40.76 54.3078 41.3178 53.6708 41.5057 53.3883C41.5978 53.2501 41.6757 53.1402 41.6793 53.1439C41.6905 53.1558 40.521 57.4817 40.4691 57.6197C40.399 57.8063 40.2905 57.8978 40.1157 57.9174C39.9734 57.9336 39.9337 57.9745 39.932 58.1075C39.9314 58.1574 41.6993 58.1589 41.7322 58.109C41.8078 57.9943 41.7599 57.9356 41.5753 57.9165C41.1208 57.8695 41.101 57.7497 41.3868 56.781L41.4313 56.63L41.5542 56.7529C41.7987 56.9975 42.1886 57.0071 42.656 56.7802C43.8941 56.1791 44.6161 53.449 43.6653 52.9636C43.2273 52.7401 42.7096 53.0047 42.3236 53.6494C42.241 53.7873 42.1803 53.8783 42.1888 53.8515C42.2593 53.63 42.735 51.8583 42.735 51.8176C42.735 51.7576 42.7141 51.7574 42.4904 51.8149ZM32.4756 52.908C31.555 53.089 30.5437 54.7085 30.5437 56.0013C30.5437 57.1975 31.6474 57.2734 32.3201 56.1235C32.4742 55.8601 32.4791 55.8624 32.4151 56.1681C32.2778 56.8244 32.7171 57.1623 33.2599 56.818C33.5076 56.6609 33.9868 55.6844 33.8723 55.5698C33.7742 55.4717 33.6898 55.5616 33.5734 55.8888C33.3729 56.4527 33.1726 56.6956 33.0275 56.5505C32.9548 56.4778 32.9875 56.329 33.4459 54.6423C33.6976 53.7166 33.8968 52.9418 33.8886 52.9204C33.8772 52.891 33.8324 52.8925 33.701 52.9266C33.606 52.9511 33.46 52.9714 33.3764 52.9714C33.2123 52.9714 33.1729 53.0005 33.1373 53.1492L33.1142 53.2456L33.063 53.14C32.9658 52.9393 32.7499 52.8541 32.4756 52.908ZM35.4891 52.9184C35.1583 53.0105 34.9782 53.2354 34.7838 53.7993C34.624 54.2627 34.6251 54.2425 34.7586 54.2425C34.8635 54.2425 34.8682 54.2367 34.9419 54.0063C35.1179 53.4573 35.3798 53.1266 35.5244 53.2712C35.5925 53.3392 35.5729 53.429 35.1236 55.1059C34.8815 56.0091 34.6834 56.7711 34.6834 56.7993C34.6834 56.8424 34.735 56.8504 35.0101 56.8504C35.3888 56.8504 35.3556 56.8811 35.4669 56.4266C35.92 54.5783 36.9394 52.8221 37.3006 53.2681C37.3872 53.3752 37.3852 53.3843 36.8659 55.1665C36.6158 56.025 36.4112 56.7551 36.4112 56.7889C36.4112 56.8655 37.087 56.8854 37.1102 56.8097C37.7866 54.6006 38.4434 53.313 38.945 53.2127C39.2016 53.1613 39.1816 53.2856 38.6766 54.8836C38.2898 56.1078 38.2244 56.375 38.2665 56.5618C38.3877 57.099 39.1995 57.0652 39.5253 56.5093C39.5873 56.4034 39.8664 55.6503 39.8664 55.5887C39.8664 55.5835 39.8162 55.5791 39.755 55.5791C39.6463 55.5791 39.6418 55.5845 39.5712 55.7991C39.3763 56.3913 39.1182 56.7086 38.9601 56.5505C38.8906 56.4809 38.9155 56.3808 39.3094 55.1481C39.8932 53.3209 39.9013 53.0272 39.3712 52.9083C38.8495 52.7914 38.4011 53.1235 37.9544 53.9574C37.8558 54.1412 37.784 54.2548 37.7947 54.21C38.0444 53.1628 37.8877 52.7868 37.2513 52.9075C36.8177 52.9897 36.4963 53.3037 36.1343 53.9981C36.0503 54.1595 35.9897 54.2622 35.9998 54.2263C36.2988 53.16 36.1343 52.7391 35.4891 52.9184ZM45.7119 52.9069C45.3286 52.9846 45.1406 53.2016 44.9197 53.8208C44.7621 54.2629 44.7632 54.2425 44.8954 54.2425C45 54.2425 45.0045 54.2365 45.108 53.9574C45.3156 53.3973 45.5628 53.1084 45.6881 53.2797C45.7589 53.3766 45.7614 53.3676 45.2806 54.7925C44.6658 56.6145 44.657 56.8527 45.2012 56.9344C45.7009 57.0093 46.038 56.7208 46.2916 56.0009C46.4446 55.5664 46.444 55.5791 46.3122 55.5791C46.2104 55.5791 46.2028 55.5883 46.1287 55.7991C45.9209 56.3904 45.6645 56.7027 45.5123 56.5505C45.4374 56.4756 45.4757 56.3326 45.9161 55.0386C46.3992 53.6188 46.4514 53.3857 46.3436 53.1283C46.264 52.9387 46.0043 52.8476 45.7119 52.9069ZM48.9448 52.9096C47.6398 53.0973 46.5892 55.6045 47.3808 56.6424C47.6474 56.9919 48.3779 57.0361 48.8837 56.7331C50.0928 56.0086 50.6515 53.559 49.7301 53.0205C49.6237 52.9582 49.2315 52.8606 49.1566 52.8778C49.1477 52.8798 49.0523 52.8942 48.9448 52.9096ZM51.7671 52.9082C51.4266 52.9767 51.2237 53.2261 51.0166 53.8306C50.9438 54.0432 50.8843 54.223 50.8843 54.23C50.8843 54.237 50.9337 54.2425 50.994 54.2425C51.1013 54.2425 51.1058 54.2371 51.1946 53.9901C51.3792 53.477 51.5438 53.2321 51.7044 53.2321C51.8702 53.2321 51.8584 53.2997 51.3779 55.0933C51.1262 56.0328 50.9318 56.8131 50.946 56.8272C50.9601 56.8413 51.116 56.8487 51.2927 56.8434L51.6139 56.8341L51.6572 56.6548C52.1174 54.7589 53.0687 53.078 53.6053 53.2127C53.8167 53.2657 53.8076 53.3166 53.3071 54.8931C52.8955 56.1889 52.8404 56.4319 52.9103 56.6373C53.065 57.0919 53.8212 57.0273 54.1388 56.5325C54.2456 56.3662 54.5119 55.6318 54.4778 55.5979C54.3818 55.5018 54.2808 55.585 54.1934 55.8318C53.977 56.442 53.7394 56.721 53.5896 56.5404C53.5279 56.466 53.5538 56.3645 53.9489 55.1321C54.5021 53.4073 54.5232 53.1448 54.1236 52.9553C53.5611 52.6884 52.9292 53.0839 52.3944 54.0378C52.296 54.2131 52.2236 54.3273 52.2335 54.2915C52.5446 53.1625 52.4149 52.778 51.7671 52.9082ZM56.5845 52.906C55.6299 53.0714 55.3999 53.9657 56.0574 54.9559C56.4991 55.621 56.5944 56.0435 56.3837 56.4022C56.2459 56.6365 55.9183 56.7692 55.6609 56.695L55.5642 56.667L55.5739 56.3873C55.5952 55.7694 54.993 55.5165 54.935 56.1191C54.8391 57.1179 56.5856 57.2502 57.0424 56.2786C57.2836 55.7654 57.1782 55.3058 56.6248 54.4572C56.3124 53.978 56.2541 53.6957 56.4067 53.4004C56.5236 53.1744 56.8553 53.0415 57.0825 53.1293L57.1687 53.1627L57.0906 53.3171C56.919 53.6562 57.037 53.9818 57.3316 53.9818C57.7639 53.9818 57.8382 53.318 57.4366 53.0446C57.2534 52.9199 56.8671 52.8572 56.5845 52.906ZM32.745 53.1407C33.2011 53.3485 32.8603 54.8853 32.109 56.0078C31.531 56.8713 31.1601 56.7804 31.2599 55.7997C31.4017 54.4058 32.2373 52.9094 32.745 53.1407ZM49.3908 53.2327C49.8066 53.7371 49.1518 56.1433 48.4774 56.5902C47.9056 56.9688 47.677 56.4651 47.8825 55.28C48.1338 53.8313 48.9601 52.7099 49.3908 53.2327ZM43.2736 53.285C43.6272 53.6666 43.2124 55.5354 42.6074 56.2864C42.2221 56.7647 41.7866 56.8208 41.5905 56.4172L41.5223 56.2768L41.6554 55.8127C42.1297 54.1595 42.9283 52.9122 43.2736 53.285Z" fill="white"/>
<path fill-rule="evenodd" clip-rule="evenodd" d="M45.1628 1.43359L46.5961 2.86718L45.9286 2.87679C45.5616 2.88191 48.3747 2.88966 52.1801 2.89369L59.0988 2.90113L59.1062 9.81985C59.1103 13.6252 59.118 16.4383 59.1231 16.0713L59.1327 15.4039L60.5663 16.8371L61.9999 18.2704V9.13521V0H52.8647H43.7295L45.1628 1.43359Z" fill="white"/>
<path fill-rule="evenodd" clip-rule="evenodd" d="M14.7665 40.0374V44.2994H7.38325H0V53.1496V61.9998H8.85017H17.7003V54.6165V47.2333H21.9624H26.2244L24.7657 45.7746L23.307 44.3159L20.5055 44.3056L17.7042 44.2956L17.6941 41.4943L17.6839 38.6928L16.2252 37.2341L14.7665 35.7754V40.0374ZM14.7665 53.1659V59.0986H8.83389H2.90113V53.1659V47.2333H8.83389H14.7665V53.1659Z" fill="white"/>
<path fill-rule="evenodd" clip-rule="evenodd" d="M14.7666 20.4067V35.7762L16.2158 37.2251L17.6649 38.674L17.6764 38.8712C17.6826 38.9795 17.6907 32.0712 17.6941 23.5193L17.7004 7.97032L16.2335 6.50372L14.7666 5.03711V20.4067ZM23.1293 44.3241L23.3265 44.3356L24.7754 45.7846L26.2243 47.2339H41.5938H56.9634L55.4968 45.767L54.0302 44.3001L38.4812 44.3064C29.9293 44.3098 23.021 44.3179 23.1293 44.3241Z" fill="white"/>
</svg>
