<svg width="100" height="100" viewBox="0 0 100 100" fill="none" xmlns="http://www.w3.org/2000/svg">
<path d="M49.9436 99.1535C76.9752 99.1535 98.9277 77.2009 98.9277 50.1693C98.9277 23.1377 76.9752 1.18506 49.9436 1.18506C22.9119 1.18506 0.959351 23.1377 0.959351 50.1693C0.959351 77.2573 22.9119 99.1535 49.9436 99.1535Z" fill="#83BB26"/>
<path d="M57.7314 12.3022C58.2957 11.9072 58.9729 11.8508 59.6501 11.9072C58.6907 13.4873 59.3679 15.4061 59.0858 17.1555C58.9165 21.5573 58.0135 26.0156 55.8126 29.7966C55.2483 30.756 54.684 31.7718 54.0632 32.7311C52.7088 34.5934 51.6366 36.6815 50.3386 38.6002C49.2099 40.5189 47.9684 42.3812 46.8397 44.3C45.1467 46.8395 43.623 49.5483 41.7607 51.9749C40.9706 53.2165 39.7855 54.1194 38.6569 54.9659C38.149 55.3609 37.5846 55.8688 36.9074 55.8688C35.6659 55.8688 34.5937 55.0788 33.6907 54.2323C33.3521 53.7244 33.07 53.1036 32.8442 52.5393C33.9165 52.2571 34.9887 51.9185 36.0045 51.4106C36.2302 52.4264 36.5124 53.4986 37.0767 54.3451C37.5282 52.0314 38.0361 49.6047 39.5034 47.686C41.0271 45.4286 42.325 43.002 43.7923 40.6882C46.5011 36.0043 49.9436 31.6025 53.2167 27.0878C55.7562 23.6454 56.6591 19.3564 57.3363 15.1803C57.4492 14.221 57.5056 13.2616 57.7314 12.3022Z" fill="white"/>
<path d="M15.8578 53.273C19.8646 52.2572 23.9278 51.5235 28.0474 51.0721C28.386 51.0721 28.781 50.9592 28.9503 51.3542C29.4018 52.1443 29.8533 52.9908 30.2483 53.7809C26.3544 54.7402 22.4605 55.5867 18.623 56.4897C17.8329 56.659 17.3815 57.3926 17.1557 58.1262C16.7043 59.3678 16.8171 60.6657 16.8171 61.9073C16.8171 63.2052 17.0429 64.4468 17.2122 65.7447C17.6072 68.51 18.1715 71.2188 18.8487 73.9276C18.7923 73.8147 18.7359 73.7583 18.6794 73.6454C17.1557 68.8486 15.6885 64.1082 14.3905 59.2549C13.939 57.5619 13.4876 55.8689 13.2618 54.1195C14.0519 53.7244 14.9548 53.4987 15.8578 53.273Z" fill="white"/>
<path d="M64.5598 67.2121C64.447 67.72 64.9549 68.1151 65.237 68.3972C66.4221 69.4695 67.6072 70.4853 68.9616 71.2753C69.4131 71.5011 69.921 71.3882 70.3725 71.3318C72.7427 71.0496 75.0564 70.5981 77.3138 69.9774C78.3296 69.3566 78.8939 68.0022 78.5553 66.8171C78.4424 66.7607 78.2731 66.8171 78.1603 66.8171C76.1287 67.2686 74.0971 67.6072 72.0655 67.8893C71.219 68.0022 70.316 68.1151 69.526 67.7765C67.9458 67.1557 66.5914 66.027 65.237 65.0112C64.7291 65.632 64.6727 66.4221 64.5598 67.2121ZM65.7449 58.7471C65.2935 59.0293 65.237 59.5936 65.1242 60.0451C65.0677 60.553 64.9549 61.1173 65.4063 61.5124C66.7043 62.8103 68.1151 64.0519 69.7517 65.0112C70.2032 65.2934 70.7111 65.4627 71.2754 65.3498C74.605 64.8984 77.9345 64.2776 81.2077 63.3747C81.6591 63.2054 82.3364 63.1489 82.4492 62.5846C82.6185 61.6817 82.6185 60.7223 82.3363 59.8194C82.1106 59.4243 81.7156 59.0293 81.2641 58.9164C78.386 59.7065 75.4515 60.4966 72.4605 60.8916C71.7833 60.948 71.1061 60.948 70.3725 60.8916C68.9052 60.6094 67.6072 59.8758 66.3657 59.0293C66.1964 58.9164 66.0271 58.6343 65.7449 58.7471ZM27.991 51.0158C23.8713 51.4672 19.8081 52.2009 15.8014 53.2167C14.8984 53.4424 13.9955 53.6681 13.149 54.0632C13.4312 55.8126 13.8826 57.5056 14.2777 59.1986C15.5756 64.0519 17.0429 68.8487 18.5666 73.5891C19.0181 75.395 19.6953 77.1444 20.2596 78.8939C20.8239 80.2483 21.219 81.7155 22.1783 82.8442C22.4605 83.2392 22.9684 83.2957 23.4199 83.0699C26.1851 82.1106 28.8939 80.869 31.5463 79.5711C33.2957 78.7246 34.9887 77.8781 36.6253 76.8058C36.5689 75.2257 36.2867 73.702 36.061 72.1783C34.8194 64.8419 32.5057 57.6749 28.8939 51.1286C28.781 50.79 28.3296 51.0158 27.991 51.0158ZM72.3476 53.1602C71.7833 53.2731 71.219 53.3295 70.7111 53.2167C69.1309 52.8781 67.6637 52.3137 66.2528 51.6365C66.14 51.8058 65.9707 51.9751 65.9707 52.2009C65.8578 53.0474 65.7449 53.8939 65.6885 54.6839C65.6321 55.0225 65.9707 55.2483 66.1964 55.474C67.3815 56.4898 68.6795 57.3363 70.0903 57.9571C71.219 58.465 72.4605 58.1828 73.5892 57.9571C76.6366 57.3363 79.7404 56.5462 82.675 55.5304C82.9571 55.4176 83.465 55.3611 83.4086 54.9661C83.465 54.0632 83.465 53.1038 83.2393 52.2573C83.1264 51.5237 82.3928 51.1286 81.9413 50.6207C78.781 51.5801 75.6208 52.5395 72.3476 53.1602ZM57.7314 12.3024C57.5621 13.2618 57.4492 14.2776 57.2799 15.237C56.6591 19.3566 55.6998 23.6455 53.1603 27.1444C49.9436 31.6591 46.5011 36.0609 43.623 40.8013C42.2122 43.1151 40.9142 45.5417 39.3341 47.799C37.8668 49.7178 37.3589 52.1444 36.9075 54.4582C36.3431 53.5553 36.061 52.5395 35.8352 51.5237C34.8194 52.0316 33.7472 52.3137 32.675 52.6523C32.9007 53.2167 33.1264 53.8374 33.5215 54.3453C33.5779 54.7968 33.8036 55.1918 34.0294 55.6433C36.3431 61.0045 37.8668 66.6478 38.8262 72.404C38.9955 71.1625 39.447 70.0338 40.0677 68.9616C40.0677 70.0902 39.9549 71.3318 40.4628 72.3476C41.0271 73.702 42.4944 74.4921 43.9052 74.7742C45.4289 75.1128 46.8962 75.4514 48.4763 75.6207C52.5959 75.79 56.5463 74.0406 59.9887 72.009C61.061 71.3882 62.0768 70.711 63.3183 70.4853C62.754 69.8081 61.9639 69.1309 61.851 68.1715C61.6817 66.4221 62.0768 64.6162 63.2054 63.2618C62.9233 62.7539 62.4718 62.3589 62.4154 61.7381C62.2461 60.1015 62.4718 58.2392 63.6569 56.9977C62.4718 55.7562 63.0361 53.8939 63.149 52.3702C63.0926 51.5801 63.4876 50.9029 63.8262 50.2257C63.149 49.5485 62.754 48.5891 62.8104 47.6297C62.754 46.3318 62.9797 45.0902 63.4312 43.9051C63.6569 43.3408 63.9391 42.7765 64.3905 42.3814C64.842 41.93 65.5192 41.8735 66.14 41.93C67.2122 41.9864 68.228 42.2121 69.2438 42.4379C69.4131 42.4379 69.6388 42.5507 69.7517 42.3814C70.316 41.6478 70.9368 40.8013 71.8397 40.4627C71.7269 41.1963 71.4447 41.8735 71.3883 42.6072C72.5169 42.4379 73.6456 42.1557 74.7743 41.7607C74.7743 41.5349 74.7178 41.2528 74.7178 41.027C75.5643 41.0835 76.4108 41.5349 76.9187 42.2121C77.2009 42.5507 77.3702 43.1715 76.9187 43.3972C75.9594 44.018 74.8871 44.3002 73.8149 44.6952C72.7991 45.0338 71.7833 45.4288 70.6546 45.4288C69.0745 45.3724 67.6072 44.8081 66.0835 44.6952C65.5756 45.7674 65.5192 47.009 65.6321 48.1941C65.7449 48.5327 66.0835 48.702 66.3657 48.9277C67.4944 49.6049 68.7359 50.1128 70.0339 50.5643C70.5418 50.7336 71.1061 50.9593 71.6704 50.8465C74.2099 50.3386 76.6366 49.6614 79.1196 48.9277C80.474 48.4198 81.8849 48.0248 83.1264 47.3476C83.465 47.1783 83.5779 46.8397 83.6343 46.5011C83.7472 45.0338 83.4086 43.5101 82.675 42.2121C82.3364 41.5349 81.7156 41.1963 81.0384 40.8577C79.1197 40.0112 77.088 39.4469 75 39.2212C70.4853 38.7697 65.9707 38.544 61.3996 38.2054C61.1738 39.0519 61.3431 39.9548 61.456 40.8013C60.1016 40.8577 59.2551 39.3905 59.1422 38.2054C59.0294 37.0203 59.3115 35.8916 59.5937 34.7629C60.2709 32.2234 61.1174 29.7404 61.9075 27.2009C62.3025 25.9593 62.4718 24.7178 62.6411 23.4198C62.754 20.4288 62.8104 17.325 61.6253 14.5598C61.2303 13.6004 60.5531 12.641 59.5937 12.1896C58.9729 11.7945 58.2957 11.851 57.7314 12.3024ZM57.2235 9.48076C58.0136 9.08573 58.9729 9.14216 59.8194 9.1986C61.1738 9.42433 62.3025 10.2708 63.0926 11.3431C64.1084 12.7539 64.7291 14.3905 65.0677 16.0835C65.8014 19.9209 65.6885 23.9277 64.6163 27.6523C63.8262 30.1918 62.9797 32.7878 62.1896 35.3273C66.535 35.553 70.8239 35.8352 75.1693 36.1738C77.088 36.3995 78.9503 36.851 80.7562 37.4717C82.3364 38.0925 84.1422 38.7697 85.0452 40.3498C86.1738 42.2121 86.6817 44.4695 86.3996 46.6704C86.2303 47.6297 85.7788 48.5891 84.9323 49.097C84.8194 49.2099 84.5937 49.3228 84.763 49.4356C86.1174 50.79 86.1738 52.8781 86.1738 54.7404C86.1738 55.9819 85.5531 57.3363 84.3115 57.7313C85.158 58.8036 85.2709 60.2708 85.2709 61.6252C85.3273 62.7539 84.9887 63.9954 84.1987 64.8419C83.4086 65.632 82.2799 65.8013 81.2641 66.1399C81.377 67.2121 81.4899 68.3408 81.0384 69.413C80.4741 70.8239 79.4583 72.2912 77.9345 72.6862C75.6772 73.307 73.3634 73.7584 70.9932 74.0406C70.0339 74.097 69.0745 74.2663 68.1716 73.9277C67.4944 73.5891 66.8172 73.1941 66.1964 72.7426C65.9707 72.5169 65.6885 72.6862 65.4628 72.7426C64.6727 72.9683 63.8826 73.0248 63.149 73.3069C62.4154 73.702 61.6817 74.1535 60.9481 74.6049C57.2235 76.7494 53.1038 78.4424 48.7585 78.3295C47.9684 78.386 47.2348 78.1602 46.4447 78.1038C46.5011 78.1038 46.5576 78.0474 46.5576 78.0474C44.1309 77.7652 41.8736 76.9187 39.447 76.5801C39.447 77.088 39.5598 77.6523 39.2777 78.1602C38.7133 78.9503 37.8104 79.4018 37.0203 79.9097C33.5215 81.8848 29.8533 83.6343 26.0722 85.1015C24.7178 85.6094 23.3634 86.1173 21.9526 86.4559C21.1061 86.6817 20.5418 85.8916 20.1467 85.2708C19.1874 83.86 18.5666 82.2799 18.0023 80.6997C16.2528 75.8465 14.6727 70.8803 13.149 65.9142C12.2461 62.8668 11.3431 59.8194 10.6659 56.6591C10.3838 55.3047 10.1016 53.9503 10.158 52.5959C11.7946 51.4672 13.8262 51.0722 15.6885 50.5079C19.0745 49.6614 22.5734 49.0406 26.0722 48.5327C27.3702 48.3634 28.6117 48.1941 29.9097 48.3634C30.7562 48.5891 30.9819 49.4921 31.4334 50.1128C32.3928 49.8307 33.4086 49.6049 34.368 49.2099C35.3273 48.8713 35.8917 47.9683 36.456 47.2347C38.3747 44.4695 39.8984 41.4785 41.7607 38.7133C44.3002 34.6501 47.1783 30.8126 50 26.9751C50.9029 25.7336 51.8623 24.4921 52.4831 23.0812C54.0632 19.5823 54.5147 15.8013 55.079 12.0767C55.079 10.8352 56.1512 9.93223 57.2235 9.48076Z" fill="#27385A"/>
<path d="M37.4718 56.8286C37.8104 57.1672 38.0926 57.6187 38.3747 58.0137C40.1806 60.2146 42.833 61.6819 45.5982 62.0205C49.7179 62.6413 53.8375 61.4562 57.5621 59.7632C55.1919 62.4155 51.8623 64.165 48.307 64.5036C46.8397 64.56 45.316 64.6164 43.8488 64.2778C42.0429 63.8264 40.237 62.9799 39.0519 61.4562C38.0361 60.1018 37.4718 58.4652 37.4718 56.8286Z" fill="#27385A"/>
<path d="M32.7878 72.7427C33.2393 72.7427 33.6907 73.0248 33.86 73.4763C34.3115 74.4921 33.9165 75.7336 33.1264 76.4673C32.6185 76.9752 31.5463 76.9752 31.2077 76.298C30.474 74.9436 31.2641 72.9684 32.7878 72.7427Z" fill="#27385A"/>
<path d="M37.4718 56.8282C37.4718 58.4648 38.0361 60.1578 39.1083 61.4558C40.2934 62.923 42.0993 63.826 43.9052 64.2774C45.3724 64.616 46.8397 64.5596 48.3634 64.5032C51.8623 64.1646 55.2483 62.4151 57.6185 59.7628C53.8939 61.4558 49.7742 62.6409 45.6546 62.0201C42.8329 61.6815 40.1806 60.2142 38.4311 58.0133C38.0925 57.6183 37.8104 57.1668 37.4718 56.8282ZM59.6501 11.9072C60.6094 12.3587 61.2866 13.3181 61.6817 14.2774C62.8668 17.0991 62.8104 20.1465 62.6975 23.1375C62.5846 24.4354 62.3589 25.677 61.9639 26.9185C61.1738 29.4016 60.3273 31.9411 59.6501 34.4806C59.3679 35.6093 59.0857 36.7379 59.1986 37.923C59.3115 39.1081 60.158 40.5754 61.5124 40.519C61.3995 39.6725 61.2302 38.7695 61.4559 37.923C65.9706 38.2616 70.4853 38.4874 75.0564 38.9388C77.1444 39.221 79.176 39.7289 81.0948 40.5754C81.7155 40.8576 82.3927 41.2526 82.7313 41.9298C83.4086 43.2278 83.8036 44.7515 83.6907 46.2187C83.6343 46.5573 83.5214 46.8959 83.1828 47.0652C81.9413 47.7424 80.5304 48.1939 79.176 48.6454C76.7494 49.379 74.2663 50.1126 71.7268 50.5641C71.1625 50.677 70.6546 50.4512 70.0903 50.2819C68.8487 49.8869 67.6072 49.3226 66.4221 48.6454C66.1399 48.4196 65.8013 48.2503 65.6885 47.9117C65.5756 46.7266 65.6885 45.5415 66.1399 44.4129C67.6636 44.5257 69.1873 45.0336 70.711 45.1465C71.7833 45.1465 72.7991 44.7515 73.8713 44.4129C74.9435 44.0178 76.0158 43.6792 76.9751 43.1149C77.4266 42.8892 77.2573 42.2684 76.9751 41.9298C76.4108 41.2526 75.6207 40.8011 74.7742 40.8011C74.7742 41.0269 74.8307 41.309 74.8307 41.5348C73.7584 41.8734 72.6298 42.212 71.4447 42.3813C71.5011 41.6476 71.7833 40.9704 71.8961 40.2368C70.9932 40.5754 70.3724 41.4219 69.8081 42.1555C69.6952 42.3248 69.4695 42.2684 69.3002 42.212C68.2844 41.9862 67.2686 41.7605 66.1964 41.7041C65.5756 41.7041 64.8984 41.7605 64.4469 42.1555C63.9955 42.5506 63.7133 43.1149 63.4876 43.6792C63.0361 44.8643 62.8104 46.1623 62.8668 47.4038C62.8668 48.3632 63.2054 49.3226 63.8826 49.9998C63.544 50.677 63.149 51.3542 63.2054 52.1442C63.0925 53.6679 62.5282 55.5303 63.7133 56.7718C62.5282 58.0133 62.246 59.8756 62.4717 61.5122C62.5282 62.133 62.9797 62.528 63.2618 63.0359C62.1896 64.3903 61.7381 66.2526 61.9074 67.9456C62.0203 68.905 62.8104 69.5257 63.3747 70.2029C62.1332 70.4287 61.1173 71.1623 60.0451 71.7266C56.5462 73.8147 52.6523 75.5077 48.5327 75.3384C47.009 75.2255 45.4853 74.8869 43.9616 74.4919C42.5508 74.1533 41.1399 73.4196 40.5192 72.0652C40.0113 70.993 40.1241 69.8079 40.1241 68.6792C39.5034 69.7515 38.9955 70.8801 38.8826 72.1217C37.9232 66.3655 36.3995 60.7221 34.0857 55.361C33.9164 54.9659 33.6907 54.5145 33.6343 54.063C34.5372 54.8531 35.6094 55.6996 36.851 55.6996C37.5846 55.756 38.0925 55.1917 38.6004 54.7966C39.7855 53.9501 40.9706 53.0472 41.7043 51.8056C43.5666 49.3226 45.0903 46.6702 46.7833 44.1307C47.9119 42.212 49.1535 40.3497 50.2821 38.4309C51.5801 36.5122 52.6523 34.4242 54.0067 32.5619C54.6275 31.6025 55.1354 30.5867 55.7562 29.6273C57.9571 25.7898 58.86 21.3316 59.0293 16.9862C59.3115 15.4061 58.6907 13.4874 59.6501 11.9072Z" fill="#FFD525"/>
<path d="M72.3477 53.1602C75.6208 52.5394 78.7811 51.58 81.8849 50.5078C82.3928 51.0157 83.07 51.4107 83.1829 52.1444C83.4086 53.0473 83.4086 53.9502 83.3522 54.8532C83.3522 55.2482 82.8443 55.3047 82.6186 55.4175C79.684 56.4898 76.5802 57.2234 73.5328 57.8442C72.4041 58.0699 71.1061 58.3521 70.0339 57.8442C68.6231 57.2234 67.3251 56.3769 66.14 55.3611C65.9143 55.1354 65.5757 54.9096 65.6321 54.571C65.6885 53.7245 65.8014 52.878 65.9143 52.0879C65.9143 51.8622 66.0836 51.6929 66.1964 51.5236C67.6073 52.2008 69.131 52.8216 70.6547 53.1037C71.219 53.3295 71.7833 53.273 72.3477 53.1602Z" fill="#FFD525"/>
<path d="M65.7449 58.7473C65.9706 58.6345 66.1963 58.9166 66.3656 59.0295C67.6072 59.876 68.9051 60.6096 70.3724 60.8918C71.0496 61.0047 71.7268 60.9482 72.4605 60.8918C75.4514 60.4968 78.3295 59.6503 81.2641 58.9166C81.7155 59.0295 82.1106 59.4245 82.3363 59.8196C82.6185 60.7225 82.6185 61.6819 82.4492 62.5848C82.3363 63.1491 81.6591 63.2056 81.2076 63.3749C77.9345 64.2778 74.6049 64.8986 71.2754 65.3501C70.711 65.4629 70.2031 65.2936 69.7517 65.0115C68.1715 64.0521 66.7042 62.867 65.4063 61.5126C64.9548 61.174 65.1241 60.5532 65.1241 60.0453C65.237 59.5938 65.3498 59.0295 65.7449 58.7473Z" fill="#FFD525"/>
<path d="M64.5598 67.2123C64.6727 66.4787 64.7291 65.6886 65.237 65.0679C66.5914 66.0837 67.8894 67.2123 69.5259 67.8331C70.316 68.1717 71.2189 68.0588 72.0654 67.946C74.097 67.7202 76.1286 67.3252 78.1602 66.8737C78.2731 66.8737 78.4424 66.7609 78.5553 66.8737C78.8939 68.0588 78.2731 69.4132 77.3137 70.034C75.0564 70.7112 72.6862 71.1062 70.3724 71.3884C69.921 71.4448 69.3566 71.5577 68.9616 71.332C67.6072 70.5419 66.4221 69.4697 65.237 68.4539C64.8984 68.0588 64.4469 67.7202 64.5598 67.2123Z" fill="#FFD525"/>
<path d="M32.7878 72.7424C31.2641 72.9682 30.474 74.9433 31.1512 76.2413C31.4898 76.9749 32.5621 76.9185 33.07 76.4106C33.86 75.677 34.3115 74.4354 33.8036 73.4196C33.6907 73.0246 33.2393 72.7424 32.7878 72.7424ZM27.991 51.0156C28.3296 50.9591 28.781 50.7334 28.9503 51.1849C32.5621 57.7311 34.8194 64.8982 36.1174 72.2345C36.3431 73.7582 36.6253 75.3384 36.6817 76.8621C35.0451 77.9343 33.2957 78.7808 31.6027 79.6273C28.9503 80.9253 26.2415 82.1104 23.4763 83.1262C23.0813 83.3519 22.5734 83.2955 22.2348 82.9004C21.2754 81.7718 20.8803 80.3045 20.316 78.9501C19.7517 77.2007 19.018 75.4512 18.623 73.6454C18.6794 73.7582 18.7359 73.8147 18.7923 73.9275C18.1715 71.2187 17.6072 68.5099 17.1557 65.7447C16.9864 64.4467 16.7607 63.2052 16.7607 61.9072C16.7607 60.6092 16.6478 59.3113 17.0993 58.1262C17.2686 57.3925 17.7765 56.6589 18.5666 56.4896C22.4605 55.5867 26.3544 54.7402 30.1919 53.7808C29.7968 52.9343 29.3454 52.1442 28.8939 51.3542C28.781 50.9591 28.3296 51.072 27.991 51.0156Z" fill="#1DBADF"/>
</svg>
