<svg width="25" height="24" viewBox="0 0 25 24" fill="none" xmlns="http://www.w3.org/2000/svg">
<g clip-path="url(#clip0_232_20342)">
<path d="M23.8137 6.91925C23.767 6.41316 23.855 5.89692 23.8042 5.38948C23.6741 4.09073 23.0299 2.79673 22.1105 1.87806C20.6498 0.417394 19.0205 0.307641 17.1086 0.214826C16.8302 0.201276 16.5795 0.0535834 16.2956 0.0400337C14.4759 -0.0493947 12.6304 0.0373237 10.808 0.0373237H8.23352C7.78977 0.0373237 7.32027 -0.00671299 6.98423 0.344226C6.58181 0.763591 6.74305 1.60571 6.74305 2.13754V6.67738H2.34006C1.76351 6.67738 0.953916 6.53647 0.455285 6.89011C-0.183586 7.34403 0.0365979 8.50863 0.0365979 9.18409V14.9427C0.0365979 15.5891 -0.152421 16.5999 0.389569 17.0822C0.826548 17.4711 1.6646 17.3139 2.20456 17.3139H6.74373V21.7854C6.74373 22.3158 6.58248 23.1607 6.92326 23.6078C7.35211 24.1701 8.42525 23.9533 9.04718 23.9533H14.8736C15.5179 23.9533 16.6899 24.1884 17.133 23.6078C17.4738 23.1613 17.3125 22.3165 17.3125 21.7854V17.3139H21.8517C22.4045 17.3139 23.2168 17.4664 23.6667 17.0728C24.0203 16.7631 24.0197 16.2544 24.0197 15.8235V13.1813C24.0197 11.0736 24.0054 8.99304 23.8137 6.91992V6.91925ZM22.0549 15.3486H17.5835C17.0029 15.3486 16.2258 15.207 15.7611 15.6345C15.2421 16.1128 15.3478 16.8797 15.3478 17.5165V22.0557H8.64069V17.5165C8.64069 16.9339 8.78974 16.1554 8.35547 15.6947C7.9002 15.2124 7.14073 15.3486 6.54048 15.3486H2.00131V8.6421H6.54048C7.15361 8.6421 7.89274 8.78098 8.36089 8.2959C8.79584 7.84537 8.64069 7.04932 8.64069 6.47414V2.00272H13.5186C13.2862 2.51015 12.8553 2.9241 12.5918 3.42544C12.0776 4.40306 11.8655 5.57985 11.9719 6.67738C12.2517 9.56619 14.9881 12.2606 17.99 12.0912C19.6289 11.9984 20.7501 11.3121 22.0549 10.4036V15.3492V15.3486ZM18.6675 10.5086C14.0572 11.2342 11.3967 4.88678 15.4833 2.34553C16.0063 2.02033 16.5673 1.78863 17.177 1.6931C17.801 1.59555 18.5361 1.62129 19.1417 1.8015C23.538 3.10634 23.3198 9.77689 18.6675 10.5093V10.5086Z" fill="white"/>
<path d="M17.177 5.39007C16.7041 5.39007 15.984 5.2566 15.5538 5.4795C15.0646 5.73288 15.0646 6.46998 15.5538 6.72336C15.984 6.94626 16.7035 6.81279 17.177 6.81279C17.177 7.32023 17.0449 8.05191 17.3186 8.5038C17.5774 8.93061 18.2664 8.95636 18.5198 8.49973C18.7522 8.08105 18.5998 7.28297 18.5998 6.81347C19.0936 6.81347 19.8436 6.95303 20.2908 6.71455C20.7494 6.46998 20.7494 5.73423 20.2908 5.48898C19.8436 5.2505 19.0936 5.39007 18.5998 5.39007C18.5998 4.92057 18.7529 4.12249 18.5198 3.70312C18.2657 3.2465 17.5774 3.27224 17.3186 3.69906C17.0449 4.15094 17.177 4.88263 17.177 5.39007Z" fill="white"/>
</g>
<defs>
<clipPath id="clip0_232_20342">
<rect width="24.0196" height="24" fill="white"/>
</clipPath>
</defs>
</svg>
