<svg width="25" height="24" viewBox="0 0 25 24" fill="none" xmlns="http://www.w3.org/2000/svg">
<path d="M23.9621 9.18743C23.9621 8.53651 24.1633 7.49342 23.6553 6.98813C23.3058 6.64133 22.7172 6.74903 22.2688 6.74903H18.8144C18.4689 6.74903 17.6263 6.90143 17.3649 6.64065C17.1115 6.38733 17.2565 5.5935 17.2565 5.25889V2.21089C17.2565 1.74285 17.3432 1.17592 17.228 0.720751C17.1122 0.262195 16.6767 0.0556083 16.2405 0.0440936C13.9186 -0.0175438 11.5865 0.042739 9.26393 0.042739C8.5385 0.042739 7.26511 -0.213294 6.81604 0.518228C6.58168 0.900244 6.69005 1.50985 6.69005 1.93928V5.12275C6.69005 5.47158 6.86007 6.46048 6.53291 6.67859C6.23353 6.8784 5.54875 6.74835 5.19992 6.74835H1.88098C1.36553 6.74835 0.657033 6.60747 0.270952 7.02674C-0.16051 7.49545 0.0521728 8.59002 0.0521728 9.18676V14.8764C0.0521728 15.511 -0.185572 16.7031 0.397614 17.1319C0.855492 17.4685 1.68252 17.3148 2.21964 17.3148H6.69005V21.7852C6.69005 22.3155 6.52885 23.1602 6.86955 23.6072C7.31253 24.1877 8.48432 23.9526 9.12846 23.9526H14.9535C15.5421 23.9526 16.5947 24.1606 17.0269 23.6729C17.4177 23.2326 17.2565 22.3988 17.2565 21.8529V17.3148H21.7269C22.2667 17.3148 23.0931 17.4712 23.553 17.1353C24.1795 16.6767 23.9621 15.5523 23.9621 14.8764V9.18676V9.18743ZM21.9978 15.3512H17.4597C16.8582 15.3512 16.1084 15.2279 15.6451 15.7027C15.2069 16.1525 15.3599 16.9436 15.3599 17.5186V22.0568H8.65433V17.5186C8.65433 16.9131 8.77625 16.1667 8.30821 15.6973C7.83475 15.2218 7.09917 15.3512 6.48685 15.3512H1.94871V8.64557H6.48685C7.06936 8.64557 7.84491 8.79593 8.30144 8.35228C8.76744 7.89914 8.65433 7.13443 8.65433 6.54583V2.00769H15.3599V6.54583C15.3599 7.11885 15.2048 7.90998 15.6532 8.3516C16.1009 8.79255 16.8867 8.64557 17.4597 8.64557H21.9978V15.3512Z" fill="white"/>
</svg>
