<svg width="28" height="24" viewBox="0 0 28 24" fill="none" xmlns="http://www.w3.org/2000/svg">
<path d="M26.7205 4.45968C26.3442 3.65683 25.8509 2.92255 25.2404 2.27748C22.9993 -0.0916374 19.2721 -0.578932 16.3914 0.805883C15.6687 1.1536 15.0145 1.65061 14.4495 2.21497C14.2778 2.38671 13.9355 2.88007 13.6606 2.84427C13.4312 2.81392 13.2061 2.48866 13.0538 2.33634C12.6557 1.93825 12.2515 1.57415 11.7794 1.26466C10.3558 0.333152 8.50854 -0.176595 6.80331 0.0558254C5.56293 0.224528 4.3899 0.578924 3.34431 1.28893C0.249417 3.39042 -0.893873 7.57885 0.750669 10.9529C1.41273 12.3116 2.53539 13.2996 3.58705 14.3512L8.07768 18.8418L12.0222 22.7863C12.5483 23.3125 13.069 24.1038 13.9034 23.9885C14.5126 23.9041 15.0691 23.077 15.4812 22.665L19.1222 19.0239L23.6128 14.5333C24.5723 13.5738 25.6245 12.6697 26.3315 11.4991C27.5786 9.43397 27.7485 6.6516 26.7211 4.45968H26.7205ZM25.1063 9.07168C24.6069 11.0112 22.9053 12.3274 21.549 13.6837L13.7207 21.512H13.66L6.0745 13.9264C4.83108 12.683 3.15437 11.4226 2.49777 9.73921C1.08504 6.11515 3.71631 1.99772 7.71358 2.09421C10.4189 2.15914 12.078 4.27277 13.8427 6.03747C14.4392 6.634 15.537 8.28157 16.5128 8.00121C17.0996 7.83251 17.4795 7.15588 17.2064 6.58363C16.7938 5.71888 15.7287 5.18061 15.1777 4.399C16.4588 3.11856 17.8011 2.17431 19.6684 2.09542C23.3634 1.93946 25.9965 5.61572 25.1069 9.07168H25.1063Z" fill="white"/>
</svg>
