<svg width="26" height="24" viewBox="0 0 26 24" fill="none" xmlns="http://www.w3.org/2000/svg">
<path d="M4.54476 7.39685C3.97945 7.39685 3.26046 7.27406 2.77161 7.61695C2.24569 7.9861 2.22793 8.59156 2.22793 9.17309V12.185C2.22793 16.5476 4.41656 20.7372 8.40614 22.7458C14.6021 25.8658 22.1434 22.9435 24.5915 16.4325C25.0525 15.2046 25.2418 13.8763 25.2418 12.5711V9.40477C25.2418 8.9221 25.3197 8.35911 25.0332 7.93899C24.4594 7.09798 23.0346 7.39685 22.1526 7.39685H14.0438C13.1054 7.39685 11.4852 7.05782 10.9794 8.0919C10.1515 9.78319 12.2096 9.94536 13.2715 9.94536H19.9903C20.5996 9.94536 22.0028 9.68356 22.5141 10.0249C22.7658 10.1925 22.6932 10.6142 22.6932 10.8721C22.6932 11.598 22.6361 12.3132 22.6176 13.0345C22.5172 16.8773 19.4813 20.273 15.82 21.1835C11.5447 22.247 6.97974 19.7726 5.4267 15.6602C4.72624 13.8037 4.85367 11.8938 4.85367 9.94536C5.35488 9.94536 6.17503 9.78859 6.62681 10.0249C7.58753 10.5269 8.39224 12.8769 9.78774 11.4814C10.8365 10.4327 9.48578 9.20707 8.82471 8.40081C7.28711 6.52418 5.7441 4.65141 4.2204 2.76319C3.5825 1.97161 2.8751 0.701216 1.99316 0.178385C1.06643 -0.371476 -0.211688 0.424741 0.0300344 1.52755C0.257083 2.56317 1.46878 3.58258 2.12136 4.38497C2.9253 5.37426 3.84276 6.3342 4.54553 7.39685H4.54476Z" fill="white"/>
</svg>
