<svg width="34" height="28" viewBox="0 0 34 28" fill="none" xmlns="http://www.w3.org/2000/svg">
<g clip-path="url(#clip0_232_20337)">
<path d="M33.7057 10.5633C33.29 10.667 32.8066 10.6052 32.3817 10.6052H25.1384C24.2272 10.6052 23.2655 10.6908 22.379 10.4404C21.5087 10.1945 20.7728 9.59112 20.0221 9.11466C19.1977 8.59117 18.3779 8.06088 17.5501 7.54305C17.2322 7.34419 16.8086 7.12154 16.8143 6.69606C16.8218 6.10175 17.4633 5.98277 17.8951 6.22922C19.035 6.88019 20.1606 7.96173 21.4018 8.39741C22.1479 8.65915 22.9625 7.88865 22.636 7.1493C22.3376 6.47397 21.208 6.0043 20.5969 5.63038C19.6455 5.04797 18.7033 4.21514 17.5501 4.10693C16.7902 4.03555 16.0727 4.49445 15.4231 4.81228C14.2418 5.39016 13.0386 5.93065 11.8589 6.51193C11.2611 6.80654 10.5178 7.34816 9.8469 7.42181C9.36114 7.47506 8.95068 7.06885 9.07428 6.58275C9.20535 6.06776 9.93428 5.874 10.3643 5.66211L14.1584 3.7925C15.0633 3.34662 15.956 2.87865 16.8603 2.43278C17.315 2.20843 17.8255 1.90419 18.3549 1.94725C19.277 2.0226 20.2394 2.86279 20.9993 3.33473C22.2756 4.12733 23.5719 4.88934 24.851 5.67854C25.6098 6.14707 26.3997 6.75215 27.2654 7.01049C28.4778 7.37252 29.8644 7.20539 31.117 7.20539C31.489 7.20539 32.3139 7.05355 32.6335 7.25978C32.3191 6.55442 31.9575 5.874 31.5516 5.22303C30.3772 5.22757 28.6181 5.5454 27.5528 5.03154C25.4184 4.00212 23.4339 2.51776 21.4018 1.30195C20.252 0.613591 19.2023 -0.155216 17.7801 0.0266461C16.8396 0.147321 15.9704 0.718402 15.1357 1.12915L10.3068 3.50866C9.3962 3.95736 8.22462 4.33355 7.60032 5.16581C6.09876 7.16856 8.14701 10.1123 10.5942 9.26196C12.067 8.75037 13.4059 7.85295 14.8483 7.26204C15.5295 8.76906 16.8379 9.36677 18.1825 10.2461C19.3863 11.033 20.6182 12.0075 22.0341 12.3763C23.354 12.7202 24.8751 12.5309 26.2306 12.5309H34C33.9408 11.863 33.8419 11.2058 33.7057 10.5628V10.5633Z" fill="white"/>
<path d="M23.5282 18.712C22.0347 19.24 20.6809 20.1453 19.2167 20.7464C18.9769 19.1697 16.7125 18.2043 15.48 17.4497C14.4637 16.8271 13.4812 16.0152 12.3183 15.6724C10.8943 15.2526 9.30365 15.4209 7.83429 15.4209H0C0.0569119 16.0939 0.152915 16.7557 0.287434 17.4038H7.89178C9.11567 17.4038 10.5597 17.1982 11.7434 17.542C12.5999 17.7908 13.3651 18.3941 14.1003 18.8768C14.9172 19.4134 15.7433 19.9414 16.5723 20.4603C16.8959 20.6626 17.3771 20.9153 17.2949 21.3697C17.1701 22.0563 16.4855 21.9198 16.0549 21.6558C14.996 21.0065 13.8428 19.9595 12.6632 19.5629C11.9544 19.3244 11.1685 20.1023 11.4565 20.8031C11.7371 21.4864 12.8627 21.9515 13.468 22.322C14.3228 22.8455 15.2144 23.6568 16.2274 23.8364C17.1167 23.9939 17.8755 23.5747 18.6418 23.1968C19.7616 22.645 20.8867 22.0569 22.0335 21.564C22.7228 21.2677 23.5264 20.6331 24.2755 20.5408C24.7618 20.4807 25.1752 20.9657 25.0337 21.4263C24.8826 21.9181 24.1806 22.1107 23.7581 22.3186L20.1365 24.1027L17.3771 25.4624C16.82 25.7366 16.2992 26.0618 15.6525 26.0097C14.7913 25.9406 13.8365 25.0987 13.1231 24.6579C11.7877 23.8324 10.4465 23.0138 9.099 22.2076C8.37812 21.7764 7.66815 21.2286 6.85702 20.9742C5.67107 20.6025 4.23792 20.8025 3.00541 20.8025C2.71222 20.8025 2.18622 20.8875 1.80048 20.8377H1.40383C1.69586 21.4852 2.02928 22.1107 2.39835 22.7124H3.13303C4.13962 22.6688 5.24969 22.5696 6.1666 22.8132C6.73572 22.9645 7.22321 23.3469 7.71874 23.646C8.67877 24.2256 9.63937 24.8052 10.5931 25.3944C11.4703 25.9366 12.3573 26.4646 13.2375 27.0017C14.1153 27.5377 15.0259 28.1093 16.1118 27.9813C17.1799 27.8555 18.0962 27.2884 19.0436 26.8216L23.7575 24.4987C24.6917 24.0387 25.8966 23.6472 26.529 22.7849C27.9834 20.8031 25.9472 17.8553 23.5276 18.7108L23.5282 18.712Z" fill="white"/>
</g>
<defs>
<clipPath id="clip0_232_20337">
<rect width="34" height="28" fill="white"/>
</clipPath>
</defs>
</svg>
