<svg width="47" height="48" viewBox="0 0 47 48" fill="none" xmlns="http://www.w3.org/2000/svg">
<g clip-path="url(#clip0_5500_89664)">
<path d="M23.3045 46.6116C36.1759 46.6116 46.6089 36.1786 46.6089 23.3071C46.6089 10.4357 36.1759 0 23.3045 0C10.433 0 0 10.433 0 23.3045C0 36.1759 10.433 46.6089 23.3045 46.6089" fill="#FFD525"/>
<path d="M9.33741 9.68356C12.4203 9.0283 15.514 10.3227 17.4609 12.8175C15.514 10.3227 12.4203 9.0283 9.33741 9.68356ZM8.96682 9.77218C4.51432 10.9484 1.86914 15.8198 3.0588 20.6537C4.98965 28.4926 11.5932 31.5781 14.0987 31.0464C14.1175 31.0411 14.1363 31.0384 14.1551 31.033C14.1041 31.1243 13.2877 32.5879 14.0531 32.5557C14.1712 32.5503 14.2706 32.5369 14.3512 32.5207C14.421 32.5046 14.4774 32.4885 14.523 32.467L14.6009 32.4241C14.6627 32.3784 14.6895 32.3301 14.7003 32.2871C14.7137 32.3677 14.754 32.4563 14.8668 32.4321C14.9098 32.4214 14.9661 32.3945 15.036 32.3435C15.7422 31.8091 14.2679 31.0813 14.1686 31.033C14.1793 31.0303 14.1927 31.0276 14.2062 31.0249C15.6912 30.6329 18.8493 26.9699 19.5073 21.8621C18.8493 26.9699 15.6912 30.6329 14.2062 31.0249C17.3347 27.2787 18.7151 22.23 17.802 17.9602C17.7268 17.6889 17.6543 17.4096 17.5898 17.1277C16.5452 13.5641 13.7872 10.6772 8.97219 9.77755L8.96682 9.77218ZM5.42738 21.7547C4.80972 21.8863 3.99065 19.558 4.10344 17.4365C4.23234 15.0008 5.41663 13.2311 6.60092 12.9786C6.72177 12.9518 6.84262 12.9437 6.96346 12.9491C8.25517 13.0216 6.23839 14.6382 6.12291 17.2942C6.01818 19.6815 6.28404 20.6966 5.64758 21.5909C5.58045 21.6876 5.50794 21.7386 5.43006 21.7547H5.42738ZM7.72345 25.6406C7.32868 25.7238 6.8265 25.4419 6.51767 24.9289C6.15514 24.3301 6.19005 23.648 6.59824 23.4009C6.65732 23.366 6.71908 23.3418 6.78622 23.3284C7.1783 23.2452 7.68317 23.5271 7.99199 24.04C8.35453 24.6389 8.31962 25.3237 7.91143 25.5681C7.85235 25.603 7.79059 25.6272 7.72345 25.6406Z" fill="#FF2180"/>
<path d="M9.33739 9.6838C9.21386 9.71065 9.09033 9.74019 8.9668 9.77242C13.7818 10.6721 16.5398 13.5616 17.5845 17.1225C17.5307 16.8889 17.4824 16.6526 17.4394 16.4136C17.2165 15.1836 17.2353 13.9671 17.4609 12.8204C15.514 10.3256 12.4203 9.03123 9.33739 9.68648V9.6838ZM17.7966 17.9577C18.7097 22.2276 17.3293 27.2763 14.2008 31.0225C15.6858 30.6304 18.8439 26.9675 19.5019 21.8597C18.8037 20.7345 18.2129 19.4347 17.7966 17.9577Z" fill="#BE2E5F"/>
<path d="M6.77819 23.3206C6.71105 23.334 6.64928 23.3582 6.5902 23.3931C6.18201 23.6402 6.1471 24.3223 6.50964 24.9211C6.82115 25.4341 7.32333 25.716 7.71541 25.6328C7.78255 25.6193 7.84432 25.5952 7.9034 25.5603C8.31159 25.3132 8.3465 24.6311 7.98396 24.0322C7.67245 23.5193 7.17026 23.2373 6.77819 23.3206Z" fill="#FF2180"/>
<path d="M6.59539 12.9706C5.4111 13.223 4.22681 14.99 4.09791 17.4284C3.98512 19.55 4.80418 21.8783 5.42184 21.7467C5.49703 21.7306 5.57223 21.6768 5.63936 21.5829C6.27582 20.6886 6.01264 19.6735 6.11469 17.2861C6.23017 14.6302 8.24964 13.0135 6.95524 12.941C6.8344 12.9357 6.71355 12.9437 6.5927 12.9706" fill="white"/>
<path d="M24.1933 5.58057C27.8402 7.37177 29.7576 10.1029 30.3323 13.0999C30.6895 12.3479 31.3555 12.2163 31.8765 11.6014C30.907 7.79607 27.5958 5.6289 24.1933 5.58057ZM29.4381 20.2405C28.2591 23.0415 26.186 25.6249 23.53 27.4537C23.5354 27.4537 23.5408 27.4537 23.5488 27.4537C24.8244 27.4537 27.7596 25.6383 29.8731 22.3594C29.6824 21.6907 29.5347 20.9817 29.4381 20.2378" fill="#7A9533"/>
<path d="M16.3492 10.9647C15.89 12.0416 15.6188 13.2258 15.5812 14.4773C15.5731 14.7216 15.5704 14.9633 15.5758 15.2023C15.5973 15.487 15.608 15.7743 15.608 16.0617C15.7074 17.5924 16.0162 18.9862 16.4647 20.2322C16.9185 18.9378 17.222 17.5065 17.2864 15.957C17.0125 15.5031 16.9239 14.3752 17.0958 13.1641C16.9346 12.388 16.6822 11.6522 16.3492 10.9674V10.9647ZM28.2539 6.79952C27.7705 6.43699 28.2861 6.73776 27.7329 6.49607C28.2861 6.73776 28.2673 6.78073 28.7507 7.14326L28.2539 6.79952ZM24.1934 5.58301C25.2569 5.59644 25.7027 5.60449 26.6265 6.01C25.7027 5.60449 25.2569 5.59644 24.1934 5.58301C24.1585 5.58301 24.1209 5.58301 24.086 5.58301C20.6809 5.58301 17.7027 7.79046 16.3492 10.9674C16.6822 11.6495 16.9266 12.3316 17.0877 13.1104C17.1575 12.6082 17.2837 12.1436 17.4476 11.6548C18.2049 9.40174 19.7597 8.02947 20.9575 8.02947C21.1132 8.02947 21.2663 8.05364 21.4086 8.10197C22.6332 8.52091 20.2566 9.53601 19.4321 12.0603C18.6909 14.3323 18.6748 15.3796 17.8208 16.0697C17.7349 16.1396 17.657 16.1718 17.5818 16.1718C17.469 16.1718 17.3724 16.0966 17.2891 15.9596C17.222 17.5092 16.9212 18.9432 16.4674 20.2349C18.1136 24.8136 21.6315 27.3917 23.4872 27.4561C23.412 27.5313 22.2331 28.721 22.9796 28.8928C23.13 28.9278 23.2482 28.9412 23.3422 28.9412C23.3771 28.9412 23.4093 28.9412 23.4388 28.9358L23.5275 28.917C23.6107 28.8902 23.6537 28.8472 23.6752 28.8069C23.6671 28.8902 23.6832 28.9922 23.8094 28.9922C23.8524 28.9922 23.9088 28.9815 23.9813 28.9519C24.8031 28.627 23.5785 27.5286 23.4952 27.4561C23.5087 27.4561 23.5194 27.4561 23.5328 27.4561C26.1887 25.6273 28.2646 23.0412 29.4408 20.243C29.2663 18.8841 29.2636 17.4044 29.5053 15.8227C29.653 14.8532 29.9377 13.9402 30.3351 13.1023C29.7604 10.1053 27.843 7.37421 24.1961 5.58301H24.1934ZM31.1327 9.90392C30.9581 9.52258 31.3556 10.2503 31.1327 9.90392C31.3556 10.2503 31.2401 10.0838 31.4147 10.4652L31.1327 9.90392Z" fill="#83BB26"/>
<path d="M38.6975 10.4115C36.3316 9.67837 33.767 10.1134 31.6535 11.4615C31.6831 11.9664 31.6723 12.482 31.6186 13.0003C33.0124 11.773 34.5538 11.3192 35.5367 11.6226C35.7569 11.6898 35.9503 11.7972 36.106 11.9422C37.054 12.8257 34.4679 12.7774 32.6821 14.7458C31.3528 16.2121 30.8184 17.1144 30.0718 17.5414C29.1104 19.2682 27.8858 20.6566 26.5941 21.7361C26.4813 26.2289 28.5035 29.677 30.0825 30.4531C29.9832 30.4907 28.4202 31.095 29.0298 31.5569C29.1963 31.6831 29.3279 31.7529 29.4273 31.7824C29.4353 31.7824 29.4407 31.7878 29.4488 31.7878L29.5401 31.8039C29.6153 31.8093 29.6663 31.7878 29.6985 31.7609C29.6529 31.8388 29.6233 31.9489 29.7764 31.9973C29.8113 32.008 29.8596 32.0161 29.9187 32.0188C30.8022 32.059 30.1336 30.5552 30.0879 30.4558C30.0986 30.4612 30.1094 30.4666 30.1201 30.4719C30.1792 30.4988 30.2464 30.5256 30.3189 30.5471C32.4726 31.2158 39.9087 29.4004 43.3004 22.4102C43.5179 21.959 43.6978 21.5025 43.8429 21.0406C43.7005 21.5025 43.5206 21.959 43.3004 22.4102C39.9087 29.4031 32.4726 31.2185 30.3189 30.5471C30.2464 30.5256 30.1792 30.4988 30.1201 30.4719C39.3501 28.7774 46.6921 19.2413 39.6723 10.7821C39.3501 10.6317 39.0224 10.5055 38.6921 10.4034L38.6975 10.4115ZM28.678 22.2249C28.2591 22.096 28.004 21.5105 28.1007 20.8633C28.2027 20.1705 28.6673 19.6683 29.1399 19.7381C29.1695 19.7435 29.199 19.7489 29.2286 19.7569C29.6475 19.8885 29.9026 20.4713 29.8059 21.1184C29.7039 21.8113 29.2393 22.3135 28.7667 22.2437C28.7371 22.2383 28.7076 22.2329 28.678 22.2222" fill="#1DBADF"/>
<path d="M31.651 11.4614C31.6805 11.9663 31.6698 12.4819 31.6161 13.0002C31.6698 12.4819 31.6805 11.9663 31.651 11.4614ZM29.7765 13.0324C29.1481 13.7145 28.6057 14.5014 28.176 15.3849C27.4778 16.8243 27.04 18.2369 26.8037 19.5876C28.4338 17.6487 29.5107 15.3849 29.7738 13.0351" fill="#1DBADF"/>
<path d="M31.651 11.4614C30.9715 11.8938 30.3405 12.4201 29.7765 13.0324C29.5133 15.3822 28.4338 17.6487 26.8064 19.585C26.6775 20.3235 26.6077 21.0432 26.5916 21.7387C27.8833 20.6565 29.1078 19.2708 30.0692 17.544C29.9135 17.6326 29.7497 17.6998 29.567 17.7481C29.4757 17.7723 29.4005 17.7723 29.3388 17.7535C28.6943 17.5547 29.559 15.1647 31.036 13.5668C31.224 13.3627 31.42 13.1748 31.6161 13.0002C31.6698 12.4819 31.6805 11.9663 31.651 11.4614Z" fill="#1DBADF"/>
<path d="M39.675 10.7876C46.6948 19.2441 39.3501 28.7802 30.1228 30.4774C30.1819 30.5043 30.249 30.5311 30.3215 30.5526C32.4753 31.2213 39.9113 29.4059 43.3031 22.4157C43.5206 21.9645 43.7005 21.508 43.8455 21.0461C45.1238 16.9239 43.432 12.5358 39.6777 10.7903" fill="#558CCD"/>
<path d="M29.2313 19.7677C29.2018 19.7597 29.1749 19.7516 29.1427 19.7462C28.6728 19.6764 28.2082 20.1786 28.1035 20.8714C28.0068 21.5186 28.2619 22.1014 28.6808 22.233C28.7104 22.241 28.7399 22.2491 28.7694 22.2518C29.2394 22.3216 29.704 21.8194 29.8087 21.1266C29.9054 20.4794 29.6503 19.8939 29.2313 19.765" fill="#1DBADF"/>
<path d="M35.534 11.6229C34.5538 11.3167 33.0097 11.7732 31.6159 13.0005C31.5622 13.5215 31.4628 14.0452 31.3178 14.5688C31.291 14.6628 31.2641 14.7568 31.2346 14.8535C31.205 14.9475 31.1755 15.0415 31.1406 15.1355C30.8425 16.0029 30.48 16.8031 30.0691 17.5443C30.8157 17.1173 31.3501 16.215 32.6794 14.7487C34.4652 12.7803 37.0513 12.826 36.1033 11.9451C35.9476 11.8001 35.7542 11.6927 35.534 11.6255" fill="white"/>
<path d="M31.616 13.0005C31.5622 13.5215 31.4629 14.0451 31.3152 14.5688C31.4602 14.0451 31.5596 13.5215 31.616 13.0005Z" fill="#E8F5E8"/>
<path d="M31.6159 13.0005C31.4199 13.175 31.2239 13.363 31.0359 13.5671C29.5589 15.165 28.6942 17.5524 29.3387 17.7538C29.4004 17.7726 29.4756 17.7726 29.5669 17.7484C29.7495 17.7001 29.9134 17.6329 30.0691 17.5443C30.48 16.8058 30.8425 16.0028 31.1406 15.1354C31.1728 15.0414 31.2051 14.9475 31.2346 14.8535C31.2642 14.7595 31.291 14.6655 31.3179 14.5688C31.4629 14.0451 31.5622 13.5215 31.6186 13.0005" fill="white"/>
<path d="M20.7049 46.3509C21.7119 44.4255 16.3786 39.7017 17.861 37.164C18.8707 35.4345 20.1275 37.0216 18.962 37.454C18.1 37.7736 17.297 37.0834 17.05 35.1257C16.8029 33.168 16.1342 31.2103 13.9375 31.3177" stroke="#939CAC" stroke-width="1.5" stroke-linecap="round"/>
<path d="M21.9912 47.7987C18.911 45.8114 24.4753 39.6966 22.2839 35.4697C20.7801 32.5694 21.6448 27.4885 23.7207 27.3408" stroke="#939CAC" stroke-width="1.5" stroke-linecap="round"/>
<path d="M22.0745 46.8318C21.6206 45.814 25.9496 38.8962 27.0023 40.6149C27.5018 41.4313 26.2557 41.904 25.0258 40.8083C23.1809 39.1648 27.4024 36.4954 26.9083 35.5152C26.006 33.7267 24.6552 35.236 25.7912 35.7381C26.6317 36.1087 27.4749 35.4696 27.8402 33.5307C28.2081 31.5918 28.3101 30.5391 30.4988 30.7808" stroke="#939CAC" stroke-width="1.5" stroke-linecap="round"/>
<path d="M21.2796 7.92749C19.91 7.94092 18.1429 9.3481 17.2917 11.6388C17.1064 12.1383 16.9801 12.6646 16.9023 13.1722C16.8136 13.5777 16.7707 14.0853 16.8056 14.5606C16.8136 14.6573 16.7868 15.5435 17.144 16.0027C17.2379 16.1396 17.3507 16.2148 17.4823 16.2148C17.5656 16.2148 17.6569 16.1799 17.7536 16.1101C18.7257 15.4011 18.7364 14.3377 19.5636 12.0282C20.4847 9.45821 23.1997 8.4055 21.7925 7.99463C21.6287 7.94629 21.4568 7.9248 21.2769 7.9248" fill="white"/>
</g>
<defs>
<clipPath id="clip0_5500_89664">
<rect width="46.6116" height="48" fill="white"/>
</clipPath>
</defs>
</svg>
