<svg width="48" height="48" viewBox="0 0 48 48" fill="none" xmlns="http://www.w3.org/2000/svg">
<path d="M24 48C37.2546 48 48 37.2546 48 24C48 10.7454 37.2546 0 24 0C10.7454 0 0 10.7454 0 24C0 37.2546 10.7454 48 24 48Z" fill="#1DBADF"/>
<path d="M29.4833 29.5058C28.698 31.9015 26.4587 33.5487 23.9434 33.6131C21.4342 33.6775 19.0906 32.0579 18.2348 29.7051C18.0968 29.3248 17.7348 29.0702 17.3176 29.1837C16.9495 29.2849 16.6581 29.7174 16.7961 30.1009C17.8912 33.1101 20.7256 35.1315 23.9403 35.1039C27.1305 35.0763 29.9342 32.8984 30.9188 29.9015C31.2195 28.9843 29.7808 28.5947 29.4802 29.5058" fill="#1C1C1C"/>
<path d="M12.7839 28.9535C12.7839 30.2971 11.3207 31.386 9.51091 31.386C7.70109 31.386 6.24097 30.2971 6.24097 28.9535C6.24097 27.61 7.70416 26.521 9.51091 26.521C11.3177 26.521 12.7839 27.61 12.7839 28.9535Z" fill="#FF2180"/>
<path d="M41.4833 28.9535C41.4833 30.2971 40.017 31.386 38.2133 31.386C36.4096 31.386 34.9403 30.2971 34.9403 28.9535C34.9403 27.61 36.4066 26.521 38.2133 26.521C40.0201 26.521 41.4833 27.61 41.4833 28.9535Z" fill="#FF2180"/>
<path d="M16.7839 22.1528C16.2716 22.6743 15.7593 23.1927 15.244 23.7142C14.833 24.1313 14.1704 23.9074 13.9986 23.386C13.4403 21.6988 11.8728 20.5424 10.1029 20.481C8.31762 20.4197 6.63971 21.5639 6.02314 23.2387C5.82682 23.7755 5.2164 23.9626 4.77774 23.5669C4.45259 23.2755 4.2164 22.8982 3.96179 22.5455C3.70106 22.1866 3.44032 21.8307 3.17652 21.4718C2.93725 21.1436 3.1213 20.6406 3.44339 20.4504C3.82069 20.2295 4.2256 20.3921 4.46486 20.7172C4.71026 21.0547 4.95566 21.3921 5.20413 21.7295C5.3483 21.9258 5.49247 22.1252 5.63664 22.3215C5.67345 22.3737 5.71333 22.4258 5.75014 22.478C5.56916 22.2295 5.744 22.4289 5.83296 22.5117C5.41885 22.6221 5.00167 22.7326 4.58756 22.8399C5.44032 20.5148 7.60903 18.9596 10.1029 18.9872C12.5508 19.0148 14.6765 20.6958 15.4373 22.9872C15.0231 22.8767 14.606 22.7663 14.1919 22.659C14.7041 22.1375 15.2164 21.6191 15.7287 21.0976C16.4035 20.4105 17.4587 21.4657 16.7839 22.1528Z" fill="#1C1C1C"/>
<path d="M7.55376 20.1929C7.26848 19.607 6.98321 19.0211 6.69793 18.4322C6.52002 18.0671 6.5967 17.6285 6.9648 17.4138C7.29609 17.2205 7.80836 17.3156 7.98321 17.6806C8.26848 18.2665 8.55376 18.8524 8.83904 19.4414C9.01695 19.8064 8.94026 20.2451 8.57216 20.4598C8.24088 20.653 7.72861 20.5579 7.55069 20.1929" fill="#1C1C1C"/>
<path d="M11.4342 19.656C11.6612 19.0456 11.8882 18.4321 12.1152 17.8216C12.2563 17.4413 12.6152 17.1867 13.0324 17.3002C13.3974 17.4014 13.6949 17.837 13.5538 18.2173L12.8729 20.0517C12.7318 20.4321 12.3729 20.6867 11.9557 20.5732C11.5906 20.4719 11.2931 20.0364 11.4342 19.656Z" fill="#1C1C1C"/>
<path d="M31.9955 21.1009C32.5078 21.6224 33.0201 22.1408 33.5354 22.6623C33.1213 22.7727 32.7041 22.8801 32.29 22.9905C33.063 20.6592 35.1673 19.0764 37.6244 18.9905C40.106 18.9046 42.3023 20.558 43.1397 22.8433C42.7256 22.7328 42.3084 22.6224 41.8943 22.515C41.9648 22.4506 42.1765 22.2083 41.971 22.4905C42.0017 22.4476 42.0323 22.4046 42.063 22.3617C42.2164 22.1531 42.3698 21.9414 42.5201 21.7328C42.7655 21.3954 43.0109 21.058 43.2593 20.7206C43.4986 20.3923 43.9004 20.2328 44.2808 20.4537C44.606 20.6439 44.79 21.1439 44.5477 21.4721C44.2869 21.831 44.0262 22.1868 43.7655 22.5457C43.5078 22.8985 43.2716 23.2727 42.9495 23.5672C42.5109 23.9629 41.9004 23.7727 41.7041 23.239C41.0783 21.5365 39.4188 20.4598 37.6244 20.4813C35.8606 20.5028 34.2777 21.7298 33.7287 23.3862C33.5569 23.9077 32.8912 24.1316 32.4833 23.7144C31.971 23.193 31.4587 22.6746 30.9434 22.1531C30.2685 21.469 31.3207 20.4138 31.9986 21.0979" fill="#1C1C1C"/>
<path d="M38.8852 19.4414C39.1704 18.8555 39.4557 18.2696 39.741 17.6806C39.9189 17.3156 40.4312 17.2205 40.7625 17.4138C41.1336 17.6316 41.2072 18.0671 41.0293 18.4322C40.7441 19.0181 40.4588 19.607 40.1735 20.1929C39.9956 20.5579 39.4833 20.653 39.152 20.4598C38.7809 20.242 38.7072 19.8064 38.8852 19.4414Z" fill="#1C1C1C"/>
<path d="M34.8544 20.0518C34.6274 19.4413 34.4004 18.8278 34.1735 18.2174C34.0323 17.837 34.3268 17.4015 34.6949 17.3002C35.1121 17.1837 35.471 17.4413 35.6121 17.8217C35.8391 18.4321 36.0661 19.0456 36.2931 19.6561C36.4342 20.0364 36.1366 20.472 35.7716 20.5732C35.3544 20.6898 34.9955 20.4321 34.8544 20.0518Z" fill="#1C1C1C"/>
</svg>
