<svg width="100" height="100" viewBox="0 0 100 100" fill="none" xmlns="http://www.w3.org/2000/svg">
<path d="M50 100C77.6138 100 100 77.6138 100 50C100 22.3862 77.6138 0 50 0C22.3862 0 0 22.3862 0 50C0 77.6138 22.3862 100 50 100Z" fill="#FFD525"/>
<path d="M61.4234 61.4688C59.7874 66.4598 55.1223 69.8916 49.882 70.0258C44.6545 70.16 39.7721 66.7858 37.9891 61.8842C37.7015 61.0917 36.9474 60.5613 36.0783 60.7978C35.3114 61.0087 34.7043 61.9097 34.9919 62.7086C37.2734 68.9777 43.1783 73.1891 49.8756 73.1316C56.5218 73.0741 62.3628 68.5368 64.4142 62.2932C65.0405 60.3824 62.0433 59.5708 61.417 61.4688" fill="#1C1C1C"/>
<path d="M26.6331 60.3187C26.6331 63.1178 23.5848 65.3865 19.8143 65.3865C16.0439 65.3865 13.002 63.1178 13.002 60.3187C13.002 57.5196 16.0503 55.251 19.8143 55.251C23.5784 55.251 26.6331 57.5196 26.6331 60.3187Z" fill="#FF2180"/>
<path d="M86.4235 60.3187C86.4235 63.1178 83.3688 65.3865 79.6111 65.3865C75.8535 65.3865 72.7924 63.1178 72.7924 60.3187C72.7924 57.5196 75.8471 55.251 79.6111 55.251C83.3752 55.251 86.4235 57.5196 86.4235 60.3187Z" fill="#FF2180"/>
<path d="M34.9664 46.1505C33.8992 47.2369 32.8319 48.3169 31.7583 49.4033C30.902 50.2725 29.5216 49.806 29.1637 48.7196C28.0007 45.2047 24.7351 42.7955 21.0477 42.6677C17.3284 42.5398 13.8327 44.9235 12.5482 48.4128C12.1392 49.5312 10.8675 49.921 9.95362 49.0966C9.27622 48.4895 8.78415 47.7034 8.25373 46.9685C7.71053 46.2208 7.16733 45.4795 6.61774 44.7318C6.11927 44.048 6.5027 43 7.17372 42.6038C7.95976 42.1436 8.80332 42.4823 9.30178 43.1597C9.81303 43.8627 10.3243 44.5657 10.8419 45.2686C11.1423 45.6776 11.4426 46.093 11.743 46.502C11.8197 46.6107 11.9028 46.7193 11.9794 46.8279C11.6024 46.3103 11.9667 46.7257 12.152 46.8982C11.2893 47.1283 10.4201 47.3584 9.55741 47.582C11.334 42.738 15.8521 39.4979 21.0477 39.5554C26.1474 39.613 30.5761 43.115 32.1609 47.8888C31.2982 47.6587 30.4291 47.4287 29.5664 47.205C30.6336 46.1186 31.7008 45.0386 32.768 43.9522C34.174 42.5207 36.3723 44.719 34.9664 46.1505Z" fill="#1C1C1C"/>
<path d="M15.737 42.0679C15.1427 40.8473 14.5484 39.6267 13.954 38.3997C13.5834 37.6393 13.7432 36.7254 14.51 36.2781C15.2002 35.8755 16.2674 36.0736 16.6317 36.834C17.226 38.0546 17.8204 39.2752 18.4147 40.5022C18.7853 41.2627 18.6256 42.1766 17.8587 42.6239C17.1685 43.0265 16.1013 42.8284 15.7306 42.0679" fill="#1C1C1C"/>
<path d="M23.8212 40.949C24.2941 39.6773 24.767 38.3992 25.2399 37.1275C25.5339 36.335 26.2816 35.8046 27.1507 36.0411C27.9112 36.252 28.5311 37.1594 28.2371 37.9519L26.8184 41.7734C26.5244 42.5659 25.7767 43.0963 24.9076 42.8598C24.1471 42.6489 23.5273 41.7415 23.8212 40.949Z" fill="#1C1C1C"/>
<path d="M66.6574 43.9581C67.7246 45.0445 68.7918 46.1245 69.8654 47.2109C69.0027 47.4409 68.1336 47.6646 67.2709 47.8947C68.8813 43.0378 73.2652 39.7403 78.3841 39.5613C83.5541 39.3824 88.1298 42.8269 89.8744 47.5879C89.0117 47.3579 88.1425 47.1278 87.2798 46.9041C87.4268 46.7699 87.8677 46.2651 87.4396 46.853C87.5035 46.7635 87.5674 46.6741 87.6313 46.5846C87.9508 46.1501 88.2704 45.7091 88.5835 45.2745C89.0947 44.5716 89.606 43.8686 90.1236 43.1656C90.6221 42.4819 91.4593 42.1495 92.2517 42.6097C92.9291 43.0059 93.3125 44.0475 92.8077 44.7313C92.2645 45.479 91.7213 46.2203 91.1781 46.968C90.6413 47.703 90.1492 48.4826 89.4782 49.0961C88.5643 49.9205 87.2926 49.5243 86.8836 48.4123C85.5799 44.8655 82.1226 42.6224 78.3841 42.6672C74.7095 42.7119 71.412 45.2681 70.2681 48.7191C69.9102 49.8055 68.5234 50.272 67.6735 49.4029C66.6062 48.3165 65.539 47.2365 64.4654 46.1501C63.0595 44.725 65.2514 42.5266 66.6638 43.9517" fill="#1C1C1C"/>
<path d="M81.0107 40.5022C81.605 39.2816 82.1993 38.061 82.7937 36.834C83.1643 36.0736 84.2316 35.8755 84.9217 36.2781C85.695 36.7318 85.8484 37.6393 85.4777 38.3997C84.8834 39.6203 84.2891 40.8473 83.6947 42.0679C83.3241 42.8284 82.2569 43.0265 81.5667 42.6239C80.7934 42.1702 80.64 41.2627 81.0107 40.5022Z" fill="#1C1C1C"/>
<path d="M72.6133 41.7737C72.1404 40.5019 71.6675 39.2238 71.1946 37.9521C70.9007 37.1597 71.5142 36.2522 72.281 36.0413C73.1502 35.7985 73.8979 36.3353 74.1918 37.1277C74.6647 38.3994 75.1376 39.6776 75.6105 40.9493C75.9045 41.7417 75.2846 42.6492 74.5241 42.8601C73.655 43.1029 72.9073 42.5661 72.6133 41.7737Z" fill="#1C1C1C"/>
</svg>
